<svg width="20" height="21" viewBox="0 0 20 21" fill="none" xmlns="http://www.w3.org/2000/svg">
<g clip-path="url(#clip0_5_70)">
<path d="M13.9775 0.510009C13.935 0.462509 12.4038 0.528759 11.0713 1.97501C9.73878 3.42001 9.94378 5.07751 9.97378 5.12001C10.0038 5.16251 11.8738 5.22876 13.0675 3.54751C14.2613 1.86626 14.02 0.558759 13.9775 0.510009ZM18.12 15.1763C18.06 15.0563 15.2138 13.6338 15.4788 10.8988C15.7438 8.16376 17.5725 7.41251 17.6013 7.33126C17.63 7.25001 16.855 6.34376 16.0338 5.88501C15.4307 5.56189 14.7634 5.3766 14.08 5.34251C13.945 5.33876 13.4763 5.22376 12.5125 5.48751C11.8775 5.66126 10.4463 6.22376 10.0525 6.24626C9.65753 6.26876 8.48253 5.59376 7.21878 5.41501C6.41003 5.25876 5.55253 5.57876 4.93878 5.82501C4.32628 6.07001 3.16128 6.76751 2.34628 8.62126C1.53128 10.4738 1.95753 13.4088 2.26253 14.3213C2.56753 15.2338 3.04378 16.7263 3.85378 17.8163C4.57378 19.0463 5.52878 19.9 5.92753 20.19C6.32628 20.48 7.45128 20.6725 8.23128 20.2738C8.85878 19.8888 9.99128 19.6675 10.4388 19.6838C10.885 19.7 11.765 19.8763 12.6663 20.3575C13.38 20.6038 14.055 20.5013 14.7313 20.2263C15.4075 19.95 16.3863 18.9025 17.5288 16.7788C17.9621 15.7913 18.1592 15.2571 18.12 15.1763Z" fill="black"/>
<path d="M13.9775 0.510009C13.935 0.462509 12.4038 0.528759 11.0713 1.97501C9.73878 3.42001 9.94378 5.07751 9.97378 5.12001C10.0038 5.16251 11.8738 5.22876 13.0675 3.54751C14.2613 1.86626 14.02 0.558759 13.9775 0.510009ZM18.12 15.1763C18.06 15.0563 15.2138 13.6338 15.4788 10.8988C15.7438 8.16376 17.5725 7.41251 17.6013 7.33126C17.63 7.25001 16.855 6.34376 16.0338 5.88501C15.4307 5.56189 14.7634 5.3766 14.08 5.34251C13.945 5.33876 13.4763 5.22376 12.5125 5.48751C11.8775 5.66126 10.4463 6.22376 10.0525 6.24626C9.65753 6.26876 8.48253 5.59376 7.21878 5.41501C6.41003 5.25876 5.55253 5.57876 4.93878 5.82501C4.32628 6.07001 3.16128 6.76751 2.34628 8.62126C1.53128 10.4738 1.95753 13.4088 2.26253 14.3213C2.56753 15.2338 3.04378 16.7263 3.85378 17.8163C4.57378 19.0463 5.52878 19.9 5.92753 20.19C6.32628 20.48 7.45128 20.6725 8.23128 20.2738C8.85878 19.8888 9.99128 19.6675 10.4388 19.6838C10.885 19.7 11.765 19.8763 12.6663 20.3575C13.38 20.6038 14.055 20.5013 14.7313 20.2263C15.4075 19.95 16.3863 18.9025 17.5288 16.7788C17.9621 15.7913 18.1592 15.2571 18.12 15.1763Z" fill="black"/>
</g>
<defs>
<clipPath id="clip0_5_70">
<rect width="20" height="20" fill="white" transform="translate(0 0.5)"/>
</clipPath>
</defs>
</svg>
