<svg width="20" height="20" viewBox="0 0 20 20" fill="none" xmlns="http://www.w3.org/2000/svg">
<path d="M18.1609 10.73C18.8258 10.0662 19.3329 9.26147 19.6447 8.3753C19.9566 7.48913 20.0651 6.54421 19.9624 5.61043C19.8597 4.67666 19.5483 3.77791 19.0513 2.98066C18.5543 2.18342 17.8844 1.50808 17.0911 1.00459C15.0814 -0.324791 12.392 -0.334786 10.3623 0.974599C8.60268 2.10407 7.63287 3.86324 7.4629 5.68239C7.33293 7.00177 6.83302 8.23119 5.9132 9.15076L5.8832 9.18075C4.72343 10.3402 4.72342 12.1094 5.81322 13.1889L6.80303 14.1784C7.32685 14.7017 8.0371 14.9957 8.77765 14.9957C9.5182 14.9957 10.2284 14.7017 10.7523 14.1784C11.7221 13.2089 13.0018 12.6791 14.3916 12.5292C15.7613 12.3792 17.1011 11.7795 18.1609 10.73ZM4.26351 17.8567C4.53346 18.4164 4.44348 19.0961 3.97357 19.5559C3.77005 19.7624 3.51066 19.9051 3.22722 19.9663C2.94378 20.0276 2.64861 20.0049 2.37791 19.9009C2.10722 19.7969 1.87278 19.6161 1.70334 19.3809C1.5339 19.1456 1.43684 18.866 1.42406 18.5763C1.13434 18.5636 0.854659 18.4665 0.619311 18.2971C0.383964 18.1277 0.203187 17.8934 0.0991559 17.6227C-0.00487524 17.3521 -0.0276371 17.057 0.0336623 16.7737C0.0949617 16.4903 0.237657 16.231 0.444244 16.0275C0.904156 15.5678 1.59402 15.4678 2.14392 15.7377L4.62344 13.3088C4.76342 13.4987 4.92339 13.7186 5.10335 13.8985L6.09316 14.8881C6.30312 15.088 6.50308 15.2579 6.76303 15.4078L4.26351 17.8567Z" fill="#BC955A"/>
</svg>
