<svg width="20" height="21" viewBox="0 0 20 21" fill="none" xmlns="http://www.w3.org/2000/svg">
<g clip-path="url(#clip0_279_95)">
<path d="M9.34009 10.0347L0.0828247 18.8082C0.186783 19.1415 0.373599 19.4488 0.628992 19.7068C0.884386 19.9647 1.20159 20.1664 1.55637 20.2965C1.91115 20.4265 2.2941 20.4815 2.67595 20.4571C3.0578 20.4328 3.42844 20.3298 3.75954 20.156L14.1757 14.7896L9.34009 10.0347Z" fill="#EA4335"/>
<path d="M18.7151 8.55822L14.2108 6.22437L9.14062 10.2491L14.2314 14.7919L18.7014 12.483C19.0974 12.2955 19.4291 12.0134 19.6605 11.6675C19.8919 11.3216 20.0143 10.9249 20.0143 10.5206C20.0143 10.1162 19.8919 9.71961 19.6605 9.37368C19.4291 9.02775 19.0974 8.74571 18.7014 8.55815L18.7151 8.55822Z" fill="#FBBC04"/>
<path d="M0.0828367 2.15985C0.0269143 2.34698 -0.000939426 2.54007 2.41691e-05 2.73391V18.2341C0.000576363 18.4278 0.0284043 18.6208 0.0828367 18.8082L9.65745 10.2594L0.0828367 2.15985Z" fill="#4285F4"/>
<path d="M9.40907 10.484L14.1964 6.20962L3.79407 0.818238C3.40269 0.610902 2.95755 0.501097 2.504 0.500004C1.37845 0.498026 0.388918 1.17379 0.0828247 2.15364L9.40907 10.484Z" fill="#34A853"/>
</g>
<defs>
<clipPath id="clip0_279_95">
<rect width="20" height="20" fill="white" transform="translate(0 0.5)"/>
</clipPath>
</defs>
</svg>
