<svg width="24" height="24" viewBox="0 0 24 24" fill="none" xmlns="http://www.w3.org/2000/svg">
<path d="M2.92772 15.931V2.45311H0.681396V0.206787H4.05088C4.67119 0.206787 5.17404 0.709649 5.17404 1.32995V14.8079H19.1444L21.3907 5.82259H7.42036V3.57627H22.8293C23.4496 3.57627 23.9524 4.07913 23.9524 4.69943C23.9524 4.79126 23.9412 4.88275 23.9188 4.97184L21.1109 16.2034C20.986 16.7034 20.5368 17.0542 20.0213 17.0542H4.05088C3.43058 17.0542 2.92772 16.5514 2.92772 15.931ZM5.17404 23.7932C3.93343 23.7932 2.92772 22.7875 2.92772 21.5468C2.92772 20.3062 3.93343 19.3005 5.17404 19.3005C6.41465 19.3005 7.42036 20.3062 7.42036 21.5468C7.42036 22.7875 6.41465 23.7932 5.17404 23.7932ZM18.652 23.7932C17.4113 23.7932 16.4057 22.7875 16.4057 21.5468C16.4057 20.3062 17.4113 19.3005 18.652 19.3005C19.8926 19.3005 20.8983 20.3062 20.8983 21.5468C20.8983 22.7875 19.8926 23.7932 18.652 23.7932Z" fill="black"/>
</svg>
