<svg width="26" height="26" viewBox="0 0 26 26" fill="none" xmlns="http://www.w3.org/2000/svg">
<path d="M13.0012 9.25C10.9295 9.25 9.25122 10.9289 9.25122 13C9.25122 15.0716 10.9301 16.75 13.0012 16.75C15.0729 16.75 16.7512 15.0711 16.7512 13C16.7512 10.9284 15.0724 9.25 13.0012 9.25ZM13.0012 6.75C16.4517 6.75 19.2512 9.54638 19.2512 13C19.2512 16.4506 16.4549 19.25 13.0012 19.25C9.55063 19.25 6.75122 16.4536 6.75122 13C6.75122 9.54941 9.5476 6.75 13.0012 6.75ZM21.1262 6.43644C21.1262 7.29907 20.4252 7.99896 19.5637 7.99896C18.7011 7.99896 18.0012 7.298 18.0012 6.43644C18.0012 5.57487 18.7021 4.875 19.5637 4.875C20.4241 4.87391 21.1262 5.57487 21.1262 6.43644ZM13.0012 3C9.90812 3 9.40397 3.00819 7.96533 3.07225C6.98518 3.11826 6.32816 3.25009 5.7177 3.48709C5.1752 3.69749 4.78386 3.94872 4.3669 4.36569C3.94833 4.78425 3.69755 5.17454 3.488 5.71729C3.25045 6.32915 3.11866 6.98514 3.07347 7.96394C3.00878 9.344 3.00122 9.82631 3.00122 13C3.00122 16.0931 3.00941 16.5972 3.07346 18.0358C3.1195 19.0155 3.2515 19.6735 3.48792 20.2825C3.69887 20.8258 3.95062 21.218 4.36557 21.633C4.78578 22.0526 5.17723 22.3042 5.71483 22.5117C6.33273 22.7506 6.98935 22.8826 7.96515 22.9277C9.34522 22.9924 9.82753 23 13.0012 23C16.0944 23 16.5985 22.9917 18.037 22.9277C19.0146 22.8819 19.6731 22.7495 20.2837 22.5132C20.8255 22.3029 21.219 22.0503 21.6342 21.6356C22.0545 21.2148 22.3056 20.8243 22.5134 20.2854C22.7516 19.6698 22.8839 19.0123 22.929 18.0361C22.9936 16.656 23.0012 16.1736 23.0012 13C23.0012 9.9069 22.993 9.40276 22.929 7.96421C22.883 6.98633 22.7506 6.32686 22.5141 5.71648C22.3042 5.17548 22.0521 4.78294 21.6355 4.36569C21.2162 3.94644 20.827 3.69616 20.2839 3.48677C19.6725 3.24942 19.0155 3.11745 18.0372 3.07226C16.6572 3.00756 16.1749 3 13.0012 3ZM13.0012 0.5C16.397 0.5 16.821 0.5125 18.1544 0.575C19.4845 0.636462 20.3919 0.846875 21.1887 1.15625C22.0126 1.47396 22.7085 1.90312 23.4032 2.59791C24.097 3.29271 24.5262 3.99062 24.845 4.8125C25.1532 5.60834 25.3637 6.51666 25.4262 7.84688C25.4856 9.18021 25.5012 9.60416 25.5012 13C25.5012 16.3959 25.4887 16.8197 25.4262 18.1531C25.3647 19.4834 25.1532 20.3906 24.845 21.1875C24.5272 22.0115 24.097 22.7072 23.4032 23.4021C22.7085 24.0959 22.0095 24.525 21.1887 24.8438C20.3919 25.1521 19.4845 25.3625 18.1544 25.425C16.821 25.4844 16.397 25.5 13.0012 25.5C9.60538 25.5 9.18142 25.4875 7.8481 25.425C6.51788 25.3635 5.61163 25.1521 4.81372 24.8438C3.9908 24.526 3.29392 24.0959 2.59913 23.4021C1.90435 22.7072 1.47622 22.0084 1.15747 21.1875C0.848096 20.3906 0.638721 19.4834 0.576221 18.1531C0.516846 16.8197 0.501221 16.3959 0.501221 13C0.501221 9.60416 0.513721 9.18021 0.576221 7.84688C0.637671 6.51562 0.848096 5.60937 1.15747 4.8125C1.47517 3.98959 1.90435 3.29271 2.59913 2.59791C3.29392 1.90312 3.99185 1.475 4.81372 1.15625C5.6106 0.846875 6.51685 0.6375 7.8481 0.575C9.18142 0.515625 9.60538 0.5 13.0012 0.5Z" fill="white"/>
</svg>
