<svg width="24" height="25" viewBox="0 0 24 25" fill="none" xmlns="http://www.w3.org/2000/svg">
<path d="M18.9587 17.8573L23.9524 22.851L22.3034 24.5L17.3097 19.5063C15.5141 20.9428 13.237 21.8022 10.7603 21.8022C4.96753 21.8022 0.266113 17.1008 0.266113 11.308C0.266113 5.51514 4.96753 0.813721 10.7603 0.813721C16.5532 0.813721 21.2546 5.51514 21.2546 11.308C21.2546 13.7846 20.3952 16.0617 18.9587 17.8573ZM16.6193 16.9921C18.0451 15.5227 18.9225 13.5183 18.9225 11.308C18.9225 6.79835 15.27 3.14577 10.7603 3.14577C6.25074 3.14577 2.59817 6.79835 2.59817 11.308C2.59817 15.8176 6.25074 19.4701 10.7603 19.4701C12.9707 19.4701 14.9751 18.5927 16.4445 17.1669L16.6193 16.9921Z" fill="black"/>
</svg>
