<svg width="24" height="26" viewBox="0 0 24 26" fill="none" xmlns="http://www.w3.org/2000/svg">
<path d="M17 8.30671V17.375C17 21.8624 13.3624 25.5 8.875 25.5C4.38769 25.5 0.75 21.8624 0.75 17.375C0.75 12.8876 4.38769 9.25 8.875 9.25C9.52038 9.25 10.1481 9.32524 10.75 9.46741V13.421C10.1818 13.151 9.546 13 8.875 13C6.45875 13 4.5 14.9587 4.5 17.375C4.5 19.7913 6.45875 21.75 8.875 21.75C11.2913 21.75 13.25 19.7913 13.25 17.375V0.5H17C17 3.95178 19.7983 6.75 23.25 6.75V10.5C20.8851 10.5 18.712 9.6791 17 8.30671Z" fill="white"/>
</svg>
