<svg width="156" height="70" viewBox="0 0 156 70" fill="none" xmlns="http://www.w3.org/2000/svg">
<g clip-path="url(#clip0_51_88)">
<path d="M155.884 5.43994H-0.350098V64.461H155.884V5.43994Z" fill="#222222"/>
<path d="M29.849 28.858C25.8589 27.7575 21.8443 27.321 21.6783 25.3106C21.6783 23.7306 23.6149 23.417 24.8015 23.417C25.6622 23.417 26.6582 23.6137 27.3591 24.124C28.0723 24.6035 28.5457 25.3044 28.392 26.3803H36.5935C36.3476 19.5191 30.9435 17.189 24.8385 17.189C19.0348 17.189 13.4769 19.9925 13.4769 26.4971C13.4769 32.1717 18.5613 33.4013 23.0187 34.6617C27.8695 36.0389 29.093 36.4385 29.0991 37.9017C29.0991 39.9859 26.9227 40.4654 25.5025 40.4593C23.8856 40.4593 21.9981 40.1027 21.3649 38.412C21.1682 37.8956 21.0514 37.2623 21.0514 36.5553H12.3763C12.4562 45.556 21.5615 46.6934 24.7584 46.6873C31.0294 46.6934 37.7738 44.3265 37.7676 36.9918C37.7737 31.8213 33.8329 29.9707 29.8428 28.8641L29.849 28.858Z" fill="#FFD600"/>
<path d="M49.8548 40.8527C46.8546 40.8527 46.4242 38.289 46.4181 35.8052C46.4181 33.3152 46.8485 30.7146 49.8487 30.7146C50.6725 30.7146 51.3427 30.9544 51.8222 31.3909C52.3386 31.8213 52.6091 32.4914 52.6829 33.3214H60.1097C59.6363 27.6898 55.0622 25.04 49.6949 25.04C43.5407 25.04 38.61 29.3498 38.61 35.8114C38.61 42.273 43.5407 46.5459 49.6949 46.5459C55.222 46.5459 59.5932 43.4288 60.3371 37.8649H52.8857C52.7258 39.4757 51.5517 40.8527 49.8548 40.8527Z" fill="#FFD600"/>
<path d="M72.3258 25.0337C64.6285 25.0337 61.161 30.0812 61.161 35.7682C61.1549 41.449 64.6346 46.5334 72.3258 46.5334C80.017 46.5334 83.4845 41.4428 83.4845 35.7682C83.4845 30.0936 80.017 25.0399 72.332 25.0337H72.3258ZM72.3258 40.8526C69.3686 40.8526 68.9567 37.9384 68.9567 35.7682C68.9567 33.598 69.3686 30.7145 72.3258 30.7145C75.2769 30.7145 75.6765 33.5979 75.6703 35.7682C75.6703 37.9385 75.2768 40.8526 72.3258 40.8526Z" fill="#FFD600"/>
<path d="M134.925 25.0339C131.605 25.0339 129.871 26.1774 128.537 27.7636H128.458V17.853H120.643V46.0233H128.451V35.2151C128.451 31.9382 130.216 31.2681 131.568 31.2681C133.856 31.2681 134.126 32.9281 134.126 35.2951V46.0234H141.946V31.9813C141.946 27.2781 138.583 25.0401 134.925 25.0339Z" fill="#FFD600"/>
<path d="M109.38 40.8527C106.38 40.8527 105.949 38.289 105.949 35.8052C105.949 33.3275 106.38 30.7208 109.38 30.7146C110.21 30.7146 110.88 30.9605 111.347 31.3909C111.864 31.8213 112.147 32.4914 112.22 33.3214H119.635C119.168 27.6837 114.587 25.04 109.226 25.04C103.072 25.04 98.1415 29.3436 98.1415 35.8114C98.1415 42.2792 103.072 46.5397 109.233 46.5459C114.747 46.5459 119.119 43.4288 119.869 37.8649H112.423C112.264 39.4818 111.071 40.859 109.38 40.859V40.8527Z" fill="#FFD600"/>
<path d="M94.1022 37.5021V30.3642H98.289V25.5503H94.1022V19.3223H86.3065V25.5564H82.8329V30.3703H86.3065V40.1518C86.3065 45.7527 89.9646 46.2629 93.2784 46.2629C94.9322 46.2629 96.7151 46.0293 98.289 46.0293V40.1087C97.6988 40.1886 97.1086 40.2317 96.5122 40.2317C94.5387 40.2317 94.1022 39.4017 94.1022 37.5143V37.5021Z" fill="#FFD600"/>
<path d="M118.19 48.876H121.024C121.799 48.876 122.346 49.1035 122.672 49.5646C122.863 49.8351 122.961 50.1487 122.961 50.4991C122.961 50.911 122.844 51.2553 122.611 51.5197C122.488 51.6611 122.316 51.7902 122.082 51.9009C122.42 52.03 122.672 52.1714 122.838 52.3313C123.133 52.6141 123.281 53.0137 123.281 53.5117C123.281 53.9359 123.146 54.3171 122.881 54.6614C122.482 55.1717 121.848 55.4299 120.982 55.4299H118.19L118.19 48.876ZM120.692 51.6488C121.074 51.6488 121.369 51.5996 121.578 51.4951C121.91 51.3291 122.076 51.034 122.076 50.6098C122.076 50.1856 121.897 49.8905 121.547 49.7429C121.35 49.6568 121.055 49.6199 120.662 49.6199H119.063V51.6488H120.692ZM120.994 54.6736C121.541 54.6736 121.934 54.5137 122.168 54.2002C122.316 54.0035 122.389 53.7575 122.389 53.4747C122.389 53.0013 122.174 52.6755 121.744 52.5033C121.516 52.4111 121.215 52.3619 120.84 52.3619H119.057V54.6674H120.988L120.994 54.6736Z" fill="#FFD600"/>
<path d="M124.228 50.6532H124.99V51.477C125.051 51.3171 125.205 51.1204 125.451 50.8868C125.697 50.6532 125.974 50.5425 126.293 50.5425H126.367C126.404 50.5425 126.466 50.5486 126.552 50.5609V51.4093C126.502 51.4032 126.459 51.397 126.422 51.3909H126.293C125.888 51.3909 125.58 51.52 125.359 51.7844C125.144 52.0426 125.033 52.3439 125.033 52.682V55.4302H124.228L124.228 50.6532Z" fill="#FFD600"/>
<path d="M129.816 52.5404C130.001 52.5158 130.124 52.442 130.185 52.3068C130.222 52.233 130.24 52.1347 130.24 51.9994C130.24 51.7227 130.142 51.526 129.951 51.403C129.755 51.28 129.478 51.2186 129.115 51.2186C128.697 51.2186 128.402 51.3354 128.224 51.5567C128.125 51.6797 128.064 51.8703 128.033 52.1162H127.283C127.295 51.526 127.486 51.1141 127.855 50.8804C128.224 50.6468 128.648 50.5361 129.134 50.5361C129.693 50.5361 130.154 50.6406 130.505 50.8558C130.855 51.071 131.027 51.403 131.027 51.8579V54.6122C131.027 54.6983 131.046 54.7598 131.077 54.8151C131.113 54.8643 131.181 54.8889 131.292 54.8889C131.329 54.8889 131.366 54.8889 131.415 54.8828C131.458 54.8828 131.507 54.8705 131.556 54.8644V55.4608C131.433 55.4977 131.335 55.5161 131.273 55.5284C131.206 55.5345 131.12 55.5407 131.003 55.5407C130.726 55.5407 130.523 55.4423 130.4 55.2456C130.333 55.1411 130.29 54.9935 130.259 54.8029C130.093 55.0181 129.859 55.2025 129.552 55.3624C129.245 55.5223 128.906 55.596 128.538 55.596C128.095 55.596 127.732 55.4607 127.449 55.1902C127.167 54.9197 127.025 54.5815 127.025 54.1819C127.025 53.7392 127.16 53.395 127.443 53.149C127.72 52.9031 128.083 52.7555 128.531 52.7002L129.81 52.5403L129.816 52.5404ZM128.126 54.7107C128.298 54.846 128.494 54.9136 128.728 54.9136C129.011 54.9136 129.288 54.846 129.552 54.7169C130.001 54.5017 130.222 54.1451 130.222 53.6533V53.0078C130.124 53.0693 130.001 53.1246 129.841 53.1615C129.687 53.2045 129.533 53.2353 129.386 53.2537L128.9 53.3152C128.611 53.3521 128.39 53.4136 128.242 53.4996C127.996 53.641 127.867 53.8623 127.867 54.1697C127.867 54.4033 127.953 54.5816 128.119 54.7169L128.126 54.7107Z" fill="#FFD600"/>
<path d="M132.337 50.6531H133.099V51.3294C133.327 51.0527 133.567 50.8499 133.819 50.7269C134.071 50.6039 134.354 50.5425 134.661 50.5425C135.337 50.5425 135.798 50.7823 136.038 51.2495C136.167 51.5077 136.235 51.8766 136.235 52.3623V55.4302H135.417V52.4177C135.417 52.1287 135.374 51.889 135.288 51.7107C135.147 51.4156 134.888 51.2619 134.513 51.2619C134.323 51.2619 134.169 51.2803 134.046 51.3172C133.825 51.3848 133.634 51.5139 133.468 51.7107C133.333 51.8706 133.247 52.0304 133.21 52.2025C133.167 52.3685 133.149 52.6083 133.149 52.9218V55.424H132.343V50.6408L132.337 50.6531Z" fill="#FFD600"/>
<path d="M140.053 50.8005C140.194 50.8927 140.354 51.0464 140.538 51.2678V48.8516H141.313V55.4361H140.587V54.7721C140.403 55.0672 140.182 55.2824 139.923 55.4115C139.671 55.5406 139.376 55.6082 139.05 55.6082C138.522 55.6082 138.061 55.3869 137.673 54.9381C137.286 54.4893 137.089 53.8929 137.089 53.149C137.089 52.4543 137.267 51.8518 137.624 51.3415C137.981 50.8312 138.485 50.573 139.143 50.573C139.505 50.573 139.813 50.6529 140.059 50.8066L140.053 50.8005ZM138.257 54.3848C138.473 54.7291 138.817 54.9012 139.296 54.9012C139.665 54.9012 139.973 54.7413 140.213 54.4217C140.452 54.1021 140.569 53.6409 140.569 53.0445C140.569 52.4481 140.446 51.9932 140.2 51.7042C139.954 51.4152 139.653 51.2677 139.29 51.2677C138.885 51.2677 138.559 51.4214 138.313 51.735C138.061 52.0424 137.938 52.4974 137.938 53.0999C137.938 53.6102 138.049 54.0405 138.264 54.3848H138.257Z" fill="#FFD600"/>
<path d="M133.443 18.5909V17.9023H136.966V18.5909H135.614V22.0338H134.79V18.5909H133.443ZM138.854 17.9023L139.911 20.8595L140.975 17.9023H142.149V22.0399H141.393V18.7015L140.249 22.0399H139.585L138.43 18.7015V22.0399H137.673V17.9023H138.854Z" fill="#FFD600"/>
</g>
<defs>
<clipPath id="clip0_51_88">
<rect width="156" height="70" fill="white"/>
</clipPath>
</defs>
</svg>
