<svg width="16" height="16" viewBox="0 0 16 16" fill="none" xmlns="http://www.w3.org/2000/svg">
<path d="M2.16005 10.8431L1.98483 11.0214C2.13443 11.1685 2.3358 11.2508 2.54555 11.2508C2.75531 11.2508 2.95667 11.1685 3.10628 11.0214L3.10642 11.0213L7.79142 6.41031L7.79188 6.40986C7.84729 6.35503 7.9221 6.32428 8.00005 6.32428C8.07801 6.32428 8.15281 6.35503 8.20823 6.40986L8.20871 6.41033L12.8937 11.0203L12.8938 11.0204C13.0434 11.1675 13.2448 11.2498 13.4546 11.2498C13.6641 11.2498 13.8654 11.1676 14.0149 11.0208C14.0893 10.9482 14.1484 10.8615 14.1888 10.7657C14.2292 10.6698 14.2501 10.5667 14.2501 10.4626C14.2501 10.3585 14.2292 10.2555 14.1888 10.1596C14.1484 10.0639 14.0894 9.97718 14.0151 9.90461C14.0149 9.90445 14.0147 9.90429 14.0146 9.90412L9.33142 5.29495L9.3312 5.29475C8.97594 4.94592 8.49794 4.75049 8.00005 4.75049C7.50216 4.75049 7.02417 4.94592 6.6689 5.29475L6.66869 5.29496L1.98578 9.90389C1.98557 9.90409 1.98536 9.9043 1.98514 9.90451C1.91068 9.97707 1.85147 10.0638 1.811 10.1596C1.77042 10.2556 1.74951 10.3589 1.74951 10.4631C1.74951 10.5674 1.77042 10.6706 1.811 10.7667C1.85158 10.8627 1.91101 10.9497 1.98578 11.0224L2.16005 10.8431ZM2.16005 10.8431C2.10925 10.7937 2.06887 10.7347 2.04129 10.6694C2.01372 10.6041 1.99951 10.534 1.99951 10.4631C1.99951 10.3923 2.01372 10.3221 2.04129 10.2569C2.06887 10.1916 2.10925 10.1325 2.16005 10.0831L2.93105 10.8431C2.8282 10.9442 2.68976 11.0008 2.54555 11.0008C2.40135 11.0008 2.26291 10.9442 2.16005 10.8431Z" fill="#444444" stroke="#444444" stroke-width="0.5"/>
</svg>
