<svg width="156" height="70" viewBox="0 0 156 70" fill="none" xmlns="http://www.w3.org/2000/svg">
<g clip-path="url(#clip0_5_198)">
<path d="M155.884 5.4399H-0.350098V64.461H155.884V5.4399Z" fill="white"/>
<path d="M29.849 28.8578C25.8589 27.7573 21.8443 27.3208 21.6783 25.3104C21.6783 23.7304 23.6149 23.4168 24.8015 23.4168C25.6622 23.4168 26.6582 23.6135 27.3591 24.1238C28.0723 24.6033 28.5457 25.3042 28.392 26.3801H36.5935C36.3476 19.5189 30.9435 17.1888 24.8385 17.1888C19.0348 17.1888 13.4769 19.9923 13.4769 26.4969C13.4769 32.1715 18.5613 33.4011 23.0187 34.6615C27.8695 36.0387 29.093 36.4383 29.0991 37.9015C29.0991 39.9857 26.9227 40.4652 25.5025 40.4591C23.8856 40.4591 21.9981 40.1025 21.3649 38.4118C21.1682 37.8954 21.0514 37.2621 21.0514 36.5551H12.3763C12.4562 45.5558 21.5615 46.6932 24.7584 46.6871C31.0294 46.6932 37.7738 44.3263 37.7676 36.9916C37.7737 31.8211 33.8329 29.9705 29.8428 28.8639L29.849 28.8578Z" fill="#FFD600"/>
<path d="M49.8548 40.8526C46.8546 40.8526 46.4242 38.2889 46.4181 35.8051C46.4181 33.3151 46.8485 30.7145 49.8487 30.7145C50.6725 30.7145 51.3427 30.9543 51.8222 31.3908C52.3386 31.8212 52.6091 32.4913 52.6829 33.3213H60.1097C59.6363 27.6897 55.0622 25.0399 49.6949 25.0399C43.5407 25.0399 38.61 29.3497 38.61 35.8113C38.61 42.2729 43.5407 46.5458 49.6949 46.5458C55.222 46.5458 59.5932 43.4287 60.3371 37.8648H52.8857C52.7258 39.4756 51.5517 40.8526 49.8548 40.8526Z" fill="#FFD600"/>
<path d="M72.3258 25.0337C64.6285 25.0337 61.161 30.0812 61.161 35.7682C61.1549 41.449 64.6346 46.5334 72.3258 46.5334C80.017 46.5334 83.4845 41.4428 83.4845 35.7682C83.4845 30.0936 80.017 25.0399 72.332 25.0337H72.3258ZM72.3258 40.8526C69.3686 40.8526 68.9567 37.9384 68.9567 35.7682C68.9567 33.598 69.3686 30.7145 72.3258 30.7145C75.2769 30.7145 75.6765 33.5979 75.6703 35.7682C75.6703 37.9385 75.2768 40.8526 72.3258 40.8526Z" fill="#FFD600"/>
<path d="M134.925 25.0337C131.605 25.0337 129.871 26.1772 128.537 27.7634H128.458V17.8528H120.643V46.0231H128.451V35.2149C128.451 31.938 130.216 31.2679 131.568 31.2679C133.856 31.2679 134.126 32.9279 134.126 35.2949V46.0232H141.946V31.9811C141.946 27.2779 138.583 25.0399 134.925 25.0337Z" fill="#FFD600"/>
<path d="M109.38 40.8526C106.38 40.8526 105.949 38.2889 105.949 35.8051C105.949 33.3274 106.38 30.7207 109.38 30.7145C110.21 30.7145 110.88 30.9604 111.347 31.3908C111.864 31.8212 112.147 32.4913 112.22 33.3213H119.635C119.168 27.6836 114.587 25.0399 109.226 25.0399C103.072 25.0399 98.1415 29.3435 98.1415 35.8113C98.1415 42.2791 103.072 46.5396 109.233 46.5458C114.747 46.5458 119.119 43.4287 119.869 37.8648H112.423C112.264 39.4817 111.071 40.8589 109.38 40.8589V40.8526Z" fill="#FFD600"/>
<path d="M94.1022 37.5019V30.364H98.289V25.5501H94.1022V19.3221H86.3065V25.5562H82.8329V30.3701H86.3065V40.1516C86.3065 45.7525 89.9646 46.2627 93.2784 46.2627C94.9322 46.2627 96.7151 46.0291 98.289 46.0291V40.1085C97.6988 40.1884 97.1086 40.2315 96.5122 40.2315C94.5387 40.2315 94.1022 39.4015 94.1022 37.5141V37.5019Z" fill="#FFD600"/>
<path d="M118.19 48.8758H121.024C121.799 48.8758 122.346 49.1033 122.672 49.5644C122.863 49.8349 122.961 50.1485 122.961 50.4989C122.961 50.9108 122.844 51.2551 122.611 51.5195C122.488 51.6609 122.316 51.79 122.082 51.9007C122.42 52.0298 122.672 52.1712 122.838 52.3311C123.133 52.6139 123.281 53.0135 123.281 53.5115C123.281 53.9357 123.146 54.3169 122.881 54.6612C122.482 55.1715 121.848 55.4297 120.982 55.4297H118.19L118.19 48.8758ZM120.692 51.6486C121.074 51.6486 121.369 51.5994 121.578 51.4949C121.91 51.3289 122.076 51.0338 122.076 50.6096C122.076 50.1854 121.897 49.8903 121.547 49.7427C121.35 49.6566 121.055 49.6197 120.662 49.6197H119.063V51.6486H120.692ZM120.994 54.6734C121.541 54.6734 121.934 54.5135 122.168 54.2C122.316 54.0033 122.389 53.7573 122.389 53.4745C122.389 53.0011 122.174 52.6753 121.744 52.5031C121.516 52.4109 121.215 52.3617 120.84 52.3617H119.057V54.6672H120.988L120.994 54.6734Z" fill="#FFD600"/>
<path d="M124.228 50.6526H124.99V51.4764C125.051 51.3165 125.205 51.1198 125.451 50.8862C125.697 50.6526 125.974 50.5419 126.293 50.5419H126.367C126.404 50.5419 126.466 50.548 126.552 50.5603V51.4087C126.502 51.4026 126.459 51.3964 126.422 51.3903H126.293C125.888 51.3903 125.58 51.5194 125.359 51.7838C125.144 52.042 125.033 52.3433 125.033 52.6814V55.4296H124.228L124.228 50.6526Z" fill="#FFD600"/>
<path d="M129.816 52.54C130.001 52.5154 130.124 52.4416 130.185 52.3064C130.222 52.2326 130.24 52.1343 130.24 51.999C130.24 51.7223 130.142 51.5256 129.951 51.4026C129.755 51.2796 129.478 51.2182 129.115 51.2182C128.697 51.2182 128.402 51.335 128.224 51.5563C128.125 51.6793 128.064 51.8699 128.033 52.1158H127.283C127.295 51.5256 127.486 51.1137 127.855 50.88C128.224 50.6464 128.648 50.5357 129.134 50.5357C129.693 50.5357 130.154 50.6402 130.505 50.8554C130.855 51.0706 131.027 51.4026 131.027 51.8575V54.6118C131.027 54.6979 131.046 54.7594 131.077 54.8147C131.113 54.8639 131.181 54.8885 131.292 54.8885C131.329 54.8885 131.366 54.8885 131.415 54.8824C131.458 54.8824 131.507 54.8701 131.556 54.864V55.4604C131.433 55.4973 131.335 55.5157 131.273 55.528C131.206 55.5341 131.12 55.5403 131.003 55.5403C130.726 55.5403 130.523 55.4419 130.4 55.2452C130.333 55.1407 130.29 54.9931 130.259 54.8025C130.093 55.0177 129.859 55.2021 129.552 55.362C129.245 55.5219 128.906 55.5956 128.538 55.5956C128.095 55.5956 127.732 55.4603 127.449 55.1898C127.167 54.9193 127.025 54.5811 127.025 54.1815C127.025 53.7388 127.16 53.3946 127.443 53.1486C127.72 52.9027 128.083 52.7551 128.531 52.6998L129.81 52.5399L129.816 52.54ZM128.126 54.7103C128.298 54.8456 128.494 54.9132 128.728 54.9132C129.011 54.9132 129.288 54.8456 129.552 54.7165C130.001 54.5013 130.222 54.1447 130.222 53.6529V53.0074C130.124 53.0689 130.001 53.1242 129.841 53.1611C129.687 53.2041 129.533 53.2349 129.386 53.2533L128.9 53.3148C128.611 53.3517 128.39 53.4132 128.242 53.4992C127.996 53.6406 127.867 53.8619 127.867 54.1693C127.867 54.4029 127.953 54.5812 128.119 54.7165L128.126 54.7103Z" fill="#FFD600"/>
<path d="M132.337 50.6526H133.099V51.3289C133.327 51.0522 133.567 50.8494 133.819 50.7264C134.071 50.6034 134.354 50.542 134.661 50.542C135.337 50.542 135.798 50.7818 136.038 51.249C136.167 51.5072 136.235 51.8761 136.235 52.3618V55.4297H135.417V52.4172C135.417 52.1282 135.374 51.8885 135.288 51.7102C135.147 51.4151 134.888 51.2614 134.513 51.2614C134.323 51.2614 134.169 51.2798 134.046 51.3167C133.825 51.3843 133.634 51.5134 133.468 51.7102C133.333 51.8701 133.247 52.0299 133.21 52.202C133.167 52.368 133.149 52.6078 133.149 52.9213V55.4235H132.343V50.6403L132.337 50.6526Z" fill="#FFD600"/>
<path d="M140.053 50.8001C140.194 50.8923 140.354 51.046 140.538 51.2674V48.8512H141.313V55.4357H140.587V54.7717C140.403 55.0668 140.182 55.282 139.923 55.4111C139.671 55.5402 139.376 55.6078 139.05 55.6078C138.522 55.6078 138.061 55.3865 137.673 54.9377C137.286 54.4889 137.089 53.8925 137.089 53.1486C137.089 52.4539 137.267 51.8514 137.624 51.3411C137.981 50.8308 138.485 50.5726 139.143 50.5726C139.505 50.5726 139.813 50.6525 140.059 50.8062L140.053 50.8001ZM138.257 54.3844C138.473 54.7287 138.817 54.9008 139.296 54.9008C139.665 54.9008 139.973 54.7409 140.213 54.4213C140.452 54.1017 140.569 53.6405 140.569 53.0441C140.569 52.4477 140.446 51.9928 140.2 51.7038C139.954 51.4148 139.653 51.2673 139.29 51.2673C138.885 51.2673 138.559 51.421 138.313 51.7346C138.061 52.042 137.938 52.497 137.938 53.0995C137.938 53.6098 138.049 54.0401 138.264 54.3844H138.257Z" fill="#FFD600"/>
<path d="M133.443 18.5906V17.902H136.966V18.5906H135.614V22.0335H134.79V18.5906H133.443ZM138.854 17.902L139.911 20.8592L140.975 17.902H142.149V22.0396H141.393V18.7012L140.249 22.0396H139.585L138.43 18.7012V22.0396H137.673V17.902H138.854Z" fill="#FFD600"/>
</g>
<defs>
<clipPath id="clip0_5_198">
<rect width="156" height="70" fill="white"/>
</clipPath>
</defs>
</svg>
