<svg width="64" height="11" viewBox="0 0 64 11" fill="none" xmlns="http://www.w3.org/2000/svg">
<g clip-path="url(#clip0_405_316)">
<path fill-rule="evenodd" clip-rule="evenodd" d="M36.9916 2.29612L36.9896 2.29515C37.227 2.04341 37.49 1.77605 37.7653 1.51882C37.4303 1.36024 37.121 1.18048 36.8217 1.00659C36.1733 0.629802 35.5721 0.280528 34.8607 0.233786C34.3089 0.200611 33.7565 0.2893 33.2449 0.493193C33.2449 0.493193 32.9684 0.128546 32.1168 0.24671C31.2651 0.364874 28.6419 1.42927 26.4065 4.90034C24.3858 8.03815 25.3353 9.83739 26.7866 9.81797C28.3597 9.79676 29.8556 8.09816 30.3632 6.69773C30.8707 5.29731 30.2719 4.91788 29.8119 4.95388C29.3035 4.99542 28.4052 5.43486 27.911 6.40602C27.4168 7.37718 27.4168 7.97538 27.4168 7.97538C27.6188 7.76952 27.8385 7.58082 28.0736 7.41134C28.2851 7.25085 28.5182 7.11918 28.7664 7.01989C28.8245 6.76895 28.9109 6.52504 29.024 6.29244C29.2027 5.9306 29.4859 5.55393 29.8357 5.46901C30.5456 5.29637 30.2054 6.55371 29.6836 7.37348C29.4032 7.81104 28.4081 9.07668 27.5537 9.07668C26.6992 9.07668 26.5357 8.27722 26.7153 7.5267C26.895 6.77617 27.1449 5.8272 28.3938 4.09904C29.6428 2.37089 30.9933 1.34619 31.7755 0.916922C32.5787 0.47473 32.9056 0.668592 32.9056 0.668592C32.9056 0.668592 31.8801 1.27972 31.2965 2.01825C30.7396 2.72354 30.406 3.51653 30.6645 3.90517C30.9116 4.27536 31.7793 4.28275 32.7364 2.94233C33.6812 1.61852 33.4436 0.83107 33.4436 0.83107C33.5058 0.811428 33.5693 0.796002 33.6337 0.784911C34.0946 0.724904 34.4634 0.84399 35.0337 1.12832C35.3118 1.26704 35.5848 1.4447 35.8763 1.63447C36.211 1.85228 36.5702 2.08608 36.9896 2.29515L36.9888 2.29612H36.9916ZM33.1204 0.933539C33.1204 0.933539 32.5121 1.16894 31.805 1.92593C31.0979 2.68292 30.6854 3.53499 30.9904 3.76024C31.1074 3.84609 31.3773 3.86086 31.8677 3.43252C32.3199 3.05105 32.6749 2.57295 32.9047 2.03579C33.2031 1.32902 33.1306 0.98252 33.1213 0.938269C33.1208 0.935585 33.1204 0.934013 33.1204 0.933539Z" fill="white"/>
<path d="M38.224 2.72542L38.2236 2.7259C39.8849 3.04532 41.3401 2.04554 42.1138 1.19439C42.3961 0.889794 42.639 0.552802 42.837 0.190918C42.4847 0.547214 42.0903 0.862017 41.6623 1.12885L41.6575 1.12792C40.9371 1.57658 39.9401 1.98368 38.982 1.89414C38.7397 2.13785 38.4802 2.41942 38.2217 2.72498L38.224 2.72542Z" fill="white"/>
<path fill-rule="evenodd" clip-rule="evenodd" d="M38.809 8.46007C38.6712 8.67423 38.5143 9.08501 38.9696 8.82933C39.5237 8.51819 40.3135 7.35225 40.3135 7.35225H40.6709C40.3452 7.83953 39.9824 8.3024 39.5855 8.737C39.0238 9.34167 38.3385 9.89094 37.8557 9.83647C37.2921 9.77276 37.4689 9.05362 37.4689 9.05362C37.4689 9.05362 36.659 9.88446 36.1031 9.82817C35.3493 9.74691 35.5793 8.84223 35.5793 8.84223C35.5793 8.84223 34.7239 9.85773 34.146 9.82723C33.2355 9.77647 33.4646 8.69731 33.7174 7.94214C33.8534 7.5369 33.9788 7.2184 33.9788 7.2184C33.9788 7.2184 33.8885 7.24148 33.6937 7.26916C33.5919 7.283 33.4085 7.29318 33.4085 7.29318C33.1996 7.65112 32.9718 7.99834 32.7261 8.33359C32.4229 8.72499 31.1351 10.07 30.3747 9.80049C29.6733 9.55124 29.9051 8.50806 30.3139 7.67722C30.9098 6.46881 32.5864 4.73235 33.553 4.96036C34.5557 5.1967 33.5758 6.97286 33.5758 6.97286C33.5758 6.97286 33.5758 6.97928 33.5862 6.98393C33.6495 6.995 33.7147 6.99154 33.7764 6.97374C33.9017 6.94913 34.0244 6.91359 34.1432 6.86758C34.1432 6.86758 35.1507 4.8182 36.2637 3.47777C37.3767 2.13735 39.5997 -0.168691 40.4713 0.389819C40.6842 0.527369 40.5873 1.00003 40.3002 1.57423C40.1709 1.61396 40.0396 1.64724 39.9067 1.67393C40.0659 1.41752 40.1863 1.14019 40.2641 0.850474C40.3953 0.158106 38.7301 1.61762 37.5402 3.18883C36.8245 4.13536 36.1887 5.13655 35.6392 6.18264C35.8542 6.05571 36.0594 5.91376 36.2532 5.75798C36.7841 5.33039 37.2887 4.87294 37.7645 4.38801C38.2209 3.93122 38.6491 3.44848 39.0466 2.94235C39.1739 2.93653 39.3008 2.9239 39.4268 2.9045C38.9917 3.47751 38.5177 4.02154 38.0077 4.53294C37.9657 4.57374 37.9234 4.6149 37.8809 4.65627C37.4423 5.08287 36.9798 5.53274 36.5726 5.86597C36.175 6.19628 35.7556 6.50099 35.317 6.77807C35.317 6.77807 34.2715 8.81638 34.8418 8.94745C35.1745 9.025 35.8322 8.04188 35.8322 8.04188C35.8322 8.04188 36.6876 6.77066 37.2065 6.19554C37.908 5.4201 38.5153 4.97329 39.1188 4.96129C39.4724 4.95483 39.6806 5.3213 39.6806 5.3213L39.8468 5.07114H40.8705C40.8705 5.07114 38.9591 8.22095 38.8061 8.45819L38.809 8.46007ZM39.4505 5.67395C39.463 5.65255 39.4732 5.62996 39.4809 5.60658C39.4761 5.56966 39.4583 5.53551 39.4306 5.50981C39.403 5.48411 39.367 5.46839 39.3289 5.46533C39.1711 5.45796 38.9544 5.48747 38.3889 6.09585C37.919 6.59959 37.5148 7.15771 37.1856 7.75753C36.8615 8.33265 36.7303 8.76097 36.9166 8.87178C36.977 8.90193 37.047 8.90885 37.1124 8.89116C37.2389 8.8616 37.3814 8.74713 37.5991 8.50253C37.6805 8.41084 37.7692 8.28837 37.8707 8.14839L37.8717 8.14706C37.8966 8.11271 37.9223 8.07722 37.9488 8.04094C38.3233 7.54614 39.2642 5.98785 39.4505 5.67306V5.67395ZM33.571 6.33492C33.6661 6.09491 33.7859 5.62413 33.5359 5.43948C33.2669 5.24286 32.5855 5.70351 32.5788 6.17799C32.5721 6.65253 33.0607 6.88053 33.1776 6.91097C33.2441 6.92852 33.2669 6.92575 33.2992 6.87405C33.4026 6.70131 33.4934 6.5218 33.571 6.3368V6.33492ZM33.0531 7.21657C32.8834 7.14036 32.7251 7.04225 32.5826 6.92486C32.4391 6.80842 32.3189 6.66726 32.2281 6.5085C32.2202 6.4955 32.2124 6.504 32.204 6.51305C32.2022 6.51498 32.2004 6.5169 32.1986 6.51863C32.1879 6.52906 32.1453 6.57043 31.7804 7.08915C31.4135 7.61074 30.8547 8.6853 31.3622 8.86902C31.6873 8.98625 32.2281 8.43328 32.5246 8.06679C32.7253 7.81116 32.9073 7.54219 33.0692 7.2618C33.0845 7.23041 33.0692 7.223 33.0531 7.21657Z" fill="white"/>
<path d="M27.2906 2.67432H26.3174L25.7671 3.53839H26.7404L27.2906 2.67432Z" fill="white"/>
<path fill-rule="evenodd" clip-rule="evenodd" d="M25.0055 5.03766H25.359C25.359 5.03766 23.5722 7.54589 22.5619 7.43142C21.9983 7.36771 22.1655 6.69286 22.1655 6.69286C22.1655 6.69286 21.3719 7.59294 20.6448 7.41294C19.9852 7.2486 20.411 6.18422 20.411 6.18422C20.3998 6.18862 20.3583 6.22732 20.2926 6.2887C19.9187 6.63765 18.7593 7.71967 17.9066 7.40093C16.8611 7.0077 17.4019 5.69955 17.6015 5.30627C17.7707 4.97488 17.9579 4.65178 17.9579 4.65178C17.9579 4.65178 17.7973 4.69609 17.6965 4.71825C17.5958 4.7404 17.4447 4.76902 17.4447 4.76902C17.4447 4.76902 16.9485 5.55276 16.6453 5.94327C16.3422 6.33378 15.0524 7.67791 14.2929 7.41017C13.5336 7.14243 13.7227 6.11038 14.1485 5.2869C14.8404 3.95757 16.4828 2.32358 17.4751 2.56914C18.4673 2.8147 17.6471 4.39053 17.6471 4.39053C17.6471 4.39053 17.8458 4.41545 18.3219 4.09973C18.5186 3.96975 18.733 3.77686 18.9618 3.57107C19.5323 3.05778 20.1921 2.46423 20.8881 2.56637C21.3481 2.63376 21.7768 3.09257 21.1904 3.9631C21.0003 4.24005 20.6876 4.493 20.4462 4.24559C20.296 4.09327 20.4271 3.81171 20.5849 3.61969C20.6466 3.54144 20.7272 3.47913 20.8195 3.43824C20.9118 3.39735 21.0131 3.37914 21.1143 3.38521C21.1143 3.38521 21.2759 3.02426 20.8644 3.03164C20.5308 3.0381 19.6867 3.79232 19.2106 4.55485C18.7791 5.25739 18.1185 6.45008 18.7791 6.7104C19.3883 6.94952 20.5479 5.61276 21.0849 4.91211C21.6219 4.21143 22.8442 2.62361 23.8707 2.55991C24.2242 2.53775 24.4343 2.8507 24.4343 2.8507L24.5531 2.66607H25.5777C25.5777 2.66607 23.6482 5.80389 23.4971 6.0393C23.3783 6.22391 23.2205 6.6421 23.6577 6.40856C24.095 6.17498 25.0055 5.03766 25.0055 5.03766ZM22.6816 5.66263C23.096 5.10874 24.2385 3.17934 24.2385 3.17934C24.2336 3.14245 24.2158 3.1083 24.1881 3.08259C24.1605 3.05689 24.1246 3.04118 24.0864 3.03811C23.9286 3.03072 23.6663 3.08242 23.136 3.71939C22.6056 4.35637 22.2102 4.86318 21.9156 5.3903C21.5905 5.96541 21.4489 6.37164 21.6352 6.48146C21.6958 6.51122 21.7655 6.51809 21.831 6.50084C21.9526 6.47133 22.1113 6.35315 22.329 6.10944C22.4317 5.99591 22.5476 5.84264 22.6835 5.66263H22.6816ZM17.4608 3.05011C17.1918 2.85255 16.5104 3.31413 16.5037 3.78863C16.4971 4.26313 17.1215 4.41084 17.2023 4.41453C17.2203 4.41914 17.2394 4.41784 17.2566 4.41083C17.2738 4.40382 17.2881 4.39149 17.2974 4.37576C17.3704 4.23667 17.4361 4.094 17.4941 3.94834C17.5891 3.70832 17.7079 3.2375 17.458 3.05287L17.4608 3.05011ZM17.0521 4.71456C16.8667 4.65823 16.6894 4.57912 16.5246 4.47915C16.3639 4.37833 16.2329 4.23868 16.1445 4.07388C16.1362 4.06021 16.1272 4.07037 16.1187 4.07993C16.1174 4.08134 16.1162 4.08273 16.115 4.08404C16.1055 4.0942 16.0504 4.16436 15.6844 4.68594C15.3185 5.20752 14.7758 6.27467 15.2843 6.45749C15.6093 6.57473 16.1559 6.01988 16.4515 5.65339C16.6742 5.36736 16.8801 5.0693 17.0683 4.76071C17.0806 4.72932 17.0683 4.72194 17.0502 4.7164L17.0521 4.71456Z" fill="white"/>
<path d="M24.447 10.0599C23.6911 9.55182 22.7861 9.29525 21.8675 9.32876C21.6188 9.33528 21.3752 9.3987 21.1566 9.51391C20.9379 9.62907 20.7503 9.79272 20.6091 9.9916C20.2175 9.32787 19.4438 8.92075 18.2472 8.92994C17.2341 8.94111 16.2249 9.18424 15.2752 9.41298C14.4129 9.62072 13.5996 9.81664 12.8772 9.81619C11.4192 9.81619 10.3575 8.92629 10.3927 7.34675C10.4554 4.57729 12.8639 2.08477 14.6697 0.960364C15.7048 0.314156 16.5706 0.123987 17.1409 0.185838C17.5544 0.230149 18.0514 0.694499 17.7377 1.37855C17.2768 2.38018 16.64 2.29617 16.6638 1.81798C16.6737 1.69323 16.7139 1.57254 16.7811 1.46583C16.8484 1.35911 16.9408 1.26941 17.0506 1.20408C17.1672 1.14243 17.298 1.11066 17.4308 1.11176C17.5258 1.03699 17.5914 0.489556 16.85 0.669574C16.1087 0.849587 15.2058 1.55765 14.3542 2.47157C13.5026 3.3855 12.1777 5.1118 11.8497 6.9249C11.6967 7.76587 11.7984 9.29925 13.8457 9.2826C14.635 9.27632 15.5954 9.04372 16.6295 8.79328C17.8729 8.49218 19.2229 8.16523 20.5102 8.17482C21.3314 8.17146 22.1378 8.38597 22.8426 8.79521C23.4528 9.16447 24.1837 9.69248 24.4432 10.0562L24.447 10.0599Z" fill="white"/>
<path d="M5.79443 6.4689H7.84929L7.78182 6.01468H6.32859V5.46082H7.30755V4.99922H6.32859V4.52841H7.75424L7.82268 4.07422H5.7954L5.79443 6.4689Z" fill="white"/>
<path d="M2.75269 6.46879H3.28684V5.4099H4.54523V6.46785H5.08129V4.08149H4.54619V4.94649H3.28684V4.08057H2.75554L2.75269 6.46879Z" fill="white"/>
<path d="M0.0554199 4.54719H0.874708V6.46645H1.41076V4.54719H2.23005V4.08008H0.0554199V4.54719Z" fill="white"/>
<path d="M62.7653 4.08686H63.3556L62.3832 5.67099V6.47322H61.8473V5.68117L60.8652 4.08594H61.4688L62.1201 5.20298L62.7653 4.08686Z" fill="white"/>
<path d="M59.9224 5.70276V4.08725L60.4444 4.08447V6.47083H59.9056L58.7128 4.82669V6.47083H58.1907V4.08447H58.7458L59.9224 5.70276Z" fill="white"/>
<path fill-rule="evenodd" clip-rule="evenodd" d="M57.7216 6.4722H57.1578L56.9532 5.93954H55.8744L55.6703 6.46943H55.1106L56.0886 4.08398H56.7471L57.7216 6.4722ZM56.4174 4.54464L56.0495 5.49086L56.7822 5.48997L56.4174 4.54464Z" fill="white"/>
<path fill-rule="evenodd" clip-rule="evenodd" d="M52.978 4.08303H54.2415C54.4054 4.07788 54.5687 4.11146 54.7168 4.18089C54.84 4.24013 54.9417 4.33407 55.0094 4.45045C55.0746 4.57008 55.1087 4.70333 55.1087 4.83864C55.1087 4.97394 55.0746 5.1072 55.0094 5.2268C54.9412 5.34335 54.8395 5.43775 54.7168 5.49824C54.5687 5.56798 54.4059 5.60189 54.2415 5.597H53.5144V6.46847H52.978V4.08303ZM53.5179 5.13635H54.2319C54.3219 5.14204 54.4105 5.11397 54.4797 5.05788C54.5372 4.99839 54.5687 4.92003 54.5687 4.83864C54.5687 4.75724 54.5372 4.67888 54.4797 4.61939C54.4095 4.5648 54.3209 4.5375 54.2309 4.54277H53.5179V5.13635Z" fill="white"/>
<path d="M51.5463 4.08301H52.2659L52.2664 6.47027H51.7478V4.71629L50.9932 6.43335H50.6347L49.8886 4.75968V6.46661H49.3696V4.08301H50.0891L50.8247 5.7447L51.5463 4.08301Z" fill="white"/>
<path fill-rule="evenodd" clip-rule="evenodd" d="M48.1501 6.35047C47.9414 6.45728 47.7083 6.51125 47.4724 6.5074L47.4695 6.50833C47.2337 6.51194 47.0007 6.45797 46.7919 6.35141C46.597 6.25023 46.4354 6.09795 46.3252 5.91197C46.2142 5.71594 46.156 5.4959 46.156 5.2722C46.156 5.04853 46.2142 4.82847 46.3252 4.63247C46.4357 4.44643 46.5978 4.2942 46.7928 4.19305C47.0028 4.08957 47.235 4.03564 47.4705 4.03564C47.706 4.03564 47.9382 4.08957 48.1482 4.19305C48.3461 4.29309 48.5108 4.44542 48.6234 4.63247C48.734 4.82841 48.792 5.04828 48.792 5.27176C48.792 5.49521 48.734 5.7151 48.6234 5.91103C48.5113 6.09786 48.3472 6.25014 48.1501 6.35047ZM47.0827 5.93875C47.2013 6.00484 47.3361 6.03864 47.4728 6.03662C47.6097 6.03953 47.7447 6.00563 47.863 5.93875C47.977 5.87485 48.0703 5.78114 48.132 5.66825C48.1958 5.54543 48.229 5.4098 48.229 5.2722C48.229 5.13465 48.1958 4.99902 48.132 4.87618C48.0708 4.76241 47.9775 4.66794 47.863 4.60386C47.7437 4.54001 47.6096 4.50654 47.4734 4.50654C47.3371 4.50654 47.203 4.54001 47.0837 4.60386C46.9696 4.6662 46.8758 4.75829 46.8128 4.86972C46.7468 4.99167 46.714 5.12803 46.7177 5.26578C46.7146 5.40343 46.7473 5.53964 46.8128 5.66177C46.8742 5.77694 46.9677 5.87292 47.0827 5.93875Z" fill="white"/>
<path d="M45.452 6.41637C45.272 6.47949 45.0817 6.51072 44.8903 6.5087L44.8932 6.51147C44.6448 6.51572 44.3993 6.46021 44.1784 6.34989C43.9749 6.24827 43.8042 6.09412 43.685 5.90437C43.5658 5.71468 43.5027 5.49671 43.5027 5.27444C43.5027 5.05216 43.5658 4.8342 43.685 4.64447C43.8042 4.45475 43.9749 4.30059 44.1784 4.19895C44.3966 4.08978 44.6392 4.0346 44.8846 4.03833C45.0761 4.035 45.2666 4.0663 45.4463 4.13064C45.6089 4.18836 45.7538 4.28524 45.8673 4.4122L45.5337 4.77223C45.4488 4.68593 45.3474 4.61635 45.2353 4.56729C45.1288 4.52391 45.0143 4.50193 44.8989 4.50267C44.7506 4.50076 44.6044 4.53572 44.474 4.60422C44.3507 4.66877 44.2476 4.76445 44.1756 4.88116C44.1003 4.99888 44.0611 5.13496 44.0624 5.2735C44.0605 5.41007 44.0976 5.5445 44.1696 5.66184C44.2415 5.77918 44.3456 5.87486 44.4702 5.93818C44.6028 6.00723 44.7513 6.04222 44.9017 6.03975C45.0219 6.04168 45.1411 6.01948 45.252 5.97451C45.3629 5.92958 45.463 5.8628 45.5461 5.77848L45.8807 6.13296C45.7652 6.26162 45.6176 6.35919 45.452 6.41637Z" fill="white"/>
</g>
<defs>
<clipPath id="clip0_405_316">
<rect width="63.6085" height="9.88511" fill="white" transform="translate(0.0554199 0.174805)"/>
</clipPath>
</defs>
</svg>
