<svg width="262" height="42" viewBox="0 0 262 42" fill="none" xmlns="http://www.w3.org/2000/svg">
<g clip-path="url(#clip0_15_244)">
<path fill-rule="evenodd" clip-rule="evenodd" d="M152.139 9.01324L152.13 9.00913C153.108 7.93954 154.191 6.80358 155.325 5.71064C153.946 5.03687 152.671 4.27312 151.439 3.5343C148.768 1.93338 146.292 0.449377 143.361 0.250778C141.088 0.109828 138.813 0.48665 136.706 1.35295C136.706 1.35295 135.567 -0.196365 132.059 0.305691C128.551 0.807749 117.747 5.33018 108.539 20.0781C100.216 33.4101 104.127 41.0547 110.105 40.9722C116.584 40.8821 122.746 33.665 124.836 27.7149C126.927 21.7648 124.46 20.1526 122.566 20.3056C120.471 20.4821 116.772 22.3492 114.736 26.4755C112.7 30.6018 112.7 33.1434 112.7 33.1434C113.532 32.2687 114.437 31.467 115.406 30.7469C116.277 30.065 117.237 29.5056 118.259 29.0837C118.499 28.0175 118.855 26.9812 119.32 25.9929C120.056 24.4555 121.223 22.8551 122.664 22.4943C125.588 21.7608 124.187 27.103 122.037 30.586C120.882 32.4451 116.783 37.8226 113.264 37.8226C109.745 37.8226 109.071 34.4259 109.811 31.237C110.551 28.0482 111.581 24.0162 116.725 16.6735C121.869 9.33095 127.432 4.97717 130.654 3.1533C133.962 1.27451 135.309 2.09819 135.309 2.09819C135.309 2.09819 131.084 4.69476 128.681 7.83262C126.387 10.8293 125.013 14.1985 126.077 15.8498C127.095 17.4227 130.669 17.4541 134.612 11.7589C138.503 6.13425 137.524 2.78853 137.524 2.78853C137.781 2.70508 138.042 2.63953 138.307 2.59241C140.206 2.33745 141.725 2.84342 144.074 4.05151C145.219 4.64088 146.344 5.39574 147.545 6.20204C148.923 7.12747 150.403 8.12085 152.13 9.00913L152.127 9.01324H152.139ZM136.193 3.2239C136.193 3.2239 133.688 4.22409 130.775 7.44039C127.863 10.6567 126.163 14.277 127.42 15.234C127.902 15.5988 129.013 15.6616 131.034 13.8416C132.896 12.2208 134.358 10.1895 135.305 7.90715C136.534 4.90422 136.235 3.43201 136.197 3.244C136.195 3.2326 136.193 3.22592 136.193 3.2239Z" fill="white"/>
<path d="M157.214 10.8351L157.212 10.8371C164.055 12.1942 170.049 7.94634 173.236 4.32997C174.399 3.0358 175.399 1.60399 176.215 0.0664062C174.763 1.58024 173.139 2.91778 171.376 4.05149L171.356 4.04756C168.389 5.95381 164.282 7.68354 160.336 7.30309C159.338 8.33857 158.269 9.53488 157.204 10.8332L157.214 10.8351Z" fill="white"/>
<path fill-rule="evenodd" clip-rule="evenodd" d="M159.624 35.2028C159.056 36.1128 158.41 37.8581 160.285 36.7717C162.568 35.4498 165.821 30.4959 165.821 30.4959H167.293C165.951 32.5663 164.457 34.5329 162.822 36.3795C160.509 38.9486 157.686 41.2823 155.697 41.0509C153.376 40.7802 154.104 37.7247 154.104 37.7247C154.104 37.7247 150.768 41.2548 148.478 41.0156C145.374 40.6704 146.321 36.8266 146.321 36.8266C146.321 36.8266 142.798 41.1412 140.417 41.0117C136.667 40.796 137.611 36.2108 138.652 33.0022C139.212 31.2805 139.728 29.9272 139.728 29.9272C139.728 29.9272 139.357 30.0253 138.554 30.1429C138.135 30.2017 137.38 30.2449 137.38 30.2449C136.519 31.7658 135.581 33.241 134.569 34.6654C133.32 36.3284 128.015 42.0432 124.883 40.898C121.994 39.839 122.949 35.4067 124.633 31.8766C127.087 26.7424 133.993 19.3644 137.975 20.3332C142.105 21.3374 138.069 28.8839 138.069 28.8839C138.069 28.8839 138.069 28.9112 138.112 28.931C138.372 28.978 138.641 28.9633 138.895 28.8877C139.411 28.7831 139.916 28.6321 140.406 28.4366C140.406 28.4366 144.555 19.7292 149.14 14.034C153.724 8.33878 162.881 -1.45917 166.471 0.913831C167.348 1.49825 166.948 3.50649 165.766 5.94616C165.233 6.11498 164.692 6.25638 164.145 6.36978C164.801 5.28034 165.297 4.10203 165.617 2.87107C166.157 -0.0706723 159.299 6.13052 154.397 12.8063C151.45 16.828 148.831 21.0818 146.568 25.5265C147.453 24.9872 148.299 24.3841 149.097 23.7221C151.283 21.9054 153.362 19.9618 155.321 17.9014C157.201 15.9606 158.965 13.9095 160.602 11.759C161.127 11.7343 161.65 11.6807 162.168 11.5982C160.376 14.0328 158.424 16.3444 156.323 18.5172C156.15 18.6906 155.976 18.8654 155.801 19.0412C153.994 20.8537 152.089 22.7652 150.412 24.181C148.774 25.5844 147.047 26.8791 145.24 28.0563C145.24 28.0563 140.934 36.7167 143.283 37.2736C144.653 37.6031 147.362 33.426 147.362 33.426C147.362 33.426 150.886 28.0248 153.023 25.5813C155.912 22.2866 158.414 20.3881 160.9 20.3371C162.356 20.3097 163.214 21.8668 163.214 21.8668L163.899 20.8039H168.115C168.115 20.8039 160.242 34.1869 159.612 35.1949L159.624 35.2028ZM162.266 23.3651C162.318 23.2742 162.36 23.1782 162.391 23.0789C162.371 22.922 162.298 22.7769 162.184 22.6677C162.07 22.5585 161.922 22.4917 161.765 22.4787C161.115 22.4474 160.223 22.5728 157.893 25.1577C155.958 27.298 154.293 29.6693 152.937 32.2179C151.602 34.6615 151.062 36.4813 151.829 36.9521C152.078 37.0802 152.366 37.1096 152.636 37.0345C153.156 36.9089 153.743 36.4225 154.64 35.3832C154.976 34.9937 155.341 34.4733 155.759 33.8786L155.763 33.8729C155.866 33.727 155.972 33.5762 156.081 33.422C157.623 31.3197 161.499 24.6988 162.266 23.3614V23.3651ZM138.049 26.1735C138.44 25.1537 138.934 23.1535 137.904 22.3689C136.796 21.5335 133.989 23.4907 133.962 25.5067C133.934 27.5229 135.947 28.4917 136.428 28.621C136.702 28.6956 136.796 28.6838 136.929 28.4641C137.355 27.7302 137.729 26.9675 138.049 26.1814V26.1735ZM135.915 29.9194C135.217 29.5956 134.565 29.1788 133.978 28.68C133.386 28.1853 132.891 27.5855 132.517 26.911C132.485 26.8558 132.453 26.8919 132.418 26.9303C132.411 26.9385 132.403 26.9467 132.396 26.954C132.352 26.9983 132.176 27.1741 130.673 29.3781C129.162 31.5942 126.86 36.1598 128.951 36.9404C130.29 37.4385 132.517 35.089 133.739 33.5319C134.566 32.4457 135.315 31.3029 135.982 30.1116C136.045 29.9782 135.982 29.9467 135.915 29.9194Z" fill="white"/>
<path d="M112.18 10.6174H108.171L105.904 14.2887H109.913L112.18 10.6174Z" fill="white"/>
<path fill-rule="evenodd" clip-rule="evenodd" d="M102.768 20.6626H104.225C104.225 20.6626 96.8647 31.3196 92.7033 30.8333C90.3818 30.5626 91.0708 27.6952 91.0708 27.6952C91.0708 27.6952 87.8018 31.5195 84.8071 30.7547C82.09 30.0565 83.844 25.5341 83.844 25.5341C83.7976 25.5528 83.6268 25.7172 83.356 25.9781C81.8161 27.4607 77.0408 32.058 73.5283 30.7037C69.2221 29.0329 71.4495 23.4749 72.2717 21.8039C72.9685 20.3959 73.7398 19.0231 73.7398 19.0231C73.7398 19.0231 73.0781 19.2113 72.6631 19.3055C72.2483 19.3996 71.6258 19.5212 71.6258 19.5212C71.6258 19.5212 69.5821 22.8512 68.3334 24.5104C67.0846 26.1696 61.772 31.8805 58.644 30.743C55.5161 29.6054 56.2952 25.2204 58.0489 21.7216C60.8991 16.0735 67.6639 9.13097 71.7509 10.1743C75.8381 11.2176 72.4595 17.913 72.4595 17.913C72.4595 17.913 73.2778 18.019 75.239 16.6775C76.0491 16.1252 76.9322 15.3057 77.8746 14.4313C80.2246 12.2504 82.9421 9.72857 85.8092 10.1625C87.704 10.4489 89.4696 12.3983 87.0542 16.097C86.2711 17.2737 84.9831 18.3484 83.9888 17.2972C83.3703 16.6501 83.9104 15.4538 84.5604 14.6379C84.8144 14.3054 85.1462 14.0407 85.5264 13.867C85.9066 13.6932 86.3237 13.6158 86.7408 13.6416C86.7408 13.6416 87.4065 12.108 85.7113 12.1394C84.3372 12.1668 80.8607 15.3714 78.8995 18.6112C77.1221 21.5962 74.4013 26.6637 77.1221 27.7698C79.6316 28.7858 84.4076 23.1061 86.6195 20.1292C88.8314 17.1521 93.866 10.4057 98.094 10.1351C99.5503 10.0409 100.416 11.3706 100.416 11.3706L100.905 10.5861H105.125C105.125 10.5861 97.1779 23.9182 96.5554 24.9184C96.0662 25.7027 95.4162 27.4796 97.2171 26.4873C99.018 25.4948 102.768 20.6626 102.768 20.6626ZM93.1965 23.318C94.9033 20.9646 99.609 12.767 99.609 12.767C99.5889 12.6102 99.5158 12.4651 99.4017 12.3559C99.2877 12.2467 99.1399 12.1799 98.9827 12.1669C98.3328 12.1355 97.2523 12.3551 95.0678 15.0615C92.8834 17.7679 91.2548 19.9213 90.0412 22.1609C88.7023 24.6044 88.119 26.3304 88.8863 26.7971C89.1357 26.9235 89.4229 26.9527 89.6926 26.8794C90.1938 26.754 90.8475 26.2519 91.7442 25.2164C92.167 24.734 92.6444 24.0828 93.2043 23.318H93.1965ZM71.6922 12.2178C70.5842 11.3785 67.7775 13.3396 67.75 15.3557C67.7226 17.3718 70.2946 17.9993 70.6274 18.015C70.7016 18.0346 70.7802 18.0291 70.8511 17.9993C70.9219 17.9695 70.9808 17.9171 71.019 17.8503C71.3199 17.2593 71.5905 16.6532 71.8293 16.0343C72.2208 15.0145 72.71 13.0141 71.6805 12.2296L71.6922 12.2178ZM70.0089 19.2898C69.2451 19.0504 68.5149 18.7143 67.8362 18.2896C67.1741 17.8612 66.6345 17.2679 66.2703 16.5677C66.2361 16.5096 66.199 16.5528 66.164 16.5934C66.159 16.5994 66.1539 16.6053 66.1489 16.6108C66.1097 16.654 65.8827 16.9521 64.3755 19.1682C62.8682 21.3843 60.6329 25.9184 62.7272 26.6952C64.0661 27.1933 66.3172 24.8359 67.5348 23.2787C68.4522 22.0634 69.3004 20.797 70.0753 19.4859C70.1263 19.3525 70.0753 19.3212 70.0009 19.2976L70.0089 19.2898Z" fill="white"/>
<path d="M100.466 42C97.3529 39.8412 93.6252 38.7511 89.8415 38.8935C88.8174 38.9212 87.814 39.1906 86.9134 39.6801C86.0127 40.1694 85.2401 40.8647 84.6583 41.7098C83.0454 38.8897 79.8587 37.1599 74.9299 37.199C70.7568 37.2464 66.6 38.2794 62.6884 39.2513C59.1363 40.1339 55.7865 40.9664 52.811 40.9645C46.8056 40.9645 42.4327 37.1834 42.5775 30.4723C42.836 18.7054 52.7561 8.11509 60.1944 3.3377C64.4577 0.59208 68.024 -0.215916 70.373 0.0468784C72.076 0.235149 74.1234 2.20809 72.8314 5.11451C70.9328 9.37024 68.3099 9.0133 68.4078 6.98153C68.4485 6.45151 68.6143 5.93874 68.8911 5.48533C69.1682 5.03189 69.5486 4.65076 70.001 4.37319C70.4814 4.11127 71.0203 3.97629 71.5671 3.98097C71.9584 3.66326 72.2286 1.33732 69.1749 2.10218C66.1215 2.86702 62.4023 5.87544 58.8947 9.75853C55.387 13.6416 49.9297 20.9764 48.579 28.6799C47.9487 32.2531 48.3675 38.7681 56.8001 38.6973C60.0515 38.6707 64.007 37.6824 68.2665 36.6183C73.3881 35.339 78.9486 33.9499 84.251 33.9906C87.6334 33.9763 90.9551 34.8877 93.8581 36.6265C96.3716 38.1954 99.3821 40.4389 100.451 41.9842L100.466 42Z" fill="white"/>
<path d="M23.6378 26.7422H32.1017L31.8238 24.8123H25.838V22.459H29.8703V20.4978H25.838V18.4974H31.7102L31.9921 16.5676H23.6418L23.6378 26.7422Z" fill="white"/>
<path d="M11.1103 26.7423H13.3105V22.2433H18.4937V26.7383H20.7017V16.5991H18.4977V20.2744H13.3105V16.5952H11.1221L11.1103 26.7423Z" fill="white"/>
<path d="M0 18.576H3.3746V26.7306H5.58257V18.576H8.95717V16.5913H0V18.576Z" fill="white"/>
<path d="M258.298 16.6226H260.73L256.724 23.3532V26.7618H254.517V23.3965L250.472 16.6187H252.958L255.641 21.3648L258.298 16.6226Z" fill="white"/>
<path d="M246.588 23.4866V16.6226L248.739 16.6108V26.75H246.519L241.606 19.7644V26.75H239.455V16.6108H241.742L246.588 23.4866Z" fill="white"/>
<path fill-rule="evenodd" clip-rule="evenodd" d="M237.523 26.754H235.201L234.358 24.4909H229.914L229.074 26.7423H226.768L230.797 16.6069H233.509L237.523 26.754ZM232.151 18.5642L230.635 22.5845L233.654 22.5807L232.151 18.5642Z" fill="white"/>
<path fill-rule="evenodd" clip-rule="evenodd" d="M217.986 16.603H223.19C223.865 16.5811 224.538 16.7238 225.148 17.0188C225.655 17.2705 226.075 17.6696 226.353 18.1641C226.622 18.6724 226.762 19.2386 226.762 19.8134C226.762 20.3883 226.622 20.9545 226.353 21.4627C226.072 21.9578 225.653 22.3589 225.148 22.616C224.538 22.9123 223.867 23.0564 223.19 23.0356H220.195V26.7383H217.986V16.603ZM220.21 21.0784H223.151C223.522 21.1025 223.886 20.9833 224.171 20.745C224.408 20.4922 224.538 20.1593 224.538 19.8134C224.538 19.4676 224.408 19.1347 224.171 18.8819C223.882 18.65 223.517 18.534 223.146 18.5563H220.21V21.0784Z" fill="white"/>
<path d="M212.088 16.603H215.052L215.054 26.7461H212.918V19.2937L209.81 26.5892H208.333L205.26 19.4781V26.7305H203.122V16.603H206.086L209.116 23.6633L212.088 16.603Z" fill="white"/>
<path d="M195.31 24.9066C195.309 24.9066 195.31 24.9067 195.31 24.9066V24.9066Z" fill="white"/>
<path fill-rule="evenodd" clip-rule="evenodd" d="M198.099 26.2401C197.24 26.6939 196.28 26.9232 195.308 26.9068L195.296 26.9108C194.325 26.9261 193.365 26.6968 192.505 26.244C191.703 25.8142 191.037 25.1672 190.583 24.3769C190.126 23.5441 189.886 22.6092 189.886 21.6587C189.886 20.7084 190.126 19.7734 190.583 18.9406C191.038 18.1502 191.706 17.5034 192.509 17.0736C193.374 16.6339 194.33 16.4048 195.3 16.4048C196.27 16.4048 197.227 16.6339 198.092 17.0736C198.907 17.4986 199.585 18.1458 200.049 18.9406C200.505 19.7731 200.744 20.7073 200.744 21.6568C200.744 22.6062 200.505 23.5405 200.049 24.3729C199.587 25.1667 198.912 25.8138 198.099 26.2401ZM193.703 24.4908C194.192 24.7715 194.747 24.9152 195.31 24.9066C195.874 24.9189 196.43 24.7749 196.917 24.4908C197.387 24.2192 197.771 23.8211 198.025 23.3414C198.288 22.8196 198.425 22.2433 198.425 21.6587C198.425 21.0743 198.288 20.498 198.025 19.9761C197.773 19.4927 197.389 19.0913 196.917 18.819C196.426 18.5478 195.873 18.4055 195.312 18.4055C194.751 18.4055 194.199 18.5478 193.707 18.819C193.237 19.0839 192.851 19.4752 192.591 19.9486C192.319 20.4668 192.185 21.0461 192.2 21.6314C192.187 22.2162 192.321 22.795 192.591 23.3139C192.844 23.8032 193.229 24.211 193.703 24.4908Z" fill="white"/>
<path d="M186.985 26.5185C186.244 26.7866 185.46 26.9194 184.672 26.9108L184.683 26.9225C183.661 26.9406 182.649 26.7047 181.739 26.236C180.901 25.8043 180.198 25.1493 179.707 24.3431C179.216 23.5371 178.956 22.611 178.956 21.6666C178.956 20.7222 179.216 19.7961 179.707 18.99C180.198 18.1839 180.901 17.5289 181.739 17.0971C182.638 16.6332 183.637 16.3988 184.648 16.4146C185.437 16.4005 186.221 16.5335 186.962 16.8068C187.632 17.0521 188.228 17.4637 188.696 18.0031L187.322 19.5328C186.972 19.1662 186.554 18.8705 186.093 18.6621C185.654 18.4778 185.182 18.3843 184.707 18.3875C184.096 18.3794 183.494 18.5279 182.957 18.819C182.449 19.0932 182.024 19.4997 181.728 19.9957C181.418 20.4958 181.256 21.074 181.262 21.6626C181.254 22.2429 181.406 22.8141 181.703 23.3126C181.999 23.8111 182.428 24.2177 182.941 24.4867C183.487 24.7801 184.099 24.9288 184.719 24.9183C185.213 24.9265 185.705 24.8322 186.161 24.6411C186.618 24.4502 187.031 24.1665 187.373 23.8082L188.751 25.3143C188.275 25.861 187.667 26.2755 186.985 26.5185Z" fill="white"/>
</g>
<defs>
<clipPath id="clip0_15_244">
<rect width="262" height="42" fill="white"/>
</clipPath>
</defs>
</svg>
