<svg width="18" height="18" viewBox="0 0 18 18" fill="none" xmlns="http://www.w3.org/2000/svg">
<path d="M5.49999 0.666748H12.5C15.1667 0.666748 17.3333 2.83341 17.3333 5.50008V12.5001C17.3333 13.782 16.8241 15.0113 15.9177 15.9178C15.0112 16.8242 13.7819 17.3334 12.5 17.3334H5.49999C2.83332 17.3334 0.666656 15.1667 0.666656 12.5001V5.50008C0.666656 4.2182 1.17588 2.98882 2.08231 2.0824C2.98873 1.17597 4.21811 0.666748 5.49999 0.666748ZM5.33332 2.33341C4.53767 2.33341 3.77461 2.64949 3.212 3.21209C2.64939 3.7747 2.33332 4.53777 2.33332 5.33341V12.6667C2.33332 14.3251 3.67499 15.6667 5.33332 15.6667H12.6667C13.4623 15.6667 14.2254 15.3507 14.788 14.7881C15.3506 14.2255 15.6667 13.4624 15.6667 12.6667V5.33341C15.6667 3.67508 14.325 2.33341 12.6667 2.33341H5.33332ZM13.375 3.58341C13.6513 3.58341 13.9162 3.69316 14.1116 3.88851C14.3069 4.08386 14.4167 4.34881 14.4167 4.62508C14.4167 4.90135 14.3069 5.1663 14.1116 5.36165C13.9162 5.557 13.6513 5.66675 13.375 5.66675C13.0987 5.66675 12.8338 5.557 12.6384 5.36165C12.4431 5.1663 12.3333 4.90135 12.3333 4.62508C12.3333 4.34881 12.4431 4.08386 12.6384 3.88851C12.8338 3.69316 13.0987 3.58341 13.375 3.58341ZM8.99999 4.83341C10.1051 4.83341 11.1649 5.2724 11.9463 6.0538C12.7277 6.8352 13.1667 7.89501 13.1667 9.00008C13.1667 10.1052 12.7277 11.165 11.9463 11.9464C11.1649 12.7278 10.1051 13.1667 8.99999 13.1667C7.89492 13.1667 6.83511 12.7278 6.05371 11.9464C5.27231 11.165 4.83332 10.1052 4.83332 9.00008C4.83332 7.89501 5.27231 6.8352 6.05371 6.0538C6.83511 5.2724 7.89492 4.83341 8.99999 4.83341ZM8.99999 6.50008C8.33695 6.50008 7.70106 6.76347 7.23222 7.23231C6.76338 7.70115 6.49999 8.33704 6.49999 9.00008C6.49999 9.66312 6.76338 10.299 7.23222 10.7678C7.70106 11.2367 8.33695 11.5001 8.99999 11.5001C9.66303 11.5001 10.2989 11.2367 10.7678 10.7678C11.2366 10.299 11.5 9.66312 11.5 9.00008C11.5 8.33704 11.2366 7.70115 10.7678 7.23231C10.2989 6.76347 9.66303 6.50008 8.99999 6.50008Z" fill="white"/>
</svg>
