<svg width="18" height="12" viewBox="0 0 18 12" fill="none" xmlns="http://www.w3.org/2000/svg">
<path d="M7.33332 8.50008L11.6583 6.00008L7.33332 3.50008V8.50008ZM16.9667 1.97508C17.075 2.36675 17.15 2.89175 17.2 3.55841C17.2583 4.22508 17.2833 4.80008 17.2833 5.30008L17.3333 6.00008C17.3333 7.82508 17.2 9.16675 16.9667 10.0251C16.7583 10.7751 16.275 11.2584 15.525 11.4667C15.1333 11.5751 14.4167 11.6501 13.3167 11.7001C12.2333 11.7584 11.2417 11.7834 10.325 11.7834L8.99999 11.8334C5.50832 11.8334 3.33332 11.7001 2.47499 11.4667C1.72499 11.2584 1.24166 10.7751 1.03332 10.0251C0.92499 9.63341 0.84999 9.10841 0.79999 8.44175C0.741657 7.77508 0.716656 7.20008 0.716656 6.70008L0.666656 6.00008C0.666656 4.17508 0.79999 2.83341 1.03332 1.97508C1.24166 1.22508 1.72499 0.741748 2.47499 0.533415C2.86666 0.425081 3.58332 0.350081 4.68332 0.300081C5.76666 0.241748 6.75832 0.216748 7.67499 0.216748L8.99999 0.166748C12.4917 0.166748 14.6667 0.300081 15.525 0.533415C16.275 0.741748 16.7583 1.22508 16.9667 1.97508Z" fill="white"/>
</svg>
