<svg width="28" height="29" viewBox="0 0 28 29" fill="none" xmlns="http://www.w3.org/2000/svg">
<path d="M14.0002 2.94434C18.5106 2.94434 22.1669 6.60068 22.1669 11.111H23.4199C24.0295 11.111 24.5363 11.5804 24.5831 12.1882L25.5703 25.0215C25.6196 25.664 25.139 26.2248 24.4965 26.2743L24.407 26.2777H3.59342C2.94909 26.2777 2.42676 25.7554 2.42676 25.111L2.43019 25.0215L3.41737 12.1882C3.46412 11.5804 3.97098 11.111 4.5806 11.111H5.83356C5.83356 6.60068 9.48991 2.94434 14.0002 2.94434ZM22.3384 13.4443H5.6609L4.8524 23.9443H23.1469L22.3384 13.4443ZM16.3336 15.7777V18.111H11.6669V15.7777H16.3336ZM14.0002 5.27767C10.8634 5.27767 8.30477 7.7537 8.17229 10.858L8.1669 11.111H19.8336C19.8336 7.97412 17.3575 5.41555 14.2533 5.28306L14.0002 5.27767Z" fill="black"/>
</svg>
