<svg width="28" height="28" viewBox="0 0 28 28" fill="none" xmlns="http://www.w3.org/2000/svg">
<path d="M14.0002 2.33325C18.5106 2.33325 22.1669 5.9896 22.1669 10.4999H23.4199C24.0295 10.4999 24.5363 10.9693 24.5831 11.5771L25.5703 24.4104C25.6196 25.0529 25.139 25.6137 24.4965 25.6632L24.407 25.6666H3.59342C2.94909 25.6666 2.42676 25.1443 2.42676 24.4999L2.43019 24.4104L3.41737 11.5771C3.46412 10.9693 3.97098 10.4999 4.5806 10.4999H5.83356C5.83356 5.9896 9.48991 2.33325 14.0002 2.33325ZM22.3384 12.8333H5.6609L4.8524 23.3333H23.1469L22.3384 12.8333ZM16.3336 15.1666V17.4999H11.6669V15.1666H16.3336ZM14.0002 4.66659C10.8634 4.66659 8.30477 7.14261 8.17229 10.2469L8.1669 10.4999H19.8336C19.8336 7.36303 17.3575 4.80446 14.2533 4.67198L14.0002 4.66659Z" fill="#76B802"/>
</svg>
