<svg width="24" height="24" viewBox="0 0 24 24" fill="none" xmlns="http://www.w3.org/2000/svg">
<path d="M8.03538 2.67748C7.76076 2.95218 7.60649 3.3247 7.60649 3.71313C7.60649 4.10155 7.76076 4.47407 8.03538 4.74877L15.2864 11.9997L8.03538 19.2507C7.76854 19.527 7.62089 19.897 7.62423 20.2811C7.62757 20.6652 7.78162 21.0326 8.05322 21.3042C8.32481 21.5758 8.69221 21.7298 9.07629 21.7332C9.46037 21.7365 9.83039 21.5888 10.1067 21.322L18.3933 13.0354C18.6679 12.7607 18.8222 12.3882 18.8222 11.9997C18.8222 11.6113 18.6679 11.2388 18.3933 10.9641L10.1067 2.67748C9.83197 2.40287 9.45944 2.2486 9.07102 2.2486C8.6826 2.2486 8.31007 2.40287 8.03538 2.67748Z" fill="#BFBF93"/>
</svg>
