<svg width="24" height="24" viewBox="0 0 24 24" fill="none" xmlns="http://www.w3.org/2000/svg">
<path d="M8.03538 2.67754C7.76076 2.95224 7.60649 3.32476 7.60649 3.71319C7.60649 4.10161 7.76076 4.47413 8.03538 4.74883L15.2864 11.9998L8.03538 19.2508C7.76854 19.5271 7.62089 19.8971 7.62423 20.2812C7.62757 20.6652 7.78162 21.0326 8.05322 21.3042C8.32481 21.5758 8.69221 21.7299 9.07629 21.7332C9.46037 21.7366 9.83039 21.5889 10.1067 21.3221L18.3933 13.0355C18.6679 12.7608 18.8222 12.3882 18.8222 11.9998C18.8222 11.6114 18.6679 11.2389 18.3933 10.9642L10.1067 2.67754C9.83197 2.40293 9.45944 2.24866 9.07102 2.24866C8.6826 2.24866 8.31007 2.40293 8.03538 2.67754Z" fill="#101A2F"/>
</svg>
