<svg width="24" height="24" viewBox="0 0 24 24" fill="none" xmlns="http://www.w3.org/2000/svg">
<path d="M7.75324 2.39666C7.47863 2.67136 7.32435 3.04388 7.32435 3.4323C7.32435 3.82073 7.47863 4.19325 7.75324 4.46795L15.0042 11.7189L7.75324 18.9699C7.48641 19.2462 7.33876 19.6162 7.3421 20.0003C7.34543 20.3844 7.49949 20.7518 7.77108 21.0233C8.04268 21.2949 8.41008 21.449 8.79416 21.4523C9.17823 21.4557 9.54826 21.308 9.82453 21.0412L18.1112 12.7546C18.3858 12.4799 18.54 12.1073 18.54 11.7189C18.54 11.3305 18.3858 10.958 18.1112 10.6833L9.82453 2.39666C9.54983 2.12204 9.17731 1.96777 8.78889 1.96777C8.40046 1.96777 8.02794 2.12204 7.75324 2.39666Z" fill="black"/>
</svg>
