<svg width="24" height="24" viewBox="0 0 24 24" fill="none" xmlns="http://www.w3.org/2000/svg">
<path d="M7.75318 2.39666C7.47856 2.67136 7.32429 3.04388 7.32429 3.4323C7.32429 3.82073 7.47856 4.19325 7.75318 4.46795L15.0042 11.7189L7.75318 18.9699C7.48635 19.2462 7.3387 19.6162 7.34204 20.0003C7.34537 20.3844 7.49943 20.7518 7.77102 21.0233C8.04262 21.2949 8.41002 21.449 8.7941 21.4523C9.17817 21.4557 9.5482 21.308 9.82447 21.0412L18.1111 12.7546C18.3857 12.4799 18.54 12.1073 18.54 11.7189C18.54 11.3305 18.3857 10.958 18.1111 10.6833L9.82447 2.39666C9.54977 2.12204 9.17725 1.96777 8.78882 1.96777C8.4004 1.96777 8.02788 2.12204 7.75318 2.39666Z" fill="#76B802"/>
</svg>
