<svg width="25" height="24" viewBox="0 0 25 24" fill="none" xmlns="http://www.w3.org/2000/svg">
<path d="M8.54621 2.66975C8.27159 2.9443 8.11732 3.31663 8.11732 3.70485C8.11732 4.09307 8.27159 4.46539 8.54621 4.73995L15.7972 11.9871L8.54621 19.2343C8.27938 19.5104 8.13173 19.8802 8.13507 20.2641C8.1384 20.648 8.29246 21.0152 8.56405 21.2866C8.83565 21.5581 9.20305 21.7121 9.58713 21.7154C9.9712 21.7187 10.3412 21.5712 10.6175 21.3045L18.9041 13.0222C19.1787 12.7477 19.333 12.3753 19.333 11.9871C19.333 11.5989 19.1787 11.2266 18.9041 10.952L10.6175 2.66975C10.3428 2.39528 9.97028 2.24109 9.58185 2.24109C9.19343 2.24109 8.82091 2.39528 8.54621 2.66975Z" fill="white"/>
</svg>
