<svg width="28" height="29" viewBox="0 0 28 29" fill="none" xmlns="http://www.w3.org/2000/svg">
<path d="M21.0363 19.9973L26.0328 24.9938L24.3829 26.6437L19.3864 21.6472C17.5899 23.0845 15.3115 23.9443 12.8335 23.9443C7.0375 23.9443 2.3335 19.2403 2.3335 13.4443C2.3335 7.64834 7.0375 2.94434 12.8335 2.94434C18.6295 2.94434 23.3335 7.64834 23.3335 13.4443C23.3335 15.9223 22.4737 18.2007 21.0363 19.9973ZM18.6956 19.1316C20.1222 17.6614 21.0002 15.6559 21.0002 13.4443C21.0002 8.93225 17.3456 5.27767 12.8335 5.27767C8.32141 5.27767 4.66683 8.93225 4.66683 13.4443C4.66683 17.9564 8.32141 21.611 12.8335 21.611C15.045 21.611 17.0505 20.7331 18.5208 19.3065L18.6956 19.1316Z" fill="black"/>
</svg>
