<svg width="28" height="28" viewBox="0 0 28 28" fill="none" xmlns="http://www.w3.org/2000/svg">
<path d="M21.0363 19.3862L26.0328 24.3827L24.3829 26.0326L19.3864 21.0361C17.5899 22.4734 15.3115 23.3333 12.8335 23.3333C7.0375 23.3333 2.3335 18.6293 2.3335 12.8333C2.3335 7.03725 7.0375 2.33325 12.8335 2.33325C18.6295 2.33325 23.3335 7.03725 23.3335 12.8333C23.3335 15.3113 22.4737 17.5896 21.0363 19.3862ZM18.6956 18.5205C20.1222 17.0503 21.0002 15.0448 21.0002 12.8333C21.0002 8.32117 17.3456 4.66659 12.8335 4.66659C8.32141 4.66659 4.66683 8.32117 4.66683 12.8333C4.66683 17.3453 8.32141 20.9999 12.8335 20.9999C15.045 20.9999 17.0505 20.122 18.5208 18.6954L18.6956 18.5205Z" fill="#76B802"/>
</svg>
