<svg width="40" height="41" viewBox="0 0 40 41" fill="none" xmlns="http://www.w3.org/2000/svg">
<path d="M37.0208 10.0488C35.7485 10.6117 34.3992 10.9813 33.0177 11.1456C34.4732 10.2743 35.5623 8.90357 36.0822 7.28882C34.7145 8.10142 33.2175 8.67335 31.6563 8.97975C30.3385 7.57383 28.4967 6.77712 26.5697 6.7793C22.721 6.7793 19.5995 9.89975 19.5995 13.7501C19.5995 14.2964 19.6622 14.8261 19.7793 15.3372C13.9841 15.0455 8.85013 12.2722 5.41131 8.05442C4.79216 9.11819 4.46676 10.3274 4.46841 11.5582C4.46841 13.9764 5.69934 16.1108 7.56916 17.3604C6.46229 17.3254 5.37981 17.0265 4.41198 16.4883C4.41091 16.5176 4.41091 16.5469 4.41091 16.5745C4.41091 19.9527 6.81366 22.7707 10.0033 23.4106C9.40468 23.5726 8.78721 23.6544 8.16704 23.6539C7.71663 23.6539 7.27953 23.6124 6.85466 23.5309C7.74219 26.2996 10.3148 28.3152 13.366 28.3706C10.8969 30.3084 7.84783 31.3597 4.70906 31.3552C4.15354 31.3557 3.59849 31.3229 3.04688 31.2572C6.23341 33.3057 9.94254 34.3929 13.7307 34.3889C26.5527 34.3889 33.5633 23.7679 33.5633 14.5573C33.5633 14.2559 33.556 13.9535 33.5427 13.6554C34.9072 12.6695 36.085 11.4482 37.0208 10.0488Z" fill="black"/>
</svg>
