<svg width="28" height="28" viewBox="0 0 28 28" fill="none" xmlns="http://www.w3.org/2000/svg">
<path d="M4.6665 25.6667C4.6665 20.5121 8.84518 16.3334 13.9998 16.3334C19.1545 16.3334 23.3332 20.5121 23.3332 25.6667H20.9998C20.9998 21.8008 17.8658 18.6667 13.9998 18.6667C10.1338 18.6667 6.99984 21.8008 6.99984 25.6667H4.6665ZM13.9998 15.1667C10.1323 15.1667 6.99984 12.0342 6.99984 8.16675C6.99984 4.29925 10.1323 1.16675 13.9998 1.16675C17.8673 1.16675 20.9998 4.29925 20.9998 8.16675C20.9998 12.0342 17.8673 15.1667 13.9998 15.1667ZM13.9998 12.8334C16.5782 12.8334 18.6665 10.7451 18.6665 8.16675C18.6665 5.58841 16.5782 3.50008 13.9998 3.50008C11.4215 3.50008 9.33317 5.58841 9.33317 8.16675C9.33317 10.7451 11.4215 12.8334 13.9998 12.8334Z" fill="#76B802"/>
</svg>
