<svg width="28" height="29" viewBox="0 0 28 29" fill="none" xmlns="http://www.w3.org/2000/svg">
<path d="M4.6665 26.2778C4.6665 21.1231 8.84518 16.9445 13.9998 16.9445C19.1545 16.9445 23.3332 21.1231 23.3332 26.2778H20.9998C20.9998 22.4118 17.8658 19.2778 13.9998 19.2778C10.1338 19.2778 6.99984 22.4118 6.99984 26.2778H4.6665ZM13.9998 15.7778C10.1323 15.7778 6.99984 12.6453 6.99984 8.77783C6.99984 4.91033 10.1323 1.77783 13.9998 1.77783C17.8673 1.77783 20.9998 4.91033 20.9998 8.77783C20.9998 12.6453 17.8673 15.7778 13.9998 15.7778ZM13.9998 13.4445C16.5782 13.4445 18.6665 11.3562 18.6665 8.77783C18.6665 6.1995 16.5782 4.11117 13.9998 4.11117C11.4215 4.11117 9.33317 6.1995 9.33317 8.77783C9.33317 11.3562 11.4215 13.4445 13.9998 13.4445Z" fill="black"/>
</svg>
