<svg width="40" height="41" viewBox="0 0 40 41" fill="none" xmlns="http://www.w3.org/2000/svg">
<path d="M20.4065 7.28882C21.2966 7.29372 23.5238 7.31525 25.8901 7.41004L26.7291 7.44662C29.1116 7.55942 31.4921 7.75212 32.6728 8.08132C34.2476 8.52374 35.4855 9.81465 35.9038 11.451C36.57 14.0495 36.6533 19.1212 36.6636 20.3485L36.6651 20.6028V20.6207C36.6651 20.6207 36.6651 20.6268 36.6651 20.6387L36.6636 20.893C36.6533 22.1203 36.57 27.192 35.9038 29.7905C35.4796 31.4328 34.2418 32.7238 32.6728 33.1602C31.4921 33.4893 29.1116 33.682 26.7291 33.7948L25.8901 33.8313C23.5238 33.9262 21.2966 33.9477 20.4065 33.9527L20.0158 33.954H19.9985C19.9985 33.954 19.9926 33.954 19.9811 33.954L19.5908 33.9527C17.7068 33.9423 9.82951 33.8572 7.32416 33.1602C5.74931 32.7177 4.51151 31.4268 4.0931 29.7905C3.42698 27.192 3.34371 22.1203 3.33331 20.893V20.3485C3.34371 19.1212 3.42698 14.0495 4.0931 11.451C4.51731 9.80859 5.75511 8.51769 7.32416 8.08132C9.82951 7.3842 17.7068 7.29919 19.5908 7.28882H20.4065ZM16.6652 14.7874V26.454L26.6651 20.6207L16.6652 14.7874Z" fill="black"/>
</svg>
