<svg width="24" height="24" viewBox="0 0 24 24" fill="none" xmlns="http://www.w3.org/2000/svg">
<path d="M12 2.54004L12 21.46" stroke="#6558C9" stroke-width="2.064" stroke-miterlimit="10"/>
<path d="M2.54004 12L21.46 12" stroke="#6558C9" stroke-width="2.064" stroke-miterlimit="10"/>
<path d="M12.0005 21.46C14.6128 21.46 16.7305 17.2247 16.7305 12C16.7305 6.77543 14.6128 2.54004 12.0005 2.54004C9.3882 2.54004 7.27051 6.77543 7.27051 12C7.27051 17.2247 9.3882 21.46 12.0005 21.46Z" stroke="#6558C9" stroke-width="2.064" stroke-miterlimit="10" stroke-linecap="square"/>
<path d="M12 21.46C17.2247 21.46 21.46 17.2247 21.46 12C21.46 6.77543 17.2247 2.54004 12 2.54004C6.77543 2.54004 2.54004 6.77543 2.54004 12C2.54004 17.2247 6.77543 21.46 12 21.46Z" stroke="#6558C9" stroke-width="2.064" stroke-miterlimit="10" stroke-linecap="square"/>
</svg>
