<svg width="24" height="24" viewBox="0 0 24 24" fill="none" xmlns="http://www.w3.org/2000/svg">
<path d="M18.6292 21.4286L5.37091 21.4286C5.12781 21.4287 4.88748 21.377 4.66586 21.2771C4.44425 21.1772 4.24642 21.0313 4.08552 20.849C3.92461 20.6668 3.8043 20.4524 3.73257 20.2202C3.66084 19.9879 3.63934 19.743 3.66948 19.5018L5.14291 7.71436L18.8572 7.71436L20.3306 19.5018C20.3608 19.743 20.3393 19.9879 20.2675 20.2202C20.1958 20.4524 20.0755 20.6668 19.9146 20.849C19.7537 21.0313 19.5559 21.1772 19.3342 21.2771C19.1126 21.377 18.8723 21.4287 18.6292 21.4286Z" stroke="black" stroke-width="2.05714" stroke-miterlimit="10" stroke-linecap="square"/>
<path d="M8.57129 10.2858L8.57129 6.0001C8.57423 5.09169 8.93639 4.22133 9.57874 3.57898C10.2211 2.93664 11.0915 2.57447 11.9999 2.57153C12.9083 2.57447 13.7786 2.93664 14.421 3.57898C15.0633 4.22133 15.4255 5.09169 15.4284 6.0001L15.4284 10.2858" stroke="black" stroke-width="2.05714" stroke-miterlimit="10" stroke-linecap="square"/>
</svg>
