<svg width="1721" height="2859" viewBox="0 0 1721 2859" fill="none" xmlns="http://www.w3.org/2000/svg">
<path d="M1534.97 1429.7C1534.97 2173.59 872.238 2777.21 53.9659 2777.21C-764.306 2777.21 -1427.04 2173.59 -1427.04 1429.7C-1427.04 685.806 -764.306 82.183 53.9659 82.183C872.238 82.183 1534.97 685.806 1534.97 1429.7Z" stroke="#EF2D44" stroke-width="7.4168"/>
<path d="M1352.09 1396.57C1352.09 2063.41 782.006 2604.32 78.3477 2604.32C-625.311 2604.32 -1195.4 2063.41 -1195.4 1396.57C-1195.4 729.724 -625.311 188.81 78.3477 188.81C782.006 188.81 1352.09 729.724 1352.09 1396.57Z" stroke="#147350" stroke-width="7.4168"/>
<path d="M1717.29 1429.66C1717.29 2216.18 968.465 2854.76 43.4435 2854.76C-881.578 2854.76 -1630.4 2216.18 -1630.4 1429.66C-1630.4 643.132 -881.578 4.55728 43.4435 4.55728C968.465 4.55728 1717.29 643.132 1717.29 1429.66Z" stroke="#FF6C00" stroke-width="7.4168"/>
</svg>
