<svg width="17" height="17" viewBox="0 0 17 17" fill="none" xmlns="http://www.w3.org/2000/svg">
<path d="M6.95235 10.4284L10.5606 8.34272L6.95235 6.25701V10.4284ZM14.9893 4.98473C15.0796 5.31149 15.1422 5.74949 15.1839 6.30568C15.2326 6.86187 15.2535 7.34158 15.2535 7.75872L15.2952 8.34272C15.2952 9.86528 15.1839 10.9846 14.9893 11.7007C14.8155 12.3264 14.4122 12.7297 13.7865 12.9035C13.4598 12.9938 12.8618 13.0564 11.9441 13.0981C11.0403 13.1468 10.213 13.1676 9.44824 13.1676L8.34282 13.2094C5.42979 13.2094 3.61522 13.0981 2.89913 12.9035C2.27342 12.7297 1.87018 12.3264 1.69638 11.7007C1.606 11.3739 1.54342 10.9359 1.50171 10.3798C1.45304 9.82357 1.43219 9.34386 1.43219 8.92672L1.39047 8.34272C1.39047 6.82015 1.50171 5.70083 1.69638 4.98473C1.87018 4.35902 2.27342 3.95579 2.89913 3.78198C3.22589 3.6916 3.82379 3.62903 4.7415 3.58731C5.64531 3.53865 6.47264 3.51779 7.2374 3.51779L8.34282 3.47607C11.2559 3.47607 13.0704 3.58731 13.7865 3.78198C14.4122 3.95579 14.8155 4.35902 14.9893 4.98473Z" fill="white"/>
</svg>
