<svg width="13" height="15" viewBox="0 0 13 15" fill="none" xmlns="http://www.w3.org/2000/svg">
<path d="M9.9062 2.4726C9.37916 1.87071 9.08866 1.09788 9.08874 0.297852H6.70578V9.86057C6.68778 10.3782 6.46942 10.8686 6.09678 11.2283C5.72413 11.588 5.22633 11.7888 4.7084 11.7885C3.61332 11.7885 2.70332 10.894 2.70332 9.78345C2.70332 8.45701 3.98349 7.46218 5.30222 7.87091V5.43396C2.64162 5.07921 0.312637 7.14599 0.312637 9.78345C0.312637 12.3515 2.44111 14.1792 4.70069 14.1792C7.12222 14.1792 9.08874 12.2127 9.08874 9.78345V4.93268C10.055 5.62664 11.2152 5.99896 12.4048 5.99692V3.61395C12.4048 3.61395 10.955 3.68336 9.9062 2.4726Z" fill="white"/>
</svg>
