<svg width="14" height="13" viewBox="0 0 14 13" fill="none" xmlns="http://www.w3.org/2000/svg">
<path d="M4.26378 0.0839844H9.52133C11.5242 0.0839844 13.1515 1.71132 13.1515 3.71419V8.97174C13.1515 9.93453 12.7691 10.8579 12.0883 11.5387C11.4075 12.2195 10.4841 12.6019 9.52133 12.6019H4.26378C2.26091 12.6019 0.633575 10.9746 0.633575 8.97174V3.71419C0.633575 2.7514 1.01604 1.82804 1.69684 1.14725C2.37764 0.466452 3.30099 0.0839844 4.26378 0.0839844ZM4.1386 1.33578C3.54101 1.33578 2.96789 1.57317 2.54533 1.99574C2.12277 2.4183 1.88537 2.99142 1.88537 3.58901V9.09692C1.88537 10.3425 2.89307 11.3501 4.1386 11.3501H9.64651C10.2441 11.3501 10.8172 11.1128 11.2398 10.6902C11.6623 10.2676 11.8997 9.69451 11.8997 9.09692V3.58901C11.8997 2.34348 10.892 1.33578 9.64651 1.33578H4.1386ZM10.1785 2.27463C10.386 2.27463 10.585 2.35706 10.7317 2.50378C10.8785 2.6505 10.9609 2.8495 10.9609 3.057C10.9609 3.2645 10.8785 3.4635 10.7317 3.61022C10.585 3.75694 10.386 3.83937 10.1785 3.83937C9.97102 3.83937 9.77202 3.75694 9.6253 3.61022C9.47858 3.4635 9.39615 3.2645 9.39615 3.057C9.39615 2.8495 9.47858 2.6505 9.6253 2.50378C9.77202 2.35706 9.97102 2.27463 10.1785 2.27463ZM6.89256 3.21347C7.72255 3.21347 8.51855 3.54319 9.10544 4.13008C9.69233 4.71697 10.022 5.51297 10.022 6.34296C10.022 7.17296 9.69233 7.96895 9.10544 8.55585C8.51855 9.14274 7.72255 9.47245 6.89256 9.47245C6.06256 9.47245 5.26657 9.14274 4.67967 8.55585C4.09278 7.96895 3.76307 7.17296 3.76307 6.34296C3.76307 5.51297 4.09278 4.71697 4.67967 4.13008C5.26657 3.54319 6.06256 3.21347 6.89256 3.21347ZM6.89256 4.46527C6.39456 4.46527 5.91696 4.6631 5.56483 5.01523C5.21269 5.36737 5.01486 5.84497 5.01486 6.34296C5.01486 6.84096 5.21269 7.31856 5.56483 7.67069C5.91696 8.02283 6.39456 8.22066 6.89256 8.22066C7.39055 8.22066 7.86815 8.02283 8.22029 7.67069C8.57242 7.31856 8.77025 6.84096 8.77025 6.34296C8.77025 5.84497 8.57242 5.36737 8.22029 5.01523C7.86815 4.6631 7.39055 4.46527 6.89256 4.46527Z" fill="white"/>
</svg>
