<svg width="33" height="40" viewBox="0 0 33 40" fill="none" xmlns="http://www.w3.org/2000/svg">
<path fill-rule="evenodd" clip-rule="evenodd" d="M14.8581 0.366211C12.5949 0.366378 10.3646 0.836426 8.35313 1.73714C6.3417 2.63785 4.60755 3.94311 3.29534 5.54401C1.98314 7.14492 1.13094 8.99505 0.809836 10.94C0.488735 12.885 0.708048 14.8685 1.44948 16.7249C2.19091 18.5814 3.43295 20.257 5.07199 21.6119C6.71102 22.9669 8.69952 23.9619 10.8716 24.5139C13.0436 25.066 15.3363 25.1591 17.5582 24.7855C19.7801 24.4119 21.8669 23.5823 23.6445 22.3661L29.7425 27.6603C30.0574 27.9243 30.4792 28.0705 30.917 28.0672C31.3549 28.0638 31.7737 27.9114 32.0832 27.6426C32.3928 27.3738 32.5684 27.0102 32.5722 26.6301C32.576 26.2501 32.4077 25.8839 32.1036 25.6105L26.0056 20.3163C27.6553 18.4994 28.6825 16.3159 28.9696 14.0157C29.2567 11.7156 28.7921 9.39178 27.629 7.31018C26.4658 5.22859 24.6512 3.47333 22.3927 2.2453C20.1342 1.01726 17.523 0.366056 14.8581 0.366211ZM4.0046 12.6883C4.0046 10.1892 5.1481 7.79248 7.18353 6.02537C9.21896 4.25827 11.9796 3.26552 14.8581 3.26552C17.7367 3.26552 20.4973 4.25827 22.5328 6.02537C24.5682 7.79248 25.7117 10.1892 25.7117 12.6883C25.7117 15.1873 24.5682 17.584 22.5328 19.3511C20.4973 21.1183 17.7367 22.111 14.8581 22.111C11.9796 22.111 9.21896 21.1183 7.18353 19.3511C5.1481 17.584 4.0046 15.1873 4.0046 12.6883Z" fill="black"/>
</svg>
