<svg width="10" height="12" viewBox="0 0 10 12" fill="none" xmlns="http://www.w3.org/2000/svg">
<path d="M9.27612 5.23945L1.01429 0.64968C0.940648 0.608838 0.857617 0.587932 0.773414 0.58903C0.68921 0.590129 0.606754 0.613195 0.534201 0.655945C0.461649 0.698694 0.401516 0.759647 0.359752 0.832771C0.317988 0.905895 0.296041 0.988657 0.296082 1.07287V11.5196C0.296041 11.6038 0.317988 11.6865 0.359752 11.7597C0.401516 11.8328 0.461649 11.8937 0.534201 11.9365C0.606754 11.9792 0.68921 12.0023 0.773414 12.0034C0.857617 12.0045 0.940648 11.9836 1.01429 11.9427L9.27612 7.35297C9.46452 7.24822 9.62149 7.09502 9.73078 6.90921C9.84006 6.72341 9.89769 6.51177 9.89769 6.29621C9.89769 6.08065 9.84006 5.86901 9.73078 5.68321C9.62149 5.4974 9.46452 5.3442 9.27612 5.23945Z" fill="white"/>
</svg>
