<svg width="1920" height="2719" viewBox="0 0 1920 2719" fill="none" xmlns="http://www.w3.org/2000/svg">
<path d="M3258.17 1580.69C3265.94 2451.81 2473.3 3165.64 1487.08 3174.43C500.858 3183.22 -304.392 2483.65 -312.16 1612.52C-319.928 741.396 472.718 27.5742 1458.94 18.7796C2445.16 9.98505 3250.41 709.558 3258.17 1580.69Z" stroke="#EF2D44" stroke-width="5"/>
<path d="M3093.08 1582.16C3100.13 2372.68 2380.81 3020.5 1485.78 3028.48C590.738 3036.46 -140.012 2401.57 -147.062 1611.05C-154.111 820.529 565.201 172.71 1460.24 164.728C2355.28 156.747 3086.03 791.635 3093.08 1582.16Z" stroke="#147350" stroke-width="5"/>
<path d="M2929.7 1583.61C2936.03 2294.37 2289.29 2876.87 1484.49 2884.05C679.683 2891.23 22.6568 2320.35 16.3186 1609.59C9.98048 898.838 656.721 316.335 1461.53 309.159C2266.33 301.982 2923.36 872.858 2929.7 1583.61Z" stroke="#FF6C00" stroke-width="5"/>
</svg>
