<svg width="1812" height="3031" viewBox="0 0 1812 3031" fill="none" xmlns="http://www.w3.org/2000/svg">
<path d="M1795.23 1499.83C1802.6 2325.94 1023.07 3003.3 53.2181 3011.95C-916.629 3020.6 -1708.12 2357.25 -1715.49 1531.13C-1722.85 705.015 -943.318 27.6598 26.5287 19.0112C996.376 10.3626 1787.87 673.708 1795.23 1499.83Z" stroke="#EF2D44" stroke-width="5"/>
<path d="M1632.89 1501.27C1639.57 2250.94 932.17 2865.66 51.9838 2873.51C-828.202 2881.36 -1546.46 2279.35 -1553.14 1529.69C-1559.83 780.023 -852.423 165.296 27.7633 157.447C907.95 149.598 1626.2 751.612 1632.89 1501.27Z" stroke="#147350" stroke-width="5"/>
<path d="M1472.23 1502.71C1478.24 2176.71 842.221 2729.46 50.7623 2736.52C-740.696 2743.57 -1386.47 2202.25 -1392.49 1528.25C-1398.5 854.251 -762.473 301.5 28.9851 294.442C820.443 287.384 1466.22 828.705 1472.23 1502.71Z" stroke="#FF6C00" stroke-width="5"/>
</svg>
