<svg width="1323" height="1324" viewBox="0 0 1323 1324" fill="none" xmlns="http://www.w3.org/2000/svg">
<path d="M1078.27 667.625L1162.7 813.849C1215.97 906.128 1184.35 1024.13 1092.08 1077.41C1062.74 1094.34 1029.48 1103.26 995.607 1103.26L881.917 1103.22L881.928 1241.07L606.303 1048.13L881.928 855.193L881.917 992.972L995.607 993.005C1010.12 993.005 1024.38 989.185 1036.95 981.925C1076.5 959.093 1090.05 908.521 1067.21 868.974L982.796 722.75L1078.27 667.625ZM402.554 504.266L431.83 839.433L312.474 770.488L255.642 868.974C248.385 881.543 244.564 895.804 244.564 910.318C244.564 955.983 281.585 993.005 327.252 993.005L496.096 993.011V1103.26H327.252C220.695 1103.26 134.314 1016.87 134.314 910.318C134.314 876.449 143.229 843.181 160.163 813.849L216.998 715.363L97.6523 646.495L402.554 504.266ZM757.897 164.417C787.229 181.351 811.583 205.706 828.517 235.037L885.334 333.457L1004.71 264.578L975.431 599.744L670.529 457.515L789.858 388.582L733.041 290.162C725.781 277.592 715.346 267.153 702.772 259.896C663.225 237.062 612.653 250.613 589.82 290.162L505.395 436.381L409.917 381.259L494.341 235.037C547.619 142.756 665.617 111.138 757.897 164.417Z" fill="white"/>
</svg>
