<svg width="1323" height="1323" viewBox="0 0 1323 1323" fill="none" xmlns="http://www.w3.org/2000/svg">
<path d="M330.643 165.375C523.019 165.375 682.514 306.153 711.73 490.309C776.507 425.779 865.881 385.875 964.577 385.875H1212.64V523.688C1212.64 721.581 1052.22 882 854.327 882H716.515V1157.62H606.265V716.625H496.018C282.904 716.625 110.143 543.863 110.143 330.75V165.375H330.643ZM1102.39 496.125H964.577C827.581 496.125 716.515 607.185 716.515 744.188V771.75H854.327C991.33 771.75 1102.39 660.69 1102.39 523.688V496.125ZM330.643 275.625H220.393V330.75C220.393 482.973 343.794 606.375 496.018 606.375H606.265V551.25C606.265 399.027 482.866 275.625 330.643 275.625Z" fill="white"/>
</svg>
