<svg width="1323" height="1324" viewBox="0 0 1323 1324" fill="none" xmlns="http://www.w3.org/2000/svg">
<path d="M165.375 661.873C165.375 555.316 251.756 468.936 358.312 468.936C424.655 468.936 469.642 492.849 507.103 530.31C547.143 570.349 577.991 625.061 613.31 688.642L615.167 691.982C648.298 751.633 685.926 819.382 737.936 871.398C793.502 926.958 865.655 965.061 964.688 965.061C1132.14 965.061 1267.88 829.321 1267.88 661.873C1267.88 494.427 1132.14 358.686 964.688 358.686C873.147 358.686 791.088 399.252 735.494 463.388C760.102 499.478 780.427 535.404 797.328 565.812C830.629 507.919 893.102 468.936 964.688 468.936C1071.24 468.936 1157.62 555.316 1157.62 661.873C1157.62 768.43 1071.24 854.811 964.688 854.811C898.345 854.811 853.357 830.897 815.9 793.434C775.857 753.397 745.009 698.685 709.69 635.104L707.833 631.764C674.702 572.113 637.074 504.362 585.064 452.351C529.498 396.788 457.345 358.686 358.312 358.686C190.866 358.686 55.125 494.427 55.125 661.873C55.125 829.321 190.866 965.061 358.312 965.061C449.851 965.061 531.914 924.494 587.506 860.356C562.898 824.266 542.574 788.341 525.675 757.934C492.373 815.826 429.896 854.811 358.312 854.811C251.756 854.811 165.375 768.43 165.375 661.873Z" fill="white"/>
</svg>
