<svg id="Layer_1" data-name="Layer 1" xmlns="http://www.w3.org/2000/svg" viewBox="0 0 278.56 317.48"><defs><style>.cls-1{fill:#18682e;}</style></defs><path class="cls-1" d="M127.61.34c6,1.64,12.24,2.74,18,5,14.52,5.79,25.29,16,32.49,29.85,1,2,2.17,2.49,4.28,2.36a55.43,55.43,0,0,1,58,45C244,101.47,238.7,118,225.58,132a15.15,15.15,0,0,1-2.5,1.8l.59.73c2-.78,3.88-1.65,5.87-2.35,23.45-8.25,48.84,9.56,49,34.44.09,16.9-.06,33.81,0,50.71.09,14.27-5.93,25.16-17.68,33s-23.79,15.92-35.73,23.8a6,6,0,0,0-3,4.63c-2.51,18.39-19.59,35.24-38,37.61a73.14,73.14,0,0,1-9.23.63c-36.28,0-72.57-.19-108.85.1-22.34.18-41.82-15.43-46.2-36.61a52.63,52.63,0,0,1-1-10.71q-.11-66,0-132a6.72,6.72,0,0,0-2.08-5.13c-15.34-16-20.48-34.85-13.91-56S24.22,43,45.72,38.42c4.47-1,9.21-.75,13.83-.8,1.86,0,2.88-.36,3.82-2.12C74,15.76,90.3,4.07,112.58.87A7,7,0,0,0,114,.34ZM37.36,146.25c0,.37-.06.88-.06,1.39q0,60.93,0,121.85a29.8,29.8,0,0,0,1,7.92c3.7,13.16,13.87,21,27.74,21q54.73.18,109.48,0c11-.05,19.61-4.74,25.14-14.55,3.11-5.5,3.58-11.49,3.58-17.61q0-58.29,0-116.59v-3.91c-19.18,6.07-36.72,3.06-52.68-8.67-11.73,9.91-25,13.43-40.13,10.92,0,3.85.13,7.34,0,10.82-.51,11-5.77,19.14-15.56,24.13-2.23,1.14-3,2.28-3,4.79.11,21.23,0,42.47.08,63.7,0,4-1.5,7-5,8.88-6.33,3.35-13.52-1.21-13.53-8.62q-.06-32.31,0-64.63c0-1.59,0-2.76-1.91-3.63-11.06-5.17-16.57-14-16.66-26.21,0-2.75,0-5.5,0-7.84ZM93,146.1v-7.42a18.5,18.5,0,0,0,0-2.47c-1.06-7.78,6.61-13.7,15-9.4,12.74,6.57,25.74,3.49,34.84-7.6,5.17-6.3,10.6-6.47,16.43-.59,8.73,8.83,19.18,12.7,31.62,11.12,21.18-2.69,35.77-23.87,31.12-44.6-4.1-18.31-23.26-33.44-45.24-27.78-5.88,1.52-9.68-.64-12.06-6.2a78.12,78.12,0,0,0-3.5-7.87C153,29,140.85,20.71,124.27,19.32a44.28,44.28,0,0,0-32.15,9.9c-7.34,5.79-12,13.4-15.25,22-2.08,5.5-6.08,7.36-11.8,6.23a50,50,0,0,0-9.75-1.37c-24.33.15-41.78,24-35,47.46C24.82,119,41,133.39,63.5,129.52c6-1,10.82,3.06,10.89,9.13s0,12.37,0,18.55c.08,5.9,4.17,10.23,9.41,10.12s9-4.31,9.13-10.09C93,153.52,93,149.81,93,146.1ZM223,252.72a4.34,4.34,0,0,0,1.09-.3c9.17-6.09,18.38-12.12,27.48-18.32a18.66,18.66,0,0,0,8.41-16c.12-16.8.28-33.59,0-50.38-.25-13.5-12.46-21.94-24.81-17.66-7.44,2.58-12.19,9.68-12.21,18.58q-.06,41,0,81.9C222.87,251.22,222.93,251.9,223,252.72Z"/><path class="cls-1" d="M167.19,214.37q0,18.39,0,36.78c0,6.22-3.77,10.29-9.42,10.23-5.47-.07-9.12-4.13-9.12-10.23q0-36.78,0-73.55c0-6.23,3.77-10.3,9.42-10.23,5.47.06,9.11,4.12,9.12,10.22Q167.21,196,167.19,214.37Z"/></svg>