<svg id="Layer_1" data-name="Layer 1" xmlns="http://www.w3.org/2000/svg" viewBox="0 0 241.25 352.54"><defs><style>.cls-1{fill:#fff;}</style></defs><path class="cls-1" d="M115.54,1.11c5.51,2,11.46,3.12,16.46,6,15.44,8.8,22.85,22.65,22.9,40.3.1,38.89,0,77.79,0,116.69,0,7.8-.09,15.6.09,23.4a5.35,5.35,0,0,0,1.94,3.71,85.4,85.4,0,0,1,33.59,47.57c8.89,31.08-3.48,67.8-29.26,87.24-16.56,12.5-35.08,18.71-55.76,17.5a82.38,82.38,0,0,1-55.25-24.95,80.24,80.24,0,0,1-22.7-44.09c-3.79-22.73,1-43.79,14.26-62.74a76.19,76.19,0,0,1,20.42-20c2-1.34,2.56-2.9,2.56-5.24q-.1-69.54,0-139.09C64.81,25,78.54,7.43,100,2.15l4.15-1ZM142.28,120c0-11.93.07-23.86,0-35.79-.11-14,.4-28.12-.72-42.08-1.73-21.53-25.45-34.34-45-24.9C84,23.18,78.1,33.62,78.07,47.29q-.12,71.73.05,143.47c0,4.43-1.55,7.21-5.16,9.65-4.6,3.09-9.26,6.35-13.06,10.33-17.54,18.41-24,40.33-18.52,65.18,7.23,32.64,36.06,55,69.18,54.85,17.45-.09,33.11-5.82,46.06-17.59C176.26,295.33,184,273,179.27,246.87c-3.7-20.36-14.89-35.93-32.43-46.86a8.93,8.93,0,0,1-4.62-8.49C142.34,167.66,142.28,143.81,142.28,120Z"/><path class="cls-1" d="M196.82,57.93c-6.24,0-12.48.07-18.72,0-4.92-.08-7.87-3.26-7.17-7.51.47-2.83,2.08-4.74,4.93-5.09a73.44,73.44,0,0,1,8.65-.37c10.25,0,20.5-.06,30.74,0,5.25,0,8.05,2.3,8.12,6.34s-2.68,6.56-7.18,6.62C209.74,58,203.27,57.93,196.82,57.93Z"/><path class="cls-1" d="M197.13,185.69c-6,0-12,0-18,0a15.66,15.66,0,0,1-3.61-.46c-3.15-.78-4.58-3.05-4.7-6.1s2-6,5.1-6q21.18-.34,42.36,0c3.13,0,4.83,2.48,5.09,5.62a5.84,5.84,0,0,1-4.55,6.48,15.25,15.25,0,0,1-3.94.49C208.94,185.72,203,185.69,197.13,185.69Z"/><path class="cls-1" d="M196.87,121.7c-6,0-12-.12-18,0s-7.92-3.19-8.07-6.42c-.18-3.94,3-6.46,8-6.47q18.71,0,37.41,0c3.65,0,6.22,1.8,7,4.59a6.12,6.12,0,0,1-3.09,7.35,12,12,0,0,1-4.83.87C209.12,121.76,203,121.7,196.87,121.7Z"/><path class="cls-1" d="M196.91,76.8c3.56,0,7.12-.08,10.67,0C212,77,215,79.69,215,83.33s-2.8,6.39-7.07,6.5c-7.44.19-14.9.2-22.34,0-4.25-.12-7-3.08-6.93-6.6s3-6.22,7.21-6.38C189.57,76.7,193.24,76.8,196.91,76.8Z"/><path class="cls-1" d="M197.07,140.84c3.67,0,7.34-.08,11,0,4.14.11,7.07,2.92,7,6.49s-3,6.22-6.9,6.26c-7.56.07-15.12.08-22.68,0a6.58,6.58,0,0,1-6.8-6.35c0-3.48,2.81-6.26,6.74-6.37s7.78,0,11.67,0Z"/><path class="cls-1" d="M103.55,214.22V119.38c0-5.19,2.57-8.45,6.55-8.44s6.47,3.13,6.48,8.49q0,44.32,0,88.63a28.77,28.77,0,0,1,0,3.35c-.25,2.21.65,2.9,2.86,3.39,22.14,4.95,36.5,24.5,34.83,47.17-1.43,19.48-17.55,36.44-36.74,39.6-23.5,3.88-47.23-11.4-51.2-36.71a44,44,0,0,1,35.47-50.3Zm8.31,74.71c16.49-.47,31.64-15.53,29.08-35.49a31.17,31.17,0,1,0-29.08,35.49Z"/></svg>