<svg id="Layer_1" data-name="Layer 1" xmlns="http://www.w3.org/2000/svg" viewBox="0 0 241.25 352.54"><defs><style>.cls-1{fill:#fff;}</style></defs><path class="cls-1" d="M21.86,345.72a5.89,5.89,0,0,1,.65-8.16C89,279,115.24,219.06,125.58,179.05c11.21-43.35,6.65-73.3,6.61-73.6a5.88,5.88,0,0,1,11.61-1.87c.21,1.29,5,32.18-6.66,77.75C126.46,223.11,99.25,285.65,30.29,346.39a5.9,5.9,0,0,1-8.31-.52Z"/><path class="cls-1" d="M134.86,108.65a5.88,5.88,0,0,1-.83-6.16c11.35-25.29,10.06-48.06-3.83-67.67a78.89,78.89,0,0,0-24.5-22.24,5.88,5.88,0,1,1,5.45-10.42A89.85,89.85,0,0,1,139.8,28c11.32,16,21.38,42.71,5,79.29a5.88,5.88,0,0,1-7.77,3A6.06,6.06,0,0,1,134.86,108.65Z"/><path class="cls-1" d="M109.16,89.82A72,72,0,0,1,92.5,43,90,90,0,0,1,101,5.39a5.88,5.88,0,0,1,10.47,5.36c-1.19,2.34-27.77,56.38,28.72,89.79a5.88,5.88,0,0,1-6,10.13A94.37,94.37,0,0,1,109.16,89.82Z"/><path class="cls-1" d="M136.49,151.43a5.86,5.86,0,0,1-1-5.89c14.59-37.34,40.71-48.9,60-52a90.12,90.12,0,0,1,38.53,2.32A5.88,5.88,0,0,1,230.5,107h0c-2.44-.78-60.1-18.38-84,42.78a5.89,5.89,0,0,1-7.62,3.34A5.77,5.77,0,0,1,136.49,151.43Z"/><path class="cls-1" d="M137.54,153.51a5.88,5.88,0,0,1,6-9.44c26.79,7.14,49.06,2.21,66.17-14.66a78.66,78.66,0,0,0,18-27.75,5.88,5.88,0,0,1,11.16,3.7A89.83,89.83,0,0,1,218,137.8c-13.95,13.74-38.72,28-77.46,17.64A5.84,5.84,0,0,1,137.54,153.51Z"/><path class="cls-1" d="M37.67,98.16a6,6,0,0,1-1.21-2.49,5.89,5.89,0,0,1,4.5-7,90.07,90.07,0,0,1,38.57,1.48c18.94,5,43.79,19.07,54.64,57.66A5.88,5.88,0,1,1,122.85,151c-7.51-26.69-23.1-43.34-46.33-49.48a78.73,78.73,0,0,0-33.06-1.36A5.88,5.88,0,0,1,37.67,98.16Z"/><path class="cls-1" d="M52.65,131.75A90.28,90.28,0,0,1,35.22,97.67a5.89,5.89,0,0,1,11.48-2.6c.58,2.52,14.81,61.08,79.61,50.49a5.88,5.88,0,1,1,1.9,11.61C88.64,163.63,65.4,147.05,52.86,132Z"/><path class="cls-1" d="M117.89,222.68a5.89,5.89,0,0,1-.48-6.81c20.84-34.24,48.56-41.1,68.15-40.82a90.2,90.2,0,0,1,37.54,9,5.88,5.88,0,0,1-5.5,10.4h0c-2.27-1.19-56-28.52-90.14,27.58a5.89,5.89,0,0,1-8.09,2A6.1,6.1,0,0,1,117.89,222.68Z"/><path class="cls-1" d="M118.57,224.91a5.89,5.89,0,0,1,7-9.09c59.57,27.65,89-24.94,90.27-27.19a5.88,5.88,0,0,1,10.35,5.59A90.07,90.07,0,0,1,200,222.54c-16.12,11.12-43,20.83-79.34,4A5.91,5.91,0,0,1,118.57,224.91Z"/><path class="cls-1" d="M31.26,159.09a5.81,5.81,0,0,1-1.33-3.34,5.87,5.87,0,0,1,5.44-6.27,90.2,90.2,0,0,1,38,7c18,7.66,40.61,25.13,45.84,64.88a5.89,5.89,0,0,1-11.67,1.54C99,157.76,38.76,161.05,36.2,161.22A5.88,5.88,0,0,1,31.26,159.09Z"/><path class="cls-1" d="M47.19,202.8A76.35,76.35,0,0,1,41,194.07a90.13,90.13,0,0,1-12.55-36.5,5.88,5.88,0,0,1,11.73-.93c.21,2.58,5.93,62.56,71.58,61.35a5.88,5.88,0,1,1,.21,11.76C78.72,230.37,58.86,216.92,47.19,202.8Z"/><path class="cls-1" d="M80.56,292.72a5.88,5.88,0,0,1,.11-7.62c26.38-30.18,54.87-32.2,74.12-28.58a90,90,0,0,1,35.46,15.24,5.88,5.88,0,0,1-7.19,9.31c-2.1-1.61-50.34-37.63-93.53,11.78a5.89,5.89,0,0,1-8.3.55A5.37,5.37,0,0,1,80.56,292.72Z"/><path class="cls-1" d="M80.84,295a5.88,5.88,0,0,1,7.89-8.58c54,37.41,92-9.37,93.59-11.38a5.88,5.88,0,0,1,9.24,7.28,89.83,89.83,0,0,1-30.68,23.42C143.1,314,115,319,82,296.12A6.54,6.54,0,0,1,80.84,295Z"/><path class="cls-1" d="M68.21,290.1a5.83,5.83,0,0,1-1.33-4.17c2-27.65-7-48.59-26.81-62.24A78.69,78.69,0,0,0,9.43,211.2,5.88,5.88,0,1,1,11,199.54,90.14,90.14,0,0,1,46.75,214c16.12,11.12,34.73,32.78,31.86,72.77a5.88,5.88,0,0,1-10.4,3.32Z"/><path class="cls-1" d="M19.91,266.26A74.07,74.07,0,0,1,7.47,244.34a90.21,90.21,0,0,1-4.95-38.28,5.88,5.88,0,0,1,11.68,1.45h0C13.89,210.05,7.41,270,72,282a5.88,5.88,0,0,1-2.15,11.57C45.33,289,29.77,278.2,19.91,266.26Z"/></svg>