<svg id="Layer_1" data-name="Layer 1" xmlns="http://www.w3.org/2000/svg" viewBox="0 0 292.62 383.4"><defs><style>.cls-1{fill:#18682e;}</style></defs><path class="cls-1" d="M291.3,193.63a123.64,123.64,0,0,0-1.57-16.35q-17.24-91-105.66-118.71c-4.33-1.34-8.8-2.2-13.29-3.31,2-12.94,3.78-25.5,5.84-38C178.3,7.07,172.66.16,162.33.15,154.23.14,146.09.58,138,0c-8.32-.56-15.57,5.65-15.15,15.3.54,12.2.08,24.44.18,36.67,0,2.29-.58,3.21-3,3.62A142,142,0,0,0,61.3,80.09q-.93.66-1.68,1.29a94.57,94.57,0,0,0-25.84,24A145.73,145.73,0,0,0-.39,194.72c-.23,6.41,3.6,10.26,10,10.54,2.57.1,5.13.22,7.75.34,0,.85.05,1.34,0,1.83a96,96,0,0,0,7.05,49c1.82,4.37,5.08,6.63,9.91,6.49,2.82-.08,5.65,0,8.39,0-2.29,25.65,4.72,47.71,21.65,66.58,3.69,4.12,7.87,5.55,13,3.16,7.28-3.38,14.53-6.83,22-10.34a5.12,5.12,0,0,1,.45,1.2,89.42,89.42,0,0,0,17.43,37.59c7,9.07,15.82,16.06,25.28,22.34h6c23.64-14.12,38-34.83,43.77-62,1.21.76,2.19,1.52,3.28,2.07,6.69,3.26,13.35,6.6,20.14,9.64,3.67,1.65,7.23.58,9.94-2.23a91.23,91.23,0,0,0,6.67-7.76c8.79-8.53,13-25.08,13.5-26.84,0-.11.07-.24.1-.36a91.46,91.46,0,0,0,2.77-14.62c.47-6,.11-12.1.11-18.46,4.09,0,7.8,0,11.52,0a9.27,9.27,0,0,0,9.32-6.18c1.46-3.56,2.73-7.21,3.89-10.88,4.12-13,4.58-26.42,3.31-40.27,1.39-.11,2.59-.23,3.8-.27C288.15,205,291.7,201.29,291.3,193.63ZM137.66,11.34c8.21.08,16.43,0,24.64,0,2.24,0,3.57.59,3.15,3.27-2,13-4,26-6,39H134.24V37c0-7.34.06-14.68,0-22C134.19,12.49,135,11.32,137.66,11.34Zm-97,240.3c-6.11.14-6.18.11-8-5.53a86.66,86.66,0,0,1-3.94-38.66c.24-1.84.81-2.77,2.91-3,24.4-3.15,45.67-12.54,62-31.59.23-.26.56-.44.38-.29,2.68,9.93,5.15,19.88,8.11,29.68,1.17,3.89,3.57,7.38,5,11.2a5.43,5.43,0,0,1-.33,4.5C92,237,72.62,248.29,48.47,251,45.87,251.29,43.26,251.58,40.66,251.64Zm70.62-21c1.33-1.48,2.59-3,5-5.88.57,1.29.81,2.52,1.53,3.32a85.4,85.4,0,0,0,21.82,17.38c4,2.26,7.8,2.47,11.6,0,4.67-3.09,9.44-6.07,13.8-9.55s8.27-7.51,12.57-11.49c2,2.3,4.34,4.87,6.42,7.67a5.7,5.7,0,0,1,1,3.71c-3.16,26-15.32,46.73-36.77,61.91-1.6,1.14-2.82,1.92-4.91.45-20.82-14.71-33.4-34.45-36.89-59.8a5,5,0,0,1,.81-3.29A54,54,0,0,1,111.28,230.61ZM75.46,321.29c-1.81.72-2.87.38-4.1-1.07-13.81-16.25-19.44-35-17.09-56.11a3.84,3.84,0,0,1,2.34-2.64,98.23,98.23,0,0,0,37.87-15.91,6.44,6.44,0,0,1,1.32-.47,96.13,96.13,0,0,0,17,38.94,3.67,3.67,0,0,1,.28,4.64A72.37,72.37,0,0,1,75.46,321.29Zm105.88-4.57c-3.66,22.21-14.52,40-32.84,53.19-2.09,1.51-3.49,1.51-5.54,0q-28.61-20.76-33.16-55.77a4.51,4.51,0,0,1,.84-3c3.86-5,7.84-9.95,11.76-14.88,5.56,4.19,11.17,8.52,16.86,12.73,4.1,3,8.34,3,12.43,0,5.8-4.29,11.51-8.68,17.19-13,4,5,8.28,10.2,12.22,15.68C181.93,312.84,181.61,315.07,181.34,316.72Zm53.77-24a11.32,11.32,0,0,0-.26,1.17h0c-1,3.75-4.72,14.37-9.59,20v0a12.47,12.47,0,0,1-1,1.05h0a55.68,55.68,0,0,1-4.28,5.21,4.35,4.35,0,0,1-3.6,1.08,70.09,70.09,0,0,1-39-34.61c4-7.4,8.28-14.05,11.37-21.2s5-14.77,7.46-22.26c.58.39,1.42.91,2.21,1.49a89.81,89.81,0,0,0,34.07,15.53c4,.87,4.91,2.86,5.08,6.25C238,275.32,237.53,284.1,235.11,292.72Zm25-43.36a4.25,4.25,0,0,1-3.1,2.21q-45.21,0-71.87-36.53a4.15,4.15,0,0,1-.29-3.6,103.63,103.63,0,0,0,10.91-38.52c0-.21.23-.39.67-1.13,18,21.46,41.68,30.75,68.59,33.39A82.91,82.91,0,0,1,260.11,249.36ZM277.68,194c-4.73-.2-9.48-.2-14.18-.69-25.44-2.63-47-12.4-62.1-34-2.51-3.58-6.14-4.88-9.74-3.84-4,1.15-6.17,3.94-6.64,8.45-.66,6.19-1,12.46-2.19,18.55-4.35,21.74-15.06,39.32-34.2,51.3-2.36,1.48-4.1,1.4-6.39,0a72.86,72.86,0,0,1-27.49-30.83c-6-12.49-8.18-25.78-8.89-39.43-.21-4.09-2.48-6.68-6.31-7.9s-6.88.11-9.37,2.93c-1.48,1.68-2.65,3.63-4.05,5.38C72.8,180.54,55,189.13,34.38,192.45c-7.54,1.22-15.25,1.41-23.21,2.1.74-21.93,6-41.69,16.43-59.72,4.25-7.3,9.46-14.06,14.65-20.83l.11.08A95.32,95.32,0,0,1,65.27,91h0l0,0h0A24.39,24.39,0,0,0,68,89.34c32.24-22.28,67.86-30,105.93-21.4,48.49,10.92,81.34,40.79,98.71,87.36a113.39,113.39,0,0,1,7.08,38.45A15.15,15.15,0,0,1,277.68,194Z"/></svg>