<?xml version="1.0" encoding="utf-8"?>
<!-- Generator: Adobe Illustrator 25.4.1, SVG Export Plug-In . SVG Version: 6.00 Build 0)  -->
<svg version="1.1" id="Layer_1" xmlns="http://www.w3.org/2000/svg" xmlns:xlink="http://www.w3.org/1999/xlink" x="0px" y="0px"
	 viewBox="0 0 345.2 352.5" style="enable-background:new 0 0 345.2 352.5;" xml:space="preserve">
<style type="text/css">
	.st0{fill:#FFFFFF;}
</style>
<path class="st0" d="M345.2,209.6l-0.2-39.8l0-4.9c0-30-0.3-59.9,0.1-89.9c0.2-15.9-6.4-26.9-20.4-34.4
	C281.1,16.9,234.2,5.9,184.9,4.2c-28.5-1.1-57.1,1.4-85,7.4c-28.9,6.3-56.6,16-82.4,30.9c-11.3,6.5-17,16.5-17,29.7v155.7
	c0,13,5.8,22.8,16.8,29.4c2.4,1.4,3.1,2.9,3.1,5.5c0,26,0,51.9,0,77.9c0,5.9,2.2,8.1,7.8,8.1H92c5.4,0,7.4-1.9,7.9-7.3
	c1-11.4,9.1-19.2,20.4-19.2c34.9-0.1,69.8-0.1,104.7,0c11.2,0,19.3,7.6,20.5,18.7c0.6,6.2,2.4,7.7,8.7,7.7H316c7.2,0,9.1-1.9,9.1-9
	c0.1-25.6,0.1-51.3,0-77c0-2.4,0.3-3.9,2.7-5.3c11.6-6.7,17.4-16.9,17.2-30.4c-0.1-5.7,0-11.5,0-17.5H345.2z M259.1,28.4
	c8.4,2.8,16.5,5.4,24.5,8.3c0.8,0.3,1.4,1.7,1.8,2.7c0.1,0.8,0.2,1.7,0,2.5c-0.1,72,0,144,0.1,216c0,3.7-1.1,5.4-4.5,6.4
	c-7.2,2.1-14.3,4.5-21.9,7V28.4z M245.7,270.3c0,3.3-1,4.3-4.2,5c-32.5,6.6-65.3,8.9-98.3,5.5c-13.5-1.4-27-3.8-40.4-6
	c-1.1-0.2-2.8-1.6-2.8-2.5c-0.1-19.7-0.1-39.4-0.1-59.6c48.5,4.5,97.2,4.5,145.7,0.1v4C245.7,234.7,245.6,252.5,245.7,270.3z
	 M100.2,199v-98.6c48.4-4.5,97-4.5,145.4,0v98.4C229.3,203.5,126.4,203.6,100.2,199z M103.8,24.4c32.7-6.7,65.5-9,98.7-5.5
	c13.4,1.4,26.7,3.8,40,5.9c1.1,0.2,3,1.8,3,2.7c0.2,19.5,0.1,38.9,0.1,58.4c0,0.3-0.2,0.5-0.4,1c-48.3-4.4-96.9-4.3-145.2,0.1l0-4.4
	c0-17.7,0.1-35.3-0.1-53C99.8,26.5,100.4,25.1,103.8,24.4z M64.8,35.4c7.1-2,14.1-4.5,21.7-7v242.9c-8.6-2.9-16.9-5.6-25.1-8.5
	c-0.6-0.2-1-1.2-1.2-1.9c-0.1-1.1-0.1-2.2-0.1-3.3c0.1-71.9,0-143.7-0.1-215.6C60.1,38.2,61.2,36.4,64.8,35.4z M20,242.3
	c-4.3-3.6-6.1-8.8-6.1-14.4c-0.1-52-0.1-104,0-156c0-7.7,3.4-13.9,10.3-17.7c7.3-4,14.8-7.7,22.6-11.8v51.6c-4.6,1-9.2,1.9-13.7,2.9
	s-6.6,4-5.9,7.9c0.7,3.7,4.3,6,8.5,5.2c3.6-0.7,7.2-1.5,11.1-2.2V192c-3.6-0.7-7.1-1.5-10.6-2.1c-4.5-0.9-8.2,1.1-9,5
	c-0.8,4,1.5,7,6.2,8.1c4.3,0.9,8.6,1.8,13.4,2.8l0,51.2C37.3,252.5,27.9,248.8,20,242.3z M311.7,335h-53.4
	c-2.9-11-9.2-19.5-20.2-23.7c-4.1-1.5-8.5-2.4-12.8-2.4c-34.5-0.2-69,0.2-103.5-0.3c-16-0.2-30.8,9.8-34.7,26.5l-53.3,0v-68.8
	c92.5,39.6,185.1,39.6,277.8,0V335z M331.8,179.2c0,15.6-0.1,31.2,0,46.8c0.1,9.3-3.6,16.2-12,20.5c-6.8,3.5-13.6,7-20.9,10.8
	l0-51.5c4.5-0.9,9-1.8,13.5-2.8c4.7-1.1,6.9-4.5,6-8.3c-0.9-3.8-4.5-5.7-9.2-4.8l-10.3,2.1v-84.3l10.4,2.1c4.6,0.9,8.2-0.9,9.1-4.9
	s-1.4-7.1-6.1-8.2c-4.4-1-8.8-1.8-13.5-2.8V42.7c2.6,1.2,5,2.3,7.4,3.5c4.7,2.4,9.3,4.9,13.9,7.3c8,4.2,11.6,11,11.6,19.9V179.2z"/>
</svg>
