<svg width="105" height="105" viewBox="0 0 105 105" fill="none" xmlns="http://www.w3.org/2000/svg">
<rect width="105" height="105" rx="52.5" fill="#11520B"/>
<path d="M79.0098 53.1066C78.9793 66.9359 67.2972 78.022 52.7748 78C38.573 77.9794 26.9871 66.6569 27.0299 52.829C27.0711 39.1524 38.825 27.94 53.0573 28.0002C56.476 28.0085 59.8595 28.6646 63.0143 29.9311C66.1692 31.1976 69.0336 33.0496 71.4439 35.3812C73.8541 37.7128 75.7628 40.4784 77.0611 43.5198C78.3593 46.5612 79.0215 49.8189 79.0098 53.1066ZM77.0582 52.9186C77.0323 40.201 66.2374 29.8624 53.0008 29.8756C39.6985 29.8888 28.9433 40.2759 28.9693 53.0787C28.9952 65.786 39.8344 76.1716 53.0283 76.1349C56.1914 76.1286 59.3223 75.5229 62.2421 74.3526C65.1618 73.1823 67.8132 71.4703 70.0447 69.3143C72.2762 67.1584 74.0442 64.6007 75.2476 61.7875C76.451 58.9742 77.0663 55.9606 77.0582 52.9186Z" fill="white"/>
<path d="M73.2345 49.223C73.2345 49.9621 72.6115 50.3918 71.8928 50.1589C70.9356 49.8493 69.995 49.492 69.0484 49.1463C63.7197 47.2413 58.2497 46.0985 52.5229 46.233C47.261 46.3574 42.2271 47.5002 37.3451 49.317C36.6386 49.5803 35.9336 49.8493 35.2179 50.088C34.2378 50.4135 33.6164 49.8956 33.8002 48.9308C35.2194 41.4089 41.9597 35.1007 49.9262 33.835C60.6216 32.1354 70.5223 38.3438 73.0309 48.3232C73.1114 48.6386 73.1768 48.9568 73.2345 49.223ZM36.1113 47.8083C41.7515 45.6313 47.4829 44.3801 53.4726 44.3772C59.4622 44.3743 65.2149 45.7152 70.8323 47.8329C69.1913 41.7474 62.8688 35.6591 54.0758 35.3929C44.9879 35.1238 38.0289 41.1211 36.1113 47.8083Z" fill="white"/>
<path d="M56.985 72.4439C56.3332 72.4559 55.8217 72.0186 55.9198 71.43C56.3649 68.7703 56.564 66.0253 57.3953 63.4929C58.8859 58.9402 62.2926 56.3509 67.0511 55.5557C68.6066 55.2951 70.1711 55.1064 71.7281 54.8892C72.9803 54.717 73.3786 55.1229 73.19 56.3629C71.9921 64.2566 65.2044 71.0781 57.2128 72.4185C57.1238 72.4274 57.0332 72.4379 56.985 72.4439ZM58.0139 70.247C65.1667 68.5487 70.144 62.3442 71.025 56.9304C70.0233 57.0622 69.032 57.2075 68.0378 57.3228C64.0201 57.7916 61.0555 59.7459 59.3989 63.4629C58.4469 65.582 58.4891 67.9197 58.0139 70.247Z" fill="white"/>
<path d="M34.866 54.8516C37.3545 55.3113 39.9395 55.4928 42.3117 56.2888C46.9627 57.8495 49.5387 61.2907 50.2902 66.065C50.5528 67.7343 50.8003 69.4066 51.0659 71.0774C51.2258 72.092 50.7158 72.5979 49.7077 72.403C41.5889 70.8289 35.4455 64.7483 33.8625 56.7143C33.8236 56.5175 33.7949 56.3188 33.7765 56.1192C33.7055 55.3604 34.0858 54.9572 34.866 54.8516ZM35.9631 57.0044C37.0964 63.2635 42.8444 69.0257 48.9698 70.201C48.766 68.8457 48.5563 67.5141 48.3661 66.184C47.7731 62.0301 44.8651 58.7451 40.7755 57.7751C39.2257 57.4031 37.6216 57.2618 35.9631 57.0044Z" fill="white"/>
<path d="M56.8704 53.0031C56.8698 53.7363 56.643 54.4528 56.2187 55.0619C55.7943 55.671 55.1916 56.1452 54.4868 56.4245C53.7821 56.7038 53.007 56.7756 52.2597 56.6309C51.5125 56.4861 50.8268 56.1312 50.2894 55.6112C49.752 55.0912 49.3871 54.4295 49.2411 53.7099C49.095 52.9903 49.1742 52.2452 49.4688 51.5689C49.7633 50.8927 50.2599 50.3157 50.8956 49.9112C51.5313 49.5066 52.2776 49.2927 53.0398 49.2964C54.0555 49.3094 55.0254 49.7048 55.7416 50.3977C56.4577 51.0907 56.863 52.026 56.8704 53.0031ZM53.0019 50.8783C52.5655 50.8809 52.1397 51.008 51.7784 51.2434C51.4171 51.4789 51.1365 51.8121 50.9721 52.201C50.8078 52.5898 50.767 53.0169 50.855 53.428C50.9431 53.8392 51.1559 54.216 51.4666 54.5107C51.7773 54.8055 52.1719 55.005 52.6005 55.084C53.0291 55.163 53.4724 55.1179 53.8744 54.9545C54.2764 54.7911 54.6189 54.5166 54.8587 54.1659C55.0984 53.8151 55.2247 53.4038 55.2214 52.9841C55.2095 52.4241 54.9709 51.8907 54.5564 51.4974C54.1419 51.1041 53.5841 50.882 53.0019 50.8783Z" fill="white"/>
</svg>
