<?xml version="1.0" encoding="utf-8"?>
<!-- Generator: Adobe Illustrator 25.4.1, SVG Export Plug-In . SVG Version: 6.00 Build 0)  -->
<svg version="1.1" id="Layer_1" xmlns="http://www.w3.org/2000/svg" xmlns:xlink="http://www.w3.org/1999/xlink" x="0px" y="0px"
	 viewBox="0 0 105 105" style="enable-background:new 0 0 105 105;" xml:space="preserve">
<style type="text/css">
	.st0{fill:#11520B;}
	.st1{fill:#FFFFFF;stroke:#FFFFFF;stroke-width:0.2;}
	.st2{fill:#FFFFFF;}
</style>
<path class="st0" d="M52.5,0L52.5,0c29,0,52.5,23.5,52.5,52.5l0,0c0,29-23.5,52.5-52.5,52.5l0,0C23.5,105,0,81.5,0,52.5l0,0
	C0,23.5,23.5,0,52.5,0z"/>
<path class="st1" d="M37.9,35.5C37.9,35.5,37.9,35.5,37.9,35.5c-0.1-0.7,0.1-1.3,0.5-1.8c0.4-0.5,0.9-0.8,1.5-0.8 M37.9,35.5
	l6.2,36.6h16.7c0.8,0,1.5-0.3,2.1-0.9c0.6-0.6,0.9-1.4,1-2.3c0,0,0,0,0,0l3.2-33.4c0,0,0,0,0,0c0.1-0.7-0.1-1.3-0.5-1.8
	c-0.4-0.5-0.9-0.8-1.5-0.8H39.9 M37.9,35.5l3.2,33.4L37.9,35.5z M39.9,32.9C39.9,32.9,39.9,32.9,39.9,32.9L39.9,32.9L39.9,32.9
	L39.9,32.9z M42.6,69.8h1.1 M42.7,64.5h19.5l-0.4,4.1c0,0.3-0.2,0.6-0.4,0.8c-0.2,0.2-0.4,0.3-0.7,0.3H44.2c-0.3,0-0.5-0.1-0.7-0.3
	c-0.2-0.2-0.3-0.5-0.4-0.8L42.7,64.5z M62.5,62.2h-20l-2.6-26.9H65L62.5,62.2z"/>
<path class="st2" d="M66.2,43.4c0.2-0.7-0.2-1.4-0.8-1.6c-0.7-0.2-1.4,0.2-1.6,0.8L66.2,43.4z M40.9,48.9c1.1-1.1,5.4-3.7,12.8-2.1
	l0.5-2.4c-8-1.7-13.3,1-15.1,2.9L40.9,48.9z M53.7,46.7c7.9,1.6,11.7-0.9,12.5-3.3l-2.4-0.8c-0.2,0.6-2.1,3.2-9.6,1.7L53.7,46.7z"/>
<path class="st2" d="M37.9,37.6l3.2,33c0,0,0,1.9,3.7,1.6l-1-2l-0.5-3l-3.3-28.1L37.9,37.6z"/>
</svg>
