<svg width="105" height="105" viewBox="0 0 105 105" fill="none" xmlns="http://www.w3.org/2000/svg">
<rect width="105" height="105" rx="52.5" fill="#11520B"/>
<path d="M69.7221 61.9715C69.3517 63.5202 68.7529 65.0096 67.9439 66.3942C67.7367 66.7561 67.5156 67.1128 67.2806 67.4643C67.2619 67.4927 67.2431 67.5186 67.223 67.5457C67.053 67.7975 66.7973 67.9843 66.4999 68.0739C66.2025 68.1636 65.882 68.1505 65.5936 68.0368C65.0013 67.8326 64.6489 67.3144 64.7454 66.7289C64.7863 66.5134 64.872 66.3081 64.9973 66.1254L65.1313 65.9289C67.7979 61.8281 68.0712 57.4558 66.5919 52.9C65.481 49.4777 63.5783 46.4379 61.5 43.5028C58.9369 39.8849 56.0522 36.4889 52.8785 33.3535C52.7579 33.2346 52.6266 33.1273 52.4524 32.9657C51.4582 34.0152 50.4679 35.0233 49.5192 36.0675C46.0487 39.8918 42.9359 43.9474 40.4315 48.4218C38.9575 51.0519 37.7917 53.8047 37.584 56.8225C37.4915 58.1692 37.5934 59.5366 37.6751 60.8859C37.7274 61.7376 37.3991 62.3075 36.6179 62.4277C35.8139 62.557 35.164 62.0904 35.0394 61.2374C34.5034 57.501 35.0474 53.9016 36.5134 50.4134C37.9351 47.0195 39.9732 43.9694 42.1413 40.9942C44.8676 37.2572 47.9413 33.7674 51.3242 30.5683C52.0772 29.8549 52.912 29.8045 53.5941 30.4597C56.4791 33.2307 59.2032 36.1373 61.6487 39.2792C64.2442 42.6124 66.6348 46.0709 68.3097 49.9339C69.9847 53.797 70.707 57.7996 69.7221 61.9715Z" fill="white"/>
<path d="M61.3688 72.7875C59.8894 73.595 58.2872 74.1725 56.6213 74.4986C55.2304 74.7636 53.8073 74.8993 53.0784 75.0001C47.4706 74.929 43.2108 73.223 39.759 69.9803C39.3355 69.5814 38.9237 69.1597 38.5235 68.7151C37.9969 68.1309 38.0237 67.4097 38.5516 66.9393C38.7752 66.723 39.0747 66.5954 39.391 66.5818C39.7073 66.5681 40.0175 66.6694 40.2601 66.8656C40.514 67.1559 40.7895 67.428 41.0842 67.6798C41.1927 67.7884 41.3026 67.8957 41.4138 68.0029C42.2864 68.8705 43.2677 69.6299 44.335 70.2634C49.3572 73.1364 54.4947 73.1416 59.7193 70.8088C59.9046 70.7119 60.0957 70.6256 60.2915 70.5503C60.6028 70.4508 60.9412 70.4649 61.2425 70.59C61.5438 70.715 61.7871 70.9423 61.9263 71.2288C62.0609 71.5076 62.0781 71.826 61.9741 72.1168C61.8701 72.4076 61.6531 72.6481 61.3688 72.7875Z" fill="white"/>
<path d="M40.7651 56.7052C40.8362 53.0864 42.8113 49.531 46.2443 46.6709C46.7803 46.225 47.3297 46.1862 47.8523 46.4809C48.3159 46.7394 48.6161 47.2305 48.47 47.7216C48.3536 48.0694 48.1442 48.3814 47.863 48.6263C45.7432 50.4964 44.174 52.6897 43.6407 55.4529C42.897 59.3043 44.0521 62.587 46.9692 65.3037C47.1824 65.4789 47.3663 65.6846 47.5146 65.9137C47.6414 66.1593 47.677 66.4394 47.6156 66.7073C47.5541 66.9752 47.3993 67.2147 47.1769 67.3858C46.6691 67.7826 45.9576 67.8511 45.4845 67.3948C44.6069 66.5483 43.7037 65.694 42.9975 64.7169C41.4271 62.5547 40.7651 60.1831 40.7651 56.7052Z" fill="white"/>
<path d="M67.9436 66.3943C67.7364 66.7562 67.5153 67.1129 67.2804 67.4644C67.2616 67.4929 67.2428 67.5187 67.2227 67.5458C66.2084 68.846 64.2547 71.0276 61.4849 72.7155H61.4756L61.3965 72.7633L61.3724 72.7776L60.3728 73.2764L59.1226 71.0586C62.0705 69.5349 64.1502 67.1814 65.119 65.9394C65.5102 65.434 65.7193 65.1122 65.726 65.1006L67.9436 66.3943Z" fill="white"/>
<path d="M41.4082 67.9979L39.7788 69.996L39.7587 69.9805C35.3917 66.6447 34.987 61.0175 34.9709 60.7784H34.979L36.3096 60.6996H36.323L37.6469 60.6182C37.6469 60.6401 37.6563 60.7306 37.675 60.8766V60.8844C37.7876 61.7645 38.2914 64.6415 40.2545 66.8593C40.5084 67.1495 40.7838 67.4217 41.0786 67.6735C41.1871 67.7833 41.301 67.8906 41.4082 67.9979Z" fill="white"/>
</svg>
