<svg width="105" height="105" viewBox="0 0 105 105" fill="none" xmlns="http://www.w3.org/2000/svg">
<rect width="105" height="105" rx="52.5" fill="#11520B"/>
<path d="M31.3483 47.6349C31.5786 46.9334 31.7303 46.2714 32.008 45.6568C32.2641 45.0675 32.6502 44.5403 33.1391 44.1125C33.6279 43.6847 34.2074 43.3669 34.8366 43.1816C34.9286 43.168 35.0124 43.1224 35.0726 43.0533C35.1329 42.9843 35.1655 42.8964 35.1644 42.8058C35.3608 40.8844 36.4066 39.6066 38.2801 38.967C38.4298 38.9165 38.5571 38.8173 38.6405 38.6861C39.5386 37.0417 40.919 36.2333 42.8399 36.3454C42.9036 36.3454 42.9673 36.3454 43.0621 36.3454C43.1095 36.1291 43.1474 35.9129 43.2057 35.7005C43.3472 35.1699 43.5958 34.6721 43.937 34.2359C44.2782 33.7998 44.7051 33.4342 45.193 33.1603C45.6808 32.8865 46.2198 32.7099 46.7784 32.6409C47.3371 32.572 47.9043 32.6119 48.4469 32.7585C48.566 32.8043 48.6974 32.81 48.8201 32.7746C48.9429 32.7392 49.05 32.6648 49.1242 32.5633C51.4515 30.0578 56.2159 30.5523 57.469 34.1313C57.4973 34.1915 57.5395 34.2445 57.5924 34.2861C57.6453 34.3278 57.7074 34.3569 57.7738 34.3713C59.3167 34.5032 59.7936 34.6851 60.9532 35.6557C62.3498 34.8355 63.7912 34.8038 65.196 35.632C66.6008 36.4601 67.228 37.7024 67.2104 39.2466C67.6899 39.3099 68.1424 39.3244 68.565 39.4312C69.3942 39.6353 70.1271 40.1084 70.643 40.7724C71.1589 41.4365 71.427 42.2518 71.4031 43.084C71.3936 43.4256 71.5033 43.5799 71.8027 43.7434C73.2522 44.5122 74.1246 45.7215 74.4904 47.271C74.5621 47.5756 74.6881 47.6507 74.9753 47.6323C75.283 47.6138 75.5915 47.6138 75.8992 47.6323C76.1595 47.6387 76.4079 47.74 76.5952 47.916C76.7826 48.0921 76.8953 48.3301 76.9111 48.5831C76.9924 51.955 76.8583 55.3085 75.7651 58.5526C73.8442 64.2666 70.1568 68.5577 64.8018 71.5129C64.5932 71.6276 64.5024 71.7463 64.5173 71.9784C64.5363 72.2646 64.5173 72.552 64.5173 72.8395C64.5173 73.5661 64.0621 74 63.313 74H49.9465H42.8399C41.9201 74 41.4419 73.5899 41.5137 72.7037C41.5733 71.9626 41.3065 71.5802 40.6454 71.1898C34.8515 67.7585 31.1356 62.8437 29.655 56.3727C29.1551 54.1982 29.0955 51.9893 29.1131 49.7792C29.1131 49.4297 29.1036 49.0789 29.1131 48.7242C29.1109 48.5797 29.1386 48.4363 29.1948 48.3025C29.2509 48.1687 29.3343 48.0474 29.4398 47.9458C29.5453 47.8442 29.6709 47.7644 29.8089 47.7112C29.9469 47.658 30.0945 47.6325 30.2429 47.6362C30.6344 47.6257 31.0286 47.6349 31.3483 47.6349ZM62.2631 71.6791C62.2746 71.5034 62.2746 71.3272 62.2631 71.1516C62.1642 70.4922 62.4826 70.0966 63.0597 69.8091C63.6368 69.5216 64.2206 69.1669 64.7774 68.8095C69.6691 65.6763 72.8241 61.3707 74.0338 55.7543C74.1016 55.4417 74.1395 55.1239 74.1937 54.7955H31.8333C31.8495 54.934 31.8563 55.0329 31.8739 55.1292C32.7639 60.0599 35.2606 64.0793 39.162 67.297C40.3872 68.2876 41.7141 69.1524 43.1217 69.8777C43.5674 70.1137 43.8343 70.4342 43.799 70.9538C43.7814 71.1872 43.799 71.4219 43.799 71.6777L62.2631 71.6791ZM72.0316 47.6257C72.0414 47.5922 72.0468 47.5576 72.0479 47.5228C72.0408 47.486 72.0304 47.4498 72.0167 47.4147C71.6686 46.4718 71.0387 45.8191 70.0159 45.5685C68.9565 45.3048 68.6233 44.7219 68.9322 43.6946C68.9709 43.5755 69.003 43.4544 69.0283 43.332C69.0762 43.1203 69.0733 42.9008 69.02 42.6904C68.9668 42.48 68.8644 42.2844 68.721 42.1186C68.5776 41.9529 68.397 41.8215 68.193 41.7346C67.9891 41.6477 67.7674 41.6077 67.545 41.6176C67.2378 41.6366 66.9328 41.6807 66.6333 41.7495C65.5062 41.9684 64.7368 41.2853 64.8478 40.1736C64.892 39.8392 64.9052 39.5016 64.8871 39.1648C64.8207 38.3907 64.4875 37.7551 63.6896 37.4848C62.935 37.2289 62.316 37.5059 61.7931 38.0492C61.1252 38.7349 60.1783 38.6175 59.6581 37.796C59.035 36.8135 58.4159 36.5656 57.259 36.832C56.2267 37.0707 55.5223 36.588 55.4004 35.5594C55.2433 34.2249 54.2638 33.373 52.8861 33.3559C51.8024 33.3414 51.0424 33.8517 50.4599 34.697C49.9018 35.5054 49.1432 35.7151 48.3033 35.2324C47.0448 34.5084 45.6631 35.2944 45.4206 36.5643C45.3703 36.8846 45.3378 37.2073 45.323 37.5309C45.2702 38.1811 44.8923 38.6479 44.2393 38.7613C43.9111 38.8087 43.5768 38.7967 43.2531 38.7257C41.9757 38.4619 41.1832 38.8707 40.7036 40.0642C40.6928 40.0865 40.6833 40.1094 40.6752 40.1328C40.4787 40.7394 40.0642 41.0704 39.4126 41.1877C38.0349 41.4409 37.4199 42.277 37.5662 43.6247C37.6908 44.7614 37.3048 45.2177 36.1411 45.3153C35.5437 45.367 34.9869 45.6313 34.5771 46.0575C34.1672 46.4837 33.9331 47.042 33.9195 47.6257H72.0316ZM31.5339 49.9466V52.4522H74.4592V49.9466H31.5339Z" fill="white"/>
</svg>
