<svg width="161" height="82" viewBox="0 0 161 82" fill="none" xmlns="http://www.w3.org/2000/svg">
<g clip-path="url(#clip0_41_13)">
<path d="M68.1566 29.4709L62.6771 46.199C62.6659 46.2286 62.6771 46.2583 62.7032 46.2769C62.7032 46.2769 62.7443 46.314 62.7854 46.3437C62.8302 46.3734 62.875 46.403 62.875 46.403C62.9012 46.4216 62.9348 46.4216 62.9572 46.403L77.278 36.0575L91.5952 46.403C91.6176 46.4216 91.6512 46.4216 91.6773 46.403C91.6773 46.403 91.7222 46.3771 91.767 46.3437C91.8118 46.3103 91.8492 46.2769 91.8492 46.2769C91.8753 46.2583 91.8865 46.2249 91.8753 46.199L86.3957 29.4746L100.724 19.1439C100.75 19.1254 100.761 19.0957 100.75 19.066C100.75 19.066 100.739 19.014 100.72 18.9621C100.705 18.9102 100.683 18.8619 100.683 18.8619C100.675 18.8322 100.646 18.8137 100.616 18.8137L82.9108 18.8211L77.4536 2.08564C77.4461 2.05596 77.4162 2.0374 77.3864 2.0374C77.3864 2.0374 77.3341 2.03369 77.278 2.03369C77.2258 2.03369 77.1697 2.0374 77.1697 2.0374C77.1398 2.0374 77.11 2.05967 77.1025 2.08564L71.6416 18.8174L53.9366 18.81C53.9067 18.81 53.8806 18.8285 53.8694 18.8582C53.8694 18.8582 53.847 18.9064 53.832 18.9584C53.8171 19.0103 53.8059 19.0623 53.8059 19.0623C53.7947 19.092 53.8059 19.1254 53.832 19.1402L68.1566 29.4709Z" fill="#E3000F"/>
<path d="M91.9239 48.4068C91.6512 48.4068 91.3897 48.3289 91.1693 48.1879C91.1693 48.1879 90.5978 47.8354 89.7163 47.2417C87.1428 45.5162 80.834 41.2637 77.278 38.7626C73.8715 41.1598 68.0408 45.0931 64.8435 47.2417C63.9545 47.8391 63.383 48.1916 63.3793 48.1953C63.1701 48.3326 62.9124 48.4068 62.636 48.4068C62.3857 48.4068 62.1354 48.34 61.9449 48.2287C61.7694 48.1248 61.62 48.0135 61.5826 47.9875C61.5154 47.9467 61.4108 47.8688 61.2427 47.7241C60.9364 47.4606 60.6787 46.9151 60.8356 46.3474C60.8356 46.3437 60.9925 45.7165 61.2913 44.6813C62.3596 40.9965 64.3205 34.28 65.5681 30.3095C62.2176 27.8308 56.6521 23.5374 53.6079 21.1811C52.76 20.5243 52.2483 20.0939 52.2446 20.0902C51.8075 19.7451 51.6731 19.1513 51.7702 18.7469C51.815 18.5576 51.8673 18.3943 51.886 18.3387C51.9047 18.257 51.9495 18.1309 52.0354 17.9268C52.1923 17.5557 52.633 17.1438 53.2269 17.1179C53.2232 17.1179 53.8806 17.0696 54.9638 17.0325C58.826 16.9026 65.8707 16.68 70.0429 16.6317C71.3801 12.7058 73.7707 6.1155 75.0855 2.50866C75.4553 1.49191 75.7055 0.887063 75.7092 0.883352C75.9035 0.367559 76.4301 0.0558566 76.8485 0.0187492C77.0054 0.00390625 77.151 0.00390625 77.2257 0.00390625H77.2892H77.3341C77.4125 0.00390625 77.5582 0.00761699 77.7151 0.0187492C78.1185 0.0521459 78.6489 0.341584 78.858 0.894485C78.9178 1.0392 79.1606 1.65148 79.4744 2.50866C80.7929 6.12292 83.1872 12.7206 84.5169 16.6317C88.6966 16.68 95.7375 16.9026 99.596 17.0325C100.683 17.0696 101.337 17.1179 101.344 17.1179C101.927 17.1438 102.368 17.5557 102.524 17.9268C102.595 18.0901 102.648 18.2496 102.67 18.3201C102.715 18.4166 102.749 18.5539 102.793 18.7432C102.887 19.1365 102.775 19.7265 102.308 20.0939C102.218 20.1681 101.725 20.5763 100.952 21.1737C97.9039 23.5337 92.3385 27.8271 88.9917 30.3058C90.2393 34.2726 92.2003 40.9928 93.2648 44.6775C93.5673 45.724 93.7242 46.3548 93.7242 46.3585C93.8811 46.9151 93.6196 47.4569 93.3134 47.7204C93.1714 47.8428 93.0369 47.9393 92.9847 47.9764C92.91 48.0432 92.7904 48.1211 92.6149 48.225C92.4244 48.3438 92.1741 48.4068 91.9239 48.4068Z" fill="white"/>
<path d="M68.1566 29.4709L62.6771 46.199C62.6659 46.2286 62.6771 46.2583 62.7032 46.2769C62.7032 46.2769 62.7443 46.314 62.7854 46.3437C62.8302 46.3734 62.875 46.403 62.875 46.403C62.9012 46.4216 62.9348 46.4216 62.9572 46.403L77.278 36.0575L91.5952 46.403C91.6176 46.4216 91.6512 46.4216 91.6773 46.403C91.6773 46.403 91.7259 46.3771 91.767 46.3437C91.8118 46.3103 91.8492 46.2769 91.8492 46.2769C91.8753 46.2583 91.8865 46.2249 91.8753 46.199L86.3957 29.4746L100.724 19.1439C100.75 19.1254 100.761 19.0957 100.75 19.066C100.75 19.066 100.739 19.014 100.72 18.9621C100.705 18.9102 100.683 18.8619 100.683 18.8619C100.675 18.8322 100.646 18.8137 100.616 18.8137L82.9108 18.8211L77.4536 2.08564C77.4461 2.05596 77.4162 2.0374 77.3864 2.0374C77.3864 2.0374 77.3341 2.03369 77.278 2.03369C77.2258 2.03369 77.1697 2.0374 77.1697 2.0374C77.1361 2.0374 77.11 2.05967 77.1025 2.08564L71.6416 18.8174L53.9366 18.81C53.9067 18.81 53.8806 18.8285 53.8694 18.8582C53.8694 18.8582 53.847 18.9064 53.832 18.9584C53.8171 19.0103 53.8059 19.0623 53.8059 19.0623C53.7947 19.092 53.8059 19.1254 53.832 19.1402L68.1566 29.4709Z" fill="#E3000F"/>
<path d="M110.38 42.7997L110.391 42.6438H109.341C109.3 43.5789 109.872 44.206 110.824 44.206C111.862 44.206 112.49 43.5789 112.49 42.5473C112.49 41.9536 112.251 41.3785 111.623 41.2263V41.2078C112.173 40.9888 112.314 40.4211 112.314 39.8942C112.314 38.9999 111.792 38.4321 110.884 38.4321C109.853 38.4321 109.528 39.178 109.562 40.0834H110.536V39.9684C110.536 39.7235 110.589 39.3858 110.91 39.3858C111.235 39.3858 111.295 39.7086 111.295 39.9572C111.295 40.5806 111.041 40.6957 110.432 40.6957V41.6642C111.067 41.6419 111.28 41.8163 111.28 42.4434C111.28 42.7737 111.25 43.2338 110.794 43.2338C110.499 43.2338 110.38 42.9815 110.38 42.7997Z" fill="white"/>
<path d="M108.168 38.5137H105.124V39.4748H106.637L104.881 44.1132H106.047L108.168 38.5137Z" fill="white"/>
<path d="M102.349 41.0962V41.0814C102.872 40.907 103.122 40.4283 103.122 39.8977C103.122 39.0776 102.566 38.4282 101.714 38.4282C100.851 38.4282 100.302 39.0739 100.302 39.8977C100.302 40.432 100.571 40.907 101.068 41.0777V41.0962C100.373 41.33 100.089 41.8569 100.089 42.5768C100.089 43.4971 100.773 44.2021 101.714 44.2021C102.659 44.2021 103.324 43.4971 103.324 42.5768C103.324 41.8718 103.059 41.3189 102.349 41.0962ZM101.691 39.2928C101.994 39.2928 102.035 39.6825 102.035 39.8903C102.035 40.0906 102.035 40.5174 101.691 40.5174C101.411 40.5174 101.378 40.0906 101.378 39.8828C101.378 39.6787 101.423 39.2928 101.691 39.2928ZM101.703 43.2336C101.314 43.2336 101.236 42.7253 101.236 42.4432C101.236 42.1538 101.318 41.6306 101.695 41.6306C102.058 41.6306 102.192 42.1649 102.192 42.4432C102.192 42.7141 102.084 43.2336 101.703 43.2336Z" fill="white"/>
<path d="M98.1355 38.5137H96.5182V39.4748H97.0598V44.1132H98.1355V38.5137Z" fill="white"/>
<path d="M45.7453 38.5137H43.28V44.1132H45.7565V43.0705H44.4977V41.8088H45.5921V40.7698H44.4977V39.549H45.7453V38.5137Z" fill="white"/>
<path d="M57.4926 42.792C57.0892 42.792 56.7754 43.1037 56.7754 43.4896C56.7754 43.8829 57.0892 44.2021 57.4926 44.2021C57.8848 44.2021 58.1873 43.8829 58.1873 43.4896C58.1873 43.1074 57.8848 42.792 57.4926 42.792Z" fill="white"/>
<path d="M55.9462 38.5137H52.8011V39.549H53.7573V44.1132H54.9862V39.549H55.9462V38.5137Z" fill="white"/>
<path d="M50.6758 39.7754V38.6956C50.3284 38.5249 49.981 38.4321 49.5814 38.4321C48.5318 38.4321 47.9677 39.1817 47.9677 40.076C47.9677 40.8849 48.3973 41.3042 49.107 41.7347C49.4469 41.9685 49.8316 42.1243 49.8316 42.5511C49.8316 42.9258 49.5253 43.1633 49.1182 43.1633C48.7633 43.1633 48.4795 43.0483 48.1956 42.8628V43.9277C48.4795 44.1096 48.9016 44.2098 49.2489 44.2098C50.3919 44.2098 51.0269 43.4528 51.0269 42.4583C51.0269 40.9406 49.163 40.8849 49.163 39.9684C49.163 39.6307 49.4058 39.4155 49.7756 39.4155C50.123 39.4118 50.418 39.5787 50.6758 39.7754Z" fill="white"/>
<path d="M39.9034 75.9848C38.8799 77.0052 37.5427 78.022 36.2317 78.4376C34.9953 78.8346 31.4655 79.1389 30.4271 76.2445C30.203 75.6174 30.386 75.4244 30.9575 75.2575C31.8092 75.0051 34.0017 74.3669 36.3176 73.5023C38.4168 72.723 40.2919 71.7694 40.8783 71.3797C41.9279 70.6932 42.0848 69.7284 41.6253 68.6931C40.1499 65.4017 36.8144 61.9544 31.2713 63.0046C26.8637 63.8395 23.7075 67.7803 23.7075 72.2889C23.7075 77.8698 27.0916 81.1353 31.402 82.1483C35.3838 83.0908 40.0715 81.1724 42.0736 77.9477C42.8654 76.6972 40.628 75.2241 39.9034 75.9848ZM29.9266 71.5912C29.4933 70.4075 29.8407 66.7858 31.8503 66.0993C33.9644 65.3795 35.2605 66.463 35.8918 68.5781C36.1271 69.3611 36.0748 70.1886 35.8171 70.504C35.4435 70.953 34.7749 71.2239 34.1736 71.4243L32.5898 71.9475C31.0322 72.4707 30.2927 72.5783 29.9266 71.5912Z" fill="white"/>
<path d="M91.5167 75.9848C90.4933 77.0052 89.1561 78.022 87.845 78.4376C86.6086 78.8346 83.0788 79.1389 82.0405 76.2445C81.8163 75.6174 81.9994 75.4244 82.5709 75.2575C83.4225 75.0051 85.6151 74.3669 87.9309 73.5023C90.0301 72.723 91.9052 71.7694 92.4916 71.3797C93.5412 70.6932 93.6981 69.7284 93.2387 68.6931C91.7632 65.4017 88.4277 61.9544 82.8846 63.0046C78.477 63.8395 75.3208 67.7803 75.3208 72.2889C75.3208 77.8698 78.7086 81.1353 83.0153 82.1483C86.9971 83.0908 91.6811 81.1724 93.6869 77.9477C94.4788 76.6972 92.2413 75.2241 91.5167 75.9848ZM81.5362 71.5912C81.2785 70.8825 81.2971 69.3054 81.7827 68.0029C82.1114 67.1272 82.6007 66.4444 83.4561 66.103C84.4235 65.7171 85.249 65.8247 85.8952 66.1921C86.6348 66.6151 87.1614 67.45 87.4976 68.5818C87.7329 69.3648 87.6806 70.1923 87.4229 70.5077C87.0494 70.9567 86.463 71.1868 85.7794 71.428C85.0959 71.6729 84.4833 71.8658 84.1957 71.9586C82.6344 72.441 81.9022 72.5783 81.5362 71.5912Z" fill="white"/>
<path d="M130.86 75.9848C129.836 77.0052 128.499 78.022 127.188 78.4376C125.952 78.8346 122.422 79.1389 121.384 76.2445C121.159 75.6174 121.342 75.4244 121.914 75.2575C122.766 75.0051 124.958 74.3669 127.274 73.5023C129.373 72.723 131.248 71.7694 131.835 71.3797C132.884 70.6932 133.041 69.7284 132.582 68.6931C131.106 65.4017 127.771 61.9544 122.228 63.0046C117.82 63.8395 114.664 67.7803 114.664 72.2889C114.664 77.8698 118.048 81.1353 122.358 82.1483C126.34 83.0908 131.028 81.1724 133.03 77.9477C133.822 76.6972 131.584 75.2241 130.86 75.9848ZM120.879 71.5912C120.622 70.8825 120.64 69.3054 121.13 68.0029C121.458 67.1272 121.948 66.4444 122.803 66.103C123.77 65.7171 124.596 65.8247 125.242 66.1921C125.982 66.6151 126.508 67.45 126.844 68.5818C127.08 69.3648 127.028 70.1923 126.77 70.5077C126.396 70.9567 125.81 71.1868 125.126 71.428C124.443 71.6729 123.834 71.8658 123.543 71.9586C121.977 72.441 121.245 72.5783 120.879 71.5912Z" fill="white"/>
<path d="M14.799 77.0464C14.799 77.796 14.5636 78.616 13.9809 78.8721L12.7259 79.4361C12.5018 79.54 12.4383 79.7033 12.4383 79.9519C12.4383 80.015 12.442 80.0521 12.457 80.1375L12.6064 81.555C12.6736 81.9409 12.9388 82.004 13.4505 82.004H22.5533C23.0687 82.004 23.3339 81.9409 23.3974 81.555L23.5468 80.1375C23.5581 80.0521 23.5655 80.015 23.5655 79.9519C23.5655 79.7033 23.502 79.54 23.2779 79.4361L22.0229 78.8721C21.4439 78.616 21.2049 77.796 21.2049 77.0464V61.3834C21.2049 60.6338 21.4402 59.8137 22.0229 59.5577L23.2779 58.9936C23.502 58.8934 23.5655 58.7265 23.5655 58.4778C23.5655 58.4148 23.5618 58.3777 23.5468 58.2923L23.3974 57.2273C23.3302 56.8414 23.065 56.7783 22.5533 56.7783H13.8726C13.3572 56.7783 13.092 56.8414 13.0285 57.2273L12.8791 58.2923C12.8678 58.3777 12.8604 58.4148 12.8604 58.4778C12.8604 58.7265 12.9239 58.8897 13.148 58.9936L14.1714 59.5577C14.7579 59.8916 14.7952 60.6375 14.7952 61.3834V65.7509C14.7952 66.0552 14.5487 66.3001 14.2424 66.3001H9.31191C9.00562 66.3001 8.7591 66.0552 8.7591 65.7509V61.3834C8.7591 60.6338 8.79645 59.8916 9.38288 59.5577L10.4063 58.9936C10.6304 58.8934 10.6939 58.7265 10.6939 58.4778C10.6939 58.4148 10.6902 58.3777 10.6753 58.2923L10.5259 57.2273C10.4586 56.8414 10.1934 56.7783 9.6817 56.7783H1.01225C0.496785 56.7783 0.231584 56.8414 0.168085 57.2273L0.0186761 58.2923C0.00747045 58.3777 0 58.4148 0 58.4778C0 58.7265 0.0634988 58.8897 0.287612 58.9936L1.54265 59.5577C2.12161 59.8137 2.36066 60.6375 2.36066 61.3834V77.0464C2.36066 77.796 2.12534 78.616 1.54265 78.8721L0.287612 79.4361C0.0634988 79.54 0 79.7033 0 79.9519C0 80.015 0.00373522 80.0521 0.0186761 80.1375L0.168085 81.555C0.235319 81.9409 0.50052 82.004 1.01225 82.004H10.115C10.6304 82.004 10.8956 81.9409 10.9591 81.555L11.1086 80.1375C11.1198 80.0521 11.1272 80.015 11.1272 79.9519C11.1272 79.7033 11.0637 79.54 10.8396 79.4361L9.58458 78.8721C9.00562 78.616 8.76657 77.796 8.76657 77.0464V70.6788C8.76657 70.3745 9.01309 70.1296 9.31938 70.1296H14.2499C14.5562 70.1296 14.8027 70.3745 14.8027 70.6788V77.0464H14.799Z" fill="white"/>
<path d="M50.6758 59.4165C50.6758 61.1569 49.2041 62.567 47.3888 62.567C45.5735 62.567 44.1055 61.1569 44.1055 59.4165C44.1055 57.6762 45.5772 56.2661 47.3888 56.2661C49.2041 56.2661 50.6758 57.6762 50.6758 59.4165Z" fill="white"/>
<path d="M43.7992 81.9996C43.3062 81.9996 43.0522 81.9403 42.9887 81.5692L42.8467 80.1554C42.8355 80.0737 42.8355 80.0366 42.8355 79.9773C42.8355 79.7398 42.9028 79.5951 43.1045 79.4837L44.0831 78.942C44.6247 78.6822 44.8675 77.9067 44.8675 77.1905V68.2476C44.8675 67.498 44.7368 66.5444 44.0756 66.2141L43.4481 65.8542C43.224 65.754 43.1605 65.587 43.1605 65.3421C43.1605 65.279 43.1642 65.2419 43.1792 65.1566L43.3286 64.0916C43.3958 63.7057 43.661 63.6426 44.1728 63.6426H50.3209C50.6272 63.6426 50.8737 63.8875 50.8737 64.1918V77.1905C50.8737 77.9104 51.1165 78.6822 51.6581 78.942L52.6368 79.4837C52.8422 79.5951 52.9057 79.7398 52.9057 79.9773C52.9057 80.0366 52.9094 80.0775 52.8945 80.1554L52.7526 81.5692C52.6891 81.9403 52.4351 81.9996 51.942 81.9996H43.7992Z" fill="white"/>
<path d="M62.4081 64.5967C62.4081 64.5967 62.7555 64.4298 63.3755 64.1292C64.6082 63.554 67.0174 62.5261 69.0083 63.157C70.7339 63.7062 72.2243 64.9493 72.2243 68.2147C72.2243 71.9255 72.2243 76.6567 72.2243 78.1113C72.2243 78.5343 72.243 78.7087 72.4409 78.8163C72.7061 78.961 73.1656 78.5306 73.6063 78.3042C74.0508 78.0779 74.2973 78.345 74.57 78.6419C74.8091 78.9054 75.0929 79.2727 74.8613 79.7588C74.1255 81.2914 72.4783 82.1708 70.5472 82.1708C68.7244 82.1708 66.4048 81.1318 66.4048 78.4193C66.4048 75.7067 66.4048 70.1035 66.4048 68.8901C66.4048 67.4355 65.3403 66.9271 64.5148 67.031C63.2672 67.1831 62.3596 68.2221 62.3596 70.0701V77.191C62.3596 77.9109 62.6023 78.6827 63.144 78.9425L64.1226 79.4842C64.328 79.5956 64.3915 79.7403 64.3915 79.9778C64.3915 80.0371 64.3953 80.078 64.3803 80.1559L64.2384 81.5697C64.1749 81.9408 63.9209 82.0001 63.4278 82.0001H55.2813C54.7883 82.0001 54.5343 81.9408 54.4708 81.5697L54.3288 80.1559C54.3176 80.0743 54.3176 80.0371 54.3176 79.9778C54.3176 79.7403 54.3849 79.5956 54.5866 79.4842L55.5652 78.9425C56.1068 78.6827 56.3496 77.9072 56.3496 77.191V68.2481C56.3496 67.4985 56.2226 66.5449 55.5614 66.2146L54.9339 65.8547C54.7098 65.7545 54.6463 65.5875 54.6463 65.3426C54.6463 65.2795 54.6501 65.2424 54.665 65.1571L54.8144 64.0921C54.8816 63.7062 55.1468 63.6431 55.6586 63.6431H61.4519C61.9076 63.6431 62.0831 63.9028 62.2139 64.1923L62.4081 64.5967Z" fill="white"/>
<path d="M141.905 64.5967C141.905 64.5967 142.252 64.4298 142.872 64.1292C144.105 63.554 146.514 62.5261 148.505 63.157C150.231 63.7062 151.721 64.9493 151.721 68.2147C151.721 71.9255 151.721 76.6567 151.721 78.1113C151.721 78.5343 151.74 78.7087 151.938 78.8163C152.203 78.961 152.662 78.5306 153.103 78.3042C153.548 78.0779 153.794 78.345 154.067 78.6419C154.306 78.9054 154.59 79.2727 154.358 79.7588C153.622 81.2914 151.975 82.1708 150.044 82.1708C148.221 82.1708 145.902 81.1318 145.902 78.4193C145.902 75.7067 145.902 70.1035 145.902 68.8901C145.902 67.4355 144.837 66.9271 144.012 67.031C142.764 67.1831 141.856 68.2221 141.856 70.0701V77.191C141.856 77.9109 142.099 78.6827 142.641 78.9425L143.619 79.4842C143.825 79.5956 143.888 79.7403 143.888 79.9778C143.888 80.0371 143.892 80.078 143.877 80.1559L143.735 81.5697C143.672 81.9408 143.418 82.0001 142.925 82.0001H134.778C134.285 82.0001 134.031 81.9408 133.968 81.5697L133.826 80.1559C133.814 80.0743 133.814 80.0371 133.814 79.9778C133.814 79.7403 133.882 79.5956 134.083 79.4842L135.062 78.9425C135.604 78.6827 135.846 77.9072 135.846 77.191V68.2481C135.846 67.4985 135.719 66.5449 135.054 66.2146L134.427 65.8547C134.203 65.7545 134.139 65.5875 134.139 65.3426C134.139 65.2795 134.143 65.2424 134.158 65.1571L134.307 64.0921C134.375 63.7062 134.64 63.6431 135.152 63.6431H140.945C141.401 63.6431 141.576 63.9028 141.707 64.1923L141.905 64.5967Z" fill="white"/>
<path d="M112.404 77.4394C112.837 78.1296 113.364 78.6825 113.906 78.946L114.884 79.4878C115.09 79.5991 115.153 79.7438 115.153 79.9813C115.153 80.0407 115.153 80.0815 115.142 80.1594L115 81.5732C114.937 81.9443 114.683 82.0037 114.19 82.0037H109.27C108.43 82.0037 108.366 81.7625 107.985 81.0797L103.862 73.6211L102.312 75.098V77.1982C102.312 77.9181 102.651 78.6677 103.215 78.9497L104.194 79.4915C104.399 79.6028 104.463 79.7475 104.463 79.985C104.463 80.0444 104.467 80.0852 104.452 80.1631L104.31 81.5769C104.246 81.948 103.992 82.0074 103.499 82.0074H95.3603C94.8672 82.0074 94.6132 81.948 94.5497 81.5769L94.4078 80.1631C94.3966 80.0815 94.3966 80.0444 94.3966 79.985C94.3966 79.7475 94.4638 79.6028 94.6655 79.4915L95.6441 78.9497C96.1857 78.69 96.4285 77.9144 96.4285 77.1982V61.1864C96.4285 60.4702 96.2044 59.7206 95.6441 59.4349L94.6655 58.8932C94.4601 58.7818 94.3966 58.6371 94.3966 58.3996C94.3966 58.3403 94.3928 58.3031 94.4078 58.2215L94.5497 57.2122C94.6132 56.8411 94.8672 56.7817 95.3603 56.7817H101.266C101.845 56.7817 102.315 57.2493 102.315 57.8245V69.9808L104.941 67.6245C105.315 67.3054 105.927 66.7711 106.166 66.5336C106.405 66.2961 106.454 65.9436 106.114 65.8026L105.188 65.387C104.982 65.2942 104.922 65.1458 104.922 64.9194C104.922 64.8637 104.926 64.8266 104.937 64.7487L105.072 63.4574C105.132 63.1048 105.374 63.0492 105.841 63.0492H112.912C113.379 63.0492 113.622 63.1048 113.682 63.4574L113.816 64.7487C113.827 64.8266 113.831 64.8637 113.831 64.9194C113.846 65.1977 113.513 65.335 113.308 65.4278C113.308 65.4278 112.804 65.5725 112.348 65.8322C111.892 66.092 111.403 66.4779 110.79 67.0271L108.064 69.6283L112.404 77.4394Z" fill="white"/>
<path d="M150.462 58.7002C150.462 61.3831 152.651 63.5576 155.348 63.5576C158.045 63.5576 160.234 61.3831 160.234 58.7002C160.234 56.0211 158.045 53.854 155.348 53.854C152.647 53.854 150.462 56.0211 150.462 58.7002ZM155.344 62.5186C153.219 62.5186 151.501 60.8116 151.501 58.7002C151.501 56.5962 153.219 54.8856 155.344 54.8856C157.462 54.8856 159.188 56.5925 159.188 58.7002C159.191 60.8116 157.466 62.5186 155.344 62.5186Z" fill="white"/>
<path d="M153.335 61.0602H154.541V59.0193C154.545 59.0193 154.616 59.0267 155.023 59.0452C155.628 59.0712 155.942 59.1788 156.121 59.7392C156.248 60.1288 156.308 60.4924 156.558 61.0602C157.092 61.0713 157.242 61.0713 157.795 61.0713C157.664 60.7448 157.466 60.3514 157.38 59.7985C157.29 59.2234 157.092 58.9079 156.663 58.6185C157.055 58.4775 157.451 57.9951 157.451 57.2901C157.451 56.1805 156.285 55.8354 155.86 55.8354C155.43 55.8354 153.338 55.8354 153.338 55.8354V61.0602H153.335ZM155.52 57.9765C155.109 57.9765 154.545 57.9765 154.545 57.9765V56.7854C154.545 56.7854 155.023 56.7854 155.397 56.7854C155.766 56.7854 156.211 56.9412 156.211 57.3531C156.211 57.7168 155.927 57.9765 155.52 57.9765Z" fill="white"/>
</g>
<defs>
<clipPath id="clip0_41_13">
<rect width="160.23" height="82" fill="white"/>
</clipPath>
</defs>
</svg>
