<svg width="25" height="25" viewBox="0 0 25 25" fill="none" xmlns="http://www.w3.org/2000/svg">
<path d="M5.53403 5.79775C3.8616 7.53556 2.83329 9.89771 2.83329 12.5C2.83329 17.8388 7.1612 22.1667 12.5 22.1667C13.8059 22.1667 15.0515 21.9077 16.1879 21.4383C16.3269 20.5315 16.022 19.6613 15.8973 19.3568C15.6199 18.6806 14.7041 17.5245 13.1753 15.9206C12.7672 15.4916 12.7935 15.1626 12.9393 14.1848L12.9561 14.0744C13.0552 13.4046 13.2215 13.0086 15.4751 12.6508C16.62 12.4693 16.9211 12.9269 17.3385 13.5606C17.3846 13.6308 17.4308 13.6997 17.4781 13.7687C17.8745 14.3484 18.1683 14.481 18.612 14.6828C18.8107 14.7729 19.0588 14.8866 19.3912 15.0755C20.179 15.5257 20.179 16.034 20.179 17.1487V17.2751C20.179 17.7483 20.1328 18.1637 20.06 18.5247C21.3786 16.8724 22.1666 14.7782 22.1666 12.5C22.1666 8.5136 19.7536 5.09076 16.3085 3.61251C15.6401 4.06359 14.7231 4.70296 14.4031 5.14127C14.2395 5.36527 14.0082 6.50869 13.256 6.60306C13.0589 6.6278 12.7946 6.61047 12.5145 6.59244C11.7635 6.54364 10.736 6.47776 10.4071 7.37059C10.1983 7.93639 10.1616 9.47248 10.8372 10.2698C10.9453 10.3972 10.9662 10.6328 10.8928 10.8972C10.7962 11.2443 10.6012 11.4555 10.5404 11.4992C10.4239 11.4322 10.1916 11.1625 10.0342 10.979C9.65499 10.5383 9.18194 9.9895 8.57042 9.81965C8.34807 9.75811 8.10363 9.70716 7.86658 9.65725C7.20311 9.51818 6.45156 9.35997 6.27695 8.98742C6.14947 8.71455 6.15002 8.33877 6.15052 7.94175C6.15052 7.43855 6.15052 6.86954 5.90402 6.31645C5.80876 6.10239 5.6812 5.93208 5.53403 5.79775ZM12.5 24.5834C5.82652 24.5834 0.416626 19.1734 0.416626 12.5C0.416626 5.82658 5.82652 0.416687 12.5 0.416687C19.1733 0.416687 24.5833 5.82658 24.5833 12.5C24.5833 19.1734 19.1733 24.5834 12.5 24.5834Z" fill="white"/>
</svg>
