<svg width="118" height="60" viewBox="0 0 118 60" fill="none" xmlns="http://www.w3.org/2000/svg">
<g clip-path="url(#clip0_1_6)">
<path d="M50.1934 21.5639L46.158 33.804C46.1498 33.8257 46.158 33.8474 46.1773 33.861C46.1773 33.861 46.2075 33.8881 46.2378 33.9098C46.2708 33.9316 46.3038 33.9533 46.3038 33.9533C46.3231 33.9669 46.3478 33.9669 46.3643 33.9533L56.9108 26.3834L67.4545 33.9533C67.471 33.9669 67.4958 33.9669 67.515 33.9533C67.515 33.9533 67.548 33.9343 67.581 33.9098C67.6141 33.8854 67.6416 33.861 67.6416 33.861C67.6608 33.8474 67.6691 33.823 67.6608 33.804L63.6254 21.5667L74.1774 14.0076C74.1967 13.994 74.2049 13.9723 74.1967 13.9506C74.1967 13.9506 74.1884 13.9126 74.1747 13.8746C74.1637 13.8365 74.1471 13.8012 74.1471 13.8012C74.1416 13.7795 74.1196 13.7659 74.0976 13.7659L61.059 13.7714L57.0401 1.52593C57.0346 1.50421 57.0126 1.49063 56.9906 1.49063C56.9906 1.49063 56.9521 1.48792 56.9108 1.48792C56.8723 1.48792 56.831 1.49063 56.831 1.49063C56.809 1.49063 56.787 1.50692 56.7815 1.52593L52.7599 13.7687L39.7212 13.7632C39.6992 13.7632 39.6799 13.7768 39.6717 13.7985C39.6717 13.7985 39.6552 13.8338 39.6442 13.8718C39.6332 13.9099 39.6249 13.9479 39.6249 13.9479C39.6167 13.9696 39.6249 13.994 39.6442 14.0049L50.1934 21.5639Z" fill="#E3000F"/>
<path d="M67.6966 35.4195C67.4958 35.4195 67.3032 35.3625 67.1409 35.2593C67.1409 35.2593 66.72 35.0014 66.0709 34.567C64.1756 33.3044 59.5295 30.1928 56.9108 28.3628C54.4021 30.1168 50.1081 32.9949 47.7535 34.567C47.0988 35.0041 46.6779 35.2621 46.6751 35.2648C46.5211 35.3652 46.3313 35.4195 46.1277 35.4195C45.9434 35.4195 45.7591 35.3707 45.6188 35.2892C45.4896 35.2132 45.3795 35.1317 45.352 35.1127C45.3025 35.0828 45.2255 35.0258 45.1017 34.9199C44.8761 34.7272 44.6863 34.328 44.8019 33.9126C44.8019 33.9099 44.9174 33.451 45.1375 32.6935C45.9242 29.9973 47.3683 25.0828 48.2871 22.1776C45.8197 20.3639 41.721 17.2224 39.4791 15.4983C38.8547 15.0177 38.4778 14.7027 38.4751 14.7C38.1532 14.4475 38.0542 14.0131 38.1257 13.7171C38.1588 13.5786 38.1973 13.4592 38.211 13.4184C38.2248 13.3587 38.2578 13.2664 38.321 13.1171C38.4366 12.8455 38.7612 12.5442 39.1985 12.5251C39.1958 12.5251 39.6799 12.4899 40.4777 12.4627C43.322 12.3677 48.5099 12.2048 51.5825 12.1695C52.5673 9.2968 54.3278 4.47464 55.2961 1.83549C55.5684 1.09153 55.7527 0.648959 55.7555 0.646244C55.8985 0.268834 56.2864 0.0407591 56.5944 0.0136073C56.71 0.00274658 56.8173 0.00274658 56.8723 0.00274658H56.919H56.952C57.0098 0.00274658 57.1171 0.00546176 57.2326 0.0136073C57.5297 0.0380439 57.9203 0.249828 58.0744 0.654389C58.1184 0.760281 58.2972 1.20829 58.5282 1.83549C59.4993 4.48007 61.2625 9.30766 62.2418 12.1695C65.3199 12.2048 70.5051 12.3677 73.3467 12.4627C74.1471 12.4899 74.6285 12.5251 74.634 12.5251C75.0631 12.5442 75.3877 12.8455 75.5033 13.1171C75.5555 13.2365 75.594 13.3533 75.6105 13.4049C75.6436 13.4755 75.6683 13.5759 75.7013 13.7144C75.7701 14.0022 75.6876 14.4339 75.3437 14.7027C75.2777 14.757 74.9146 15.0557 74.3452 15.4928C72.1006 17.2197 68.0019 20.3611 65.5372 22.1749C66.456 25.0774 67.9001 29.9946 68.6841 32.6908C68.9069 33.4565 69.0224 33.918 69.0224 33.9207C69.138 34.328 68.9454 34.7244 68.7199 34.9172C68.6153 35.0068 68.5163 35.0774 68.4778 35.1046C68.4228 35.1534 68.3347 35.2105 68.2055 35.2865C68.0652 35.3734 67.8809 35.4195 67.6966 35.4195Z" fill="white"/>
<path d="M50.1934 21.5639L46.158 33.804C46.1498 33.8257 46.158 33.8474 46.1773 33.861C46.1773 33.861 46.2075 33.8881 46.2378 33.9098C46.2708 33.9316 46.3038 33.9533 46.3038 33.9533C46.3231 33.9669 46.3478 33.9669 46.3643 33.9533L56.9108 26.3834L67.4545 33.9533C67.471 33.9669 67.4958 33.9669 67.515 33.9533C67.515 33.9533 67.5508 33.9343 67.581 33.9098C67.6141 33.8854 67.6416 33.861 67.6416 33.861C67.6608 33.8474 67.6691 33.823 67.6608 33.804L63.6254 21.5667L74.1774 14.0076C74.1967 13.994 74.2049 13.9723 74.1967 13.9506C74.1967 13.9506 74.1884 13.9126 74.1747 13.8746C74.1637 13.8365 74.1471 13.8012 74.1471 13.8012C74.1416 13.7795 74.1196 13.7659 74.0976 13.7659L61.059 13.7714L57.0401 1.52593C57.0346 1.50421 57.0126 1.49063 56.9906 1.49063C56.9906 1.49063 56.9521 1.48792 56.9108 1.48792C56.8723 1.48792 56.831 1.49063 56.831 1.49063C56.8063 1.49063 56.787 1.50692 56.7815 1.52593L52.7599 13.7687L39.7212 13.7632C39.6992 13.7632 39.6799 13.7768 39.6717 13.7985C39.6717 13.7985 39.6552 13.8338 39.6442 13.8718C39.6332 13.9099 39.6249 13.9479 39.6249 13.9479C39.6167 13.9696 39.6249 13.994 39.6442 14.0049L50.1934 21.5639Z" fill="#E3000F"/>
<path d="M81.2882 31.3169L81.2964 31.2028H80.5234C80.4932 31.887 80.9141 32.3459 81.6155 32.3459C82.3802 32.3459 82.8423 31.887 82.8423 31.1322C82.8423 30.6978 82.6663 30.2769 82.2042 30.1656V30.152C82.6085 29.9919 82.7131 29.5764 82.7131 29.1909C82.7131 28.5365 82.3279 28.1211 81.6595 28.1211C80.9003 28.1211 80.661 28.6668 80.6857 29.3293H81.4037V29.2452C81.4037 29.066 81.4422 28.8189 81.6788 28.8189C81.9181 28.8189 81.9621 29.0551 81.9621 29.237C81.9621 29.6932 81.775 29.7774 81.3267 29.7774V30.486C81.7943 30.4697 81.9511 30.5973 81.9511 31.0562C81.9511 31.2979 81.9291 31.6345 81.5935 31.6345C81.3762 31.6345 81.2882 31.4499 81.2882 31.3169Z" fill="white"/>
<path d="M79.6597 28.1808H77.4178V28.8841H78.5319L77.239 32.278H78.0973L79.6597 28.1808Z" fill="white"/>
<path d="M75.374 30.0706V30.0598C75.7591 29.9321 75.9434 29.5819 75.9434 29.1936C75.9434 28.5936 75.5335 28.1184 74.9064 28.1184C74.2709 28.1184 73.8666 28.5908 73.8666 29.1936C73.8666 29.5846 74.0646 29.9321 74.4305 30.057V30.0706C73.9188 30.2417 73.7098 30.6272 73.7098 31.154C73.7098 31.8273 74.2132 32.3432 74.9064 32.3432C75.6023 32.3432 76.0919 31.8273 76.0919 31.154C76.0919 30.6381 75.8966 30.2335 75.374 30.0706ZM74.8899 28.751C75.1127 28.751 75.1429 29.0361 75.1429 29.1882C75.1429 29.3348 75.1429 29.6471 74.8899 29.6471C74.6835 29.6471 74.6588 29.3348 74.6588 29.1828C74.6588 29.0334 74.6918 28.751 74.8899 28.751ZM74.8981 31.6346C74.612 31.6346 74.5543 31.2626 74.5543 31.0562C74.5543 30.8444 74.6148 30.4616 74.8926 30.4616C75.1594 30.4616 75.2585 30.8526 75.2585 31.0562C75.2585 31.2544 75.1787 31.6346 74.8981 31.6346Z" fill="white"/>
<path d="M72.2711 28.1808H71.08V28.8841H71.4789V32.278H72.2711V28.1808Z" fill="white"/>
<path d="M33.6887 28.1808H31.8732V32.278H33.697V31.5151H32.77V30.5919H33.576V29.8317H32.77V28.9384H33.6887V28.1808Z" fill="white"/>
<path d="M42.3399 31.3114C42.0428 31.3114 41.8118 31.5395 41.8118 31.8219C41.8118 32.1097 42.0428 32.3432 42.3399 32.3432C42.6288 32.3432 42.8516 32.1097 42.8516 31.8219C42.8516 31.5422 42.6288 31.3114 42.3399 31.3114Z" fill="white"/>
<path d="M41.2011 28.1808H38.885V28.9384H39.5892V32.278H40.4942V28.9384H41.2011V28.1808Z" fill="white"/>
<path d="M37.3198 29.104V28.3139C37.0639 28.189 36.8081 28.1211 36.5138 28.1211C35.7408 28.1211 35.3255 28.6696 35.3255 29.3239C35.3255 29.9158 35.6418 30.2226 36.1644 30.5376C36.4148 30.7087 36.6981 30.8227 36.6981 31.1349C36.6981 31.4092 36.4725 31.5829 36.1727 31.5829C35.9114 31.5829 35.7023 31.4988 35.4933 31.363V32.1423C35.7023 32.2753 36.0132 32.3486 36.269 32.3486C37.1107 32.3486 37.5783 31.7947 37.5783 31.0671C37.5783 29.9566 36.2057 29.9158 36.2057 29.2452C36.2057 28.9981 36.3845 28.8406 36.6568 28.8406C36.9127 28.8379 37.13 28.9601 37.3198 29.104Z" fill="white"/>
<path d="M29.3865 55.5987C28.6328 56.3454 27.648 57.0894 26.6825 57.3935C25.772 57.684 23.1725 57.9066 22.4078 55.7888C22.2428 55.3299 22.3776 55.1888 22.7984 55.0666C23.4256 54.8819 25.0403 54.4149 26.7458 53.7823C28.2917 53.2121 29.6726 52.5143 30.1045 52.2292C30.8774 51.7269 30.993 51.021 30.6546 50.2634C29.5681 47.8551 27.1116 45.3327 23.0295 46.1011C19.7836 46.712 17.4592 49.5955 17.4592 52.8944C17.4592 56.9781 19.9514 59.3674 23.1258 60.1087C26.0581 60.7983 29.5103 59.3946 30.9847 57.0351C31.5679 56.1201 29.9202 55.0421 29.3865 55.5987ZM22.0392 52.384C21.7201 51.5178 21.9759 48.8678 23.4559 48.3655C25.0128 47.8388 25.9673 48.6316 26.4322 50.1793C26.6055 50.7522 26.567 51.3576 26.3772 51.5884C26.1021 51.917 25.6097 52.1152 25.1668 52.2618L24.0005 52.6446C22.8534 53.0275 22.3088 53.1062 22.0392 52.384Z" fill="white"/>
<path d="M67.3967 55.5987C66.643 56.3454 65.6583 57.0894 64.6927 57.3935C63.7822 57.684 61.1827 57.9066 60.418 55.7888C60.253 55.3299 60.3878 55.1888 60.8086 55.0666C61.4358 54.8819 63.0505 54.4149 64.756 53.7823C66.3019 53.2121 67.6828 52.5143 68.1147 52.2292C68.8877 51.7269 69.0032 51.021 68.6649 50.2634C67.5783 47.8551 65.1219 45.3327 61.0397 46.1011C57.7938 46.712 55.4694 49.5955 55.4694 52.8944C55.4694 56.9781 57.9643 59.3674 61.136 60.1087C64.0683 60.7983 67.5178 59.3946 68.9949 57.0351C69.5781 56.1201 67.9304 55.0421 67.3967 55.5987ZM60.0467 52.384C59.8569 51.8654 59.8706 50.7114 60.2282 49.7584C60.4703 49.1176 60.8306 48.618 61.4606 48.3682C62.173 48.0858 62.7809 48.1646 63.2568 48.4334C63.8015 48.7429 64.1893 49.3538 64.4369 50.182C64.6102 50.7549 64.5717 51.3604 64.3819 51.5911C64.1068 51.9197 63.6749 52.088 63.1716 52.2645C62.6682 52.4437 62.217 52.5849 62.0052 52.6528C60.8554 53.0058 60.3162 53.1062 60.0467 52.384Z" fill="white"/>
<path d="M96.3707 55.5987C95.6169 56.3454 94.6322 57.0894 93.6666 57.3935C92.7561 57.684 90.1567 57.9066 89.3919 55.7888C89.2269 55.3299 89.3617 55.1888 89.7826 55.0666C90.4097 54.8819 92.0244 54.4149 93.7299 53.7823C95.2758 53.2121 96.6567 52.5143 97.0886 52.2292C97.8616 51.7269 97.9771 51.021 97.6388 50.2634C96.5522 47.8551 94.0958 45.3327 90.0136 46.1011C86.7677 46.712 84.4433 49.5955 84.4433 52.8944C84.4433 56.9781 86.9355 59.3674 90.1099 60.1087C93.0422 60.7983 96.4944 59.3946 97.9689 57.0351C98.552 56.1201 96.9043 55.0421 96.3707 55.5987ZM89.0206 52.384C88.8308 51.8654 88.8445 50.7114 89.2049 49.7584C89.447 49.1176 89.8073 48.618 90.4372 48.3682C91.1497 48.0858 91.7576 48.1646 92.2335 48.4334C92.7781 48.7429 93.166 49.3538 93.4136 50.182C93.5869 50.7549 93.5484 51.3604 93.3586 51.5911C93.0835 51.9197 92.6516 52.088 92.1482 52.2645C91.6448 52.4437 91.1964 52.5849 90.9819 52.6528C89.8293 53.0058 89.2902 53.1062 89.0206 52.384Z" fill="white"/>
<path d="M10.8986 56.3753C10.8986 56.9238 10.7253 57.5238 10.2962 57.7112L9.37189 58.1239C9.20684 58.1999 9.16008 58.3194 9.16008 58.5013C9.16008 58.5474 9.16283 58.5746 9.17383 58.637L9.28387 59.6742C9.33338 59.9566 9.52868 60.0028 9.90554 60.0028H16.6092C16.9888 60.0028 17.1841 59.9566 17.2309 59.6742L17.3409 58.637C17.3491 58.5746 17.3546 58.5474 17.3546 58.5013C17.3546 58.3194 17.3079 58.1999 17.1428 58.1239L16.2186 57.7112C15.7922 57.5238 15.6162 56.9238 15.6162 56.3753V44.9145C15.6162 44.3661 15.7894 43.766 16.2186 43.5787L17.1428 43.1659C17.3079 43.0926 17.3546 42.9705 17.3546 42.7885C17.3546 42.7424 17.3519 42.7152 17.3409 42.6528L17.2309 41.8735C17.1813 41.5911 16.986 41.545 16.6092 41.545H10.2164C9.83677 41.545 9.64147 41.5911 9.5947 41.8735L9.48467 42.6528C9.47642 42.7152 9.47092 42.7424 9.47092 42.7885C9.47092 42.9705 9.51768 43.0899 9.68273 43.1659L10.4364 43.5787C10.8683 43.823 10.8958 44.3688 10.8958 44.9145V48.1103C10.8958 48.3329 10.7143 48.5121 10.4887 48.5121H6.85768C6.63212 48.5121 6.45057 48.3329 6.45057 48.1103V44.9145C6.45057 44.3661 6.47808 43.823 6.90995 43.5787L7.66366 43.1659C7.82871 43.0926 7.87547 42.9705 7.87547 42.7885C7.87547 42.7424 7.87272 42.7152 7.86172 42.6528L7.75168 41.8735C7.70217 41.5911 7.50687 41.545 7.13001 41.545H0.74546C0.365853 41.545 0.170548 41.5911 0.123785 41.8735L0.0137539 42.6528C0.00550155 42.7152 0 42.7424 0 42.7885C0 42.9705 0.0467632 43.0899 0.21181 43.1659L1.13607 43.5787C1.56244 43.766 1.73849 44.3688 1.73849 44.9145V56.3753C1.73849 56.9238 1.56519 57.5238 1.13607 57.7112L0.21181 58.1239C0.0467632 58.1999 0 58.3194 0 58.5013C0 58.5474 0.00275078 58.5746 0.0137539 58.637L0.123785 59.6742C0.173299 59.9566 0.368604 60.0028 0.74546 60.0028H7.4491C7.82871 60.0028 8.02401 59.9566 8.07077 59.6742L8.18081 58.637C8.18906 58.5746 8.19456 58.5474 8.19456 58.5013C8.19456 58.3194 8.1478 58.1999 7.98275 58.1239L7.05849 57.7112C6.63212 57.5238 6.45607 56.9238 6.45607 56.3753V51.716C6.45607 51.4934 6.63762 51.3142 6.86318 51.3142H10.4942C10.7198 51.3142 10.9013 51.4934 10.9013 51.716V56.3753H10.8986Z" fill="white"/>
<path d="M37.3198 43.4755C37.3198 44.7489 36.236 45.7807 34.8991 45.7807C33.5622 45.7807 32.4811 44.7489 32.4811 43.4755C32.4811 42.2021 33.565 41.1703 34.8991 41.1703C36.236 41.1703 37.3198 42.2021 37.3198 43.4755Z" fill="white"/>
<path d="M32.2556 60C31.8925 60 31.7054 59.9566 31.6587 59.6851L31.5541 58.6506C31.5459 58.5909 31.5459 58.5637 31.5459 58.5203C31.5459 58.3465 31.5954 58.2406 31.7439 58.1591L32.4646 57.7627C32.8635 57.5727 33.0423 57.0052 33.0423 56.4812V49.9376C33.0423 49.3891 32.946 48.6913 32.4591 48.4497L31.997 48.1863C31.832 48.113 31.7852 47.9908 31.7852 47.8116C31.7852 47.7654 31.788 47.7383 31.799 47.6758L31.909 46.8966C31.9585 46.6142 32.1538 46.5681 32.5307 46.5681H37.0584C37.284 46.5681 37.4656 46.7473 37.4656 46.9699V56.4812C37.4656 57.0079 37.6444 57.5727 38.0432 57.7627L38.7639 58.1591C38.9152 58.2406 38.962 58.3465 38.962 58.5203C38.962 58.5637 38.9647 58.5936 38.9537 58.6506L38.8492 59.6851C38.8024 59.9566 38.6154 60 38.2523 60H32.2556Z" fill="white"/>
<path d="M45.9599 47.2659C45.9599 47.2659 46.2158 47.1437 46.6724 46.9238C47.5802 46.5029 49.3544 45.7508 50.8206 46.2124C52.0914 46.6142 53.189 47.5238 53.189 49.9132C53.189 52.6283 53.189 56.0902 53.189 57.1545C53.189 57.4641 53.2027 57.5917 53.3485 57.6704C53.5438 57.7763 53.8822 57.4614 54.2068 57.2957C54.5341 57.1301 54.7157 57.3256 54.9165 57.5428C55.0925 57.7356 55.3016 58.0044 55.131 58.3601C54.5891 59.4815 53.376 60.1249 51.9539 60.1249C50.6115 60.1249 48.9033 59.3647 48.9033 57.3799C48.9033 55.3951 48.9033 51.2952 48.9033 50.4073C48.9033 49.343 48.1193 48.971 47.5114 49.047C46.5926 49.1583 45.9242 49.9186 45.9242 51.2708V56.4812C45.9242 57.0079 46.103 57.5727 46.5019 57.7627L47.2226 58.1592C47.3738 58.2406 47.4206 58.3465 47.4206 58.5203C47.4206 58.5637 47.4234 58.5936 47.4124 58.6506L47.3078 59.6851C47.2611 59.9566 47.074 60 46.7109 60H40.7115C40.3484 60 40.1613 59.9566 40.1146 59.6851L40.01 58.6506C40.0018 58.5909 40.0018 58.5637 40.0018 58.5203C40.0018 58.3465 40.0513 58.2406 40.1998 58.1592L40.9205 57.7627C41.3194 57.5727 41.4982 57.0052 41.4982 56.4812V49.9376C41.4982 49.3891 41.4047 48.6913 40.9178 48.4497L40.4557 48.1863C40.2906 48.113 40.2438 47.9908 40.2438 47.8116C40.2438 47.7655 40.2466 47.7383 40.2576 47.6759L40.3676 46.8966C40.4171 46.6142 40.6124 46.5681 40.9893 46.5681H45.2558C45.5913 46.5681 45.7206 46.7581 45.8169 46.9699L45.9599 47.2659Z" fill="white"/>
<path d="M104.505 47.2659C104.505 47.2659 104.761 47.1437 105.217 46.9238C106.125 46.5029 107.899 45.7508 109.365 46.2124C110.636 46.6142 111.734 47.5238 111.734 49.9132C111.734 52.6283 111.734 56.0902 111.734 57.1545C111.734 57.4641 111.747 57.5917 111.893 57.6704C112.089 57.7763 112.427 57.4614 112.752 57.2957C113.079 57.1301 113.26 57.3256 113.461 57.5428C113.637 57.7356 113.846 58.0044 113.676 58.3601C113.134 59.4815 111.921 60.1249 110.499 60.1249C109.156 60.1249 107.448 59.3647 107.448 57.3799C107.448 55.3951 107.448 51.2952 107.448 50.4073C107.448 49.343 106.664 48.971 106.056 49.047C105.137 49.1583 104.469 49.9186 104.469 51.2708V56.4812C104.469 57.0079 104.648 57.5727 105.047 57.7627L105.767 58.1592C105.919 58.2406 105.965 58.3465 105.965 58.5203C105.965 58.5637 105.968 58.5936 105.957 58.6506L105.853 59.6851C105.806 59.9566 105.619 60 105.256 60H99.2562C98.8931 60 98.7061 59.9566 98.6593 59.6851L98.5548 58.6506C98.5465 58.5909 98.5465 58.5637 98.5465 58.5203C98.5465 58.3465 98.596 58.2406 98.7446 58.1592L99.4653 57.7627C99.8641 57.5727 100.043 57.0052 100.043 56.4812V49.9376C100.043 49.3891 99.9494 48.6913 99.4598 48.4497L98.9976 48.1863C98.8326 48.113 98.7858 47.9908 98.7858 47.8116C98.7858 47.7655 98.7886 47.7383 98.7996 47.6759L98.9096 46.8966C98.9591 46.6142 99.1544 46.5681 99.5313 46.5681H103.798C104.133 46.5681 104.263 46.7581 104.359 46.9699L104.505 47.2659Z" fill="white"/>
<path d="M82.7791 56.6631C83.0982 57.1681 83.486 57.5726 83.8849 57.7654L84.6056 58.1618C84.7569 58.2433 84.8036 58.3492 84.8036 58.523C84.8036 58.5664 84.8036 58.5963 84.7954 58.6533L84.6909 59.6878C84.6441 59.9593 84.457 60.0027 84.0939 60.0027H80.4712C79.8523 60.0027 79.8055 59.8262 79.5249 59.3267L76.488 53.8691L75.3465 54.9498V56.4866C75.3465 57.0133 75.5968 57.5618 76.0122 57.7681L76.7329 58.1646C76.8842 58.246 76.9309 58.3519 76.9309 58.5257C76.9309 58.5691 76.9337 58.599 76.9227 58.656L76.8181 59.6905C76.7714 59.962 76.5843 60.0054 76.2212 60.0054H70.2273C69.8642 60.0054 69.6771 59.962 69.6304 59.6905L69.5258 58.656C69.5176 58.5963 69.5176 58.5691 69.5176 58.5257C69.5176 58.3519 69.5671 58.246 69.7156 58.1646L70.4363 57.7681C70.8352 57.5781 71.014 57.0106 71.014 56.4866V44.7706C71.014 44.2466 70.849 43.6981 70.4363 43.489L69.7156 43.0926C69.5643 43.0112 69.5176 42.9053 69.5176 42.7315C69.5176 42.688 69.5148 42.6609 69.5258 42.6012L69.6304 41.8626C69.6771 41.5911 69.8642 41.5477 70.2273 41.5477H74.5763C75.0026 41.5477 75.3492 41.8898 75.3492 42.3106V51.2056L77.283 49.4814C77.5581 49.2479 78.0092 48.8569 78.1853 48.6832C78.3613 48.5094 78.3971 48.2514 78.1468 48.1483L77.4646 47.8442C77.3133 47.7763 77.2693 47.6677 77.2693 47.5021C77.2693 47.4613 77.272 47.4342 77.2803 47.3772L77.3793 46.4323C77.4233 46.1743 77.6021 46.1336 77.946 46.1336H83.1532C83.497 46.1336 83.6758 46.1743 83.7198 46.4323L83.8189 47.3772C83.8271 47.4342 83.8299 47.4613 83.8299 47.5021C83.8409 47.7057 83.5961 47.8062 83.4448 47.874C83.4448 47.874 83.0734 47.9799 82.7378 48.17C82.4022 48.3601 82.0419 48.6424 81.5907 49.0443L79.5827 50.9476L82.7791 56.6631Z" fill="white"/>
<path d="M110.807 42.9514C110.807 44.9145 112.419 46.5056 114.405 46.5056C116.391 46.5056 118.003 44.9145 118.003 42.9514C118.003 40.9911 116.391 39.4054 114.405 39.4054C112.416 39.4054 110.807 40.9911 110.807 42.9514ZM114.402 45.7453C112.837 45.7453 111.571 44.4964 111.571 42.9514C111.571 41.4119 112.837 40.1602 114.402 40.1602C115.962 40.1602 117.233 41.4092 117.233 42.9514C117.235 44.4964 115.964 45.7453 114.402 45.7453Z" fill="white"/>
<path d="M112.922 44.6783H113.811V43.1849C113.813 43.1849 113.866 43.1903 114.165 43.2039C114.611 43.2229 114.842 43.3017 114.974 43.7117C115.068 43.9967 115.112 44.2628 115.296 44.6783C115.689 44.6864 115.799 44.6864 116.206 44.6864C116.11 44.4475 115.964 44.1597 115.901 43.7551C115.835 43.3342 115.689 43.1035 115.373 42.8917C115.662 42.7885 115.953 42.4355 115.953 41.9196C115.953 41.1078 115.095 40.8553 114.782 40.8553C114.465 40.8553 112.925 40.8553 112.925 40.8553V44.6783H112.922ZM114.531 42.4219C114.229 42.4219 113.813 42.4219 113.813 42.4219V41.5504C113.813 41.5504 114.165 41.5504 114.44 41.5504C114.713 41.5504 115.04 41.6644 115.04 41.9658C115.04 42.2319 114.831 42.4219 114.531 42.4219Z" fill="white"/>
</g>
<defs>
<clipPath id="clip0_1_6">
<rect width="118" height="60" fill="white"/>
</clipPath>
</defs>
</svg>
