<svg width="29" height="29" viewBox="0 0 29 29" fill="none" xmlns="http://www.w3.org/2000/svg">
<path d="M21.7874 20.0787L26.9623 25.2536L25.2535 26.9624L20.0786 21.7875C18.2179 23.2761 15.8581 24.1667 13.2916 24.1667C7.28863 24.1667 2.41663 19.2947 2.41663 13.2917C2.41663 7.28869 7.28863 2.41669 13.2916 2.41669C19.2946 2.41669 24.1666 7.28869 24.1666 13.2917C24.1666 15.8582 23.2761 18.2179 21.7874 20.0787ZM19.3631 19.1821C20.8407 17.6593 21.75 15.5822 21.75 13.2917C21.75 8.61846 17.9649 4.83335 13.2916 4.83335C8.6184 4.83335 4.83329 8.61846 4.83329 13.2917C4.83329 17.9649 8.6184 21.75 13.2916 21.75C15.5821 21.75 17.6593 20.8407 19.182 19.3632L19.3631 19.1821Z" fill="white"/>
</svg>
