<svg width="38" height="37" viewBox="0 0 38 37" fill="none" xmlns="http://www.w3.org/2000/svg">
<path d="M18.5618 13.8752C16.0067 13.8752 13.9368 15.9458 13.9368 18.5002C13.9368 21.0552 16.0075 23.1252 18.5618 23.1252C21.1168 23.1252 23.1868 21.0546 23.1868 18.5002C23.1868 15.9452 21.1162 13.8752 18.5618 13.8752ZM18.5618 10.7918C22.8175 10.7918 26.2702 14.2407 26.2702 18.5002C26.2702 22.7559 22.8213 26.2085 18.5618 26.2085C14.3061 26.2085 10.8535 22.7596 10.8535 18.5002C10.8535 14.2444 14.3023 10.7918 18.5618 10.7918ZM28.5827 10.4051C28.5827 11.469 27.7181 12.3322 26.6556 12.3322C25.5917 12.3322 24.7285 11.4677 24.7285 10.4051C24.7285 9.34251 25.5929 8.47933 26.6556 8.47933C27.7167 8.47799 28.5827 9.34251 28.5827 10.4051ZM18.5618 6.16683C14.747 6.16683 14.1252 6.17693 12.3509 6.25594C11.142 6.31269 10.3317 6.47527 9.57879 6.76757C8.90971 7.02706 8.42706 7.33692 7.91281 7.85118C7.39658 8.3674 7.08728 8.84876 6.82883 9.51815C6.53585 10.2728 6.37331 11.0818 6.31758 12.289C6.2378 13.9911 6.22847 14.5859 6.22847 18.5002C6.22847 22.315 6.23857 22.9368 6.31757 24.7109C6.37435 25.9193 6.53715 26.7308 6.82874 27.4819C7.08891 28.1519 7.3994 28.6357 7.91117 29.1475C8.42944 29.6651 8.91222 29.9754 9.57526 30.2313C10.3373 30.5259 11.1472 30.6887 12.3506 30.7444C14.0527 30.8241 14.6476 30.8335 18.5618 30.8335C22.3767 30.8335 22.9984 30.8233 24.7726 30.7444C25.9783 30.6878 26.7905 30.5245 27.5436 30.2332C28.2117 29.9737 28.6971 29.6621 29.2092 29.1508C29.7275 28.6317 30.0372 28.1501 30.2935 27.4855C30.5873 26.7262 30.7504 25.9153 30.8061 24.7114C30.8858 23.0092 30.8952 22.4143 30.8952 18.5002C30.8952 14.6853 30.885 14.0636 30.8061 12.2894C30.7493 11.0833 30.5861 10.27 30.2944 9.51715C30.0355 8.84992 29.7246 8.36579 29.2107 7.85118C28.6937 7.3341 28.2136 7.02543 27.5437 6.76719C26.7897 6.47445 25.9794 6.31168 24.7729 6.25595C23.0709 6.17616 22.476 6.16683 18.5618 6.16683ZM18.5618 3.0835C22.7499 3.0835 23.2729 3.09891 24.9174 3.176C26.5578 3.2518 27.6769 3.51131 28.6598 3.89287C29.6759 4.28472 30.5341 4.81402 31.391 5.67092C32.2466 6.52784 32.776 7.3886 33.1691 8.40225C33.5493 9.38378 33.8089 10.504 33.886 12.1446C33.9592 13.7891 33.9785 14.312 33.9785 18.5002C33.9785 22.6884 33.9631 23.2112 33.886 24.8557C33.8102 26.4963 33.5493 27.6153 33.1691 28.5981C32.7772 29.6143 32.2466 30.4724 31.391 31.3295C30.5341 32.1851 29.672 32.7143 28.6598 33.1075C27.6769 33.4878 26.5578 33.7472 24.9174 33.8243C23.2729 33.8976 22.7499 33.9168 18.5618 33.9168C14.3736 33.9168 13.8507 33.9014 12.2063 33.8243C10.5657 33.7485 9.44798 33.4878 8.46389 33.1075C7.44895 32.7156 6.58947 32.1851 5.73257 31.3295C4.87566 30.4724 4.34764 29.6105 3.95452 28.5981C3.57295 27.6153 3.31473 26.4963 3.23764 24.8557C3.16441 23.2112 3.14514 22.6884 3.14514 18.5002C3.14514 14.312 3.16056 13.7891 3.23764 12.1446C3.31343 10.5028 3.57295 9.38506 3.95452 8.40225C4.34635 7.38732 4.87566 6.52784 5.73257 5.67092C6.58947 4.81402 7.45025 4.286 8.46389 3.89287C9.4467 3.51131 10.5644 3.25308 12.2063 3.176C13.8507 3.10277 14.3736 3.0835 18.5618 3.0835Z" fill="white"/>
</svg>
