<svg width="38" height="37" viewBox="0 0 38 37" fill="none" xmlns="http://www.w3.org/2000/svg">
<g clip-path="url(#clip0_41_50)">
<path d="M20.0621 30.7381C26.146 29.9794 30.8538 24.7895 30.8538 18.5002C30.8538 11.6886 25.332 6.16683 18.5205 6.16683C11.7089 6.16683 6.18709 11.6886 6.18709 18.5002C6.18709 24.7895 10.8949 29.9794 16.9788 30.7381V21.5835H13.8954V18.5002H16.9788V15.9499C16.9788 13.8883 17.1934 13.1407 17.5965 12.387C17.9995 11.6333 18.5911 11.0418 19.3448 10.6387C19.9348 10.3232 20.6666 10.1328 21.9456 10.0511C22.4531 10.0187 23.1102 10.06 23.9163 10.1752V13.1043H23.1455C21.7313 13.1043 21.1478 13.1711 20.7989 13.3577C20.5826 13.4734 20.4312 13.6248 20.3154 13.8411C20.1289 14.1899 20.0621 14.5358 20.0621 15.9499V18.5002H23.9163L23.1455 21.5835H20.0621V30.7381ZM18.5205 33.9168C10.006 33.9168 3.10376 27.0145 3.10376 18.5002C3.10376 9.98577 10.006 3.0835 18.5205 3.0835C27.0348 3.0835 33.9371 9.98577 33.9371 18.5002C33.9371 27.0145 27.0348 33.9168 18.5205 33.9168Z" fill="white"/>
</g>
<defs>
<clipPath id="clip0_41_50">
<rect width="37" height="37" fill="white" transform="translate(0.0189209)"/>
</clipPath>
</defs>
</svg>
