<svg width="38" height="37" viewBox="0 0 38 37" fill="none" xmlns="http://www.w3.org/2000/svg">
<path d="M23.7664 8.55599C21.3278 8.55599 19.3399 10.5109 19.2964 12.9444L19.2531 15.3726C19.244 15.8833 18.8225 16.29 18.3117 16.2809C18.2753 16.2803 18.2391 16.2775 18.2032 16.2726L15.797 15.9445C12.6311 15.5127 9.59688 14.0556 6.68604 11.6302C5.76417 16.7326 7.56368 20.2683 11.901 22.9952L14.5943 24.6882C15.0268 24.9602 15.157 25.5312 14.8851 25.9636C14.8228 26.0628 14.7422 26.1493 14.6477 26.2183L12.1939 28.0111C13.6528 28.1027 15.0398 28.0387 16.1893 27.8093C23.4623 26.358 28.2986 20.8846 28.2986 11.8568C28.2986 11.1197 26.738 8.55599 23.7664 8.55599ZM16.2135 12.8894C16.2869 8.78075 19.6403 5.47266 23.7664 5.47266C25.8682 5.47266 27.7695 6.33103 29.139 7.71632C30.2357 7.70807 31.1688 7.98536 33.2532 6.72082C32.738 9.24974 32.4823 10.3473 31.382 11.8568C31.382 23.6374 24.1406 29.3667 16.7927 30.833C11.755 31.8385 4.42864 30.1878 2.3302 27.9943C3.39924 27.9122 7.74757 27.4444 10.26 25.6055C8.134 24.2018 -0.327542 19.2213 5.23225 5.83706C7.84301 8.8844 10.4897 10.9587 13.1724 12.0599C14.9567 12.7924 15.395 12.7778 16.2135 12.8894Z" fill="white"/>
</svg>
