<svg width="182" height="182" viewBox="0 0 182 182" fill="none" xmlns="http://www.w3.org/2000/svg">
<rect y="90.6408" width="128" height="128" rx="64" transform="rotate(-45 0 90.6408)" fill="#0A285E"/>
<rect x="77.8564" y="92.9695" width="26.4543" height="23.8089" fill="#0A285E"/>
<path d="M97.9733 50.8309L84.3236 50.8309C84.1651 50.8309 84.0081 50.8621 83.8617 50.9227C83.7152 50.9834 83.5822 51.0723 83.4701 51.1844C83.358 51.2965 83.2691 51.4296 83.2084 51.576C83.1477 51.7225 83.1165 51.8795 83.1165 52.038C83.1165 52.1965 83.1477 52.3535 83.2084 52.5C83.2691 52.6464 83.358 52.7795 83.4701 52.8916C83.5822 53.0037 83.7152 53.0926 83.8617 53.1533C84.0081 53.2139 84.1651 53.2451 84.3236 53.2451L86.3455 53.2451L83.1698 75.4835L76.4964 85.4925C76.3692 85.6888 76.3018 85.9177 76.3023 86.1516L76.2938 121.7C76.294 123.3 76.9296 124.834 78.0606 125.965C79.1917 127.096 80.7257 127.732 82.3253 127.732L99.9718 127.732C101.571 127.732 103.105 127.096 104.236 125.965C105.367 124.834 106.003 123.3 106.003 121.701L106.005 86.1622C106.005 85.9237 105.934 85.6906 105.801 85.4926L99.1272 75.4835L95.9515 53.2451H97.9733C98.1319 53.2451 98.2888 53.2139 98.4353 53.1533C98.5818 53.0926 98.7148 53.0037 98.8269 52.8916C98.939 52.7795 99.0279 52.6464 99.0886 52.5C99.1493 52.3535 99.1805 52.1965 99.1805 52.038C99.1805 51.8795 99.1493 51.7225 99.0886 51.576C99.0279 51.4296 98.939 51.2965 98.8269 51.1844C98.7148 51.0723 98.5818 50.9834 98.4353 50.9227C98.2888 50.8621 98.1319 50.8309 97.9733 50.8309ZM103.585 121.705C103.585 122.181 103.492 122.653 103.31 123.093C103.128 123.534 102.861 123.934 102.525 124.27C102.188 124.607 101.788 124.874 101.347 125.056C100.907 125.238 100.435 125.331 99.959 125.33L82.3231 125.32C81.8468 125.321 81.3749 125.227 80.9346 125.045C80.4944 124.864 80.0944 124.597 79.7575 124.26C79.4207 123.923 79.1536 123.523 78.9717 123.083C78.7898 122.642 78.6966 122.17 78.6974 121.694L78.706 118.081L103.591 118.081L103.585 121.705ZM103.591 115.667L78.706 115.667L78.7059 94.1942L103.591 94.1942L103.591 115.667ZM96.779 76.0956C96.8038 76.2745 96.8695 76.4452 96.9709 76.5947L103.587 86.5205L103.591 91.7799L78.7059 91.7799L78.7102 86.5205L85.3324 76.5883C85.4339 76.4388 85.4996 76.2681 85.5244 76.0892L88.7875 53.2387L93.5223 53.2387L96.779 76.0956Z" fill="white"/>
</svg>
