<?xml version="1.0" encoding="utf-8"?>
<!-- Generator: Adobe Illustrator 25.4.1, SVG Export Plug-In . SVG Version: 6.00 Build 0)  -->
<svg version="1.1" id="Layer_1" xmlns="http://www.w3.org/2000/svg" xmlns:xlink="http://www.w3.org/1999/xlink" x="0px" y="0px"
	 viewBox="0 0 50 99" style="enable-background:new 0 0 50 99;" xml:space="preserve">
<style type="text/css">
	.st0{fill:#FFFFFF;}
</style>
<path class="st0" d="M2.8,51.9c-1.6-2.9-2.5-6.1-2.7-9.4C0,39.7,0,36.9,0.1,34c0-1.5,1.1-2.3,3.1-2.5c-0.7-1.7-1.4-3.3-2-5.1
	c-0.9-3-1.3-6.1-1.1-9.2c0-1.5,0-2.9,0-4.3c0-2.3,1.3-3.4,3.5-3c6.4,1,12.3,4.2,16.8,9.1c0.6,0.7,1.2,1.3,2,2.2v-1.3
	c0-5.7,0-11.3,0-17c0-0.6,0.1-1.3,0.5-1.8c0.4-0.5,0.9-0.9,1.5-1C24.8,0,25.4,0,26,0.1c0.5,0.2,1,0.6,1.3,1.1
	c0.3,0.6,0.5,1.3,0.5,1.9c0,5.5,0,10.9,0,16.4c0,0.4,0,0.7-0.1,1c1.3-1.1,2.6-2.3,3.9-3.4c4.1-3.8,9.2-6.3,14.7-7.3
	c2.5-0.5,3.8,0.6,3.7,3.2c-0.1,3.3,0,6.7-0.4,10c-0.3,2.4-1.5,4.8-2.3,7.1c-0.2,0.4-0.4,0.8-0.6,1.2c2.5,0.2,3.3,1.1,3.3,3.6
	c0,2.5,0.1,5-0.1,7.4c-0.2,3.3-1.3,6.4-2.7,9.4c0.6,0.2,1.2,0.3,1.6,0.7c0.5,0.5,1.1,1.2,1.1,1.9c0.1,3.9,0.4,7.7-0.4,11.6
	c-1.8,8.3-6.5,14.4-13.7,18.5c-2.4,1.4-5.1,2.3-7.9,3.5v5.9c0,0.8,0,1.6,0,2.4c0,0.7-0.3,1.4-0.8,1.9c-0.5,0.5-1.2,0.8-1.9,0.8
	c-0.4,0-0.7,0-1.1-0.2c-0.3-0.1-0.6-0.3-0.9-0.6c-0.3-0.2-0.5-0.5-0.6-0.9c-0.1-0.3-0.2-0.7-0.2-1.1c-0.1-2.5,0-5,0-7.6
	c0-0.7-0.2-1-0.9-1.3c-8.5-2.4-15.1-7.4-19-15.7c-1.5-3.2-2.3-6.7-2.3-10.3c0-1.9,0-3.7,0-5.6C0.1,53.3,0.4,52.8,2.8,51.9z
	 M44.4,16.2C35.1,16.9,25.3,32.5,28,42.5c2.2-2.8,4.8-5.2,7.8-7.1c1.6-1,3.1-2.4,4.2-3.9C43.4,27.1,44.9,21.7,44.4,16.2z M5.4,16.1
	c0.1,2.1,0.1,3.9,0.4,5.6c0.9,5.6,3.4,10.3,8.2,13.4c2.7,1.8,5.2,3.9,7.3,6.4c0.2,0.3,0.5,0.6,0.8,0.9c0.5-7.1-0.8-13.6-5.3-19
	C13.8,19.9,10.1,17.5,5.4,16.1z M5.5,58.3c-0.4,5.8,0.9,11,4.5,15.5c3.2,4,7.2,6.5,12,8C22.8,69,13.7,60.4,5.5,58.3z M44.3,58.1
	c-5.7,2-10.2,5.4-13.3,10.7c-2.4,4-3.3,8.3-3.1,13C37.5,79,45.5,70.6,44.3,58.1z M22.1,63.2c0.4-6.9-1.1-13-5.4-18.2
	c-2.9-3.6-6.8-6.1-11.2-7.3C5.2,42.2,6,46.4,8.2,50.2c1.2,2.1,2.6,4.1,4.9,5.1c0.5,0.2,0.9,0.5,1.3,0.8C17.3,58,20,60.4,22.1,63.2z
	 M44.4,37.7c-5.3,1.6-9.8,5-12.8,9.6c-3,4.7-4.3,10.3-3.6,15.8c2.9-3.9,6.6-6.7,10.8-8.9c0.3-0.2,0.5-0.4,0.8-0.7
	c1.8-2.2,3.2-4.7,4-7.4S44.7,40.5,44.4,37.7z"/>
</svg>
