<?xml version="1.0" encoding="utf-8"?>
<!-- Generator: Adobe Illustrator 25.4.1, SVG Export Plug-In . SVG Version: 6.00 Build 0)  -->
<svg version="1.1" id="Layer_1" xmlns="http://www.w3.org/2000/svg" xmlns:xlink="http://www.w3.org/1999/xlink" x="0px" y="0px"
	 viewBox="0 0 99.9 99" style="enable-background:new 0 0 99.9 99;" xml:space="preserve">
<style type="text/css">
	.st0{fill-rule:evenodd;clip-rule:evenodd;fill:#FFFFFF;}
</style>
<path class="st0" d="M43.1,31.8c0-13.8,11.2-25,25-25s25,11.2,25,25s-11.2,25-25,25S43.1,45.6,43.1,31.8z M68.1,0
	C50.6,0,36.4,14.2,36.4,31.8c0,17.5,14.2,31.8,31.8,31.8s31.8-14.2,31.8-31.8C99.9,14.2,85.7,0,68.1,0z M6.7,75.7
	c0-9.2,7.4-16.6,16.6-16.6s16.6,7.4,16.6,16.6c0,9.2-7.4,16.6-16.6,16.6S6.7,84.8,6.7,75.7z M23.3,52.3C10.4,52.3,0,62.8,0,75.7
	C0,88.6,10.4,99,23.3,99c12.9,0,23.3-10.4,23.3-23.3C46.7,62.8,36.2,52.3,23.3,52.3z"/>
</svg>
