<?xml version="1.0" encoding="utf-8"?>
<!-- Generator: Adobe Illustrator 25.4.1, SVG Export Plug-In . SVG Version: 6.00 Build 0)  -->
<svg version="1.1" id="Layer_1" xmlns="http://www.w3.org/2000/svg" xmlns:xlink="http://www.w3.org/1999/xlink" x="0px" y="0px"
	 viewBox="0 0 69 100.5" style="enable-background:new 0 0 69 100.5;" xml:space="preserve">
<style type="text/css">
	.st0{fill:#FFFFFF;}
</style>
<g>
	<path class="st0" d="M43.8,67.5C43.8,67.5,43.8,67.5,43.8,67.5C43.8,67.5,43.8,67.5,43.8,67.5L43.8,67.5z M34.7,50.3
		C34.7,50.3,34.7,50.3,34.7,50.3C34.7,50.3,34.7,50.3,34.7,50.3L34.7,50.3z M21.7,60.4C21.7,60.4,21.7,60.4,21.7,60.4L21.7,60.4
		L21.7,60.4z M21.7,60.4C21.7,60.4,21.7,60.4,21.7,60.4L21.7,60.4L21.7,60.4z M43.8,67.5C43.8,67.5,43.8,67.5,43.8,67.5
		C43.8,67.5,43.8,67.5,43.8,67.5L43.8,67.5z M34.7,50.3C34.7,50.3,34.7,50.3,34.7,50.3C34.7,50.3,34.7,50.3,34.7,50.3L34.7,50.3z
		 M21.7,60.4C21.7,60.4,21.7,60.4,21.7,60.4L21.7,60.4L21.7,60.4z M43.8,67.5C43.8,67.5,43.8,67.5,43.8,67.5
		C43.8,67.5,43.8,67.5,43.8,67.5L43.8,67.5z M34.7,50.3C34.7,50.3,34.7,50.3,34.7,50.3C34.7,50.3,34.7,50.3,34.7,50.3L34.7,50.3z"/>
	<path class="st0" d="M66.4,42.1l2.4,1.1l-0.6-1.7c-0.4-1.1-0.7-2.1-1.1-3.2c-0.7-2.2-1.4-4.2-2.3-6.2
		c-5.5-12.4-13.9-18.8-25.7-19.7c-0.2,0-0.7-0.5-0.9-0.9c-0.5-1.2-0.9-2.4-1.4-3.5c-0.6-1.6-1.2-3.3-2-5c-0.7-1.4-1.7-2.4-3-2.9
		c-1.2-0.4-2.5-0.2-3.7,0.4c-2.4,1.3-3,4.1-1.5,6.9c0.7,1.3,1.3,2.6,2,4c0.2,0.4,0.3,0.7,0.5,1.1c-5.7,0.5-10.6,2.4-14.9,5.7
		C6.3,24.5,3.1,33.5,0.7,41.4l-0.4,1.5l2.1-0.9c-3.2,8.6-2.8,10.8-2.1,15.4c0.3,1.9,0.7,4.3,0.9,7.8l0.1,1.3L3.7,65
		c0.2,0.5,0.3,1,0.4,1.5c0.5,1.9,1,3.6,1.7,5.3c1,2.1,2.1,4.1,3.2,6.1c0.5,0.9,1,1.7,1.5,2.6l0.4,0.8l1.3-1c0.8,3.6,3.1,6.2,5.3,8.7
		c1.6,1.8,3,3.4,4,5.4l0.6,1.3l1.6-2.8c2.3,3.1,5.3,5.6,8.8,7.2c0.6,0.3,1.4,0.5,2.1,0.5h0c0.7,0,1.5-0.2,2.1-0.5
		c3.4-1.6,6.4-4.1,8.6-7.1l1.6,2.4l0.6-1.1c1-1.9,2.5-3.7,3.9-5.3c2.1-2.5,4.3-5,5.2-8.5l0.8,1.7l0.8-1.1c0.6-0.8,1-1.7,1.4-2.6
		c0.4-0.8,0.9-1.6,1.3-2.4c0.8-1.4,1.7-2.9,2.3-4.4c0.7-1.7,1.2-3.5,1.6-5.2c0.1-0.5,0.2-0.9,0.4-1.4l2.4,1.6l0.1-1.2
		c0.1-1.2,0.3-2.3,0.5-3.5c0.3-2.5,0.7-4.9,0.9-7.3C69.3,50.4,68.5,46.5,66.4,42.1z M36.2,44.7c4.9-2.6,10.1-6.3,12.9-13.2
		c0.5,0.3,1,0.5,1.5,0.8c1.6,0.8,3.2,1.6,4.3,2.7c1,1,1.2,3.2,1.4,5l0,0.2c0.6,6.3-1,11.4-4.8,15.6c-0.4,0.5-0.8,1.1-1.2,1.7
		C43.2,55.3,38.6,51.1,36.2,44.7z M43.8,67.5C43.8,67.5,43.8,67.5,43.8,67.5C43.8,67.5,43.8,67.5,43.8,67.5L43.8,67.5z M18.6,57.6
		l-2.1-2.7c-4.2-5.5-5.2-11.8-3-19.4c0.1-0.3,0.3-0.5,0.5-0.7c1.6-0.9,3.2-1.8,4.9-2.8l0.9-0.5c2.7,6.8,8,10.5,12.9,13.2
		C30.3,51,25.7,55.2,18.6,57.6z M21.7,60.4L21.7,60.4C21.7,60.4,21.7,60.4,21.7,60.4L21.7,60.4z M27,58.6l0.5-0.4
		c1.9-1.5,3.6-3.2,5.4-5c0.6-0.5,1.1-1.1,1.7-1.7c2.2,3.1,5,5.8,8.2,7.7c0.1,0.2,0.2,0.8,0.2,1c-1.2,3.7-3.5,6.8-6.6,9.1
		c-0.6,0.4-1.1,0.8-1.6,1.3c-0.1,0.1-0.1,0.1-0.2,0.2c-4.1-2.7-6.6-5.5-8.1-8.9C25.6,59.7,25.6,59.7,27,58.6z M34.7,50.3L34.7,50.3
		C34.7,50.3,34.7,50.3,34.7,50.3C34.7,50.3,34.7,50.3,34.7,50.3z M57.2,55.6c2.7-4.3,3.9-8.9,3.7-14.3c2.8,3.4,4.9,10.7,2.7,17.6
		L57.2,55.6z M33.2,17.1c1.1,0.1,2.3,0.1,3.4,0c1-0.1,1.9-0.1,2.8,0c8.8,0.7,15.4,5.4,20.1,14.5c0.2,0.4,0.4,0.9,0.6,1.3l-7-4.2
		c-0.1-0.1-0.3-0.2-0.4-0.3c-2.5-1.3-3.9-2-5.1-1.6c-1.2,0.4-1.9,1.7-3.2,4.2c-1.9,3.8-5.1,6.8-9.5,9.2c-0.2,0.1-0.5,0.1-0.7,0.1
		c-0.2,0-0.5-0.1-0.7-0.2c-5.3-2.9-8.7-6.6-10.3-11.3c-0.4-1.1-0.9-1.8-1.7-2.1c-0.2-0.1-0.5-0.1-0.8-0.1c-0.5,0-1.1,0.2-1.8,0.5
		c-3.2,1.8-6.4,3.5-9.5,5.3l-0.9,0.5C13.5,22,22.7,16,33.2,17.1z M5.3,58.8c-1.7-6.2-0.9-11.8,2.5-16.9c0,4.8,1.3,9.4,3.9,13.8
		L5.3,58.8z M12.9,74.1c-2.9-3.6-4.7-6.7-4.6-10.8c0-0.9,0.1-1.2,1.1-1.5c1.3-0.5,2.6-1.2,3.8-2c0.3-0.2,0.7-0.4,1-0.6l2.5,4.6
		l4.7-2.5c1.7,2.6,0.6,4.6-1.5,7c-1.5,1.6-3.3,3-5.1,4.3C14.2,73.2,13.6,73.7,12.9,74.1z M22.2,88c-3.5-3.1-6.4-6.5-6.8-11.5
		l8.6,9.3L22.2,88z M25.3,82l-1-1.1c-1.5-1.7-3-3.4-4.3-5.1c-0.1-0.2-0.1-0.4-0.1-0.5c0-0.2,0.1-0.4,0.2-0.5
		c1.4-1.7,2.9-3.3,4.3-4.9c0.3-0.3,0.6-0.7,1-1c0.3,0.2,0.6,0.5,0.9,0.8c1.5,1.2,3,2.5,4.5,4c0.2,0.2,0.4,1.1,0.2,1.3
		c-1.1,1.7-2.5,3.4-3.8,5l-0.7,0.9C26.1,81.2,25.7,81.6,25.3,82z M35.2,95.8c-0.4,0.1-0.9,0-1.3-0.2c-2.8-1.4-5.2-3.5-6.8-6.2
		c-0.1-0.2-0.2-0.4-0.2-0.6c0-0.2,0-0.3,0.1-0.5c1-1.5,2.1-2.9,3.2-4.3c0.5-0.6,1-1.3,1.4-1.9c0.8-1,1.6-2.1,2.4-3.2l0.4-0.5
		l8.2,10.3C40.9,91.9,38.3,94.3,35.2,95.8z M41.6,80.2c-1.2-1.5-2.4-3.1-3.6-4.7c-0.6-0.8-0.6-1.3,0.7-2.5c1.4-1.2,2.7-2.3,4.1-3.6
		c0.3-0.3,0.6-0.5,0.9-0.8l0.2,0.2c0.7,1,1.4,2.1,2.1,3c0.7,0.9,1.3,1.7,2.1,2.7c0.3,0.3,0.6,0.7,0.9,1.1c-0.9,2.1-2.8,4.1-6,6.2
		C42.5,81.4,42,80.8,41.6,80.2z M46.9,88.2l-2-2.3l8.2-9.2C54,78.8,53.1,80.5,46.9,88.2z M57.3,72.4c-0.3,0.5-0.6,0.9-0.9,1.4
		c-5-2.4-8.2-5.1-9.1-8c-0.5-1.5-0.4-2.9,0.2-4.5L52,64l2.6-4.7l1.1,0.5c1.6,0.8,3.2,1.6,4.7,2.4c0.1,0.1,0.2,0.5,0.2,0.8
		C60.7,66.5,59.6,69.8,57.3,72.4z"/>
</g>
</svg>
