<svg width="182" height="182" viewBox="0 0 182 182" fill="none" xmlns="http://www.w3.org/2000/svg">
<rect x="1.59146" y="90.6408" width="126" height="126" rx="63" transform="rotate(-45 1.59146 90.6408)" stroke="#9F9D9D" stroke-width="2"/>
<rect x="78.0005" y="92.9695" width="26.4543" height="23.8089" fill="#C5C5C5"/>
<path d="M98.1506 50.8308L84.5009 50.8308C84.3424 50.8308 84.1854 50.8621 84.0389 50.9227C83.8925 50.9834 83.7594 51.0723 83.6473 51.1844C83.5352 51.2965 83.4463 51.4296 83.3856 51.576C83.325 51.7225 83.2937 51.8795 83.2937 52.038C83.2937 52.1965 83.325 52.3535 83.3856 52.4999C83.4463 52.6464 83.5352 52.7795 83.6473 52.8916C83.7594 53.0036 83.8925 53.0926 84.0389 53.1532C84.1854 53.2139 84.3424 53.2451 84.5009 53.2451L86.5228 53.2451L83.3471 75.4835L76.6736 85.4925C76.5465 85.6887 76.479 85.9177 76.4796 86.1515L76.471 121.7C76.4713 123.3 77.1068 124.834 78.2379 125.965C79.3689 127.096 80.9029 127.732 82.5025 127.732L100.149 127.732C101.749 127.732 103.283 127.096 104.414 125.965C105.545 124.834 106.18 123.3 106.18 121.7L106.183 86.1622C106.182 85.9237 106.111 85.6906 105.978 85.4925L99.3044 75.4835L96.1287 53.2451L98.1506 53.2451C98.3091 53.2451 98.4661 53.2139 98.6125 53.1532C98.759 53.0926 98.8921 53.0036 99.0042 52.8916C99.1163 52.7795 99.2052 52.6464 99.2658 52.4999C99.3265 52.3535 99.3577 52.1965 99.3577 52.038C99.3577 51.8795 99.3265 51.7225 99.2658 51.576C99.2052 51.4296 99.1163 51.2965 99.0042 51.1844C98.8921 51.0723 98.759 50.9834 98.6125 50.9227C98.4661 50.8621 98.3091 50.8308 98.1506 50.8308ZM103.762 121.705C103.763 122.181 103.67 122.653 103.488 123.093C103.306 123.533 103.039 123.933 102.702 124.27C102.365 124.607 101.965 124.874 101.525 125.056C101.084 125.238 100.613 125.331 100.136 125.33L82.5004 125.32C82.024 125.321 81.5522 125.227 81.1119 125.045C80.6716 124.864 80.2716 124.597 79.9348 124.26C79.5979 123.923 79.3309 123.523 79.149 123.083C78.9671 122.642 78.8738 122.17 78.8747 121.694L78.8832 118.081L103.768 118.081L103.762 121.705ZM103.768 115.667L78.8832 115.667L78.8832 94.1942L103.768 94.1942L103.768 115.667ZM96.9562 76.0956C96.9811 76.2744 97.0467 76.4452 97.1482 76.5946L103.764 86.5205L103.768 91.7799L78.8832 91.7799L78.8875 86.5205L85.5097 76.5882C85.6111 76.4388 85.6768 76.268 85.7016 76.0892L88.9648 53.2387L93.6995 53.2387L96.9562 76.0956Z" fill="#1E1E1E"/>
</svg>
