<?xml version="1.0" encoding="utf-8"?>
<!-- Generator: Adobe Illustrator 25.4.1, SVG Export Plug-In . SVG Version: 6.00 Build 0)  -->
<svg version="1.1" id="Layer_1" xmlns="http://www.w3.org/2000/svg" xmlns:xlink="http://www.w3.org/1999/xlink" x="0px" y="0px"
	 viewBox="0 0 68.5 98.9" style="enable-background:new 0 0 68.5 98.9;" xml:space="preserve">
<style type="text/css">
	.st0{fill:#FFFFFF;}
</style>
<g>
	<path class="st0" d="M34.4-0.2c3,3.9,5.9,7.6,8.7,11.3c7.9,10.8,15.4,22,20.9,34.3c3,6.7,5.2,13.7,4.5,21.2
		C67,80.2,60,90.1,47.5,95.3c-16.1,6.6-32.9,1.1-42.3-13.6c-5.8-9.2-6.5-19.2-3.1-29.4c4-12,10.6-22.6,17.7-32.8
		c4.3-6.2,9-12.2,13.5-18.3C33.5,0.7,33.8,0.4,34.4-0.2z M34.7,10.3c-0.5,0.2-0.7,0.3-0.7,0.3c-1.6,2.1-3.1,4.1-4.7,6.2
		C21.5,27.6,14,38.6,9,51.1c-2.3,5.8-3.4,11.9-2.2,18.1c2.1,11.2,11,19.8,22.4,22c13.5,2.6,27.2-5.5,31.6-18.6
		c2.4-7.4,1.4-14.5-1.4-21.6c-3.5-9.2-8.7-17.5-14.1-25.5C41.9,20.3,38.3,15.3,34.7,10.3L34.7,10.3z"/>
	<path class="st0" d="M13.1,61.1c0-2.1,1.3-3.6,3.1-3.6c1.9-0.1,3,1.2,3.2,3.4c0.5,6,3.3,10.7,8.5,13.7c2.4,1.4,3,3.2,1.7,4.9
		c-1,1.3-2.3,1.7-3.9,1C19.1,77.8,13.1,68.5,13.1,61.1z"/>
</g>
</svg>
