<svg width="182" height="182" viewBox="0 0 182 182" fill="none" xmlns="http://www.w3.org/2000/svg">
<rect x="2.25943" y="90.6408" width="126" height="126" rx="63" transform="rotate(-45 2.25943 90.6408)" stroke="#9F9D9D" stroke-width="2"/>
<rect x="78.7349" y="92.9695" width="26.4543" height="23.8089" fill="#11520B"/>
<path d="M98.8186 50.8308L85.1689 50.8308C85.0103 50.8308 84.8534 50.8621 84.7069 50.9227C84.5604 50.9834 84.4274 51.0723 84.3153 51.1844C84.2032 51.2965 84.1143 51.4296 84.0536 51.576C83.9929 51.7225 83.9617 51.8795 83.9617 52.038C83.9617 52.1965 83.9929 52.3535 84.0536 52.4999C84.1143 52.6464 84.2032 52.7795 84.3153 52.8916C84.4274 53.0036 84.5604 53.0926 84.7069 53.1532C84.8534 53.2139 85.0103 53.2451 85.1689 53.2451L87.1907 53.2451L84.015 75.4835L77.3416 85.4925C77.2144 85.6887 77.147 85.9177 77.1475 86.1515L77.139 121.7C77.1393 123.3 77.7748 124.834 78.9058 125.965C80.0369 127.096 81.5709 127.732 83.1705 127.732L100.817 127.732C102.417 127.732 103.951 127.096 105.082 125.965C106.213 124.834 106.848 123.3 106.848 121.7L106.851 86.1622C106.85 85.9237 106.779 85.6906 106.646 85.4925L99.9724 75.4835L96.7967 53.2451L98.8186 53.2451C98.9771 53.2451 99.1341 53.2139 99.2805 53.1532C99.427 53.0926 99.56 53.0036 99.6721 52.8916C99.7842 52.7795 99.8731 52.6464 99.9338 52.4999C99.9945 52.3535 100.026 52.1965 100.026 52.038C100.026 51.8795 99.9945 51.7225 99.9338 51.576C99.8731 51.4296 99.7842 51.2965 99.6721 51.1844C99.56 51.0723 99.427 50.9834 99.2805 50.9227C99.134 50.8621 98.9771 50.8308 98.8186 50.8308ZM104.43 121.705C104.431 122.181 104.337 122.653 104.156 123.093C103.974 123.533 103.707 123.933 103.37 124.27C103.033 124.607 102.633 124.874 102.193 125.056C101.752 125.238 101.281 125.331 100.804 125.33L83.1683 125.32C82.692 125.321 82.2201 125.227 81.7799 125.045C81.3396 124.864 80.9396 124.597 80.6027 124.26C80.2659 123.923 79.9989 123.523 79.8169 123.083C79.635 122.642 79.5418 122.17 79.5426 121.694L79.5512 118.081L104.436 118.081L104.43 121.705ZM104.436 115.667L79.5512 115.667L79.5512 94.1942L104.436 94.1942L104.436 115.667ZM97.6242 76.0956C97.649 76.2744 97.7147 76.4452 97.8162 76.5946L104.432 86.5205L104.436 91.7799L79.5512 91.7799L79.5554 86.5205L86.1777 76.5882C86.2791 76.4388 86.3448 76.268 86.3696 76.0892L89.6327 53.2387L94.3675 53.2387L97.6242 76.0956Z" fill="#1E1E1E"/>
</svg>
