<svg width="182" height="182" viewBox="0 0 182 182" fill="none" xmlns="http://www.w3.org/2000/svg">
<rect x="1.42496" y="90.6408" width="126" height="126" rx="63" transform="rotate(-45 1.42496 90.6408)" stroke="#9F9D9D" stroke-width="2"/>
<rect x="77.8672" y="92.9695" width="26.4543" height="23.8089" fill="#0A285E"/>
<path d="M97.9841 50.8308L84.3344 50.8308C84.1759 50.8308 84.0189 50.8621 83.8724 50.9227C83.726 50.9834 83.5929 51.0723 83.4808 51.1844C83.3687 51.2965 83.2798 51.4296 83.2191 51.576C83.1585 51.7225 83.1272 51.8795 83.1272 52.038C83.1272 52.1965 83.1585 52.3535 83.2191 52.4999C83.2798 52.6464 83.3687 52.7795 83.4808 52.8916C83.5929 53.0036 83.726 53.0926 83.8724 53.1532C84.0189 53.2139 84.1759 53.2451 84.3344 53.2451L86.3562 53.2451L83.1806 75.4835L76.5071 85.4925C76.3799 85.6887 76.3125 85.9177 76.3131 86.1515L76.3045 121.7C76.3048 123.3 76.9403 124.834 78.0714 125.965C79.2024 127.096 80.7364 127.732 82.336 127.732L99.9825 127.732C101.582 127.732 103.116 127.096 104.247 125.965C105.378 124.834 106.014 123.3 106.014 121.7L106.016 86.1622C106.016 85.9237 105.944 85.6906 105.811 85.4925L99.1379 75.4835L95.9622 53.2451L97.9841 53.2451C98.1426 53.2451 98.2996 53.2139 98.446 53.1532C98.5925 53.0926 98.7256 53.0036 98.8377 52.8916C98.9498 52.7795 99.0387 52.6464 99.0993 52.4999C99.16 52.3535 99.1912 52.1965 99.1912 52.038C99.1912 51.8795 99.16 51.7225 99.0993 51.576C99.0387 51.4296 98.9498 51.2965 98.8377 51.1844C98.7256 51.0723 98.5925 50.9834 98.446 50.9227C98.2996 50.8621 98.1426 50.8308 97.9841 50.8308ZM103.595 121.705C103.596 122.181 103.503 122.653 103.321 123.093C103.139 123.533 102.872 123.933 102.535 124.27C102.198 124.607 101.798 124.874 101.358 125.056C100.918 125.238 100.446 125.331 99.9697 125.33L82.3339 125.32C81.8575 125.321 81.3857 125.227 80.9454 125.045C80.5051 124.864 80.1051 124.597 79.7683 124.26C79.4314 123.923 79.1644 123.523 78.9825 123.083C78.8006 122.642 78.7073 122.17 78.7082 121.694L78.7167 118.081L103.602 118.081L103.595 121.705ZM103.602 115.667L78.7167 115.667L78.7167 94.1942L103.602 94.1942L103.602 115.667ZM96.7897 76.0956C96.8146 76.2744 96.8802 76.4452 96.9817 76.5946L103.598 86.5205L103.602 91.7799L78.7167 91.7799L78.721 86.5205L85.3432 76.5882C85.4446 76.4388 85.5103 76.268 85.5351 76.0892L88.7983 53.2387L93.533 53.2387L96.7897 76.0956Z" fill="#1E1E1E"/>
</svg>
