<svg width="43" height="43" viewBox="0 0 43 43" fill="none" xmlns="http://www.w3.org/2000/svg">
<path d="M21.4911 42.1933C10.3011 42.46 0.752227 33.0128 0.558584 21.9688C0.352244 10.1248 10.2661 0.315702 21.8275 0.560136C32.5223 0.785523 42.4775 9.60102 42.4362 21.5275C42.3981 33.1143 32.6716 42.5266 21.4911 42.1933ZM40.8553 21.4736C41.1728 10.6804 31.7827 1.76326 21.1736 1.95055C10.9613 2.13467 1.35857 10.5407 2.12679 23.0068C2.69502 32.1906 10.774 40.9013 21.5101 40.8505C32.2462 40.7997 40.9918 32.4731 40.8712 21.4767L40.8553 21.4736Z" fill="#F9C689"/>
<path d="M21.475 39.6528C11.5389 39.7639 3.14242 31.5198 3.17416 21.4409C3.20591 11.5492 11.3611 3.00036 21.7671 3.13687C31.446 3.26067 39.9758 11.4413 39.8616 21.6218C39.7568 31.3325 32.0015 39.7607 21.475 39.6528ZM21.529 8.22554C14.0975 7.77794 8.32317 14.5491 8.15175 21.1425C7.95811 28.7612 14.7007 34.2975 20.5322 34.6467C29.1033 35.1641 34.6903 27.9803 34.8871 21.8186C35.1062 14.8411 28.7604 7.66049 21.529 8.22554Z" fill="#F9C689"/>
<path d="M21.2621 33.6208C14.7671 33.6208 9.07532 28.1226 9.19913 21.3419C9.31341 14.6565 14.5577 9.15512 21.6939 9.17099C23.3275 9.1551 24.9478 9.46673 26.459 10.0875C27.9702 10.7082 29.3417 11.6255 30.4925 12.7852C31.6432 13.9448 32.55 15.3233 33.1591 16.8392C33.7682 18.3551 34.0674 19.9778 34.039 21.6112C34.0105 23.2447 33.6551 24.8559 32.9936 26.3497C32.3321 27.8435 31.3779 29.1897 30.1875 30.3086C28.9971 31.4275 27.5945 32.2965 26.0626 32.8643C24.5307 33.4321 22.9006 33.6871 21.2685 33.6144L21.2621 33.6208ZM25.554 17.2976C26.7413 15.5294 26.6619 15.3929 24.6017 14.8311C23.8684 14.6342 22.6748 14.2882 22.6018 13.8533C22.3796 12.5613 21.6716 13.1169 21.224 13.2978C20.9096 13.8116 20.4912 14.2539 19.9955 14.5962C19.0432 15.2787 17.7734 15.7326 17.221 16.6405C16.0782 18.4817 17.021 20.6499 19.221 21.3451C20.8812 21.8689 21.4875 22.7641 21.1923 24.3989C21.1383 24.7005 21.1097 25.0084 21.0336 25.564L17.1258 24.4434L16.3258 26.8306L20.7701 28.0337C20.8368 28.5321 20.8971 28.986 20.9669 29.5098L22.4081 29.3987L22.1192 28.9733C22.5954 28.5162 22.9954 27.8337 23.5636 27.6401C25.6969 26.9131 26.827 25.7862 26.881 24.037C26.9444 21.9863 26.1635 20.7927 23.8525 20.0848C22.6335 19.7134 22.2653 19.1325 22.4303 17.9897C22.463 17.4558 22.463 16.9204 22.4303 16.3866L25.554 17.2976Z" fill="#F9C689"/>
<path d="M21.1194 16.952V19.2408L20.7385 19.4249C20.4655 18.9138 20.0369 18.4217 19.9766 17.8884C19.9321 17.5202 20.4019 17.0916 20.64 16.6885L21.1194 16.952Z" fill="#F9C689"/>
</svg>
