<svg width="47" height="51" viewBox="0 0 47 51" fill="none" xmlns="http://www.w3.org/2000/svg">
<path d="M0.388855 16.7642C0.388855 14.3104 0.388855 11.8311 0.388855 9.35183C0.388855 9.09787 0.436463 8.84392 0.458684 8.58044L13.5629 6.38053C13.601 5.87579 13.6391 5.2663 13.6962 4.65997C13.874 2.84417 15.4041 1.03154 17.1342 0.577587C18.4452 0.234744 20.6896 1.06012 21.5435 2.42197C22.3975 3.78382 23.007 5.2536 23.5688 6.36466C24.372 5.06948 25.1021 3.42192 26.2481 2.14895C28.6512 -0.514428 32.1558 0.145862 33.6065 3.43779C34.0065 4.34251 34.1081 5.38374 34.3874 6.52972L46.7361 8.60266C46.7361 10.9803 46.7806 13.3898 46.6917 15.7928C46.6917 16.1992 46.1425 16.7928 45.7393 16.9388C41.3808 18.4594 36.9969 19.907 32.4637 21.4244V13.466C31.759 13.6183 31.2225 13.6818 30.7209 13.8469C28.8448 14.4596 26.9655 15.0595 25.1275 15.7674C24.7244 15.923 24.226 16.4976 24.2164 16.8944C24.1339 19.5292 24.172 22.1672 24.172 25.0432L44.1521 18.4181C44.1521 26.0654 44.1521 33.6175 44.114 41.1696C44.0694 41.4225 43.9664 41.6615 43.8132 41.8676C43.66 42.0737 43.4608 42.2412 43.2315 42.3568C36.9799 44.9451 30.7114 47.4846 24.4259 49.9756C24.0149 50.1193 23.5672 50.1193 23.1561 49.9756C16.7839 47.563 10.4234 45.1228 4.07441 42.6552C3.86475 42.5471 3.6836 42.3909 3.54569 42.1995C3.40779 42.0081 3.31701 41.7868 3.28079 41.5537C3.23318 33.9349 3.24588 26.3448 3.24588 18.6213L23.2133 24.9702C23.2133 22.0751 23.2323 19.3038 23.1879 16.5293C23.1564 16.3627 23.0859 16.206 22.9822 16.0719C22.8785 15.9378 22.7444 15.8302 22.5911 15.7579C20.3404 14.977 18.0706 14.2564 15.6549 13.466V21.764L0.388855 16.7642ZM24.1752 48.9978C26.8259 47.9883 29.2543 47.0931 31.6415 46.1154C31.9018 46.0106 32.1018 45.4265 32.105 45.0646C32.1304 37.8554 32.124 30.6462 32.124 23.2624C29.6924 24.129 27.3464 24.9226 25.0513 25.8305C24.8229 25.9582 24.628 26.1381 24.4824 26.3554C24.3367 26.5728 24.2445 26.8215 24.2133 27.0813C24.1466 34.2492 24.1593 41.4203 24.1593 48.9978H24.1752ZM23.1752 48.9629V26.04L15.6136 23.4592C15.6136 30.9128 15.6136 38.0967 15.6485 45.2837C15.6742 45.5195 15.7547 45.7459 15.8837 45.945C16.0127 46.144 16.1866 46.31 16.3914 46.4297C18.5881 47.3312 20.842 48.109 23.1593 48.9629H23.1752ZM24.6196 9.41215C27.283 9.11692 29.9337 8.84392 32.2955 7.41223C32.5303 7.2113 32.7078 6.9517 32.8097 6.65988C33.4446 5.36787 33.0192 3.71081 31.759 2.55847C30.6225 1.52042 29.4035 1.12043 27.9242 1.97436C25.9243 3.12352 24.3053 6.57099 24.6037 9.41215H24.6196ZM23.1085 9.75817C22.5403 6.77099 22.1943 4.333 20.3023 2.5553C19.4388 1.74581 18.3976 1.07281 17.0644 1.73628C15.6517 2.43466 14.7787 3.44414 14.6518 5.06947C14.528 6.59004 15.2232 7.66936 16.5565 8.10426C18.5341 8.74551 20.6007 9.1455 23.0927 9.75817H23.1085ZM10.8424 18.1261C10.3377 16.9547 9.65829 15.9039 9.4583 14.7643C9.28053 13.7612 9.37578 12.5073 9.87418 11.6787C10.1091 11.2851 11.5598 11.5835 12.4582 11.6279C13.5439 11.6819 14.6803 12.0184 15.7025 11.8438C17.331 11.5708 18.9024 10.9708 20.9594 10.3772C19.8801 10.1264 19.2547 9.96133 18.6167 9.83436C15.9247 9.28835 13.2201 9.06613 10.5821 10.047C9.02024 10.6248 8.2605 11.7465 8.30283 13.412C8.35044 15.3167 8.73771 17.0785 10.4265 18.2658C10.4741 18.2975 10.6107 18.2086 10.8424 18.1261ZM26.6703 10.0185C30.6733 11.9232 39.3904 11.1676 42.1871 8.88201C40.5999 8.56457 38.9809 8.15823 37.3397 7.94872C36.5207 7.84396 35.3112 7.78048 34.8827 8.2503C33.8446 9.38676 32.6605 9.68198 31.2765 9.73595C29.8924 9.78991 28.4036 9.91055 26.6703 10.0185ZM24.2259 10.4597V15.031L31.1622 12.7295L24.2259 10.4597ZM23.1181 15.0151V10.701L16.4263 12.7676L23.1181 15.0151ZM3.95696 9.14232C5.16326 9.50421 6.36004 9.90419 7.57904 10.2121C7.96964 10.2754 8.3701 10.2315 8.73773 10.0851C10.7154 9.39945 12.6772 8.67885 14.7914 7.91698C11.109 6.75513 7.62347 8.87249 3.95696 9.14232Z" fill="#F9C689"/>
</svg>
