<svg width="42" height="51" viewBox="0 0 42 51" fill="none" xmlns="http://www.w3.org/2000/svg">
<path d="M13.8264 42.5292C9.94081 42.5292 6.03937 42.5609 2.13794 42.4974C1.50305 42.4974 0.899906 42.0498 0.27771 41.8118C0.550714 41.2054 0.703091 40.5039 1.1126 40.015C2.22107 38.6786 3.39719 37.3997 4.63629 36.1834C5.07048 35.8037 5.62456 35.589 6.20128 35.5771C11.9153 35.5327 17.6294 35.558 23.3244 35.5358C23.9104 35.4878 24.4913 35.3901 25.0608 35.2438L24.9719 34.6533H5.68066C6.14731 32.8375 6.76952 31.2566 6.91872 29.6345C7.18855 26.7076 7.16633 23.7522 7.28379 20.8095C7.50918 15.0446 10.1408 10.7527 15.2485 8.06713C16.0834 7.62906 16.3088 7.3116 16.2009 6.36878C15.9564 3.87047 17.7437 1.49914 20.0483 1.01345C21.9086 0.619815 24.245 1.94675 25.0481 3.99746C25.2853 4.73691 25.3801 5.51464 25.3275 6.28942C25.3275 7.21636 25.5338 7.65762 26.4989 8.13696C31.2606 10.4924 33.7176 14.5335 34.2001 19.7301C34.5175 23.3363 34.4826 26.9775 34.835 30.5773C35.181 34.0692 37.1492 36.7675 39.5745 39.1992C40.2919 39.9198 41.3204 41.0467 41.1617 41.7673C40.8443 43.2022 39.2983 42.4689 38.3047 42.4943C34.8763 42.5832 31.4478 42.5292 27.8988 42.5292C27.7242 45.0529 27.2639 47.5036 25.0608 48.8781C23.7561 49.7067 22.026 50.4654 20.5658 50.3289C17.1151 50.04 14.474 48.1258 13.8264 42.5292ZM15.5945 42.6625C15.8009 46.9195 18.8198 49.0115 21.8355 48.5702C24.2545 48.2115 26.1497 45.6402 26.0036 42.6625H15.5945ZM23.6513 6.83226C23.8132 4.29268 22.7212 2.81655 20.6896 2.86099C18.8166 2.89909 17.9405 4.25776 18.15 6.83226H23.6513ZM12.1312 21.8697C13.1058 19.6476 13.6454 17.4255 14.9057 15.7811C16.166 14.1367 18.1151 13.0669 19.8388 11.686C15.5183 11.4987 10.9059 17.7016 12.1312 21.8824V21.8697Z" fill="#F9C689"/>
</svg>
