<svg width="53" height="48" viewBox="0 0 53 48" fill="none" xmlns="http://www.w3.org/2000/svg">
<path d="M46.8471 21.1307C43.8567 18.5244 43.6535 16.115 46.1328 13.3024C44.7932 11.5406 43.4757 9.73748 42.0567 8.02327C41.8091 7.7217 41.0473 7.5725 40.6505 7.70582C38.0792 8.62642 35.7269 7.96613 34.2063 5.67416C34.1277 5.4523 34.1069 5.21409 34.1458 4.98196C34.1846 4.74982 34.282 4.5314 34.4285 4.34724C36.0666 2.98856 37.7903 1.7283 39.5489 0.388672C43.8059 5.85511 48.0184 11.2739 52.3516 16.842L46.8471 21.1307Z" fill="#F9C689"/>
<path d="M46.079 21.6827C43.0823 17.7464 42.9046 16.3814 44.8791 13.0545L41.2189 8.37535C37.5588 9.97845 34.9557 8.49597 32.9939 5.4834L28.0131 9.30864L28.3877 9.78163L27.7243 10.3086L27.3401 9.82607L3.03004 28.492L3.75383 29.403L3.0872 29.93L2.35706 29.0094L0.5 30.4379C1.02696 31.8696 1.72215 32.6378 3.29351 32.5362C4.67441 32.4442 5.25218 33.4283 5.29662 34.7996C5.33154 35.8218 5.55376 36.8408 5.69661 37.9201C8.17269 37.2852 9.59802 38.3677 9.37581 40.4121C9.20756 41.9485 9.69326 42.6025 11.2805 42.6596C13.255 42.7326 14.1375 44.0786 13.6677 46.0119C13.5979 46.3008 13.582 46.6023 13.5407 46.8975L13.8582 47.1833C14.2169 46.9356 14.5883 46.7071 14.928 46.4373L15.6803 45.8436L14.2232 44.0024L14.8867 43.4755L16.3469 45.3167L25.0101 38.4757C29.648 34.8219 34.2573 31.13 38.946 27.5428C39.8603 26.8444 40.2158 26.273 39.7936 25.5619L39.4539 25.1334C39.3873 25.0667 39.3174 24.9969 39.2412 24.9302C39.2412 24.9302 39.2412 24.9048 39.2412 24.8699L38.8539 24.381L39.5206 23.8541L40.9904 25.7111C41.9427 25.0381 42.7173 24.4921 43.4696 23.8953C44.3775 23.1874 45.2219 22.4192 46.079 21.6827ZM31.7527 14.0291L33.578 16.3337L32.9145 16.8607L31.086 14.556L31.7527 14.0291ZM29.156 10.753L30.9844 13.0577L30.3178 13.5847L28.4925 11.28L29.156 10.753ZM5.6839 33.2061L3.8554 30.9014L4.52203 30.3744L6.34735 32.6791L5.6839 33.2061ZM8.27745 36.4821L6.45213 34.1774L7.11559 33.6473L8.94409 35.9552L8.27745 36.4821ZM10.8741 39.7582L9.04565 37.4503L9.71232 36.9234L11.5376 39.228L10.8741 39.7582ZM13.4709 43.031L11.6424 40.7264L12.3058 40.1994L14.1343 42.5041L13.4709 43.031ZM33.7875 25.6794C28.3211 29.8951 22.8737 34.1108 17.3945 38.282C17.0358 38.555 16.42 38.5074 15.9184 38.5709C12.7439 38.9582 12.0709 36.0313 10.3758 34.4441C10.1917 34.2727 10.0996 34.0028 9.93134 33.8092C8.47426 32.1299 8.60125 30.2316 10.4202 28.8094C15.4422 24.8858 20.4886 20.9907 25.5593 17.1242C26.6989 16.2512 29.0163 16.5623 29.9464 17.6638C31.0289 18.9336 32.1272 20.2034 33.1526 21.543C33.6573 22.1779 34.3716 22.8128 33.6446 23.8636C33.3843 24.2064 33.6954 24.9461 33.7716 25.673L33.7875 25.6794ZM35.5239 20.1368L33.6986 17.8289L34.3621 17.302L36.1906 19.6098L35.5239 20.1368ZM38.1207 23.4096L36.2922 21.105L36.9588 20.578L38.7873 22.8827L38.1207 23.4096Z" fill="#F9C689"/>
<path d="M32.0735 21.6413C31.245 20.5619 30.3593 19.53 29.499 18.4664C28.3435 17.0441 27.0229 16.9044 25.5817 18.0315C20.6803 21.8667 15.7768 25.6978 10.8712 29.5246C9.48077 30.6072 9.28397 31.9312 10.376 33.271C11.2998 34.4076 12.1664 35.6014 13.1759 36.6522C13.7727 37.2713 14.6012 37.6682 15.4234 38.2397C16.1309 37.9344 16.8208 37.5899 17.49 37.2079C18.2265 36.7284 18.9089 36.1601 19.6042 35.6204C23.6072 32.509 27.6261 29.4198 31.5941 26.2672C33.4099 24.8194 33.502 23.5018 32.0735 21.6413Z" fill="#F9C689"/>
</svg>
