<svg width="46" height="48" viewBox="0 0 46 48" fill="none" xmlns="http://www.w3.org/2000/svg">
<path d="M42.5682 18.3691C42.5996 18.1779 42.6727 17.996 42.7825 17.8364C42.8922 17.6767 43.0358 17.5432 43.203 17.4453C45.7932 16.074 46.6027 13.7915 45.425 10.9058C44.714 9.17256 43.8379 7.49642 43.2348 5.73138C42.838 4.58221 42.3618 3.79493 40.9588 4.00445V0.388672H5.40689V3.56319C4.58792 4.1219 3.77531 4.37269 3.54676 4.88696C2.48655 7.25833 1.50254 9.67096 0.658178 12.128C-0.0338142 14.1439 0.626416 15.8771 2.42306 17.0073C3.28011 17.5501 3.58485 18.1247 3.5785 19.1437C3.52771 26.1721 3.55312 33.2005 3.55312 40.232V41.7431L1.43586 41.8764V47.0699H44.9584V41.8955L42.5618 41.7241C42.5396 33.8735 42.5333 26.1277 42.5682 18.3691ZM6.46394 1.33468H39.6351C39.7558 2.18862 39.8732 3.01082 40.0065 3.95683H6.46394V1.33468ZM4.54031 18.2072L8.52405 15.7597C8.90276 16.3594 9.42707 16.8535 10.0481 17.1959C10.6692 17.5384 11.3668 17.7181 12.076 17.7184C13.7235 17.7184 14.8218 16.893 15.6947 15.4549C16.9073 16.82 18.1961 18.1533 20.0975 17.6453C21.2148 17.3469 22.183 16.4962 23.2717 15.8517C25.9635 18.7596 28.303 18.185 30.5726 15.5819C31.4487 16.9089 32.6739 17.931 34.2547 17.639C35.5816 17.3914 36.7942 16.5533 38.1274 15.9438L41.4953 18.2041V38.0003H31.0487C27.6967 38.0003 24.3446 37.9845 20.9958 38.0003C20.9958 38.2797 20.9958 38.5591 21.018 38.8384H41.4635V41.6955H17.5358V23.8484H7.35907V41.7399H4.54985L4.54031 18.2072ZM16.4502 24.7817V41.7367H8.40342V24.7817H16.4502ZM43.8156 46.1398H2.33103V42.8732H43.8156V46.1398Z" fill="#F9C689"/>
<path d="M16.45 24.7817H8.40317V41.7368H16.45V24.7817Z" fill="#F9C689"/>
<path d="M22.6305 33.7686V22.2324H37.6512V33.7686H22.6305ZM36.7751 23.1022H23.6304V32.9432H36.7751V23.1022Z" fill="#F9C689"/>
<path d="M30.2137 31.4577C30.0581 30.2704 33.7847 26.1626 35.8575 25.1943C34.5466 27.7689 32.3341 29.5593 30.2137 31.4577Z" fill="#F9C689"/>
<path d="M30.3662 23.9531C30.2583 24.2928 30.252 24.7373 30.0234 24.9563C28.2204 26.6959 26.373 28.3943 24.3732 30.2577C24.4526 29.8768 24.4018 29.3943 24.6208 29.1721C26.3794 27.3753 28.1855 25.6261 29.979 23.8643L30.3662 23.9531Z" fill="#F9C689"/>
</svg>
