<svg width="40" height="51" viewBox="0 0 40 51" fill="none" xmlns="http://www.w3.org/2000/svg">
<path d="M5.91565 19.9213C5.76645 12.5217 12.1979 5.88067 19.8548 6.00765C27.81 6.14415 33.8224 11.9598 33.7938 20.1848C33.7653 27.4512 27.6481 33.8351 19.9373 33.87C12.2837 33.9049 5.61725 27.5083 5.91565 19.9213ZM32.5812 19.7976C33.1272 13.9883 27.2005 6.46477 18.6802 7.21395C13.0011 7.71869 6.868 12.6931 6.91244 20.0325C6.95689 27.102 12.8424 32.6383 19.7437 32.7303C26.4069 32.8319 33.0986 26.8608 32.5812 19.7976Z" fill="#F9C689"/>
<path d="M19.9531 8.51551C25.9179 8.21711 31.4986 13.6169 31.3558 20.2611C31.2383 25.8672 26.1719 31.7241 19.2928 31.4162C13.2613 31.1463 8.18213 26.1021 8.18213 19.9881C8.18213 13.509 13.7343 8.19172 19.9531 8.51551ZM10.6868 17.2009C12.0455 18.5881 13.1565 19.7404 14.3025 20.8769C15.0453 21.607 15.2358 22.3848 14.9914 23.4165C14.6739 24.845 14.5438 26.3243 14.2993 28.0354C15.9532 27.2925 17.2897 26.591 18.6992 26.1084C19.4004 25.8971 20.1497 25.9071 20.8451 26.137C22.2958 26.6227 23.6831 27.2989 25.3528 28.0068C25.1338 26.21 24.8735 24.7212 24.8005 23.2228C24.7721 22.5442 24.9673 21.8751 25.356 21.3182C26.4353 19.9404 27.667 18.6802 28.9686 17.2326C27.8321 17.039 26.975 16.8676 26.1115 16.7564C24.1783 16.5057 22.3212 16.2708 21.6355 13.928C21.3181 12.8265 20.588 11.8424 19.9309 10.5821C19.0547 12.1217 18.3436 13.5026 17.4992 14.801C17.096 15.4359 16.5215 16.1692 15.8834 16.3438C14.3374 16.7755 12.7089 16.893 10.6868 17.2009Z" fill="#F9C689"/>
<path d="M38.9081 13.6957C38.7095 14.3439 38.4731 14.9798 38.2001 15.6004C37.7112 16.5527 37.9239 17.2479 38.6414 17.9908C39.9969 19.3907 40.0032 19.8066 38.6953 21.2097C37.743 22.2382 37.797 23.2826 38.47 24.3556C39.2287 25.565 38.7207 26.4285 37.6446 26.8602C36.2669 27.4126 35.851 28.3237 36.0573 29.6792C36.27 31.168 35.7209 31.9489 34.1241 32.0092C33.0797 32.0441 32.5369 32.7108 32.2194 33.7679C31.7302 35.3929 31.8337 37.1388 32.5115 38.6946C33.5622 41.3358 34.3844 44.0627 35.3685 46.9483C33.2099 46.3134 31.2004 45.6785 29.1529 45.215C28.8612 45.1721 28.5636 45.1955 28.2823 45.2834C28.0009 45.3714 27.7429 45.5216 27.5275 45.7229C26.1974 47.3102 24.988 48.999 23.6833 50.7576L19.8231 41.6755C18.6676 44.85 17.601 47.7673 16.4994 50.8307C15.109 49.0276 13.8075 47.4149 12.6012 45.7515C12.125 45.088 11.7854 44.9611 10.9632 45.2436C8.97278 45.9324 6.91256 46.415 4.70312 47.0308C5.84593 43.65 6.90618 40.5231 7.96327 37.3931C8.75054 35.0758 7.43314 32.5489 5.10625 31.9965C3.97931 31.7299 3.5349 31.0886 3.69363 29.9585C3.89362 28.5364 3.63968 27.4443 2.04292 26.8602C0.969946 26.4698 0.671533 25.4444 1.31595 24.4127C2.13496 23.0985 1.83341 21.9906 0.776306 21.0541C-0.420469 19.9938 -0.118926 19.032 0.903254 18.1653C1.8556 17.3495 1.97625 16.4924 1.48421 15.3718C0.766777 13.7306 1.06201 13.2925 2.481 12.3942C3.11589 11.9942 3.83648 11.0768 3.81426 10.4165C3.7349 7.988 3.69361 7.74038 5.97923 7.34992C7.30298 7.12771 7.77918 6.54996 7.83315 5.30874C7.88077 4.15006 8.54103 3.60406 9.71559 3.76913C11.379 4.00087 12.6139 3.61993 13.2996 1.86445C13.4424 1.49303 14.7852 1.18193 15.29 1.42637C16.7439 2.1311 17.8518 2.08348 18.9152 0.791475C19.7723 -0.237054 20.7501 0.302596 21.331 1.03907C22.2643 2.21998 23.2039 2.35331 24.4324 1.64223C25.7403 0.886707 26.7212 1.10891 27.2101 2.6644C27.6355 4.0199 28.737 3.9342 29.7909 3.785C31.156 3.60723 32.1528 3.98182 32.1591 5.49604C32.1655 7.01027 33.1432 7.44199 34.2574 7.53087C35.8447 7.65468 36.3875 8.53401 35.9653 9.83872C35.4764 11.3498 36.2161 11.9497 37.3271 12.5529C37.8818 12.894 38.4102 13.276 38.9081 13.6957ZM4.64915 19.9716C4.1444 27.9967 11.8774 35.1012 19.4358 35.1488C28.3243 35.2059 34.9907 28.3744 35.0733 20.1399C35.1463 11.5466 28.5211 4.8167 19.8675 4.73416C11.4361 4.6548 4.27456 12.0037 4.64915 19.9716ZM33.8543 45.5959C32.8416 42.6564 31.9496 39.9581 30.9623 37.2884C30.7973 36.8344 30.3274 36.1487 30.01 36.1582C29.1465 36.1805 27.826 36.2471 27.5149 36.7931C26.5625 38.4375 25.6102 39.0661 23.7658 38.1042C22.404 37.3995 21.5818 38.7073 20.6898 39.447C19.8707 40.1263 20.4453 40.8533 20.7469 41.5453C21.7786 43.9071 22.8103 46.2689 23.9213 48.8054C24.9308 47.4848 25.9276 46.2848 26.8038 44.996C27.4387 44.0436 28.1339 43.7262 29.2545 44.1484C30.683 44.6785 32.1782 45.0753 33.8543 45.5959ZM16.2264 48.9577C17.201 46.2245 18.1311 43.8119 18.8898 41.339C19.1177 40.5426 19.0349 39.6894 18.6581 38.9518C18.0803 38.0185 17.0359 37.682 15.8963 38.2343C14.3726 38.9676 13.2266 38.7677 12.5599 37.0027C12.1346 35.8726 11.0298 35.9329 10.1315 36.1487C9.69656 36.2503 9.32515 36.9011 9.06167 37.3804C8.76278 37.9933 8.51638 38.6305 8.32517 39.2851C7.61726 41.3517 6.92526 43.4119 6.17291 45.634C7.97918 45.1007 9.52513 44.6817 11.0394 44.177C12.0393 43.8595 12.706 44.0563 13.2996 44.9484C14.1599 46.2467 15.1312 47.4689 16.2264 48.9577Z" fill="#F9C689"/>
</svg>
