<svg width="246" height="178" viewBox="0 0 246 178" fill="none" xmlns="http://www.w3.org/2000/svg">
<mask id="path-1-inside-1_441_662" fill="white">
<path d="M228.632 119.299C227.984 119.775 227.19 120.12 226.323 120.304H226.089C224.531 120.304 223.075 120.089 220.908 119.799C218.365 119.444 214.737 118.332 214.737 118.332C207.247 116.075 197.127 113.028 185.497 105.608C176.497 99.8749 171.462 90.6984 171.603 82.4558C171.603 80.9511 171.695 80.1616 172.027 79.2314L172.119 79.0535C172.777 77.8712 174.004 77.3672 175.699 77.3672C176.497 77.3672 177.535 77.3672 178.051 77.7971L178.898 78.012C178.898 78.012 179.088 78.0121 179.088 78.1566C181.022 79.0535 198.159 89.0491 204.281 93.4966C211.723 98.941 221.755 107.973 227.594 113.818C228.349 114.355 228.632 114.996 229.007 115.5V115.571C229.761 116.79 229.762 118.332 228.632 119.299ZM242.429 119.299C233.292 100.305 203.531 80.1616 182.76 71.5262C181.909 71.3863 181.136 71.0482 180.549 70.5589L180.359 70.4143C179.186 69.699 178.713 68.7651 178.475 67.3678C178.475 66.6155 178.713 65.9002 179.088 65.5407V65.1812C179.322 64.8254 179.887 64.1768 180.549 63.2836C184.46 59.2327 190.299 56.3678 196.421 55.0039C203.999 52.7839 210.31 55.8638 211.44 58.4803C213.559 63.102 211.44 67.9052 206.731 72.4935C205.932 72.7455 205.698 73.6424 205.932 74.5023C205.932 76.0774 207.768 77.3672 209.935 77.3672C211.44 77.3672 212.244 76.6519 213.184 76.0774C218.507 70.1994 222.13 63.6765 218.365 56.0787C215.633 49.9857 203.531 46.7613 193.309 49.1963C186.057 51.0976 180.359 54.574 176.639 57.5872C176.639 57.5872 173.673 60.3816 172.499 62.2421L172.353 62.3867C171.223 63.5356 169.718 64.54 167.551 64.54H166.704C165.291 64.4659 163.83 64.1768 162.559 63.5356L152.858 60.0926V59.9147C151.114 59.4477 150.077 58.3025 149.892 56.8682C149.843 56.0787 150.077 55.3634 150.788 54.789V54.574C150.918 54.5307 151.031 54.4612 151.113 54.3731C151.195 54.285 151.245 54.1815 151.256 54.0737C161.337 47.1579 175.134 34.8644 168.398 21.0292C163.499 10.9224 150.788 3.50254 140.663 0.778482C137.975 -0.259255 135.481 -0.259255 134.254 0.778482C133.265 1.60497 132.983 2.46479 133.689 5.76332C133.928 6.62315 133.928 6.83813 133.928 7.37553C134.069 8.48739 133.689 9.41764 133.455 10.2071V10.422C132.749 11.9972 131.429 13.6094 129.404 14.0059C128.084 14.4358 125.731 14.4358 122.907 11.9971C119.235 9.20266 111.418 3.50255 108.306 2.10531C104.542 0.459756 97.144 -0.833709 93.6619 3.18011C90.5986 7.19393 93.3794 11.2077 97.8989 13.4315C101.147 15.1511 110.473 16.5854 115.28 17.6973H115.607C116.595 17.8752 117.068 18.2347 118.008 18.3422C119.279 19.2354 120.316 20.0248 120.832 20.8142C121.212 21.5332 121.543 21.9261 121.543 22.9638C121.543 24.1831 120.691 25.3321 118.008 25.7953H117.681C114.808 26.4069 112.684 27.4113 112.684 28.5898C112.684 29.3459 113.254 29.4867 113.629 29.6313V29.8833C114.287 30.202 115.042 30.7394 116.171 31.3509C121.777 33.3597 128.697 37.4069 131.853 43.5703C134.069 48.2661 133.455 54.2145 127.192 55.6859C122.907 56.8682 115.28 54.4665 107.225 48.948C100.587 45.757 95.4492 41.3873 88.86 36.0096C83.2984 30.6356 77.4591 25.3321 67.5728 23.7162L67.1978 23.3233C63.9933 22.9638 60.5112 22.5709 56.6492 22.5005C49.7239 22.5005 43.5048 23.1083 38.0893 24.6131H37.8068C35.0796 25.3321 33.6673 26.3365 32.9124 27.4113C31.4952 29.6313 32.7711 32.5332 35.2208 34.2158C37.1316 35.4918 38.5196 37.1592 39.2191 39.0191V39.234C39.3652 40.383 39.3653 41.3873 38.8929 42.4621C38.3573 43.2842 37.5589 43.9906 36.5709 44.5164C35.5829 45.0423 34.437 45.3708 33.2387 45.4716H31.4026C24.1998 45.4716 16.6657 47.2617 10.7778 49.9153C7.81192 50.7752 4.79735 52.7839 4.79735 52.7839H4.60741C0.0392632 55.6488 -1.27565 60.0926 1.31037 62.7796C2.72269 64.1768 5.26974 64.8254 8.18693 64.54C8.18693 64.54 9.78918 64.54 10.6366 64.325C14.8736 63.2836 17.6057 61.8864 19.8654 60.8116C20.2891 60.63 21.6576 60.163 22.0813 60.0926C22.0813 60.0926 22.9725 59.5922 24.4335 59.4477C28.0569 59.2327 30.8377 61.5269 31.1202 64.073V64.1768C31.1202 64.8254 31.1202 65.1812 30.7452 65.9002C29.0017 69.699 28.0569 71.8486 29.6153 74.9322C31.4952 79.161 41.0552 82.3483 49.4902 80.1616C58.7677 77.7971 63.4771 75.0397 71.8098 70.4143C76.5679 67.3678 90.321 64.073 98.6051 63.102C110.191 61.8864 120.457 63.2836 122.532 67.3678C124.129 71.5262 122.907 74.9322 116.503 79.8059C110.473 84.3941 101.527 88.4413 93.3794 89.6236C91.9622 90.3426 90.8373 90.3426 89.8973 90.3426L89.6587 90.4501C88.0077 90.6984 87.2577 91.4878 87.024 92.2031C86.6879 93.2445 87.2577 93.9969 88.1977 94.9272C88.5384 95.1286 88.92 95.2863 89.3275 95.3941C90.5986 95.8611 91.6846 96.6839 92.2009 97.2917L92.5759 97.5104C93.282 97.9774 93.3794 98.5852 93.3794 99.3375C93.6619 100.52 92.6733 101.595 91.4947 102.132H91.4509C90.8373 102.384 89.8973 102.599 89.4688 102.814C73.0858 107.258 69.74 108.118 69.4088 110.482C69.2238 116.646 89.3275 120.304 99.3112 116.575C112.874 110.627 117.681 109.481 118.855 110.234C120.93 110.982 122.201 113.028 121.777 117.831C121.353 122.06 121.212 123.458 123.189 124.173C123.657 124.173 125.167 124.173 126.817 123.458C126.817 123.458 132.043 121.449 138.637 115.897C144.759 110.912 147.394 105.001 147.963 98.5852C148.056 90.3426 142.689 78.5161 138.214 71.5262C136.421 68.2647 135.715 66.9046 137.127 65.0403C138.214 64.073 140.332 63.2836 144.379 64.54L158.931 69.914C161.902 71.2038 164.113 72.7455 164.113 75.3621C164.395 76.0774 164.113 76.6519 163.83 77.3672L163.499 77.7971C160.816 86.1101 162.749 95.8611 170.234 104.712C180.832 118.584 200.848 127.253 216.34 131.626L216.904 131.7C220.518 132.552 223.704 134.223 226.036 136.49C228.368 138.757 229.734 141.512 229.951 144.386C229.951 145.569 229.951 146.681 229.761 148.041L229.479 148.256C229.007 150.909 227.594 153.418 226.279 155.638C220.294 163.74 216.481 163.092 216.481 163.092C214.27 163.344 212.244 162.232 212.146 160.442C212.146 160.012 212.146 159.904 212.244 159.474V159.404C212.667 158.003 212.901 156.606 212.901 155.064C212.635 153.36 212.146 151.68 211.44 150.05C211.44 149.942 211.44 149.545 211.109 149.186C210.5 148.111 209.512 146.821 208.333 146.036C203.955 141.877 197.551 139.153 189.919 139.442C183.048 139.798 177.16 142.593 173.488 146.681C173.488 146.681 173.488 146.821 173.298 146.966C173.108 147.181 172.777 147.47 172.635 147.792C169.528 151.625 168.73 156.676 170.941 161.946C174.52 173.202 189.121 180.333 206.872 177.071C229.289 173.095 255.709 146.573 242.429 119.299Z"/>
</mask>
<path d="M228.632 119.299C227.984 119.775 227.19 120.12 226.323 120.304H226.089C224.531 120.304 223.075 120.089 220.908 119.799C218.365 119.444 214.737 118.332 214.737 118.332C207.247 116.075 197.127 113.028 185.497 105.608C176.497 99.8749 171.462 90.6984 171.603 82.4558C171.603 80.9511 171.695 80.1616 172.027 79.2314L172.119 79.0535C172.777 77.8712 174.004 77.3672 175.699 77.3672C176.497 77.3672 177.535 77.3672 178.051 77.7971L178.898 78.012C178.898 78.012 179.088 78.0121 179.088 78.1566C181.022 79.0535 198.159 89.0491 204.281 93.4966C211.723 98.941 221.755 107.973 227.594 113.818C228.349 114.355 228.632 114.996 229.007 115.5V115.571C229.761 116.79 229.762 118.332 228.632 119.299ZM242.429 119.299C233.292 100.305 203.531 80.1616 182.76 71.5262C181.909 71.3863 181.136 71.0482 180.549 70.5589L180.359 70.4143C179.186 69.699 178.713 68.7651 178.475 67.3678C178.475 66.6155 178.713 65.9002 179.088 65.5407V65.1812C179.322 64.8254 179.887 64.1768 180.549 63.2836C184.46 59.2327 190.299 56.3678 196.421 55.0039C203.999 52.7839 210.31 55.8638 211.44 58.4803C213.559 63.102 211.44 67.9052 206.731 72.4935C205.932 72.7455 205.698 73.6424 205.932 74.5023C205.932 76.0774 207.768 77.3672 209.935 77.3672C211.44 77.3672 212.244 76.6519 213.184 76.0774C218.507 70.1994 222.13 63.6765 218.365 56.0787C215.633 49.9857 203.531 46.7613 193.309 49.1963C186.057 51.0976 180.359 54.574 176.639 57.5872C176.639 57.5872 173.673 60.3816 172.499 62.2421L172.353 62.3867C171.223 63.5356 169.718 64.54 167.551 64.54H166.704C165.291 64.4659 163.83 64.1768 162.559 63.5356L152.858 60.0926V59.9147C151.114 59.4477 150.077 58.3025 149.892 56.8682C149.843 56.0787 150.077 55.3634 150.788 54.789V54.574C150.918 54.5307 151.031 54.4612 151.113 54.3731C151.195 54.285 151.245 54.1815 151.256 54.0737C161.337 47.1579 175.134 34.8644 168.398 21.0292C163.499 10.9224 150.788 3.50254 140.663 0.778482C137.975 -0.259255 135.481 -0.259255 134.254 0.778482C133.265 1.60497 132.983 2.46479 133.689 5.76332C133.928 6.62315 133.928 6.83813 133.928 7.37553C134.069 8.48739 133.689 9.41764 133.455 10.2071V10.422C132.749 11.9972 131.429 13.6094 129.404 14.0059C128.084 14.4358 125.731 14.4358 122.907 11.9971C119.235 9.20266 111.418 3.50255 108.306 2.10531C104.542 0.459756 97.144 -0.833709 93.6619 3.18011C90.5986 7.19393 93.3794 11.2077 97.8989 13.4315C101.147 15.1511 110.473 16.5854 115.28 17.6973H115.607C116.595 17.8752 117.068 18.2347 118.008 18.3422C119.279 19.2354 120.316 20.0248 120.832 20.8142C121.212 21.5332 121.543 21.9261 121.543 22.9638C121.543 24.1831 120.691 25.3321 118.008 25.7953H117.681C114.808 26.4069 112.684 27.4113 112.684 28.5898C112.684 29.3459 113.254 29.4867 113.629 29.6313V29.8833C114.287 30.202 115.042 30.7394 116.171 31.3509C121.777 33.3597 128.697 37.4069 131.853 43.5703C134.069 48.2661 133.455 54.2145 127.192 55.6859C122.907 56.8682 115.28 54.4665 107.225 48.948C100.587 45.757 95.4492 41.3873 88.86 36.0096C83.2984 30.6356 77.4591 25.3321 67.5728 23.7162L67.1978 23.3233C63.9933 22.9638 60.5112 22.5709 56.6492 22.5005C49.7239 22.5005 43.5048 23.1083 38.0893 24.6131H37.8068C35.0796 25.3321 33.6673 26.3365 32.9124 27.4113C31.4952 29.6313 32.7711 32.5332 35.2208 34.2158C37.1316 35.4918 38.5196 37.1592 39.2191 39.0191V39.234C39.3652 40.383 39.3653 41.3873 38.8929 42.4621C38.3573 43.2842 37.5589 43.9906 36.5709 44.5164C35.5829 45.0423 34.437 45.3708 33.2387 45.4716H31.4026C24.1998 45.4716 16.6657 47.2617 10.7778 49.9153C7.81192 50.7752 4.79735 52.7839 4.79735 52.7839H4.60741C0.0392632 55.6488 -1.27565 60.0926 1.31037 62.7796C2.72269 64.1768 5.26974 64.8254 8.18693 64.54C8.18693 64.54 9.78918 64.54 10.6366 64.325C14.8736 63.2836 17.6057 61.8864 19.8654 60.8116C20.2891 60.63 21.6576 60.163 22.0813 60.0926C22.0813 60.0926 22.9725 59.5922 24.4335 59.4477C28.0569 59.2327 30.8377 61.5269 31.1202 64.073V64.1768C31.1202 64.8254 31.1202 65.1812 30.7452 65.9002C29.0017 69.699 28.0569 71.8486 29.6153 74.9322C31.4952 79.161 41.0552 82.3483 49.4902 80.1616C58.7677 77.7971 63.4771 75.0397 71.8098 70.4143C76.5679 67.3678 90.321 64.073 98.6051 63.102C110.191 61.8864 120.457 63.2836 122.532 67.3678C124.129 71.5262 122.907 74.9322 116.503 79.8059C110.473 84.3941 101.527 88.4413 93.3794 89.6236C91.9622 90.3426 90.8373 90.3426 89.8973 90.3426L89.6587 90.4501C88.0077 90.6984 87.2577 91.4878 87.024 92.2031C86.6879 93.2445 87.2577 93.9969 88.1977 94.9272C88.5384 95.1286 88.92 95.2863 89.3275 95.3941C90.5986 95.8611 91.6846 96.6839 92.2009 97.2917L92.5759 97.5104C93.282 97.9774 93.3794 98.5852 93.3794 99.3375C93.6619 100.52 92.6733 101.595 91.4947 102.132H91.4509C90.8373 102.384 89.8973 102.599 89.4688 102.814C73.0858 107.258 69.74 108.118 69.4088 110.482C69.2238 116.646 89.3275 120.304 99.3112 116.575C112.874 110.627 117.681 109.481 118.855 110.234C120.93 110.982 122.201 113.028 121.777 117.831C121.353 122.06 121.212 123.458 123.189 124.173C123.657 124.173 125.167 124.173 126.817 123.458C126.817 123.458 132.043 121.449 138.637 115.897C144.759 110.912 147.394 105.001 147.963 98.5852C148.056 90.3426 142.689 78.5161 138.214 71.5262C136.421 68.2647 135.715 66.9046 137.127 65.0403C138.214 64.073 140.332 63.2836 144.379 64.54L158.931 69.914C161.902 71.2038 164.113 72.7455 164.113 75.3621C164.395 76.0774 164.113 76.6519 163.83 77.3672L163.499 77.7971C160.816 86.1101 162.749 95.8611 170.234 104.712C180.832 118.584 200.848 127.253 216.34 131.626L216.904 131.7C220.518 132.552 223.704 134.223 226.036 136.49C228.368 138.757 229.734 141.512 229.951 144.386C229.951 145.569 229.951 146.681 229.761 148.041L229.479 148.256C229.007 150.909 227.594 153.418 226.279 155.638C220.294 163.74 216.481 163.092 216.481 163.092C214.27 163.344 212.244 162.232 212.146 160.442C212.146 160.012 212.146 159.904 212.244 159.474V159.404C212.667 158.003 212.901 156.606 212.901 155.064C212.635 153.36 212.146 151.68 211.44 150.05C211.44 149.942 211.44 149.545 211.109 149.186C210.5 148.111 209.512 146.821 208.333 146.036C203.955 141.877 197.551 139.153 189.919 139.442C183.048 139.798 177.16 142.593 173.488 146.681C173.488 146.681 173.488 146.821 173.298 146.966C173.108 147.181 172.777 147.47 172.635 147.792C169.528 151.625 168.73 156.676 170.941 161.946C174.52 173.202 189.121 180.333 206.872 177.071C229.289 173.095 255.709 146.573 242.429 119.299Z" stroke="#0E212F" stroke-opacity="0.3" stroke-width="2" mask="url(#path-1-inside-1_441_662)"/>
</svg>
