<svg width="38" height="34" viewBox="0 0 38 34" fill="none" xmlns="http://www.w3.org/2000/svg">
<path d="M0 4.1033V22.8625C0 25.1279 1.86007 26.9658 4.1565 26.9658H22.882L29.4622 34V26.9651H33.8435C36.1387 26.9651 38 25.1273 38 22.8619V4.1033C37.9994 1.83726 36.1387 0 33.8435 0H4.1565C1.86007 0 0 1.83726 0 4.1033ZM26.4691 13.4823C26.4691 12.0259 27.6648 10.8447 29.1411 10.8447C30.6174 10.8447 31.8131 12.0259 31.8131 13.4823C31.8131 14.9399 30.6174 16.1204 29.1411 16.1204C27.6648 16.1204 26.4691 14.9405 26.4691 13.4823ZM16.3277 13.4823C16.3277 12.0259 17.5247 10.8447 18.9997 10.8447C20.4747 10.8447 21.6717 12.0259 21.6717 13.4823C21.6717 14.9399 20.4747 16.1204 18.9997 16.1204C17.5247 16.1204 16.3277 14.9405 16.3277 13.4823ZM6.18693 13.4823C6.18693 12.0259 7.38391 10.8447 8.85892 10.8447C10.3352 10.8447 11.5309 12.0259 11.5309 13.4823C11.5309 14.9399 10.3352 16.1204 8.85892 16.1204C7.38328 16.121 6.18693 14.9405 6.18693 13.4823Z" fill="white"/>
</svg>
