<svg width="880" height="192" viewBox="0 0 880 192" fill="none" xmlns="http://www.w3.org/2000/svg">
<g clip-path="url(#clip0_2_18)">
<path d="M225.877 176.324H232.794C233.811 176.324 234.428 176.256 234.428 175.954C234.428 175.432 234.228 174.881 233.811 174.007L229.777 164.819C229.477 164.535 229.36 164.45 229.327 164.45C229.127 164.45 228.91 164.751 228.81 165.057L224.877 174.007C224.46 174.881 224.294 175.484 224.294 175.954C224.294 176.256 224.877 176.324 225.877 176.324ZM234.36 179.121H224.46C223.11 179.121 222.16 180.313 221.259 182.727C220.709 184.706 220.294 186.113 220.294 186.717C220.294 187.723 220.759 188.664 221.743 189.2C222.16 189.417 223.027 189.654 224.294 189.971C225.244 190.306 225.744 190.54 225.744 190.994C225.744 191.329 225.461 191.581 224.877 191.681C225.194 191.648 224.577 191.581 223.027 191.581C222.61 191.581 221.793 191.581 220.759 191.513C219.709 191.414 218.892 191.414 218.294 191.414C217.81 191.414 217.16 191.414 216.11 191.581C215.389 191.636 214.667 191.669 213.944 191.681C212.927 191.681 212.375 191.513 212.375 191.211C212.375 190.842 212.927 190.375 213.944 189.871C215.009 189.318 215.778 188.529 216.26 187.388L229.96 156.553C230.443 155.432 230.827 154.894 231.244 154.894C231.494 154.894 231.911 155.432 232.309 156.489L245.961 187.625C246.478 188.681 247.11 189.417 247.795 189.654C247.977 189.769 248.612 189.971 249.629 190.138C250.078 190.238 250.428 190.405 250.428 190.994C250.425 191.145 250.373 191.291 250.28 191.409C250.186 191.527 250.057 191.611 249.911 191.648C249.779 191.648 249.361 191.681 248.512 191.681C248.045 191.681 247.128 191.648 245.828 191.581C244.511 191.414 243.227 191.414 242.045 191.414C241.245 191.414 240.261 191.414 238.961 191.581C238.112 191.636 237.261 191.669 236.41 191.681C235.427 191.681 234.945 191.513 234.945 191.109C234.945 190.675 235.462 190.238 236.694 189.569C237.861 189.065 238.461 188.177 238.461 187.069C238.461 186.25 238.178 185.108 237.611 183.615C237.194 182.762 236.829 181.756 236.41 180.848C235.895 179.778 235.178 179.121 234.36 179.121Z" fill="white"/>
<path d="M272.379 177.864V187.29C272.379 188.261 272.562 188.932 273.244 189.416C273.461 189.534 273.928 189.768 274.728 190.104C275.345 190.24 275.545 190.404 275.545 190.909C275.545 191.413 275.345 191.682 274.828 191.682C274.578 191.682 274.111 191.648 273.161 191.58C272.196 191.413 271.427 191.413 270.378 191.413C269.328 191.413 268.311 191.413 267.361 191.58C266.862 191.624 266.362 191.658 265.862 191.682C265.245 191.682 264.995 191.512 264.995 191.046C264.995 190.808 265.245 190.375 265.879 189.971C266.612 189.534 266.862 188.762 266.862 187.689V178.568C266.862 176.375 266.612 174.745 265.795 173.842C265.245 173.136 264.212 172.784 262.961 172.784C261.694 172.784 260.644 173.188 259.994 174.006C259.462 174.648 259.295 175.217 259.295 175.853V187.387C259.295 188.36 259.512 188.932 260.062 189.416C260.177 189.534 260.779 189.653 261.727 190.104C262.346 190.307 262.561 190.541 262.561 191.046C262.561 191.512 262.011 191.682 260.812 191.682C260.262 191.682 259.512 191.648 258.445 191.58C257.328 191.413 256.528 191.413 256.127 191.413C255.644 191.413 255.077 191.413 254.277 191.58C253.712 191.636 253.145 191.67 252.578 191.682C252.028 191.682 251.743 191.648 251.711 191.648C251.478 191.58 251.376 191.33 251.376 190.994C251.376 190.541 251.778 190.307 252.578 189.971C253.36 189.653 253.795 189.064 253.795 188.228V175.217C253.795 174.343 253.26 173.689 252.195 173.505C251.111 173.37 250.594 173.136 250.594 172.666C250.594 172.266 250.876 172.115 251.244 171.962C251.478 171.813 252.078 171.728 253.21 171.393C254.911 170.922 256.228 170.539 257.295 170.018C258.145 169.365 258.645 169.181 258.645 169.181C259.028 169.181 259.295 169.483 259.295 170.218V172.784C261.261 170.755 263.395 169.547 265.662 169.547C268.078 169.547 269.978 170.79 271.696 173.136C273.379 170.79 275.662 169.547 278.462 169.547C281.213 169.547 283.045 170.421 284.229 172.165C285.046 173.505 285.463 175.853 285.463 178.704V187.387C285.463 188.665 285.929 189.234 287.013 189.653C288.03 190.137 288.612 190.404 288.612 190.841C288.612 191.413 288.03 191.682 287.013 191.682C286.746 191.682 286.13 191.648 285.579 191.58C284.812 191.413 284.362 191.413 284.046 191.413C283.362 191.413 282.397 191.413 281.213 191.58C280.524 191.624 279.835 191.658 279.146 191.682C278.429 191.682 278.045 191.413 278.045 190.994C278.045 190.677 278.394 190.307 278.979 189.87C279.711 189.534 280.046 188.932 280.046 188.528V179.307C280.046 177.211 279.896 175.654 279.529 174.745C278.979 173.337 277.745 172.534 276.011 172.534C273.629 172.534 272.379 174.343 272.379 177.864Z" fill="white"/>
<path d="M295.263 177.426H302.547C303.014 177.426 303.364 177.426 303.497 177.294C303.679 177.057 303.747 176.674 303.747 176.086C303.747 174.914 303.364 173.823 302.614 172.85C301.73 171.727 300.53 171.09 299.163 171.09C297.797 171.09 296.73 171.727 295.963 172.902C295.363 173.84 294.98 175.078 294.98 176.42C294.98 177.057 295.13 177.426 295.263 177.426ZM308.432 179.203H296.113C295.63 179.203 295.147 179.203 295.13 179.34C295.063 179.424 294.98 179.776 294.98 180.495C294.98 182.76 295.763 184.618 297.147 186.415C298.514 188.022 300.296 188.828 302.447 188.828C303.529 188.828 304.881 188.359 306.28 187.436C307.78 186.55 308.432 186.113 308.564 186.113C308.997 186.113 309.097 186.281 309.097 186.682C309.097 187.521 308.247 188.662 306.396 189.767C304.214 191.277 302.063 191.998 299.763 191.998C297.014 191.998 294.813 191.209 292.946 189.532C290.88 187.688 289.88 185.107 289.88 181.886C289.88 178.567 290.73 175.885 292.362 173.436C294.113 170.92 296.73 169.545 299.713 169.545C302.68 169.545 305.114 170.754 306.898 172.85C308.38 174.544 309.097 176.322 309.097 178.147C309.097 178.836 308.997 179.203 308.432 179.203Z" fill="white"/>
<path d="M319.548 179.34V186.18C319.548 187.522 319.848 188.663 320.615 189.062C321.132 189.415 321.799 189.715 322.931 189.97C323.631 190.237 324.048 190.404 324.048 190.841C324.048 191.413 323.898 191.68 323.266 191.68C322.999 191.68 322.097 191.647 320.615 191.579C319.182 191.413 318.131 191.413 317.616 191.413C316.714 191.413 315.732 191.413 314.63 191.579C313.926 191.629 313.221 191.663 312.515 191.68C311.966 191.68 311.631 191.579 311.631 191.278C311.631 190.806 311.864 190.373 312.264 190.305C312.914 189.97 313.281 189.651 313.498 189.533C313.815 189.015 314.065 188.226 314.065 187.153V175.215C314.065 174.341 313.565 173.687 312.448 173.505C311.331 173.37 310.831 173.136 310.831 172.664C310.831 172.265 311.014 172.113 311.331 171.96C311.631 171.811 312.264 171.726 313.332 171.391C315.049 170.921 316.464 170.538 317.548 170.016C318.415 169.363 318.848 169.18 318.898 169.18C319.282 169.18 319.548 169.48 319.548 170.216V174.209C321.964 171.09 323.816 169.546 324.698 169.546C325.265 169.546 326.165 170.016 327.132 170.921C328.199 171.761 328.633 172.265 328.633 172.851C328.633 173.822 328.332 174.677 327.699 175.651C327.099 176.607 326.549 177.209 326.065 177.209C325.882 177.209 325.365 176.789 324.698 176.12C323.998 175.431 323.149 175.079 322.097 175.079C320.332 175.079 319.548 176.487 319.548 179.34Z" fill="white"/>
<path d="M338.817 161.347C338.817 161.834 338.267 162.54 337.433 163.613C336.401 164.751 335.751 165.323 335.451 165.323C335.084 165.323 334.384 164.751 333.45 163.613C332.567 162.54 332.116 161.834 332.116 161.347C332.116 160.981 332.567 160.192 333.45 159.017C334.399 157.943 335.084 157.307 335.451 157.307C335.751 157.307 336.401 157.943 337.433 159.017C338.267 160.192 338.817 160.981 338.817 161.347ZM332.667 188.227V175.215C332.667 174.341 332.116 173.687 330.983 173.505C330.033 173.37 329.384 173.136 329.384 172.784C329.384 172.266 329.651 172.113 330.033 171.961C330.166 171.879 330.868 171.726 332.017 171.426C333.717 170.955 335.084 170.62 336.066 170.017C336.968 169.363 337.433 169.181 337.433 169.181C337.883 169.181 338.117 169.547 338.117 170.216V187.387C338.117 188.358 338.417 189.015 339.1 189.416C339.1 189.534 339.767 189.652 340.817 190.103C341.334 190.306 341.784 190.54 341.784 191.044C341.784 191.511 340.934 191.681 339.684 191.681C339.1 191.681 338.267 191.648 337.233 191.58C336.118 191.413 335.284 191.413 334.849 191.413C334.399 191.413 333.784 191.413 332.933 191.58C332.318 191.64 331.701 191.673 331.083 191.681C330.483 191.681 330.116 191.648 330.116 191.648C329.866 191.58 329.699 191.329 329.699 190.994C329.699 190.54 330.166 190.306 331.133 189.971C332.183 189.652 332.667 189.062 332.667 188.227Z" fill="white"/>
<path d="M342.75 181.886C342.75 178.401 343.9 175.483 346.234 173.186C348.533 170.789 351.367 169.546 354.75 169.546C356.034 169.546 357.334 169.881 358.633 170.42C360.235 171.089 361.1 172.164 361.1 173.437C361.1 173.839 360.567 174.477 359.618 175.299C358.501 176.119 357.816 176.522 357.367 176.522C357.084 176.522 356.899 176.322 356.784 175.852C356.351 174.392 355.917 173.369 355.334 172.783C354.683 171.994 353.75 171.578 352.468 171.578C349.35 171.578 347.766 173.839 347.766 178.401C347.766 181.084 348.45 183.431 349.683 185.443C351.167 187.688 353.001 188.829 355.217 188.829C356.351 188.829 357.617 188.357 359.101 187.437C360.567 186.549 361.317 186.114 361.55 186.114C361.852 186.114 361.951 186.282 361.951 186.682C361.951 187.522 361 188.663 359.166 189.767C357.084 191.277 354.835 191.999 352.468 191.999C349.683 191.999 347.3 191.043 345.499 189.063C343.732 187.152 342.75 184.772 342.75 181.886Z" fill="white"/>
<path d="M375.785 187.289V180.848C375.785 180.648 375.57 180.496 375.385 180.496C374.168 180.496 372.984 180.848 371.767 181.756C370.218 182.83 369.468 184.137 369.468 185.595C369.468 187.926 370.302 189.016 372.119 189.016C372.901 189.016 373.651 188.831 374.335 188.664C375.285 188.227 375.785 187.858 375.785 187.289ZM381.251 177.059V185.897C381.251 187.289 381.268 188.092 381.402 188.529C381.502 188.831 381.919 189.016 382.537 189.016C382.802 189.016 383.036 188.931 383.335 188.831C383.802 188.763 384.019 188.763 384.119 188.763C384.419 188.763 384.701 188.831 384.701 189.2C384.701 189.653 384.019 190.306 382.919 190.995C381.718 191.648 380.703 192 379.751 192C378.034 192 376.985 190.995 376.518 188.831C374.001 190.995 371.302 192 368.718 192C367.268 192 366.084 191.581 365.167 190.54C364.318 189.717 363.852 188.664 363.852 187.289C363.852 184.557 365.167 182.493 367.868 181.153C368.785 180.648 371.417 179.778 375.785 178.705C375.785 176.256 375.535 174.392 375.135 173.371C374.485 171.996 373.268 171.275 371.417 171.275C370.368 171.275 369.635 171.578 369.468 172.114C369.218 172.483 369.151 173.187 369.151 174.16C369.151 175.7 367.951 176.523 365.534 176.523C364.667 176.523 364.25 176.189 364.25 175.433C364.25 173.439 365.402 171.961 367.551 170.923C369.218 170.018 371.252 169.548 373.434 169.548C378.619 169.548 381.251 172.114 381.251 177.059Z" fill="white"/>
<path d="M388.235 186.836V175.216C388.235 174.343 387.635 173.689 386.602 173.505C385.451 173.37 384.951 173.137 384.951 172.666C384.951 172.267 385.151 172.114 385.518 171.962C385.701 171.813 386.502 171.728 387.452 171.393C389.134 170.921 390.519 170.54 391.685 170.018C392.485 169.364 393.018 169.181 393.052 169.181C393.402 169.181 393.619 169.482 393.619 170.218V173.137H393.719C395.136 170.79 397.418 169.546 400.519 169.546C403.086 169.546 405.052 170.62 406.469 172.484C407.602 174.211 408.236 176.375 408.236 179.121V187.354C408.236 188.228 408.503 188.932 409.053 189.535C409.237 189.653 409.77 189.972 410.42 190.239C411.052 190.374 411.32 190.676 411.32 190.993C411.32 191.415 410.987 191.682 410.153 191.682C409.62 191.682 408.803 191.647 407.769 191.58C406.886 191.415 406.137 191.415 405.902 191.415C405.337 191.415 404.602 191.415 403.803 191.58C402.786 191.647 402.303 191.682 402.153 191.682H400.869C400.586 191.647 400.452 191.415 400.452 191.046C400.452 190.843 400.869 190.374 401.652 189.768C402.453 189.199 402.786 188.665 402.786 187.859V179.121C402.786 175 401.152 172.853 397.835 172.853C395.034 172.853 393.619 174.478 393.619 177.732V187.29C393.619 188.093 393.985 188.762 394.652 189.234C394.919 189.416 395.519 189.653 396.601 190.104C397.303 190.307 397.553 190.541 397.553 190.993C397.553 191.415 397.103 191.682 396.001 191.682C393.719 191.512 392.203 191.415 391.086 191.415C390.519 191.415 389.584 191.415 388.502 191.58C387.708 191.633 386.913 191.667 386.118 191.682C385.635 191.682 385.451 191.512 385.451 191.21C385.451 190.808 385.701 190.406 386.285 190.307C386.818 189.972 387.252 189.653 387.452 189.535C387.969 188.83 388.235 188.025 388.235 186.836Z" fill="white"/>
<path d="M450.773 159.017V167.453C450.773 168.106 450.306 168.476 449.558 168.476C449.441 168.476 449.039 167.453 448.208 165.523C447.339 163.328 446.057 161.583 444.523 160.325C442.108 158.381 439.04 157.408 435.107 157.408C432.138 157.408 429.689 158.448 427.688 160.527C425.039 163.328 423.722 167.501 423.722 173.369C423.722 177.426 424.723 180.847 426.471 184.102C428.705 187.688 431.673 189.534 435.424 189.534C439.457 189.534 442.074 188.68 443.44 187.069C444.24 186.011 444.673 184.369 444.673 182.29C444.673 179.977 444.14 178.403 443.073 177.562C442.523 177.028 441.541 176.722 440.255 176.608C439.207 176.523 438.657 176.322 438.657 175.954C438.657 175.301 438.923 174.914 439.64 174.879H441.122C441.874 174.879 443.073 174.879 444.74 174.914C446.257 174.999 447.389 175.08 448.208 175.08C448.873 175.08 449.806 174.999 451.007 174.914C452.174 174.879 453.074 174.879 453.674 174.879C454.056 174.879 454.189 175.08 454.189 175.483C454.189 176.086 453.891 176.421 453.291 176.608C452.658 176.764 452.081 177.094 451.624 177.562C451.106 178.283 450.773 179.608 450.773 181.47C450.773 182.29 450.773 183.228 450.875 184.102V185.711C450.875 186.5 450.725 186.835 450.44 187.069C444.373 190.306 439.09 191.998 434.457 191.998C428.072 191.998 423.389 189.567 420.488 185.005C418.422 181.955 417.372 178.517 417.372 174.999C417.372 170.017 418.789 165.591 421.555 161.87C424.989 157.408 429.539 155.211 435.357 155.211C437.423 155.211 439.507 155.464 441.439 156C442.723 156.487 444.09 156.971 445.557 157.71C446.924 158.232 447.689 158.533 448.039 158.533C448.406 158.533 448.723 158.279 449.106 157.745C449.508 157.308 449.806 157.073 450.04 157.073C450.49 157.073 450.773 157.745 450.773 159.017Z" fill="white"/>
<path d="M464.223 179.34V186.18C464.223 187.522 464.573 188.663 465.324 189.062C465.824 189.415 466.489 189.715 467.608 189.97C468.356 190.237 468.773 190.404 468.773 190.841C468.773 191.413 468.506 191.68 468.023 191.68C467.656 191.68 466.739 191.647 465.324 191.579C463.923 191.413 462.856 191.413 462.306 191.413C461.356 191.413 460.407 191.413 459.255 191.579C458.568 191.631 457.879 191.664 457.19 191.68C456.589 191.68 456.273 191.579 456.273 191.278C456.273 190.806 456.539 190.373 456.871 190.305C457.538 189.97 458.023 189.651 458.155 189.533C458.54 189.015 458.805 188.226 458.805 187.153V175.215C458.805 174.341 458.273 173.687 457.19 173.505C456.041 173.37 455.522 173.136 455.522 172.664C455.522 172.265 455.691 172.113 456.041 171.96C456.273 171.811 457.006 171.726 458.057 171.391C459.757 170.921 461.091 170.538 462.173 170.016C463.039 169.363 463.473 169.18 463.556 169.18C463.957 169.18 464.223 169.48 464.223 170.216V174.209C466.674 171.09 468.423 169.546 469.425 169.546C470.075 169.546 470.924 170.016 471.872 170.921C472.889 171.761 473.424 172.265 473.424 172.851C473.424 173.822 473.056 174.677 472.389 175.651C471.757 176.607 471.207 177.209 470.792 177.209C470.624 177.209 470.123 176.789 469.425 176.12C468.74 175.431 467.823 175.079 466.806 175.079C465.04 175.079 464.223 176.487 464.223 179.34Z" fill="white"/>
<path d="M483.507 161.347C483.507 161.834 483.007 162.54 482.123 163.613C481.223 164.751 480.539 165.323 480.141 165.323C479.657 165.323 479.057 164.751 478.173 163.613C477.223 162.54 476.806 161.834 476.806 161.347C476.806 160.981 477.223 160.192 478.173 159.017C479.057 157.943 479.757 157.307 480.141 157.307C480.539 157.307 481.223 157.943 482.123 159.017C483.007 160.192 483.507 160.981 483.507 161.347ZM477.357 188.227V175.215C477.357 174.341 476.857 173.687 475.806 173.505C474.656 173.37 474.089 173.136 474.089 172.784C474.089 172.266 474.341 172.113 474.724 171.961C474.906 171.879 475.589 171.726 476.64 171.426C478.357 170.955 479.757 170.62 480.791 170.017C481.641 169.363 482.123 169.181 482.123 169.181C482.675 169.181 482.84 169.547 482.84 170.216V187.387C482.84 188.358 483.073 189.015 483.674 189.416C483.857 189.534 484.423 189.652 485.391 190.103C486.007 190.306 486.408 190.54 486.408 191.044C486.408 191.511 485.691 191.681 484.307 191.681C483.807 191.681 483.007 191.648 481.958 191.58C480.791 191.413 480.057 191.413 479.557 191.413C479.057 191.413 478.491 191.413 477.707 191.58C477.075 191.636 476.441 191.67 475.806 191.681C475.173 191.681 474.789 191.648 474.789 191.648C474.506 191.58 474.341 191.329 474.341 190.994C474.341 190.54 474.906 190.306 475.939 189.971C476.857 189.652 477.357 189.062 477.357 188.227Z" fill="white"/>
<path d="M490.24 186.903V160.326C490.24 159.488 489.89 158.887 489.44 158.585C489.14 158.45 488.623 158.347 487.741 158.113C487.122 158.08 486.874 157.881 486.874 157.409C486.874 157.075 487.122 156.808 487.523 156.638C488.623 156.319 489.773 155.949 490.79 155.767C492.289 155.164 493.358 154.694 494.208 154.222C494.873 153.853 495.157 153.671 495.375 153.671C495.69 153.671 495.757 153.853 495.757 154.325C495.757 154.325 495.69 154.893 495.69 155.665V187.07C495.69 188.024 495.924 188.83 496.607 189.416C496.841 189.653 497.474 189.973 498.324 190.307C499.039 190.507 499.273 190.808 499.273 191.046C499.273 191.512 498.974 191.682 498.324 191.682C497.907 191.682 496.99 191.648 495.523 191.58C494.075 191.415 493.075 191.415 492.589 191.415C492.174 191.415 491.457 191.415 490.24 191.58C489.502 191.628 488.763 191.662 488.023 191.682C487.473 191.682 487.189 191.58 487.189 191.278C487.189 190.808 487.391 190.541 487.94 190.375C488.623 190.307 489.073 189.973 489.475 189.718C489.89 189.234 490.24 188.228 490.24 186.903Z" fill="white"/>
<path d="M503.193 186.903V160.326C503.193 159.488 502.993 158.887 502.36 158.585C502.21 158.45 501.676 158.347 500.725 158.113C500.176 158.08 499.859 157.881 499.859 157.409C499.859 157.075 500.092 156.808 500.594 156.638C501.676 156.319 502.76 155.949 503.793 155.767C505.344 155.164 506.461 154.694 507.293 154.222C507.826 153.853 508.193 153.671 508.426 153.671C508.61 153.671 508.727 153.853 508.727 154.325V155.665C508.61 156.489 508.61 157.274 508.61 157.945V187.07C508.61 188.024 508.96 188.83 509.593 189.416C509.908 189.653 510.427 189.973 511.344 190.307C511.927 190.507 512.292 190.808 512.292 191.046C512.292 191.512 511.877 191.682 511.227 191.682C510.911 191.682 510.044 191.648 508.61 191.58C507.109 191.415 506.109 191.415 505.527 191.415C505.127 191.415 504.377 191.415 503.243 191.58C502.527 191.631 501.809 191.665 501.092 191.682C500.509 191.682 500.211 191.58 500.211 191.278C500.211 190.808 500.509 190.541 500.993 190.375C501.676 190.307 502.21 189.973 502.476 189.718C502.993 189.234 503.193 188.228 503.193 186.903Z" fill="white"/>
<path d="M540.093 189.016C541.208 189.016 542.427 188.831 543.994 188.494C545.46 188.025 546.21 187.523 546.21 187.154C546.21 186.903 545.143 185.897 543.077 184.22C540.73 182.437 538.477 180.534 536.325 178.517C533.609 176.022 531.576 173.439 530.375 171.275C529.827 170.267 529.375 169.784 529.043 169.784C528.358 169.784 527.576 170.217 526.743 170.956C525.755 172.098 525.22 173.567 525.242 175.081C525.242 178.148 526.743 181.153 529.76 184.137C532.959 187.354 536.325 189.016 540.093 189.016ZM520.643 179.778C520.643 176.978 521.341 174.677 522.593 172.853C523.61 171.545 524.742 170.267 526.309 169.314L528.376 168.107C528.376 167.972 528.208 167.302 527.826 166.415C527.576 165.426 527.359 164.351 527.359 163.143C527.359 160.797 528.208 158.886 529.827 157.308C531.375 155.865 533.476 155.212 535.877 155.212C537.094 155.212 538.593 155.465 540.276 156.2C541.203 156.512 542.137 156.804 543.077 157.074C543.292 157.074 543.592 156.973 543.761 156.637C544.194 156.488 544.361 156.403 544.711 156.403C545.026 156.403 545.211 156.637 545.211 157.308C545.211 158.449 545.526 161.029 545.959 165.138C546.026 165.761 545.728 166.127 545.211 166.127C544.795 166.127 544.561 165.591 544.244 164.819C543.592 162.609 542.575 160.797 541.208 159.489C539.726 157.944 537.894 157.074 535.877 157.074C533.476 157.074 532.226 158.381 532.226 160.864C532.226 163.011 533.726 165.995 536.627 169.598C539.171 172.789 541.981 175.756 545.026 178.467C548.01 181.153 549.811 182.426 550.328 182.426C550.444 182.426 550.793 181.956 551.426 180.95C551.978 179.778 552.245 178.517 552.245 177.295C552.245 175.433 551.81 174.16 550.709 173.371C550.276 173.052 549.311 172.665 548.01 172.483C547.06 172.267 546.46 171.996 546.46 171.545C546.46 170.956 546.827 170.789 547.46 170.789C547.543 170.789 548.144 170.789 549.161 170.921C550.276 170.921 551.443 170.956 552.595 170.956C553.694 170.956 554.594 170.921 555.394 170.921C556.194 170.789 556.695 170.789 556.876 170.789C557.393 170.789 557.695 170.956 557.695 171.426C557.695 171.762 557.393 172.114 556.711 172.267C556.076 172.534 555.778 173.035 555.761 173.607C555.394 175.852 554.894 177.664 554.394 179.426C554.027 180.546 553.694 181.619 553.244 182.493L552.493 183.615C552.493 184.557 553.544 185.545 555.444 186.717C557.161 187.858 558.543 188.359 559.327 188.359C560.027 188.359 560.677 188.227 561.111 188.092C561.459 188.025 561.778 187.993 561.944 187.993C562.411 187.993 562.561 188.092 562.561 188.664C562.561 189.063 561.994 189.717 560.844 190.54C559.539 191.501 557.962 192.013 556.345 192C554.027 192 551.161 190.676 548.144 188.025C546.676 189.415 544.743 190.306 542.242 191.109C540.093 191.648 537.944 192 535.744 192C530.494 192 526.709 190.405 523.925 187.523C521.691 185.108 520.643 182.592 520.643 179.778Z" fill="white"/>
<path d="M571.296 188.091L569.794 181.284C569.627 180.545 569.544 180.079 569.544 179.909C569.544 179.34 569.827 178.938 570.344 178.938C570.861 178.938 571.296 179.425 571.461 180.193C573.578 186.5 576.979 189.569 581.879 189.569C583.928 189.569 585.645 189.016 586.946 187.925C588.179 186.716 588.913 185.107 588.913 183.079C588.913 181.152 587.981 179.777 586.162 178.518C585.68 178.284 582.829 176.824 577.511 174.544C575.029 173.438 573.345 172.266 572.263 171.225C570.861 169.783 570.279 167.754 570.279 165.29C570.279 162.353 571.096 159.99 572.945 158.079C574.86 156.199 577.178 155.211 580.147 155.211C581.762 155.211 583.378 155.466 585.03 156.199C586.629 156.874 587.662 157.222 587.913 157.222C588.162 157.222 588.579 157.04 589.196 156.806C589.861 156.487 590.28 156.437 590.43 156.437C590.795 156.437 590.963 156.553 591.063 156.874C591.112 157.307 591.178 157.879 591.178 158.28L591.714 165.138C591.745 166.329 591.528 166.932 590.495 166.932C590.395 166.932 590.028 166.079 589.246 164.385C588.413 162.405 587.462 160.863 586.329 159.858C584.595 158.146 582.596 157.409 580.045 157.409C578.311 157.409 576.979 157.944 576.012 158.835C574.979 159.723 574.445 161.063 574.445 162.84C574.445 164.285 575.179 165.523 576.729 166.414C577.178 166.766 579.695 167.836 583.928 169.783C587.046 171.09 589.113 172.483 590.395 173.823C591.93 175.484 592.579 177.865 592.579 180.847C592.579 184.136 591.63 186.834 589.546 188.83C587.512 190.994 584.711 192 581.446 192C580.147 192 578.645 191.748 576.979 191.278C575.679 190.909 574.228 190.404 572.795 190.137C572.263 189.971 571.878 189.718 571.596 189.534C571.578 189.416 571.461 188.83 571.296 188.091Z" fill="white"/>
<path d="M607.098 187.289V180.848C607.098 180.648 606.998 180.496 606.798 180.496C605.548 180.496 604.264 180.848 603.047 181.756C601.565 182.83 600.865 184.137 600.865 185.595C600.865 187.926 601.698 189.016 603.532 189.016C604.214 189.016 605.014 188.831 605.681 188.664C606.631 188.227 607.098 187.858 607.098 187.289ZM612.481 177.059V185.897C612.481 187.289 612.582 188.092 612.715 188.529C612.865 188.831 613.232 189.016 613.882 189.016C614.03 189.016 614.347 188.931 614.68 188.831C615.149 188.763 615.314 188.763 615.432 188.763C615.799 188.763 615.981 188.831 615.981 189.2C615.981 189.653 615.432 190.306 614.282 190.995C613.065 191.648 612.031 192 611.148 192C609.364 192 608.247 190.995 607.93 188.831C605.316 190.995 602.732 192 600.014 192C598.481 192 597.53 191.581 596.497 190.54C595.646 189.717 595.198 188.664 595.198 187.289C595.198 184.557 596.497 182.493 599.148 181.153C600.131 180.648 602.732 179.778 607.098 178.705C607.098 176.256 606.846 174.392 606.381 173.371C605.814 171.996 604.531 171.275 602.732 171.275C601.698 171.275 601.046 171.578 600.865 172.114C600.598 172.483 600.548 173.187 600.548 174.16C600.548 175.7 599.298 176.523 596.932 176.523C595.997 176.523 595.646 176.189 595.646 175.433C595.646 173.439 596.68 171.961 598.897 170.923C600.648 170.018 602.582 169.548 604.847 169.548C610.049 169.548 612.481 172.114 612.481 177.059Z" fill="white"/>
<path d="M619.683 186.903V160.326C619.683 159.488 619.298 158.887 618.783 158.585C618.598 158.45 618.099 158.347 617.166 158.113C616.582 158.08 616.282 157.881 616.282 157.409C616.282 157.075 616.449 156.808 617.064 156.638C618.099 156.319 619.183 155.949 620.284 155.767C621.749 155.164 622.832 154.694 623.716 154.222C624.283 153.853 624.616 153.671 624.833 153.671C625.083 153.671 625.116 153.853 625.116 154.325V155.665C625.083 156.489 625.083 157.274 625.083 157.945V187.07C625.083 188.024 625.317 188.83 625.967 189.416C626.265 189.653 626.915 189.973 627.734 190.307C628.466 190.507 628.768 190.808 628.768 191.046C628.768 191.512 628.384 191.682 627.699 191.682C627.332 191.682 626.384 191.648 624.933 191.58C623.466 191.415 622.516 191.415 621.999 191.415C621.584 191.415 620.798 191.415 619.683 191.58C618.955 191.631 618.227 191.665 617.499 191.682C616.916 191.682 616.682 191.58 616.682 191.278C616.682 190.808 616.916 190.541 617.431 190.375C618.099 190.307 618.598 189.973 618.931 189.718C619.298 189.234 619.683 188.228 619.683 186.903Z" fill="white"/>
<path d="M641.599 187.289V180.848C641.498 180.648 641.367 180.496 641.199 180.496C639.95 180.496 638.683 180.848 637.414 181.756C635.949 182.83 635.217 184.137 635.217 185.595C635.217 187.926 636.082 189.016 637.9 189.016C638.683 189.016 639.383 188.831 640.165 188.664C641.032 188.227 641.599 187.858 641.599 187.289ZM646.965 177.059V185.897C646.965 187.289 647.049 188.092 647.165 188.529C647.349 188.831 647.699 189.016 648.249 189.016C648.532 189.016 648.833 188.931 649.083 188.831C649.5 188.763 649.818 188.763 649.868 188.763C650.266 188.763 650.383 188.831 650.383 189.2C650.383 189.653 649.818 190.306 648.666 190.995C647.484 191.648 646.417 192 645.465 192C643.816 192 642.783 190.995 642.299 188.831C639.75 190.995 637.132 192 634.332 192C633.031 192 631.899 191.581 630.964 190.54C630.082 189.717 629.647 188.664 629.647 187.289C629.647 184.557 630.964 182.493 633.517 181.153C634.667 180.648 637.199 179.778 641.599 178.705C641.599 176.256 641.367 174.392 640.882 173.371C640.198 171.996 639.065 171.275 637.233 171.275C636.082 171.275 635.415 171.578 635.217 172.114C634.999 172.483 634.965 173.187 634.965 174.16C634.965 175.7 633.665 176.523 631.266 176.523C630.416 176.523 629.982 176.189 629.982 175.433C629.982 173.439 631.099 171.961 633.3 170.923C635.082 170.018 637.049 169.548 639.265 169.548C644.433 169.548 646.965 172.114 646.965 177.059Z" fill="white"/>
<path d="M665.917 185.04V174.744C664.55 172.483 662.7 171.393 660.351 171.393C658.583 171.393 657.233 172.267 656.433 174.007C655.766 175.433 655.384 177.057 655.384 179.121C655.384 181.153 655.951 183.079 656.983 185.04C658.183 187.354 659.8 188.664 661.733 188.664C663.266 188.664 664.367 188.092 665.2 187.388C665.665 187.069 665.917 186.249 665.917 185.04ZM665.917 170.921V160.694C665.917 159.671 665.532 158.95 665.017 158.584C664.47 158.431 663.913 158.313 663.35 158.232C662.799 158.147 662.483 157.944 662.483 157.409C662.483 157.041 663.118 156.552 664.367 156.2C666.518 155.834 668.351 155.063 670.017 154.057C670.367 153.755 670.684 153.67 670.834 153.67C671.15 153.67 671.251 154.09 671.251 155.063V185.847C671.251 187.069 671.567 187.926 672.117 188.26C672.384 188.529 672.985 188.682 673.834 188.831C674.283 188.831 674.601 189.063 674.601 189.535C674.601 189.869 673.918 190.306 672.618 190.506C670.367 190.995 669.049 191.279 668.651 191.414C667.384 191.848 666.734 192 666.518 192C666.234 192 666.084 191.749 666.017 191.279C665.982 190.995 665.917 189.972 665.917 188.664C663.733 190.91 661.401 192 658.817 192C656.216 192 654.217 190.995 652.85 188.831C651.598 187.069 651 184.938 651 182.124C651 180.95 651.031 179.91 651.316 178.937C651.948 176.324 653.05 174.16 654.782 172.483C656.6 170.621 658.817 169.546 661.316 169.546C663.417 169.546 665.017 170.085 665.917 170.921Z" fill="white"/>
<path d="M169.406 41.0458L161.524 73.1548C165.607 78.8716 169.256 86.2824 172.075 95.2364C174.04 90.7091 176.608 85.9131 179.757 80.7338L169.406 41.0458ZM183.54 95.2364C181.858 97.9205 179.491 103.216 176.191 110.762C175.156 113.562 173.407 115.057 171.158 115.057C168.491 115.057 166.79 113.313 166.09 109.957C164.123 101.574 161.272 94.1804 157.374 87.7909C155.074 96.36 152.273 104.861 148.805 113.143C144.839 122.718 140.122 130.515 134.839 136.501C129.488 142.854 122.654 145.938 114.605 145.938C109.42 145.938 105.037 144.178 101.503 140.506C97.4043 136.466 95.4858 131.219 95.4858 124.949C95.4858 119.515 97.0199 114.754 100.054 110.864C103.17 107.041 106.871 105.196 111.269 105.196C112.803 105.196 113.77 105.364 114.305 105.699C114.905 106.219 115.37 107.225 115.87 108.648C117.071 112.172 119.171 113.796 122.221 113.796C125.505 113.796 128.789 111.903 132.289 108.012C134.621 105.364 136.738 101.808 138.605 97.5842C140.439 93.3586 143.105 86.2824 146.456 76.3071C144.222 74.9494 142.055 74.1275 140.089 74.1275C138.372 74.1275 136.905 74.7483 135.756 75.9048C134.656 77.0267 134.072 78.4693 134.072 80.2136C134.072 81.1187 134.289 82.3429 134.789 84.1705C134.839 84.6074 134.889 84.8588 134.889 85.3443C134.889 87.6245 133.089 88.8989 129.654 88.8989C126.505 88.8989 124.138 87.5568 122.089 84.975C120.103 82.4261 119.138 79.3415 119.138 75.4522C119.138 69.6661 121.154 64.9897 125.388 61.1993C128.621 58.2482 132.522 56.7396 136.855 56.7396C141.556 56.7396 146.173 58.4164 150.672 61.8374L156.022 40.9955C157.441 35.6464 158.106 31.4381 158.106 28.4367C158.106 25.7213 157.689 23.3892 156.689 21.4628C155.707 19.4826 153.973 17.2372 151.422 14.6207C149.072 12.1394 147.923 10.0934 147.923 8.55194C147.923 7.04341 148.338 5.8522 149.372 4.76157C150.422 3.72293 151.572 3.22009 152.939 3.22009C153.89 3.22009 155.557 3.72295 158.106 4.66273C165.275 7.34338 170.973 8.76868 175.206 8.76868C179.491 8.76868 184.874 7.41101 191.609 4.76157C194.158 3.72293 196.075 3.22009 197.424 3.22009C200.725 3.22009 202.292 4.76157 202.292 8.01442C202.292 9.72581 201.125 11.6713 198.841 13.615C194.591 17.5042 192.476 22.0315 192.476 26.8276C192.476 28.9066 192.858 31.7572 193.875 35.5631L214.475 113.796C216.009 119.147 217.543 123.154 219.344 125.92C220.994 128.602 223.343 130.784 226.394 132.526C228.293 133.7 229.36 134.472 229.96 135.041C230.443 135.677 230.66 136.651 230.66 137.824C230.66 140.808 228.293 142.385 223.476 142.385H188.758C185.142 142.385 183.308 141.111 183.308 138.495C183.308 136.853 184.425 135.342 186.391 134.035C189.408 132.19 190.857 129.844 190.857 127.028C190.857 125.518 190.475 122.785 189.592 119.147L183.54 95.2364Z" fill="white"/>
<path d="M282.147 0C287.714 0 295.064 2.09631 304.464 5.9023C309.999 8.38356 313.982 9.48981 316.466 9.48981C317.433 9.48981 319.183 9.22105 321.582 8.41652C322.099 8.41652 322.616 8.38356 323.099 8.38356C324.283 8.38356 325.267 8.76849 326.165 9.85913C327.099 10.8648 327.499 12.1393 327.499 13.4466C327.499 15.4927 325.767 18.0745 322.316 21.2268C316.466 26.5083 311.966 32.728 308.998 39.7036C307.448 43.1073 305.597 44.8343 303.365 44.8343C301.315 44.8343 299.764 43.3258 298.514 40.2064C294.831 30.1132 289.215 25.0328 281.979 25.0328C278.23 25.0328 275.347 26.3246 272.813 28.9064C270.379 31.3373 269.197 34.5399 269.197 38.2956C269.197 42.3201 270.746 45.4724 273.93 47.8201C277.113 50.0673 284.23 52.9664 294.914 56.5713C304.882 59.975 312.131 63.6145 316.899 67.3529C327.365 75.6688 332.667 87.0365 332.667 101.374C332.667 114.318 328.032 124.949 318.733 133.381C309.382 141.782 297.382 145.938 282.846 145.938C269.112 145.938 257.445 142.619 247.661 135.829C243.228 132.76 239.745 128.836 237.094 124.091C234.577 119.262 233.328 114.216 233.328 108.886C233.328 101.808 235.429 95.9073 239.612 90.995C244.145 85.6129 249.913 82.9791 256.83 82.9791C264.229 82.9791 270.729 85.9129 276.179 91.9504C277.883 93.7627 279.31 95.8189 280.414 98.0521C281.597 100.435 282.164 102.579 282.164 104.057C282.164 105.196 281.897 106.153 281.214 107.039C280.664 107.878 279.83 108.281 279.047 108.281C278.23 108.281 277.113 107.677 275.664 106.252C272.163 103.216 269.045 101.574 266.313 101.574C263.714 101.574 261.48 102.579 259.846 104.525C258.229 106.335 257.329 108.886 257.329 111.903C257.329 116.227 259.029 120.085 262.347 123.187C267.163 127.881 273.246 130.211 280.547 130.211C288.198 130.211 294.648 127.461 299.564 121.994C303.999 117.268 306.198 111.651 306.198 105.196C306.198 96.9147 302.615 90.4402 295.363 85.9129C291.047 83.4316 283.913 80.5481 274.013 77.3958C267.163 75.2162 262.113 73.3384 259.029 71.7293C255.845 70.0179 252.979 67.6719 250.08 64.6531C244.145 58.4162 241.162 50.4019 241.162 40.5255C241.162 28.9393 245.095 19.2987 253.062 11.6694C261.046 3.9395 270.646 0 282.147 0Z" fill="white"/>
<path d="M385.152 81.9404V110.327C385.152 119.045 385.634 124.58 386.601 127.16C387.601 129.676 390.169 131.956 394.335 134.035C396.735 135.241 397.802 136.5 397.802 138.328C397.802 141.045 396.002 142.385 392.484 142.385H352.433C349.017 142.385 347.3 141.045 347.3 138.328C347.3 137.204 347.683 136.381 348.15 135.796C348.733 135.241 350.017 134.336 352.233 133.313C355.6 131.637 357.733 129.575 358.683 126.91C359.45 124.175 360 118.643 360 110.294V47.0485C360 34.7081 359.45 26.6938 358.501 23.0543C357.484 19.3819 355.082 16.0128 350.982 12.8102C348.367 10.6983 346.966 8.76845 346.966 7.04318C346.966 6.10339 347.248 5.16534 347.983 4.35907C348.65 3.57187 349.417 3.21986 350.234 3.21986C350.734 3.21986 352.199 3.57187 354.25 4.35907C360.817 7.00851 366.784 8.38353 372.185 8.38353C378.302 8.38353 384.419 6.7571 390.767 3.52158C391.784 2.96846 392.651 2.78291 393.403 2.78291C394.568 2.78291 395.519 3.21986 396.319 3.98973C397.036 4.76134 397.419 5.8017 397.419 6.94263C397.419 8.6176 395.969 10.6307 393.051 12.9282C389.552 15.6782 387.285 18.7125 386.501 22.2671C385.634 25.5529 385.152 33.8689 385.152 47.0485V69.4491L420.636 56.0025V47.0485C420.636 34.7081 420.219 26.6938 419.27 23.0543C418.254 19.3819 415.769 16.0128 411.703 12.8102C409.054 10.6983 407.602 8.76845 407.602 7.04318C407.602 6.10339 407.952 5.16534 408.736 4.35907C409.004 3.99692 409.354 3.70453 409.757 3.50633C410.16 3.30815 410.604 3.20992 411.053 3.21986C411.703 3.21986 412.97 3.57187 414.919 4.35907C421.553 7.00851 427.536 8.38353 432.854 8.38353C439.038 8.38353 445.221 6.7571 451.521 3.52158C452.555 2.96846 453.439 2.78291 454.187 2.78291C455.371 2.78291 456.221 3.21986 457.006 3.98973C457.755 4.78674 458.167 5.84558 458.155 6.94263C458.155 8.6176 456.656 10.6307 453.789 12.9282C450.171 15.6782 448.037 18.7125 447.138 22.2671C446.388 25.5529 446.053 33.8689 445.905 47.0485V110.327C445.905 119.045 446.353 124.58 447.338 127.16C448.404 129.676 450.871 131.956 455.089 134.035C457.338 135.241 458.488 136.5 458.488 138.328C458.488 141.045 456.738 142.385 453.439 142.385H413.202C409.769 142.385 408.037 141.045 408.037 138.328C408.037 137.204 408.285 136.381 408.954 135.796C409.453 135.241 410.92 134.336 413.02 133.313C416.403 131.637 418.42 129.575 419.337 126.91C420.219 124.175 420.636 118.643 420.636 110.294V68.3429L385.152 81.9404Z" fill="white"/>
<path d="M611.381 65.8942C617.581 65.7937 621.465 61.3669 623.032 52.9175C623.949 49.3629 624.514 47.0811 625.214 46.0927C625.931 44.9865 626.782 44.416 628.132 44.416C630.348 44.416 631.45 47.0481 631.565 52.2465C631.681 59.5897 632.115 65.3758 633.115 69.5338C634.082 73.8755 636.299 80.6153 640.001 89.9213C640.616 91.4142 640.983 92.6887 640.983 93.7447C640.983 96.5779 639.749 98.0032 637.415 98.0032C636.081 98.0032 634.799 96.9802 633.517 95.0694C630.483 90.2733 628.232 87.1384 626.782 85.4946C625.296 83.7607 623.519 82.3023 621.532 81.1858C618.781 79.5437 615.432 78.7721 611.381 78.7721V95.841C611.381 104.592 612.481 111.098 614.832 115.391C618.181 121.512 624.348 124.479 633.348 124.479C645.915 124.479 654.068 117.454 657.367 103.117C658.032 99.9157 658.716 97.8194 659.368 96.7444C659.95 95.7057 660.933 95.137 662.15 95.137C663.417 95.137 664.366 95.7907 664.884 96.9802C665.401 98.154 665.983 100.819 666.518 104.861C667.9 116.194 671.568 125.517 677.518 132.727C680.252 136.08 681.551 138.496 681.551 139.971C681.551 141.11 681.167 142.234 680.452 143.056C679.685 143.926 678.783 144.363 677.685 144.363C677.168 144.363 676.551 144.228 675.734 143.926C672.285 142.888 669.001 142.387 665.516 142.387H578.646C575.245 142.387 573.528 141.045 573.528 138.328C573.528 137.204 573.813 136.382 574.395 135.796C574.895 135.243 576.296 134.336 578.43 133.313C582.045 131.52 584.198 129.273 585.03 126.575C585.746 123.841 586.145 117.267 586.145 106.872V49.3282C586.145 43.3254 585.646 39.0339 584.429 36.6861C583.379 34.2881 581.045 32.6617 577.379 31.4375C575.312 30.7838 574.395 29.6117 574.395 27.8674C574.395 23.8776 578.646 18.544 587.462 11.6707C592.113 8.06586 597.58 5.19792 603.865 3.15189C609.957 1.07135 616.347 0.00712585 622.782 0.00132751C628.232 0.00132751 633.032 0.604736 636.816 1.77687C640.783 2.85191 646.682 5.36612 654.6 9.39058C658.032 11.1332 660.85 11.9897 663.267 11.9897C665.333 11.9897 667.383 11.2008 669.219 9.82579C670.317 9.07153 671.084 8.76984 671.568 8.76984C673.085 8.76984 674.284 10.2784 675.434 13.3474C676.584 16.4494 677.168 19.919 677.168 23.5083C677.168 31.656 674.384 38.3802 668.684 43.6288C664.051 48.1214 658.516 50.4015 652.216 50.4015C646.916 50.4015 642.566 48.5913 639.382 45.0697C636.916 42.5052 635.883 39.5697 635.883 36.5197C635.883 34.3731 636.498 33.3154 637.933 33.3154C638.282 33.3154 638.865 33.5182 639.749 33.8026C640.365 33.9708 640.983 34.1546 641.766 34.1546C643.433 34.1546 644.782 33.5182 645.734 32.093C646.783 30.7838 647.349 29.0083 647.349 26.9276C647.349 23.3904 645.767 20.4219 642.933 17.9579C640.001 15.494 636.431 14.2855 632.115 14.2855C627.882 14.2855 624.181 15.5599 620.98 18.1747C617.831 20.7253 615.432 24.2955 613.981 28.7725C612.279 34.2552 611.381 43.1086 611.381 55.4317V65.8942Z" fill="white"/>
<path d="M554.745 142.386H478.324C474.908 142.386 473.291 141.046 473.291 138.327C473.291 137.205 473.441 136.381 474.073 135.795C474.558 135.242 475.992 134.335 478.126 133.314C481.442 131.637 483.609 129.574 484.526 126.909C485.393 124.176 485.841 118.643 485.841 110.292V47.049C485.841 34.7069 485.393 26.6927 484.424 23.0549C483.509 19.3824 480.992 16.0134 476.891 12.8108C474.223 10.6972 472.891 8.76903 472.891 7.04204C472.891 6.10397 473.175 5.1642 473.858 4.35965C474.558 3.57071 475.307 3.21872 476.109 3.21872C476.807 3.21872 478.126 3.57071 480.142 4.35965C486.542 7.00909 492.59 8.38411 497.908 8.38411C503.427 8.38411 510.042 6.75768 518.126 3.52216C519.211 2.9673 520.078 2.78349 520.877 2.78349C521.944 2.78349 522.927 3.21872 523.694 4.12556C524.444 4.94571 524.926 5.85257 524.926 7.00909C524.926 8.06506 524.611 8.95282 524.094 9.55797C523.461 10.1614 522.043 11.2347 519.361 12.927C515.56 15.4585 513.226 18.5449 512.376 21.9643C511.594 25.4183 511.077 33.266 511.077 45.4712V95.5385C511.077 103.251 511.744 108.985 513.226 112.909C514.593 116.38 516.81 119.148 519.976 121.293C522.994 123.505 526.36 124.478 530.294 124.478C536.211 124.478 540.979 122.062 544.562 117.268C548.313 112.137 550.128 106.219 550.128 99.4953C550.128 94.8345 549.028 89.8043 546.829 84.4725C545.946 82.1577 545.395 80.5139 545.395 79.3747C545.395 78.0327 545.729 77.027 546.527 76.1895C547.344 75.4179 548.313 74.981 549.628 74.981C552.494 74.981 555.762 77.3963 558.961 82.3086C562.978 88.6461 565.113 96.5095 565.113 105.9C565.113 107.341 565.029 110.327 564.746 115.154C564.717 116.099 564.7 117.044 564.694 117.989C564.694 121.293 565.061 124.091 565.863 126.323C566.561 128.469 568.197 131.519 570.763 135.41C571.408 136.365 571.75 137.493 571.746 138.647C571.746 140.255 571.298 141.665 570.281 142.72C569.246 143.861 568.047 144.364 566.561 144.364C565.863 144.364 564.896 144.179 563.614 143.778C561.495 143.022 558.612 142.469 554.745 142.386Z" fill="white"/>
<path d="M724.788 79.2072L697.02 26.8616C694.054 21.0598 690.169 16.5655 685.835 13.2797C683.534 11.7035 682.052 10.3615 681.285 9.48929C680.535 8.61885 680.252 7.61143 680.252 6.52252C680.252 5.56712 680.535 4.69496 681.202 3.9407C681.967 3.21939 682.752 2.78244 683.769 2.78244C684.551 2.78244 686.37 3.57138 689.386 5.16486C694.054 7.54555 699.219 8.76796 704.987 8.76796C710.57 8.76796 715.853 7.41031 720.922 4.94638C723.837 3.57138 725.822 2.78244 726.672 2.78244C727.722 2.78244 728.454 3.21939 729.254 3.99098C729.756 4.76085 730.271 5.80122 730.271 6.94214C730.271 8.06573 730.056 8.95349 729.556 9.5569C729.189 10.1603 727.755 11.4018 725.403 13.2797C723.938 14.62 723.171 16.3487 723.171 18.6444C723.171 20.9922 723.738 23.1717 724.888 25.301L745.756 64.4185C747.689 60.5952 749.24 57.8296 750.372 56.2691C751.539 54.6426 753.656 52.1284 756.772 48.5392C760.473 44.1645 762.989 40.8613 764.272 38.7147C765.473 36.5178 766.073 34.288 766.073 32.0928C766.073 29.7954 765.473 28.0007 764.289 26.5078C763.105 24.9664 761.605 24.1774 759.806 24.1774C756.924 24.1774 754.523 26.5078 752.756 31.186C751.956 33.0638 750.839 34.1545 749.722 34.1545C748.021 34.1545 746.423 32.7951 744.989 30.1144C743.62 27.3796 742.917 24.3561 742.938 21.2939C742.938 15.7939 744.572 11.0151 748.106 7.00803C752.106 2.3316 757.222 -0.000518799 763.706 -0.000518799C770.156 -0.000518799 775.472 2.3316 779.607 7.00803C783.79 11.6706 785.707 17.4723 785.707 24.5468C785.707 30.5826 784.29 36.0479 781.289 41.0451C779.542 43.9963 775.574 48.5392 769.589 54.5264C761.49 62.91 756.24 69.9342 753.721 75.6024C751.157 81.3868 749.89 89.3854 749.89 99.6139V110.326C749.89 119.029 750.522 124.477 751.355 127.027C752.456 129.607 754.955 131.955 759.008 134.034C761.374 135.241 762.605 136.5 762.605 138.327C762.605 141.044 760.823 142.387 757.505 142.387H717.139C713.821 142.387 712.171 141.044 712.171 138.327C712.171 137.204 712.404 136.382 712.936 135.796C713.471 135.241 714.887 134.336 717.139 133.313C720.538 131.636 722.437 129.575 723.421 126.909C724.254 124.177 724.788 118.642 724.788 110.293V79.2072Z" fill="white"/>
<path d="M80.9208 74.7469C80.6915 74.9694 80.4107 75.1309 80.1038 75.2168H80.0211C79.4695 75.2168 78.9541 75.1163 78.1871 74.981C77.2873 74.8146 76.0032 74.2944 76.0032 74.2944C73.3522 73.2384 69.7705 71.8131 65.6544 68.3418C62.4691 65.6594 60.6868 61.3662 60.7368 57.5099C60.7368 56.8059 60.7696 56.4366 60.8868 56.0014L60.9195 55.9182C61.1522 55.365 61.5866 55.1292 62.1864 55.1292C62.4691 55.1292 62.8362 55.1292 63.0189 55.3304L63.3189 55.4309C63.3189 55.4309 63.3861 55.4309 63.3861 55.4986C64.0704 55.9182 70.1359 60.5946 72.3025 62.6753C74.9363 65.2225 78.487 69.448 80.5537 72.1825C80.8208 72.4339 80.9208 72.7338 81.0535 72.9697V73.0026C81.3207 73.5731 81.3207 74.2944 80.9208 74.7469ZM85.8039 74.7469C82.5703 65.8605 72.0371 56.4366 64.6857 52.3965C64.3845 52.3311 64.111 52.1729 63.9032 51.944L63.836 51.8764C63.4206 51.5417 63.2534 51.1048 63.1689 50.4511C63.1689 50.0991 63.2534 49.7644 63.3861 49.5962V49.4281C63.4688 49.2616 63.6688 48.9582 63.9032 48.5403C65.2873 46.6451 67.3539 45.3048 69.5206 44.6667C72.2026 43.6281 74.4364 45.069 74.8363 46.2931C75.5861 48.4553 74.8363 50.7025 73.1695 52.8491C72.8869 52.967 72.8041 53.3866 72.8869 53.7889C72.8869 54.5258 73.5367 55.1292 74.3037 55.1292C74.8363 55.1292 75.1207 54.7946 75.4534 54.5258C77.3373 51.7758 78.6197 48.7241 77.2873 45.1695C76.3204 42.3189 72.0371 40.8104 68.4192 41.9496C65.8526 42.8391 63.836 44.4655 62.5191 45.8752C62.5191 45.8752 61.4694 47.1826 61.054 48.0531L61.0023 48.1207C60.6024 48.6582 60.0698 49.1281 59.3028 49.1281H59.0028C58.503 49.0934 57.9859 48.9582 57.536 48.6582L54.1025 47.0474V46.9641C53.4854 46.7457 53.1183 46.2099 53.0528 45.5388C53.0356 45.1695 53.1183 44.8349 53.3699 44.5661V44.4655C53.416 44.4453 53.4558 44.4128 53.4849 44.3716C53.514 44.3303 53.5315 44.2819 53.5354 44.2315C57.1034 40.9959 61.9865 35.2445 59.6027 28.7717C57.8687 24.0433 53.3699 20.572 49.7865 19.2975C48.835 18.812 47.9525 18.812 47.5181 19.2975C47.1682 19.6842 47.0683 20.0865 47.3182 21.6297C47.4027 22.0319 47.4027 22.1325 47.4027 22.3839C47.4526 22.9041 47.3182 23.3393 47.2355 23.7086V23.8092C46.9855 24.5461 46.5184 25.3004 45.8014 25.4859C45.3343 25.6871 44.5018 25.6871 43.502 24.5461C42.2024 23.2387 39.4359 20.572 38.3345 19.9183C37.0021 19.1484 34.3839 18.5433 33.1515 20.4211C32.0673 22.299 33.0515 24.1768 34.6511 25.2172C35.8008 26.0217 39.1015 26.6927 40.8028 27.2129H40.9183C41.2682 27.2962 41.4354 27.4643 41.768 27.5146C42.2179 27.9325 42.585 28.3018 42.7678 28.6712C42.9022 29.0075 43.0194 29.1913 43.0194 29.6768C43.0194 30.2473 42.7178 30.7848 41.768 31.0016H41.6526C40.6356 31.2877 39.8841 31.7576 39.8841 32.3089C39.8841 32.6627 40.0858 32.7286 40.2185 32.7962V32.9141C40.4512 33.0632 40.7183 33.3146 41.1182 33.6007C43.1021 34.5405 45.5515 36.434 46.6684 39.3175C47.4526 41.5144 47.2355 44.2974 45.0188 44.9857C43.502 45.5388 40.8028 44.4153 37.9519 41.8334C35.6025 40.3405 33.7841 38.2962 31.452 35.7803C29.4836 33.2661 27.4169 30.7848 23.9179 30.0288L23.7852 29.845C22.651 29.6768 21.4186 29.493 20.0517 29.4601C17.6007 29.4601 15.3996 29.7445 13.4829 30.4484H13.3829C12.4177 30.7848 11.9178 31.2547 11.6507 31.7576C11.1491 32.7962 11.6007 34.1538 12.4677 34.941C13.1439 35.538 13.6352 36.3181 13.8828 37.1882V37.2888C13.9345 37.8263 13.9345 38.2962 13.7673 38.7991C13.5778 39.1836 13.2952 39.5141 12.9455 39.7602C12.5958 40.0062 12.1903 40.1598 11.7661 40.207H11.1163C8.56704 40.207 5.90055 41.0445 3.81665 42.286C2.76695 42.6883 1.70001 43.6281 1.70001 43.6281H1.63279C0.016002 44.9684 -0.449381 47.0474 0.465879 48.3045C0.965738 48.9582 1.86721 49.2616 2.89967 49.1281C2.89967 49.1281 3.46675 49.1281 3.76667 49.0275C5.26625 48.5403 6.23322 47.8866 7.03299 47.3838C7.18295 47.2988 7.6673 47.0803 7.81726 47.0474C7.81726 47.0474 8.13268 46.8133 8.64978 46.7457C9.93217 46.6451 10.9164 47.7184 11.0164 48.9096V48.9582C11.0164 49.2616 11.0164 49.4281 10.8836 49.7644C10.2666 51.5417 9.93217 52.5474 10.4837 53.99C11.1491 55.9685 14.5326 57.4596 17.518 56.4366C20.8015 55.3304 22.4683 54.0403 25.4175 51.8764C27.1015 50.4511 31.9691 48.9096 34.901 48.4553C39.0016 47.8866 42.635 48.5403 43.3693 50.4511C43.9347 52.3965 43.502 53.99 41.2354 56.2702C39.1015 58.4168 35.9352 60.3102 33.0515 60.8633C32.5499 61.1997 32.1518 61.1997 31.8191 61.1997L31.7347 61.25C31.1503 61.3662 30.8849 61.7355 30.8022 62.0702C30.6832 62.5574 30.8849 62.9094 31.2176 63.3446C31.3381 63.4388 31.4732 63.5126 31.6174 63.5631C32.0673 63.7816 32.4517 64.1665 32.6344 64.4508L32.7671 64.5532C33.0171 64.7716 33.0515 65.056 33.0515 65.408C33.1515 65.9611 32.8016 66.4639 32.3845 66.7154H32.369C32.1518 66.8333 31.8191 66.9338 31.6674 67.0344C25.8691 69.1134 24.6849 69.5157 24.5677 70.6219C24.5022 73.5054 31.6174 75.2168 35.1509 73.4725C39.9513 70.6895 41.6525 70.1538 42.068 70.5057C42.8022 70.856 43.2521 71.8131 43.1021 74.0603C42.9522 76.0387 42.9022 76.6924 43.602 77.0271C43.7675 77.0271 44.3018 77.0271 44.8861 76.6924C44.8861 76.6924 46.7356 75.7526 49.0694 73.1552C51.2361 70.823 52.1686 68.0574 52.3702 65.056C52.403 61.1997 50.5035 55.6667 48.9195 52.3965C48.2852 50.8707 48.0352 50.2343 48.5351 49.3622C48.9195 48.9096 49.6693 48.5403 51.1016 49.1281L56.2519 51.6423C57.3033 52.2457 58.0859 52.967 58.0859 54.1912C58.1858 54.5258 58.0859 54.7946 57.9859 55.1292L57.8687 55.3304C56.9189 59.2196 57.6032 63.7816 60.2525 67.9222C64.0032 74.4123 71.0874 78.468 76.5703 80.514L76.7702 80.5487C78.0493 80.947 79.1769 81.7289 80.0021 82.7896C80.8274 83.8503 81.3109 85.1392 81.3879 86.4839C81.3879 87.0371 81.3879 87.5572 81.3207 88.1936L81.2207 88.2942C81.0535 89.5356 80.5537 90.7095 80.0883 91.7481C77.9699 95.5385 76.6203 95.2351 76.6203 95.2351C75.8378 95.353 75.1207 94.8328 75.0862 93.9953C75.0862 93.7942 75.0862 93.7439 75.1207 93.5428V93.5098C75.2707 92.8544 75.3534 92.2007 75.3534 91.4794C75.2593 90.682 75.0861 89.896 74.8363 89.1334C74.8363 89.0831 74.8363 88.8976 74.7191 88.7294C74.5036 88.2265 74.1537 87.6231 73.7366 87.2555C72.187 85.3101 69.9205 84.0356 67.2195 84.1709C64.7874 84.3373 62.7035 85.6447 61.4039 87.5572C61.4039 87.5572 61.4039 87.6231 61.3367 87.6907C61.2694 87.7913 61.1522 87.9266 61.1022 88.0774C60.0026 89.8703 59.7199 92.2336 60.5024 94.6993C61.7693 99.9653 66.9368 103.301 73.2195 101.775C81.1535 99.915 90.5043 87.5069 85.8039 74.7469Z" fill="white"/>
<path d="M798.924 73.0044V72.9715C799.074 72.7357 799.174 72.434 799.322 72.1826C801.441 69.4499 805.057 65.2243 807.625 62.6754C809.807 60.5964 815.874 55.9183 816.524 55.5004C816.524 55.4328 816.591 55.4328 816.591 55.4328L816.909 55.3322C817.141 55.1311 817.408 55.1311 817.791 55.1311C818.291 55.1311 818.825 55.3669 818.991 55.9183L819.073 56.0032C819.192 56.4384 819.241 56.8078 819.241 57.5117C819.258 61.368 817.408 65.6612 814.34 68.3436C810.307 71.8132 806.608 73.2403 803.923 74.2962C803.923 74.2962 802.59 74.8147 801.773 74.9829C801.023 75.1181 800.441 75.2169 799.956 75.2169H799.906C799.507 75.1181 799.241 74.9829 799.074 74.7488C798.622 74.2962 798.622 73.5749 798.924 73.0044ZM806.656 101.777C813.008 103.303 818.141 99.9671 819.475 94.7011C820.192 92.2355 819.908 89.8721 818.874 88.0775C818.825 87.9267 818.674 87.7931 818.641 87.6926C818.591 87.625 818.591 87.5591 818.591 87.5591C817.324 85.6465 815.157 84.3392 812.606 84.171C810.107 84.0374 807.79 85.3119 806.241 87.2574C805.833 87.6964 805.49 88.1929 805.224 88.7312C805.191 88.8994 805.139 89.0832 805.139 89.1352C804.891 89.9224 804.657 90.7096 804.507 91.4812C804.507 92.2025 804.657 92.8562 804.79 93.5117V93.5446C804.79 93.7457 804.891 93.796 804.891 93.9972C804.79 94.8346 804.14 95.3548 803.324 95.2369C803.324 95.2369 801.94 95.5404 799.906 91.75C799.322 90.7096 798.924 89.5375 798.622 88.296V88.1954C798.507 87.5591 798.507 87.0389 798.507 86.4858C798.672 83.6855 800.639 81.3551 803.207 80.5505L803.423 80.5158C808.925 78.4698 815.94 74.4141 819.741 67.924C822.324 63.7834 823.041 59.2214 822.009 55.3322L821.909 55.1311C821.892 54.7964 821.842 54.5276 821.842 54.1913C821.892 52.9688 822.541 52.2475 823.674 51.6441L828.874 49.1282C830.274 48.5421 831.025 48.9097 831.308 49.364C831.858 50.2362 831.591 50.8725 831.025 52.3984C829.408 55.6668 827.542 61.1998 827.592 65.0578C827.857 68.0575 828.659 70.8249 830.843 73.1553C833.275 75.7545 835.041 76.6925 835.041 76.6925C835.658 77.0289 836.16 77.0289 836.341 77.0289C837.01 76.6925 837.01 76.0388 836.891 74.0604C836.775 71.8132 837.125 70.8578 837.86 70.5076C838.325 70.1538 839.943 70.6914 844.677 73.4743C848.376 75.2169 855.443 73.5073 855.343 70.6237C855.343 69.5175 854.11 69.1152 848.258 67.0362C848.043 66.9357 847.843 66.8334 847.609 66.7172C847.126 66.4658 846.792 65.9629 846.926 65.4098C846.926 65.0578 846.959 64.7717 847.21 64.5532V64.4527C847.493 64.1683 847.908 63.7834 848.376 63.5649C848.376 63.5649 848.56 63.447 848.693 63.3464H848.777C849.077 62.9112 849.343 62.5592 849.175 62.072C849.077 61.7373 848.777 61.368 848.176 61.2518L848.126 61.1998C847.843 61.1998 847.41 61.1998 846.792 60.8652C844.11 60.312 840.826 58.4169 838.742 56.272C836.443 53.9919 835.943 52.3984 836.66 50.4529C837.358 48.5421 841.009 47.8884 845.092 48.4572C848.043 48.9097 852.843 50.4529 854.56 51.8782C857.509 54.0404 859.176 55.3322 862.46 56.4384C865.428 57.4615 868.828 55.9703 869.494 53.9919C870.026 52.5492 869.659 51.5436 869.059 49.7663C868.961 49.4299 868.961 49.2634 868.961 48.96V48.9097C869.059 47.7202 870.026 46.6469 871.226 46.7475C871.828 46.8151 872.16 47.0492 872.16 47.0492C872.327 47.0821 872.76 47.3006 872.927 47.3856C873.92 48.1081 875.023 48.6627 876.194 49.0276C876.561 49.1282 877.095 49.1282 877.095 49.1282C878.028 49.2634 878.927 48.96 879.494 48.3063C880.494 47.0492 879.961 44.9702 878.295 43.6299H878.227C878.227 43.6299 877.193 42.6901 876.094 42.2878C874.092 41.0463 871.359 40.2088 868.859 40.2088H868.194C867.774 40.1479 867.374 39.9886 867.027 39.7438C866.679 39.4989 866.393 39.1753 866.193 38.7992C865.96 38.2963 865.96 37.8281 866.126 37.2906V37.1901C866.293 36.4358 866.76 35.6486 867.493 34.9429C868.327 34.1557 868.859 32.798 868.327 31.7577C868.06 31.2548 867.527 30.7849 866.593 30.4503H866.462C864.593 29.7463 862.327 29.4619 860.06 29.4619C858.628 29.4949 857.309 29.6787 856.21 29.8469L855.977 30.0307C852.511 30.7849 850.492 33.2679 848.376 35.7821C846.159 38.2963 844.359 40.3424 842.124 41.8353C839.125 44.4171 836.443 45.5407 834.941 44.9876C832.675 44.2992 832.475 41.5162 833.325 39.3193C834.392 36.4358 836.891 34.5406 838.859 33.6026C839.192 33.3165 839.526 33.065 839.692 32.9142L839.809 32.798C839.893 32.7304 840.059 32.6628 840.059 32.3108C840.059 31.7577 839.275 31.2878 838.325 31.0034H838.227C837.275 30.7849 836.975 30.2491 836.943 29.6787C836.975 29.1932 837.01 29.0076 837.21 28.673C837.358 28.3037 837.775 27.9343 838.227 27.5165C838.442 27.4662 838.742 27.298 839.075 27.2148H839.125C840.826 26.6946 844.208 26.0235 845.344 25.219C846.926 24.1786 847.86 22.3008 846.792 20.4229C845.525 18.5451 842.96 19.1485 841.626 19.9201C840.474 20.5738 837.775 23.2406 836.558 24.548C835.493 25.6889 834.609 25.6889 834.159 25.4878C833.507 25.3022 832.875 24.548 832.675 23.811V23.7105C832.525 23.3411 832.475 22.9042 832.525 22.3857V21.6315H832.625C832.875 20.0883 832.742 19.686 832.375 19.2994C831.958 18.8139 831.175 18.8139 830.176 19.2994C826.575 20.5738 822.107 24.0451 820.358 28.7736C817.974 35.2463 822.791 40.9978 826.375 44.2333C826.414 44.3176 826.465 44.3963 826.525 44.4674L826.575 44.5679C826.725 44.8367 826.875 45.1714 826.875 45.5407C826.725 46.2117 826.473 46.7475 825.841 46.966V47.0492L822.509 48.6583C821.909 48.96 821.44 49.0952 821.009 49.1282H820.59C819.875 49.1282 819.341 48.6583 818.991 48.1225L818.874 48.0549C818.408 47.1827 817.357 45.8753 817.357 45.8753C816.092 44.4674 814.175 42.841 811.524 41.9514C807.958 40.8122 803.69 42.3208 802.59 45.1714C801.356 48.7259 802.44 51.7776 804.507 54.5276C804.79 54.7964 805.191 55.1311 805.691 55.1311C806.439 55.1311 807.075 54.5277 807.075 53.789C807.141 53.3885 807.075 52.9688 806.858 52.8509C805.191 50.7043 804.357 48.4572 805.139 46.2949C805.691 45.0708 807.74 43.6299 810.457 44.6685C812.606 45.3049 814.707 46.6469 816.042 48.5421C816.324 48.96 816.441 49.2634 816.524 49.4299V49.5981C816.674 49.7663 816.741 50.1009 816.741 50.4529C816.674 51.1066 816.441 51.5436 816.092 51.8782L816.042 51.9458C815.845 52.1559 815.598 52.3117 815.325 52.3984C808.058 56.4384 797.357 65.8624 794.172 74.7488C789.421 87.5088 798.84 99.9168 806.656 101.777Z" fill="white"/>
</g>
<defs>
<clipPath id="clip0_2_18">
<rect width="880" height="192" fill="white"/>
</clipPath>
</defs>
</svg>
