<svg xmlns="http://www.w3.org/2000/svg" width="403.89117mm" height="87.599274mm" viewBox="0 0 403.89117 87.599274"><path d="M0 0h4.013c.59 0 .948.039.948.213 0 .301-.116.619-.358 1.123l-2.34 5.299c-.174.164-.242.213-.261.213-.116 0-.242-.174-.3-.35L-.58 1.336C-.822.832-.918.484-.918.213-.918.039-.58 0 0 0m4.922-1.613H-.822c-.783 0-1.334-.688-1.857-2.08-.319-1.141-.56-1.953-.56-2.301 0-.58.27-1.123.841-1.432.242-.125.745-.262 1.48-.445.551-.193.841-.328.841-.59 0-.193-.164-.338-.503-.396.184.019-.174.058-1.073.058-.242 0-.716 0-1.316.039-.609.057-1.083.057-1.43.057-.281 0-.658 0-1.267-.096a21.007 21.007 0 0 0-1.257-.058c-.59 0-.91.097-.91.271 0 .213.32.482.91.773.618.319 1.064.774 1.344 1.432l7.948 17.783c.28.647.503.957.745.957.145 0 .387-.31.618-.92l7.92-17.957c.3-.609.667-1.033 1.064-1.17.106-.066.474-.183 1.064-.279.261-.058.464-.154.464-.494a.397.397 0 0 0-.3-.377c-.077 0-.319-.019-.812-.019-.271 0-.803.019-1.557.058-.764.096-1.509.096-2.195.096-.464 0-1.035 0-1.789-.096a29.48 29.48 0 0 0-1.48-.058c-.57 0-.85.097-.85.33 0 .25.3.502 1.015.888.677.291 1.025.803 1.025 1.442 0 .472-.164 1.131-.493 1.992-.242.492-.454 1.072-.697 1.596-.299.617-.715.996-1.189.996" style="fill:#00243d;fill-opacity:1;fill-rule:nonzero;stroke:none" transform="matrix(.7911 0 0 -.7911 103.67 80.447)"/><path d="M0 0v-5.436c0-.56.106-.947.502-1.226.126-.068.397-.203.861-.397.358-.078.474-.173.474-.464 0-.291-.116-.446-.416-.446-.145 0-.416.02-.967.059-.56.096-1.006.096-1.615.096s-1.199 0-1.75-.096a22.972 22.972 0 0 0-.87-.059c-.358 0-.503.098-.503.367 0 .137.145.387.513.62.425.252.57.697.57 1.316v5.26c0 1.265-.145 2.205-.619 2.726-.319.407-.918.61-1.644.61-.735 0-1.344-.233-1.721-.705-.309-.37-.406-.698-.406-1.065v-6.652c0-.561.126-.891.445-1.17.067-.068.416-.137.966-.397.359-.117.484-.252.484-.543 0-.269-.319-.367-1.015-.367-.319 0-.754.02-1.373.059-.648.096-1.112.096-1.345.096-.28 0-.609 0-1.073-.096a12.837 12.837 0 0 0-.986-.059c-.319 0-.484.02-.503.02-.135.039-.194.183-.194.377 0 .261.233.396.697.59.454.183.706.523.706 1.005v7.504c0 .504-.31.881-.928.987-.629.078-.929.213-.929.484 0 .231.164.318.377.406.136.086.484.135 1.141.328.987.272 1.751.493 2.37.793.493.377.783.483.783.483.222 0 .377-.174.377-.598V2.93C-6.45 4.1-5.212 4.797-3.897 4.797c1.402 0 2.504-.717 3.501-2.07.976 1.353 2.301 2.07 3.925 2.07 1.596 0 2.659-.504 3.346-1.51.474-.773.716-2.127.716-3.771v-5.008c0-.737.27-1.065.899-1.307.59-.279.928-.433.928-.685 0-.33-.338-.485-.928-.485-.155 0-.512.02-.832.059-.445.096-.706.096-.889.096-.397 0-.957 0-1.644-.096a41.67 41.67 0 0 0-1.199-.059c-.416 0-.639.155-.639.397 0 .183.203.396.542.648.425.194.619.541.619.774v5.318c0 1.209-.087 2.107-.3 2.631-.319.812-1.035 1.275-2.041 1.275C.725 3.074 0 2.031 0 0" style="fill:#00243d;fill-opacity:1;fill-rule:nonzero;stroke:none" transform="matrix(.7911 0 0 -.7911 125.013 81.15)"/><path d="M0 0h4.226c.271 0 .474 0 .551.076.106.137.145.358.145.697 0 .676-.222 1.305-.657 1.866-.513.648-1.209 1.015-2.002 1.015-.793 0-1.412-.367-1.857-1.045-.348-.541-.57-1.255-.57-2.029C-.164.213-.077 0 0 0m7.64-1.025H.493c-.28 0-.56 0-.57-.079-.039-.048-.087-.251-.087-.666 0-1.306.454-2.378 1.257-3.414.793-.927 1.827-1.392 3.075-1.392.628 0 1.412.271 2.224.803.87.511 1.248.763 1.325.763.251 0 .309-.097.309-.328 0-.484-.493-1.142-1.567-1.779-1.266-.871-2.514-1.287-3.848-1.287-1.595 0-2.872.455-3.955 1.422-1.199 1.064-1.779 2.552-1.779 4.41 0 1.914.493 3.461 1.44 4.873C-.667 3.752.851 4.545 2.582 4.545c1.721 0 3.133-.697 4.168-1.906.86-.977 1.276-2.002 1.276-3.055 0-.397-.058-.609-.386-.609" style="fill:#00243d;fill-opacity:1;fill-rule:nonzero;stroke:none" transform="matrix(.7911 0 0 -.7911 135.516 80.95)"/><path d="M0 0v-3.945c0-.774.174-1.432.619-1.662.3-.204.687-.377 1.344-.524.406-.154.648-.25.648-.502 0-.33-.087-.484-.454-.484-.155 0-.678.019-1.538.058-.831.096-1.441.096-1.74.096-.523 0-1.093 0-1.732-.096a26.493 26.493 0 0 0-1.227-.058c-.319 0-.513.058-.513.232 0 .272.135.522.367.561.377.193.59.377.716.445.184.299.329.754.329 1.373v6.885c0 .504-.29.881-.938.986-.648.078-.938.213-.938.485 0 .23.106.318.29.406.174.086.541.135 1.161.328.996.271 1.817.492 2.446.793.503.377.754.482.783.482.223 0 .377-.173.377-.597V2.959c1.402 1.799 2.476 2.689 2.988 2.689.329 0 .851-.271 1.412-.793.619-.484.871-.775.871-1.113 0-.56-.175-1.053-.542-1.615-.348-.551-.667-.898-.948-.898-.106 0-.406.242-.793.628-.406.397-.899.6-1.509.6C.455 2.457 0 1.645 0 0" style="fill:#00243d;fill-opacity:1;fill-rule:nonzero;stroke:none" transform="matrix(.7911 0 0 -.7911 146.662 81.823)"/><path d="M0 0c0-.281-.319-.688-.803-1.307-.599-.656-.976-.986-1.15-.986-.213 0-.619.33-1.161.986-.512.619-.774 1.026-.774 1.307 0 .211.262.666.774 1.344.551.619.948.986 1.161.986.174 0 .551-.367 1.15-.986C-.319.666 0 .211 0 0m-3.568-15.502v7.504c0 .504-.32.881-.977.986-.551.078-.928.213-.928.416 0 .299.155.387.377.475.077.047.484.135 1.151.308.986.272 1.779.465 2.349.813.523.377.793.482.793.482.261 0 .397-.211.397-.597v-9.903c0-.56.174-.939.57-1.17 0-.068.387-.136.996-.396.3-.117.561-.252.561-.543 0-.269-.493-.367-1.218-.367-.339 0-.822.019-1.422.058-.647.096-1.131.096-1.383.096-.261 0-.618 0-1.112-.096a12.646 12.646 0 0 0-1.073-.058c-.348 0-.561.019-.561.019-.145.039-.242.184-.242.377 0 .262.271.397.832.59.609.184.89.524.89 1.006" style="fill:#00243d;fill-opacity:1;fill-rule:nonzero;stroke:none" transform="matrix(.7911 0 0 -.7911 155.506 73.614)"/><path d="M0 0c0 2.01.667 3.693 2.021 5.018C3.355 6.4 4.999 7.117 6.962 7.117c.745 0 1.499-.193 2.253-.504.929-.386 1.431-1.006 1.431-1.74 0-.232-.309-.6-.86-1.074-.648-.473-1.045-.705-1.306-.705-.164 0-.271.115-.338.386-.251.842-.503 1.432-.841 1.77-.378.455-.919.695-1.663.695-1.809 0-2.728-1.304-2.728-3.935 0-1.547.397-2.901 1.112-4.061.861-1.295 1.925-1.953 3.211-1.953.658 0 1.392.272 2.253.803.851.512 1.286.763 1.421.763.175 0 .233-.097.233-.328 0-.484-.552-1.142-1.616-1.779-1.208-.871-2.513-1.287-3.886-1.287-1.616 0-2.998.551-4.043 1.693C.57-3.037 0-1.664 0 0" style="fill:#00243d;fill-opacity:1;fill-rule:nonzero;stroke:none" transform="matrix(.7911 0 0 -.7911 157.311 82.985)"/><path d="M0 0V3.715c0 .115-.125.203-.232.203-.706 0-1.393-.203-2.099-.727-.899-.619-1.334-1.373-1.334-2.214 0-1.344.484-1.973 1.538-1.973.454 0 .889.107 1.286.203C-.29-.541 0-.328 0 0m3.171 5.9V.803c0-.803.01-1.266.088-1.518.058-.174.3-.281.658-.281.154 0 .29.049.463.107.271.039.397.039.455.039.174 0 .338-.039.338-.252 0-.261-.396-.638-1.034-1.035-.697-.377-1.286-.58-1.838-.58-.996 0-1.605.58-1.876 1.828-1.46-1.248-3.026-1.828-4.525-1.828-.841 0-1.528.242-2.06.842C-6.653-1.4-6.923-.793-6.923 0c0 1.576.763 2.766 2.33 3.539.532.291 2.059.793 4.593 1.412 0 1.412-.145 2.487-.377 3.076-.377.793-1.083 1.209-2.157 1.209-.609 0-1.034-.175-1.131-.484-.145-.213-.184-.619-.184-1.18 0-.888-.696-1.363-2.098-1.363-.503 0-.745.193-.745.629 0 1.15.668 2.002 1.915 2.601.967.522 2.147.793 3.413.793 3.008 0 4.535-1.48 4.535-4.332" style="fill:#00243d;fill-opacity:1;fill-rule:nonzero;stroke:none" transform="matrix(.7911 0 0 -.7911 172.473 85.45)"/><path d="M0 0v6.701c0 .504-.348.881-.947.987-.668.078-.958.212-.958.484 0 .23.116.318.329.406.106.086.571.135 1.122.328.976.272 1.779.492 2.456.793.464.377.773.483.793.483.203 0 .329-.174.329-.598V7.9h.058c.822 1.354 2.146 2.071 3.945 2.071 1.489 0 2.63-.619 3.452-1.694.657-.996 1.025-2.244 1.025-3.828V-.299c0-.504.155-.91.474-1.258.107-.068.416-.252.793-.406.367-.078.522-.252.522-.435 0-.243-.193-.397-.677-.397-.309 0-.783.02-1.383.059-.512.095-.947.095-1.083.095-.328 0-.754 0-1.218-.095-.59-.039-.87-.059-.957-.059H7.33c-.164.02-.242.154-.242.367 0 .117.242.387.696.737.465.328.658.636.658 1.101v5.039c0 2.377-.948 3.615-2.872 3.615-1.625 0-2.446-.937-2.446-2.814V-.262c0-.463.212-.849.599-1.121.155-.105.503-.242 1.131-.502.407-.117.552-.252.552-.513 0-.243-.261-.397-.9-.397-1.324.098-2.204.154-2.852.154-.329 0-.871 0-1.499-.095a29.004 29.004 0 0 0-1.383-.059c-.28 0-.387.098-.387.272 0 .232.145.464.484.521.309.193.561.377.677.445C-.154-1.15 0-.686 0 0" style="fill:#00243d;fill-opacity:1;fill-rule:nonzero;stroke:none" transform="matrix(.7911 0 0 -.7911 178.187 85.243)"/><path d="M0 0v-4.865c0-.377-.271-.59-.705-.59-.068 0-.301.59-.783 1.703-.504 1.266-1.248 2.272-2.138 2.998C-5.027.367-6.807.928-9.089.928c-1.722 0-3.143-.6-4.304-1.799-1.537-1.615-2.301-4.022-2.301-7.406 0-2.34.581-4.313 1.595-6.19 1.296-2.068 3.018-3.133 5.194-3.133 2.34 0 3.858.493 4.651 1.422.464.61.715 1.557.715 2.756 0 1.334-.309 2.242-.928 2.727-.319.308-.889.484-1.635.55-.608.049-.927.165-.927.377 0 .377.154.6.57.62h.86c.436 0 1.132 0 2.099-.02.88-.049 1.537-.096 2.012-.096.386 0 .927.047 1.624.096.677.02 1.199.02 1.547.02.222 0 .299-.116.299-.348 0-.348-.173-.541-.521-.649a2.03 2.03 0 0 1-.967-.55C.193-11.111 0-11.875 0-12.949c0-.473 0-1.014.059-1.518v-.928c0-.455-.087-.648-.252-.783-3.52-1.867-6.585-2.843-9.273-2.843-3.704 0-6.421 1.402-8.104 4.033-1.199 1.759-1.808 3.742-1.808 5.771 0 2.873.822 5.426 2.427 7.572 1.992 2.573 4.632 3.84 8.007 3.84 1.199 0 2.408-.146 3.529-.455.745-.281 1.538-.56 2.389-.986.793-.301 1.237-.475 1.44-.475.213 0 .397.147.619.455.233.252.406.387.542.387C-.164 1.121 0 .734 0 0" style="fill:#00243d;fill-opacity:1;fill-rule:nonzero;stroke:none" transform="matrix(.7911 0 0 -.7911 206.89 72.551)"/><path d="M0 0v-3.945c0-.774.203-1.432.639-1.662.29-.204.676-.377 1.325-.524.434-.154.676-.25.676-.502 0-.33-.155-.484-.435-.484-.213 0-.745.019-1.566.058-.813.096-1.432.096-1.751.096-.551 0-1.102 0-1.77-.096a23.212 23.212 0 0 0-1.198-.058c-.349 0-.532.058-.532.232 0 .272.154.522.347.561.387.193.668.377.745.445.223.299.377.754.377 1.373v6.885c0 .504-.309.881-.937.986-.667.078-.968.213-.968.485 0 .23.098.318.301.406.135.086.56.135 1.17.328.986.271 1.76.492 2.388.793.502.377.754.482.802.482.233 0 .387-.173.387-.597V2.959c1.422 1.799 2.437 2.689 3.018 2.689.377 0 .87-.271 1.42-.793.59-.484.9-.775.9-1.113 0-.56-.213-1.053-.6-1.615-.367-.551-.686-.898-.927-.898-.097 0-.388.242-.793.628-.397.397-.929.6-1.519.6C.474 2.457 0 1.645 0 0" style="fill:#00243d;fill-opacity:1;fill-rule:nonzero;stroke:none" transform="matrix(.7911 0 0 -.7911 213.063 81.823)"/><path d="M0 0c0-.281-.29-.688-.803-1.307-.522-.656-.919-.986-1.15-.986-.281 0-.629.33-1.142.986-.551.619-.793 1.026-.793 1.307 0 .211.242.666.793 1.344.513.619.919.986 1.142.986.231 0 .628-.367 1.15-.986C-.29.666 0 .211 0 0m-3.568-15.502v7.504c0 .504-.29.881-.9.986-.667.078-.996.213-.996.416 0 .299.146.387.368.475.106.047.502.135 1.112.308.996.272 1.808.465 2.408.813.493.377.773.482.773.482.32 0 .416-.211.416-.597v-9.903c0-.56.135-.939.484-1.17.106-.068.434-.136.996-.396.357-.117.59-.252.59-.543 0-.269-.416-.367-1.219-.367-.29 0-.754.019-1.363.058-.677.096-1.103.096-1.393.096-.29 0-.618 0-1.073-.096a15.323 15.323 0 0 0-1.103-.058c-.367 0-.59.019-.59.019-.164.039-.26.184-.26.377 0 .262.328.397.927.59.533.184.823.524.823 1.006" style="fill:#00243d;fill-opacity:1;fill-rule:nonzero;stroke:none" transform="matrix(.7911 0 0 -.7911 221.914 73.614)"/><path d="M0 0v15.328c0 .483-.203.83-.464 1.004-.174.078-.474.137-.986.272-.359.019-.503.134-.503.406 0 .193.144.347.377.445.638.184 1.305.397 1.895.502.87.348 1.49.619 1.983.891.386.213.551.318.677.318.183 0 .222-.105.222-.377 0 0-.039-.328-.039-.773V-.096c0-.55.136-1.015.532-1.353.136-.137.503-.321.996-.514.415-.115.551-.289.551-.426 0-.269-.174-.367-.551-.367-.242 0-.774.02-1.625.059-.84.095-1.42.095-1.702.095-.241 0-.657 0-1.363-.095a33.33 33.33 0 0 0-1.286-.059c-.319 0-.484.059-.484.233 0 .271.117.425.436.521.396.039.657.232.89.379C-.203-1.344 0-.764 0 0" style="fill:#00243d;fill-opacity:1;fill-rule:nonzero;stroke:none" transform="matrix(.7911 0 0 -.7911 225.004 85.274)"/><path d="M0 0v15.328c0 .483-.116.83-.483 1.004-.087.078-.397.137-.949.272-.318.019-.502.134-.502.406 0 .193.135.347.426.445.628.184 1.257.397 1.856.502.9.348 1.548.619 2.031.891.309.213.522.318.657.318.107 0 .175-.105.175-.377v-.773c-.068-.475-.068-.928-.068-1.315V-.096c0-.55.203-1.015.57-1.353.183-.137.484-.321 1.016-.514.338-.115.55-.289.55-.426 0-.269-.241-.367-.618-.367-.183 0-.686.02-1.518.059-.871.095-1.451.095-1.789.095-.232 0-.667 0-1.325-.095a26.322 26.322 0 0 0-1.248-.059c-.338 0-.511.059-.511.233 0 .271.173.425.454.521.396.039.706.232.86.379C-.116-1.344 0-.764 0 0" style="fill:#00243d;fill-opacity:1;fill-rule:nonzero;stroke:none" transform="matrix(.7911 0 0 -.7911 230.949 85.274)"/><path d="M0 0c.647 0 1.354.107 2.263.301.851.271 1.286.56 1.286.773 0 .145-.619.725-1.818 1.692a49.623 49.623 0 0 0-3.917 3.289c-1.576 1.439-2.755 2.929-3.452 4.177-.318.581-.58.86-.773.86-.397 0-.851-.25-1.334-.676a3.546 3.546 0 0 1-.871-2.379c0-1.769.871-3.502 2.621-5.223C-4.139.959-2.186 0 0 0m-11.284 5.328c0 1.615.405 2.942 1.131 3.994.59.754 1.247 1.491 2.156 2.041l1.199.696c0 .078-.097.464-.319.976-.145.57-.271 1.19-.271 1.887 0 1.353.493 2.455 1.432 3.365.898.832 2.117 1.209 3.51 1.209.706 0 1.576-.146 2.552-.57a38.213 38.213 0 0 1 1.625-.504c.125 0 .299.058.397.252.251.086.348.135.551.135.183 0 .29-.135.29-.522 0-.658.183-2.146.434-4.516.039-.359-.134-.57-.434-.57-.241 0-.377.309-.561.754-.378 1.275-.968 2.32-1.761 3.074-.86.891-1.923 1.393-3.093 1.393-1.393 0-2.118-.754-2.118-2.186 0-1.238.87-2.959 2.553-5.037a41.594 41.594 0 0 1 4.873-5.115c1.731-1.549 2.776-2.283 3.076-2.283.067 0 .27.271.637.851.32.676.475 1.403.475 2.108 0 1.074-.252 1.808-.891 2.263-.251.184-.811.407-1.566.512-.551.125-.899.281-.899.541 0 .34.213.436.58.436.048 0 .397 0 .987-.076.647 0 1.324-.02 1.992-.02.638 0 1.16.02 1.624.02.464.076.755.076.86.076.3 0 .475-.096.475-.367 0-.194-.175-.397-.571-.485-.368-.154-.541-.443-.551-.773-.213-1.295-.503-2.34-.793-3.356-.213-.646-.406-1.265-.667-1.769l-.436-.647c0-.543.61-1.113 1.712-1.789.996-.658 1.798-.947 2.253-.947.406 0 .783.076 1.035.154.202.039.387.057.483.057.271 0 .358-.057.358-.387 0-.23-.329-.607-.996-1.082a4.364 4.364 0 0 0-2.61-.842c-1.345 0-3.008.764-4.758 2.293C3.819-.23 2.698-.744 1.247-1.207 0-1.518-1.247-1.721-2.523-1.721c-3.046 0-5.242.92-6.857 2.582-1.296 1.393-1.904 2.844-1.904 4.467" style="fill:#00243d;fill-opacity:1;fill-rule:nonzero;stroke:none" transform="matrix(.7911 0 0 -.7911 247.885 86.238)"/><path d="m0 0-.871 3.926c-.097.426-.145.695-.145.793 0 .328.164.56.464.56.3 0 .552-.281.648-.724C1.324.918 3.297-.852 6.14-.852c1.189 0 2.185.319 2.94.948.715.697 1.141 1.625 1.141 2.795 0 1.111-.541 1.904-1.596 2.63-.28.135-1.934.977-5.019 2.292-1.44.638-2.417 1.314-3.045 1.914-.813.832-1.151 2.002-1.151 3.423 0 1.694.474 3.057 1.547 4.159 1.111 1.084 2.456 1.654 4.178 1.654.937 0 1.875-.147 2.833-.57.928-.389 1.527-.59 1.673-.59.144 0 .386.105.744.24.386.184.629.213.716.213.212 0 .309-.067.367-.252.029-.25.067-.58.067-.811l.311-3.955c.018-.687-.108-1.035-.707-1.035-.058 0-.271.492-.725 1.469-.483 1.142-1.035 2.031-1.692 2.611-1.006.987-2.166 1.412-3.646 1.412-1.006 0-1.779-.308-2.34-.822-.599-.512-.909-1.285-.909-2.31 0-.833.426-1.547 1.325-2.061.261-.203 1.721-.82 4.177-1.943 1.809-.754 3.008-1.557 3.752-2.33.89-.958 1.267-2.331 1.267-4.051 0-1.897-.551-3.453-1.76-4.604-1.18-1.248-2.805-1.828-4.699-1.828-.754 0-1.625.145-2.592.416-.754.213-1.596.504-2.427.658-.309.096-.532.242-.696.348C.164-.764.096-.426 0 0" style="fill:#00243d;fill-opacity:1;fill-rule:nonzero;stroke:none" transform="matrix(.7911 0 0 -.7911 262.206 85.816)"/><path d="M0 0V3.715c0 .115-.058.203-.174.203-.725 0-1.47-.203-2.176-.727-.86-.619-1.266-1.373-1.266-2.214 0-1.344.483-1.973 1.547-1.973.396 0 .86.107 1.247.203C-.271-.541 0-.328 0 0m3.123 5.9V.803c0-.803.059-1.266.136-1.518.087-.174.3-.281.677-.281.086 0 .27.049.463.107.272.039.368.039.436.039.213 0 .319-.039.319-.252 0-.261-.319-.638-.986-1.035-.706-.377-1.306-.58-1.818-.58-1.035 0-1.683.58-1.867 1.828-1.517-1.248-3.016-1.828-4.593-1.828-.889 0-1.441.242-2.04.842C-6.644-1.4-6.904-.793-6.904 0c0 1.576.754 2.766 2.292 3.539.57.291 2.079.793 4.612 1.412 0 1.412-.146 2.487-.416 3.076-.329.793-1.073 1.209-2.117 1.209-.6 0-.978-.175-1.083-.484-.155-.213-.184-.619-.184-1.18 0-.888-.725-1.363-2.098-1.363-.542 0-.746.193-.746.629 0 1.15.6 2.002 1.886 2.601 1.016.522 2.138.793 3.452.793 3.018 0 4.429-1.48 4.429-4.332" style="fill:#00243d;fill-opacity:1;fill-rule:nonzero;stroke:none" transform="matrix(.7911 0 0 -.7911 278.638 85.45)"/><path d="M0 0v15.328c0 .483-.223.83-.522 1.004-.107.078-.397.137-.938.272-.339.019-.513.134-.513.406 0 .193.097.347.454.445.6.184 1.229.397 1.868.502.85.348 1.478.619 1.991.891.329.213.522.318.648.318.145 0 .164-.105.164-.377v-.773c-.019-.475-.019-.928-.019-1.315V-.096c0-.55.136-1.015.513-1.353.173-.137.55-.321 1.025-.514.425-.115.6-.289.6-.426 0-.269-.223-.367-.62-.367-.213 0-.763.02-1.605.059-.851.095-1.402.095-1.702.095-.241 0-.697 0-1.344-.095a27.822 27.822 0 0 0-1.267-.059c-.338 0-.474.059-.474.233 0 .271.136.425.435.521.387.039.677.232.87.379C-.223-1.344 0-.764 0 0" style="fill:#00243d;fill-opacity:1;fill-rule:nonzero;stroke:none" transform="matrix(.7911 0 0 -.7911 284.414 85.274)"/><path d="M0 0V3.715c-.059.115-.135.203-.232.203-.725 0-1.46-.203-2.196-.727-.85-.619-1.275-1.373-1.275-2.214 0-1.344.502-1.973 1.557-1.973.454 0 .86.107 1.314.203C-.329-.541 0-.328 0 0m3.113 5.9V.803c0-.803.049-1.266.116-1.518.107-.174.31-.281.629-.281.164 0 .339.049.484.107.242.039.426.039.455.039.231 0 .299-.039.299-.252 0-.261-.328-.638-.996-1.035-.686-.377-1.305-.58-1.857-.58-.957 0-1.556.58-1.837 1.828-1.479-1.248-2.998-1.828-4.622-1.828-.755 0-1.412.242-1.954.842C-6.682-1.4-6.934-.793-6.934 0c0 1.576.764 2.766 2.245 3.539.667.291 2.136.793 4.689 1.412 0 1.412-.135 2.487-.416 3.076-.397.793-1.054 1.209-2.117 1.209-.668 0-1.055-.175-1.17-.484-.126-.213-.146-.619-.146-1.18 0-.888-.754-1.363-2.146-1.363-.493 0-.745.193-.745.629 0 1.15.648 2.002 1.925 2.601 1.034.522 2.175.793 3.461.793 2.998 0 4.467-1.48 4.467-4.332" style="fill:#00243d;fill-opacity:1;fill-rule:nonzero;stroke:none" transform="matrix(.7911 0 0 -.7911 294.473 85.45)"/><path d="M0 0v5.938c-.793 1.304-1.866 1.933-3.229 1.933-1.026 0-1.809-.504-2.273-1.508-.387-.822-.609-1.759-.609-2.949 0-1.172.329-2.283.928-3.414.696-1.334 1.634-2.09 2.756-2.09.889 0 1.528.33 2.011.736C-.146-1.17 0-.697 0 0m0 8.143v5.898c0 .59-.223 1.006-.522 1.217a7.65 7.65 0 0 1-.967.203c-.32.049-.503.166-.503.475 0 .212.368.494 1.093.697 1.248.211 2.311.656 3.278 1.236.203.174.387.223.474.223.183 0 .242-.242.242-.803V-.465c0-.705.183-1.199.502-1.392.155-.155.504-.243.996-.329.261 0 .445-.134.445-.406 0-.193-.396-.445-1.15-.56-1.306-.282-2.071-.446-2.302-.524-.735-.25-1.112-.338-1.237-.338-.165 0-.252.145-.291.416C.038-3.434 0-2.844 0-2.09c-1.267-1.295-2.62-1.924-4.119-1.924-1.509 0-2.669.58-3.462 1.828C-8.307-1.17-8.654.059-8.654 1.682c0 .677.018 1.277.183 1.838.367 1.507 1.006 2.755 2.011 3.722 1.055 1.074 2.341 1.694 3.791 1.694 1.219 0 2.147-.311 2.669-.793" style="fill:#00243d;fill-opacity:1;fill-rule:nonzero;stroke:none" transform="matrix(.7911 0 0 -.7911 305.634 84.424)"/><path d="m0 0-4.573-18.518c2.369-3.297 4.486-7.571 6.121-12.735 1.14 2.611 2.63 5.377 4.457 8.364zm8.2-31.253c-.976-1.548-2.349-4.602-4.264-8.954-.6-1.615-1.615-2.477-2.92-2.477-1.547 0-2.534 1.006-2.94 2.941-1.141 4.835-2.795 9.099-5.057 12.784-1.334-4.942-2.959-9.845-4.971-14.621-2.301-5.522-5.038-10.019-8.103-13.471-3.104-3.664-7.069-5.443-11.739-5.443-3.008 0-5.551 1.015-7.601 3.133-2.378 2.33-3.491 5.356-3.491 8.972 0 3.134.89 5.88 2.65 8.123 1.808 2.205 3.955 3.269 6.507 3.269.89 0 1.451-.097 1.761-.29.348-.3.618-.88.908-1.701.697-2.032 1.915-2.969 3.685-2.969 1.905 0 3.81 1.092 5.841 3.336 1.353 1.527 2.581 3.578 3.664 6.014 1.064 2.437 2.611 6.518 4.555 12.271-1.296.783-2.553 1.257-3.694 1.257-.996 0-1.847-.358-2.514-1.025-.638-.647-.977-1.479-.977-2.485 0-.522.126-1.228.416-2.282.029-.252.058-.397.058-.677 0-1.315-1.044-2.05-3.037-2.05-1.827 0-3.2.774-4.389 2.263-1.152 1.47-1.712 3.249-1.712 5.492 0 3.337 1.17 6.034 3.626 8.22 1.876 1.702 4.139 2.572 6.653 2.572 2.727 0 5.406-.967 8.016-2.94L-7.765.029c.823 3.085 1.209 5.512 1.209 7.243 0 1.566-.242 2.911-.822 4.022-.57 1.142-1.576 2.437-3.056 3.946-1.363 1.431-2.03 2.611-2.03 3.5 0 .87.241 1.557.841 2.186.609.599 1.276.889 2.069.889.552 0 1.519-.29 2.998-.832 4.159-1.546 7.465-2.368 9.921-2.368 2.486 0 5.609.783 9.516 2.311 1.479.599 2.591.889 3.374.889 1.915 0 2.824-.889 2.824-2.765 0-.987-.677-2.109-2.002-3.23-2.466-2.243-3.693-4.854-3.693-7.62 0-1.199.222-2.843.812-5.038l11.951-45.119c.89-3.086 1.78-5.397 2.825-6.992.957-1.547 2.32-2.805 4.09-3.81 1.102-.677 1.721-1.122 2.069-1.45.28-.367.406-.929.406-1.605 0-1.721-1.373-2.631-4.168-2.631H11.227c-2.098 0-3.162.735-3.162 2.244 0 .947.648 1.818 1.789 2.572 1.75 1.064 2.591 2.417 2.591 4.041 0 .871-.222 2.447-.734 4.545z" style="fill:#00243d;fill-opacity:1;fill-rule:nonzero;stroke:none" transform="matrix(.7911 0 0 -.7911 77.752 18.727)"/><path d="M0 0c3.23 0 7.494-1.209 12.948-3.404 3.211-1.431 5.522-2.069 6.963-2.069.561 0 1.576.155 2.968.619.3 0 .6.019.88.019.687 0 1.258-.222 1.779-.851.542-.58.774-1.315.774-2.069 0-1.18-1.005-2.669-3.007-4.487-3.394-3.046-6.005-6.633-7.727-10.656-.899-1.963-1.973-2.959-3.268-2.959-1.189 0-2.089.87-2.814 2.669-2.137 5.821-5.395 8.751-9.593 8.751-2.175 0-3.848-.745-5.318-2.234-1.412-1.402-2.098-3.249-2.098-5.415 0-2.321.899-4.139 2.746-5.493 1.847-1.296 5.976-2.968 12.174-5.047 5.783-1.963 9.989-4.062 12.755-6.218 6.072-4.796 9.148-11.352 9.148-19.621 0-7.465-2.689-13.596-8.084-18.459-5.425-4.845-12.387-7.242-20.82-7.242-7.968 0-14.737 1.914-20.413 5.83-2.572 1.77-4.593 4.033-6.131 6.77-1.46 2.785-2.185 5.695-2.185 8.769 0 4.082 1.219 7.485 3.646 10.318 2.63 3.104 5.976 4.623 9.989 4.623 4.293 0 8.064-1.692 11.226-5.174a14.558 14.558 0 0 0 2.457-3.519C-.319-57.923.01-59.16.01-60.012c0-.657-.155-1.209-.551-1.72-.319-.484-.803-.716-1.257-.716-.474 0-1.122.348-1.963 1.17-2.031 1.751-3.84 2.698-5.425 2.698-1.508 0-2.804-.58-3.752-1.702-.938-1.044-1.46-2.515-1.46-4.255 0-2.494.986-4.719 2.911-6.508 2.794-2.707 6.323-4.051 10.559-4.051 4.439 0 8.181 1.586 11.033 4.739 2.573 2.726 3.849 5.965 3.849 9.688 0 4.776-2.079 8.51-6.286 11.121-2.504 1.431-6.643 3.094-12.387 4.912-3.974 1.257-6.904 2.34-8.693 3.268-1.847.987-3.51 2.34-5.192 4.081-3.443 3.597-5.174 8.219-5.174 13.915 0 6.682 2.282 12.242 6.904 16.642C-12.242-2.272-6.672 0 0 0" style="fill:#00243d;fill-opacity:1;fill-rule:nonzero;stroke:none" transform="matrix(.7911 0 0 -.7911 129.496 0)"/><path d="M0 0v-16.371c0-5.028.28-8.22.841-9.708.58-1.451 2.07-2.766 4.487-3.965 1.392-.696 2.011-1.422 2.011-2.476 0-1.567-1.044-2.34-3.085-2.34h-23.236c-1.982 0-2.978.773-2.978 2.34 0 .648.222 1.123.493 1.46.338.32 1.083.842 2.369 1.432 1.953.967 3.191 2.156 3.742 3.693.445 1.577.764 4.768.764 9.583v36.475c0 7.117-.319 11.739-.87 13.838-.59 2.118-1.983 4.061-4.362 5.908-1.517 1.218-2.33 2.331-2.33 3.326 0 .542.164 1.083.59 1.548.387.454.832.657 1.306.657.29 0 1.14-.203 2.33-.657 3.81-1.528 7.272-2.321 10.405-2.321 3.549 0 7.098.938 10.781 2.804.59.319 1.093.426 1.529.426.676 0 1.228-.252 1.692-.696.416-.445.638-1.045.638-1.703 0-.966-.841-2.127-2.534-3.452-2.03-1.586-3.345-3.336-3.8-5.386C.28 32.52 0 27.724 0 20.123V7.204l20.587 7.755v5.164c0 7.117-.242 11.739-.793 13.838-.589 2.118-2.031 4.061-4.39 5.908-1.537 1.218-2.379 2.331-2.379 3.326 0 .542.203 1.083.658 1.548a1.63 1.63 0 0 0 1.344.657c.377 0 1.112-.203 2.243-.657 3.849-1.528 7.32-2.321 10.405-2.321 3.588 0 7.175.938 10.83 2.804.6.319 1.113.426 1.547.426.687 0 1.18-.252 1.635-.696a2.439 2.439 0 0 0 .667-1.703c0-.966-.87-2.127-2.533-3.452-2.099-1.586-3.337-3.336-3.859-5.386-.435-1.895-.629-6.691-.715-14.292v-36.494c0-5.028.26-8.22.831-9.708.619-1.451 2.05-2.766 4.497-3.965 1.305-.696 1.972-1.422 1.972-2.476 0-1.567-1.015-2.34-2.929-2.34H16.274c-1.992 0-2.997.773-2.997 2.34 0 .648.144 1.123.532 1.46.29.32 1.141.842 2.359 1.432 1.963.967 3.133 2.156 3.665 3.693.512 1.577.754 4.768.754 9.583V7.842Z" style="fill:#00243d;fill-opacity:1;fill-rule:nonzero;stroke:none" transform="matrix(.7911 0 0 -.7911 176.772 37.385)"/><path d="M0 0c3.597.058 5.85 2.611 6.759 7.484.532 2.05.86 3.366 1.266 3.936.416.638.91.967 1.693.967 1.286 0 1.925-1.518 1.992-4.516.067-4.235.319-7.572.899-9.97.561-2.504 1.847-6.391 3.995-11.758.357-.861.57-1.596.57-2.205 0-1.634-.716-2.456-2.07-2.456-.774 0-1.518.59-2.262 1.692-1.76 2.766-3.066 4.574-3.907 5.522a11.296 11.296 0 0 1-3.046 2.485C4.293-7.872 2.35-7.427 0-7.427v-9.844c0-5.047.638-8.799 2.002-11.275 1.943-3.53 5.521-5.241 10.742-5.241 7.291 0 12.021 4.051 13.935 12.32.386 1.846.783 3.055 1.161 3.675.338.599.908.927 1.614.927.735 0 1.286-.377 1.586-1.063.3-.677.638-2.214.948-4.545.802-6.536 2.93-11.913 6.382-16.071 1.586-1.934 2.34-3.327 2.34-4.178 0-.657-.223-1.305-.638-1.779-.445-.502-.968-.754-1.605-.754-.3 0-.658.078-1.132.252-2.001.599-3.906.888-5.928.888h-50.399c-1.973 0-2.969.774-2.969 2.341 0 .648.165 1.122.503 1.46.29.319 1.103.842 2.341 1.432 2.097 1.034 3.346 2.33 3.829 3.886.415 1.577.647 5.368.647 11.363V9.554c0 3.462-.29 5.937-.996 7.291-.609 1.383-1.963 2.321-4.09 3.027-1.199.377-1.731 1.053-1.731 2.059 0 2.301 2.466 5.377 7.581 9.341 2.698 2.079 5.87 3.733 9.516 4.913a34.239 34.239 0 0 0 10.975 1.817c3.162 0 5.947-.348 8.142-1.024 2.302-.62 5.724-2.07 10.318-4.391 1.991-1.005 3.626-1.499 5.028-1.499 1.199 0 2.388.455 3.453 1.248.637.435 1.082.609 1.363.609.88 0 1.576-.87 2.243-2.64.667-1.789 1.006-3.79 1.006-5.86 0-4.699-1.615-8.577-4.922-11.604-2.688-2.591-5.899-3.906-9.554-3.906-3.075 0-5.599 1.044-7.446 3.075-1.431 1.479-2.03 3.172-2.03 4.931 0 1.238.357 1.848 1.189 1.848.203 0 .541-.117 1.054-.281.357-.097.716-.203 1.17-.203.967 0 1.75.367 2.302 1.189.609.755.937 1.779.937 2.979 0 2.04-.918 3.752-2.562 5.173-1.701 1.421-3.772 2.118-6.276 2.118-2.456 0-4.603-.735-6.46-2.243-1.827-1.471-3.219-3.53-4.061-6.112C.521 18.247 0 13.141 0 6.034Z" style="fill:#00243d;fill-opacity:1;fill-rule:nonzero;stroke:none" transform="matrix(.7911 0 0 -.7911 280.604 30.064)"/><path d="M0 0h-44.337c-1.982 0-2.92.773-2.92 2.341 0 .647.087 1.122.454 1.46.281.319 1.113.842 2.351 1.431 1.924.967 3.181 2.157 3.713 3.694.503 1.576.763 4.767.763 9.583v36.474c0 7.118-.26 11.74-.822 13.838-.531 2.118-1.991 4.061-4.37 5.908-1.548 1.219-2.321 2.331-2.321 3.327 0 .541.165 1.083.561 1.547.406.455.841.658 1.306.658.405 0 1.17-.203 2.34-.658 3.713-1.528 7.222-2.321 10.307-2.321 3.202 0 7.04.938 11.73 2.804.629.32 1.132.426 1.596.426.619 0 1.189-.251 1.634-.774.435-.473.715-.996.715-1.663 0-.609-.183-1.121-.483-1.47-.367-.348-1.19-.967-2.746-1.943-2.205-1.46-3.559-3.24-4.052-5.212-.454-1.992-.754-6.518-.754-13.557V27.018c0-4.448.387-7.755 1.247-10.018.793-2.002 2.079-3.598 3.916-4.835 1.751-1.276 3.704-1.837 5.986-1.837 3.433 0 6.199 1.393 8.278 4.158 2.176 2.959 3.229 6.372 3.229 10.25 0 2.688-.638 5.589-1.914 8.664-.512 1.335-.832 2.283-.832 2.94 0 .774.194 1.354.657 1.837.474.445 1.036.697 1.799.697 1.663 0 3.559-1.393 5.415-4.226 2.33-3.655 3.569-8.19 3.569-13.606 0-.831-.049-2.553-.213-5.337a63.89 63.89 0 0 1-.03-1.635c0-1.905.213-3.519.678-4.806.405-1.238 1.354-2.997 2.843-5.241a3.3 3.3 0 0 0 .57-1.867c0-.927-.26-1.74-.85-2.349-.6-.658-1.296-.948-2.158-.948-.405 0-.966.107-1.71.338C3.916-.367 2.243-.048 0 0" style="fill:#00243d;fill-opacity:1;fill-rule:nonzero;stroke:none" transform="matrix(.7911 0 0 -.7911 254.61 64.963)"/><path d="m0 0-16.11 30.189c-1.721 3.346-3.975 5.938-6.489 7.833-1.335.909-2.195 1.683-2.64 2.186-.435.502-.599 1.083-.599 1.711 0 .551.164 1.054.551 1.489.444.416.899.668 1.489.668.454 0 1.509-.455 3.259-1.374 2.708-1.373 5.705-2.078 9.051-2.078 3.239 0 6.304.783 9.245 2.204 1.691.793 2.843 1.248 3.336 1.248.609 0 1.034-.252 1.498-.697.291-.444.59-1.044.59-1.702 0-.648-.125-1.16-.415-1.508-.213-.348-1.045-1.064-2.409-2.147-.85-.773-1.295-1.77-1.295-3.094 0-1.354.329-2.611.996-3.839l12.107-22.56c1.121 2.205 2.021 3.8 2.678 4.7.677.938 1.905 2.388 3.713 4.458 2.147 2.523 3.607 4.428 4.351 5.666.697 1.267 1.045 2.553 1.045 3.819 0 1.325-.348 2.36-1.035 3.221-.687.889-1.557 1.344-2.601 1.344-1.672 0-3.065-1.344-4.09-4.042-.464-1.083-1.112-1.712-1.76-1.712-.987 0-1.914.784-2.746 2.33a11.13 11.13 0 0 0-1.19 5.087c0 3.172.948 5.928 2.998 8.239 2.321 2.697 5.289 4.042 9.051 4.042 3.742 0 6.826-1.345 9.225-4.042 2.427-2.689 3.539-6.035 3.539-10.115 0-3.481-.822-6.633-2.563-9.515-1.014-1.702-3.316-4.322-6.788-7.775-4.699-4.835-7.745-8.886-9.206-12.155-1.488-3.336-2.223-7.949-2.223-13.848v-6.178c0-5.019.367-8.161.85-9.632.639-1.488 2.089-2.842 4.44-4.041 1.373-.696 2.087-1.422 2.087-2.476 0-1.567-1.034-2.341-2.959-2.341H-4.438c-1.925 0-2.882.774-2.882 2.341 0 .648.135 1.122.444 1.46.31.32 1.132.842 2.438 1.432 1.972.967 3.074 2.156 3.645 3.693.483 1.576.793 4.768.793 9.583z" style="fill:#00243d;fill-opacity:1;fill-rule:nonzero;stroke:none" transform="matrix(.7911 0 0 -.7911 332.654 36.138)"/><path d="M0 0a1.113 1.113 0 0 0-.474-.271h-.048c-.32 0-.619.058-1.064.136-.522.096-1.267.396-1.267.396-1.538.609-3.616 1.431-6.004 3.433-1.848 1.547-2.882 4.023-2.853 6.247 0 .406.019.619.087.87l.019.048c.135.319.387.455.735.455.164 0 .377 0 .483-.116l.174-.058s.039 0 .039-.039c.397-.242 3.916-2.939 5.173-4.139 1.528-1.469 3.588-3.906 4.787-5.483.155-.145.213-.318.29-.454v-.019C.232.677.232.261 0 0m2.833 0C.957 5.125-5.154 10.56-9.419 12.89a.861.861 0 0 0-.454.261l-.039.039c-.241.193-.338.445-.387.822 0 .203.049.396.126.493v.097c.048.096.164.271.3.512.803 1.093 2.002 1.866 3.259 2.234 1.556.599 2.852-.232 3.084-.938.435-1.247 0-2.543-.967-3.781-.164-.068-.212-.31-.164-.542 0-.425.377-.773.822-.773.309 0 .474.193.667.348 1.093 1.586 1.837 3.346 1.064 5.396-.561 1.644-3.046 2.514-5.145 1.857-1.489-.513-2.659-1.451-3.423-2.264 0 0-.609-.754-.85-1.256l-.03-.039c-.232-.31-.541-.581-.986-.581h-.174c-.29.02-.59.098-.851.271l-1.992.929v.048c-.358.126-.571.435-.609.822-.01.213.038.406.184.561v.058a.161.161 0 0 1 .096.135c2.07 1.866 4.903 5.183 3.52 8.916-1.006 2.727-3.616 4.729-5.695 5.464-.552.28-1.064.28-1.316 0-.203-.223-.261-.455-.116-1.345.049-.232.049-.29.049-.435.029-.3-.049-.551-.097-.764v-.058c-.145-.425-.416-.86-.832-.967-.271-.116-.754-.116-1.334.542-.754.754-2.359 2.292-2.998 2.669-.773.444-2.292.793-3.007-.29-.629-1.083-.058-2.166.87-2.766.667-.464 2.582-.851 3.569-1.151h.067c.203-.048.3-.145.493-.174.261-.241.474-.454.58-.667.078-.194.146-.3.146-.58 0-.329-.175-.639-.726-.764h-.067c-.59-.165-1.026-.436-1.026-.754 0-.204.117-.242.194-.281v-.068c.135-.086.29-.231.522-.396 1.151-.542 2.572-1.634 3.22-3.297.455-1.267.329-2.872-.957-3.269-.88-.319-2.446.329-4.1 1.818-1.363.861-2.418 2.04-3.771 3.491-1.142 1.45-2.341 2.881-4.371 3.317l-.077.106c-.658.097-1.373.203-2.166.222-1.422 0-2.699-.164-3.811-.57h-.058c-.56-.194-.85-.465-1.005-.755-.291-.599-.029-1.382.474-1.836a2.72 2.72 0 0 0 .821-1.296v-.058c.03-.31.03-.581-.067-.871a1.477 1.477 0 0 0-1.161-.812h-.377c-1.479 0-3.026-.483-4.235-1.199-.609-.232-1.228-.774-1.228-.774H-46c-.938-.773-1.208-1.972-.677-2.697.29-.377.813-.552 1.412-.475 0 0 .329 0 .503.058.87.281 1.431.658 1.895.948.087.049.368.175.455.194 0 0 .183.135.483.174.744.058 1.315-.561 1.373-1.248v-.028c0-.175 0-.271-.077-.465-.358-1.025-.552-1.605-.232-2.437.386-1.141 2.349-2.001 4.081-1.411 1.905.638 2.872 1.382 4.583 2.63.977.822 3.801 1.711 5.502 1.973 2.379.328 4.487-.049 4.913-1.151.328-1.122.077-2.041-1.238-3.356-1.238-1.238-3.075-2.33-4.748-2.649-.291-.194-.522-.194-.715-.194l-.049-.029c-.339-.067-.493-.28-.541-.473-.069-.281.048-.484.241-.735a.814.814 0 0 1 .232-.126c.261-.126.484-.348.59-.512l.077-.059c.145-.126.165-.29.165-.493.058-.319-.145-.609-.387-.754h-.009c-.126-.068-.319-.126-.407-.184-3.364-1.199-4.051-1.431-4.119-2.069-.038-1.663 4.09-2.65 6.14-1.644 2.785 1.605 3.772 1.914 4.013 1.711.426-.202.687-.754.6-2.05-.087-1.141-.116-1.518.29-1.711.096 0 .406 0 .745.193 0 0 1.073.542 2.427 2.04 1.257 1.345 1.798 2.94 1.915 4.671.019 2.224-1.083 5.415-2.002 7.301-.368.88-.513 1.247-.223 1.75.223.261.658.474 1.489.135l2.988-1.45c.61-.348 1.064-.764 1.064-1.47.058-.193 0-.348-.058-.541l-.068-.116c-.551-2.243-.154-4.874 1.383-7.262C-9.815.193-5.705-2.146-2.524-3.326l.116-.02A3.813 3.813 0 0 0 .271-6.769c0-.319 0-.619-.039-.986l-.058-.058c-.097-.716-.387-1.393-.657-1.992-1.229-2.186-2.012-2.011-2.012-2.011-.454-.068-.87.232-.89.715 0 .116 0 .145.02.261v.019c.087.378.135.755.135 1.171a6.934 6.934 0 0 1-.3 1.353c0 .029 0 .136-.068.233-.125.29-.328.638-.57.85-.899 1.122-2.214 1.857-3.781 1.779-1.411-.096-2.62-.85-3.374-1.953 0 0 0-.038-.039-.077-.039-.058-.107-.136-.136-.223-.638-1.034-.802-2.397-.348-3.819.735-3.037 3.733-4.961 7.378-4.081C.135-14.515 5.56-7.359 2.833 0" style="fill:#00243d;fill-opacity:1;fill-rule:nonzero;stroke:none" transform="matrix(.7911 0 0 -.7911 37.14 34.103)"/><path d="M0 0v.019c.087.136.145.31.231.455C1.46 2.05 3.558 4.487 5.048 5.957c1.266 1.199 4.786 3.897 5.163 4.138 0 .039.039.039.039.039l.184.058c.135.116.29.116.512.116.29 0 .6-.136.696-.454l.048-.049c.069-.251.097-.464.097-.87.01-2.224-1.063-4.7-2.843-6.247C6.604.687 4.458-.136 2.9-.745c0 0-.773-.299-1.247-.396-.435-.078-.773-.135-1.054-.135H.57c-.232.057-.386.135-.483.27C-.175-.745-.175-.329 0 0m4.486-16.594c3.685-.88 6.663 1.044 7.437 4.081.416 1.422.251 2.785-.349 3.82-.028.087-.116.164-.135.222-.029.039-.029.077-.029.077-.735 1.103-1.992 1.857-3.472 1.954-1.45.077-2.794-.658-3.693-1.78a3.574 3.574 0 0 1-.59-.85c-.019-.097-.049-.203-.049-.233-.144-.454-.28-.908-.367-1.353 0-.416.087-.793.164-1.171v-.019c0-.116.059-.145.059-.261-.059-.483-.436-.783-.909-.715 0 0-.803-.175-1.983 2.011-.339.6-.57 1.276-.745 1.992v.058c-.067.367-.067.667-.067.986C-.146-6.16.995-4.816 2.485-4.352l.125.02c3.192 1.18 7.262 3.519 9.467 7.262 1.499 2.388 1.915 5.019 1.316 7.262l-.058.116c-.01.193-.039.348-.039.542.029.705.406 1.121 1.063 1.469l3.017 1.451c.812.338 1.248.126 1.412-.136.319-.503.164-.87-.164-1.75-.938-1.885-2.021-5.076-1.992-7.301.154-1.73.619-3.326 1.886-4.67 1.411-1.499 2.436-2.04 2.436-2.04.358-.194.649-.194.754-.194.388.194.388.571.319 1.712-.067 1.296.136 1.847.562 2.049.27.204 1.209-.106 3.955-1.711 2.146-1.005 6.246-.019 6.188 1.644 0 .638-.715.87-4.11 2.069-.125.058-.241.117-.377.184-.28.145-.474.435-.396.754 0 .203.019.368.165.494v.058c.164.164.405.386.676.512 0 0 .107.068.184.126h.049c.174.251.328.454.231.735-.057.193-.231.406-.58.473l-.029.03c-.164 0-.415 0-.774.193-1.556.319-3.461 1.412-4.67 2.649-1.334 1.315-1.624 2.234-1.208 3.356.405 1.102 2.523 1.479 4.892 1.151 1.712-.261 4.497-1.151 5.493-1.973 1.711-1.247 2.678-1.992 4.583-2.63 1.722-.59 3.695.27 4.081 1.411.309.832.096 1.412-.252 2.437-.057.194-.057.29-.057.465v.029c.057.686.618 1.305 1.314 1.247.349-.039.542-.174.542-.174.097-.019.348-.145.445-.194a6.531 6.531 0 0 1 1.895-.947c.213-.058.523-.058.523-.058.541-.078 1.063.097 1.392.474.58.725.271 1.924-.696 2.697h-.039s-.6.542-1.238.774c-1.161.716-2.747 1.199-4.197 1.199h-.386a1.572 1.572 0 0 0-1.161.813c-.135.29-.135.56-.039.87v.058c.097.435.368.889.793 1.296.484.454.793 1.237.484 1.837-.155.29-.464.561-1.006.754h-.076c-1.084.406-2.399.57-3.714.57-.831-.019-1.596-.125-2.234-.222l-.135-.106c-2.011-.435-3.182-1.867-4.41-3.317-1.286-1.45-2.33-2.63-3.627-3.491-1.74-1.489-3.296-2.137-4.167-1.818-1.315.397-1.431 2.002-.938 3.269.619 1.663 2.069 2.756 3.211 3.297.193.165.387.31.483.397l.068.067c.049.039.145.078.145.281 0 .319-.455.59-1.006.754h-.057c-.552.126-.726.435-.745.764.019.28.039.387.155.58.086.213.328.426.59.667.125.029.299.126.492.174h.029c.987.3 2.949.687 3.608 1.151.918.6 1.46 1.683.84 2.766-.735 1.083-2.223.735-2.997.29-.668-.377-2.234-1.915-2.94-2.669-.618-.658-1.131-.658-1.392-.542-.378.107-.745.542-.861.967v.058c-.087.213-.116.465-.087.764v.435h.058c.145.89.068 1.122-.145 1.345-.242.28-.696.28-1.276 0-2.089-.735-4.681-2.737-5.696-5.464-1.383-3.733 1.412-7.05 3.491-8.916a.611.611 0 0 1 .087-.135l.029-.058c.087-.155.174-.348.174-.561-.087-.387-.233-.696-.6-.822v-.048l-1.933-.928c-.348-.174-.62-.252-.87-.271H12.57c-.415 0-.725.271-.928.58l-.068.039c-.27.503-.88 1.257-.88 1.257-.734.812-1.846 1.75-3.384 2.263-2.069.657-4.545-.213-5.183-1.857-.716-2.05-.087-3.81 1.112-5.396.164-.155.397-.348.687-.348.434 0 .803.348.803.774.038.231 0 .473-.126.541-.967 1.238-1.451 2.534-.997 3.781.32.706 1.509 1.537 3.085.938 1.247-.367 2.466-1.141 3.24-2.234.164-.241.232-.416.28-.512v-.097c.087-.097.126-.29.126-.493-.039-.377-.174-.629-.377-.822l-.029-.039a.973.973 0 0 0-.416-.261C5.299 9.554-.909 4.119-2.757-1.006-5.513-8.365-.049-15.521 4.486-16.594" style="fill:#00243d;fill-opacity:1;fill-rule:nonzero;stroke:none" transform="matrix(.7911 0 0 -.7911 366.68 33.308)"/></svg>