<svg width="26" height="26" viewBox="0 0 26 26" fill="none" xmlns="http://www.w3.org/2000/svg">
<path d="M20.5387 18.771L25.8921 24.1244L24.1244 25.8921L18.771 20.5387C16.8461 22.0788 14.405 23 11.75 23C5.54 23 0.5 17.96 0.5 11.75C0.5 5.54 5.54 0.5 11.75 0.5C17.96 0.5 23 5.54 23 11.75C23 14.405 22.0788 16.8461 20.5387 18.771ZM18.0309 17.8435C19.5594 16.2682 20.5 14.1195 20.5 11.75C20.5 6.91563 16.5844 3 11.75 3C6.91563 3 3 6.91563 3 11.75C3 16.5844 6.91563 20.5 11.75 20.5C14.1195 20.5 16.2682 19.5594 17.8435 18.0309L18.0309 17.8435Z" fill="#666666"/>
</svg>
