<svg width="30" height="30" viewBox="0 0 30 30" fill="none" xmlns="http://www.w3.org/2000/svg">
<path d="M16.2512 24.9226C21.1841 24.3075 25.0012 20.0995 25.0012 15C25.0012 9.47715 20.5241 5 15.0012 5C9.47837 5 5.00122 9.47715 5.00122 15C5.00122 20.0995 8.81833 24.3075 13.7512 24.9226V17.5H11.2512V15H13.7512V12.9322C13.7512 11.2607 13.9252 10.6545 14.2521 10.0434C14.5789 9.4323 15.0585 8.9527 15.6696 8.62587C16.148 8.37005 16.7414 8.21565 17.7784 8.14942C18.1899 8.12314 18.7226 8.15666 19.3762 8.25V10.625H18.7512C17.6046 10.625 17.1315 10.6791 16.8486 10.8304C16.6732 10.9242 16.5505 11.047 16.4566 11.2224C16.3054 11.5052 16.2512 11.7857 16.2512 12.9322V15H19.3762L18.7512 17.5H16.2512V24.9226ZM15.0012 27.5C8.09766 27.5 2.50122 21.9035 2.50122 15C2.50122 8.09644 8.09766 2.5 15.0012 2.5C21.9047 2.5 27.5012 8.09644 27.5012 15C27.5012 21.9035 21.9047 27.5 15.0012 27.5Z" fill="#0E212F"/>
</svg>
