<svg width="30" height="30" viewBox="0 0 30 30" fill="none" xmlns="http://www.w3.org/2000/svg">
<path d="M15.0012 11.25C12.9295 11.25 11.2512 12.9289 11.2512 15C11.2512 17.0716 12.9301 18.75 15.0012 18.75C17.0729 18.75 18.7512 17.0711 18.7512 15C18.7512 12.9284 17.0724 11.25 15.0012 11.25ZM15.0012 8.75C18.4517 8.75 21.2512 11.5464 21.2512 15C21.2512 18.4506 18.4549 21.25 15.0012 21.25C11.5506 21.25 8.75122 18.4536 8.75122 15C8.75122 11.5494 11.5476 8.75 15.0012 8.75ZM23.1262 8.43644C23.1262 9.29907 22.4252 9.99896 21.5637 9.99896C20.7011 9.99896 20.0012 9.298 20.0012 8.43644C20.0012 7.57487 20.7021 6.875 21.5637 6.875C22.4241 6.87391 23.1262 7.57487 23.1262 8.43644ZM15.0012 5C11.9081 5 11.404 5.00819 9.96533 5.07225C8.98518 5.11826 8.32816 5.25009 7.7177 5.48709C7.1752 5.69749 6.78386 5.94872 6.3669 6.36569C5.94833 6.78425 5.69755 7.17454 5.488 7.71729C5.25045 8.32915 5.11866 8.98514 5.07347 9.96394C5.00878 11.344 5.00122 11.8263 5.00122 15C5.00122 18.0931 5.00941 18.5972 5.07346 20.0357C5.1195 21.0155 5.2515 21.6735 5.48792 22.2825C5.69887 22.8257 5.95062 23.218 6.36557 23.633C6.78578 24.0526 7.17723 24.3042 7.71483 24.5117C8.33273 24.7506 8.98934 24.8826 9.96514 24.9277C11.3452 24.9924 11.8275 25 15.0012 25C18.0944 25 18.5985 24.9917 20.037 24.9277C21.0146 24.8819 21.6731 24.7495 22.2837 24.5132C22.8255 24.3029 23.219 24.0502 23.6342 23.6356C24.0545 23.2147 24.3056 22.8242 24.5134 22.2854C24.7516 21.6697 24.8839 21.0122 24.929 20.0361C24.9936 18.656 25.0012 18.1736 25.0012 15C25.0012 11.9069 24.993 11.4028 24.929 9.96421C24.883 8.98632 24.7506 8.32686 24.5141 7.71647C24.3042 7.17547 24.0521 6.78294 23.6355 6.36569C23.2162 5.94644 22.827 5.69616 22.2839 5.48677C21.6725 5.24942 21.0155 5.11745 20.0372 5.07226C18.6572 5.00756 18.1749 5 15.0012 5ZM15.0012 2.5C18.397 2.5 18.821 2.5125 20.1544 2.575C21.4845 2.63646 22.3919 2.84688 23.1887 3.15625C24.0126 3.47396 24.7085 3.90312 25.4032 4.59791C26.097 5.29271 26.5262 5.99062 26.845 6.8125C27.1532 7.60834 27.3637 8.51666 27.4262 9.84687C27.4856 11.1802 27.5012 11.6042 27.5012 15C27.5012 18.3959 27.4887 18.8197 27.4262 20.1531C27.3647 21.4834 27.1532 22.3906 26.845 23.1875C26.5272 24.0115 26.097 24.7072 25.4032 25.4021C24.7085 26.0959 24.0095 26.525 23.1887 26.8437C22.3919 27.1521 21.4845 27.3625 20.1544 27.425C18.821 27.4844 18.397 27.5 15.0012 27.5C11.6054 27.5 11.1814 27.4875 9.8481 27.425C8.51788 27.3635 7.61163 27.1521 6.81372 26.8437C5.9908 26.526 5.29392 26.0959 4.59913 25.4021C3.90435 24.7072 3.47622 24.0084 3.15747 23.1875C2.8481 22.3906 2.63872 21.4834 2.57622 20.1531C2.51685 18.8197 2.50122 18.3959 2.50122 15C2.50122 11.6042 2.51372 11.1802 2.57622 9.84687C2.63767 8.51562 2.8481 7.60937 3.15747 6.8125C3.47517 5.98959 3.90435 5.29271 4.59913 4.59791C5.29392 3.90312 5.99185 3.475 6.81372 3.15625C7.6106 2.84688 8.51685 2.6375 9.8481 2.575C11.1814 2.51562 11.6054 2.5 15.0012 2.5Z" fill="#0E212F"/>
</svg>
