<svg width="32" height="32" viewBox="0 0 32 32" fill="none" xmlns="http://www.w3.org/2000/svg">
<path d="M22.4631 23.5805C23.1332 23.5805 23.7759 23.8467 24.2498 24.3206C24.7237 24.7945 24.9899 25.4372 24.9899 26.1073C24.9899 26.7775 24.7237 27.4202 24.2498 27.8941C23.7759 28.3679 23.1332 28.6342 22.4631 28.6342C21.7929 28.6342 21.1502 28.3679 20.6764 27.8941C20.2025 27.4202 19.9363 26.7775 19.9363 26.1073C19.9363 24.705 21.0607 23.5805 22.4631 23.5805ZM2.24854 3.36597H6.37988L7.56749 5.89279H26.2533C26.5884 5.89279 26.9097 6.0259 27.1467 6.26283C27.3836 6.49977 27.5167 6.82112 27.5167 7.1562C27.5167 7.37098 27.4536 7.58575 27.3651 7.7879L22.8421 15.9622C22.4126 16.7328 21.5787 17.2635 20.6311 17.2635H11.2187L10.0817 19.3228L10.0438 19.4744C10.0438 19.5582 10.077 19.6385 10.1363 19.6978C10.1955 19.757 10.2759 19.7903 10.3596 19.7903H24.9899V22.3171H9.82899C9.15884 22.3171 8.51613 22.0509 8.04226 21.577C7.56839 21.1032 7.30217 20.4604 7.30217 19.7903C7.30217 19.3481 7.41588 18.9312 7.60539 18.5774L9.32363 15.4821L4.77535 5.89279H2.24854V3.36597ZM9.82899 23.5805C10.4991 23.5805 11.1419 23.8467 11.6157 24.3206C12.0896 24.7945 12.3558 25.4372 12.3558 26.1073C12.3558 26.7775 12.0896 27.4202 11.6157 27.8941C11.1419 28.3679 10.4991 28.6342 9.82899 28.6342C9.15884 28.6342 8.51613 28.3679 8.04226 27.8941C7.56839 27.4202 7.30217 26.7775 7.30217 26.1073C7.30217 24.705 8.42661 23.5805 9.82899 23.5805ZM21.1997 14.7367L24.712 8.41961H8.74246L11.7241 14.7367H21.1997Z" fill="white"/>
</svg>
