<svg width="35" height="36" viewBox="0 0 35 36" fill="none" xmlns="http://www.w3.org/2000/svg">
<path d="M22.6042 20.9167H21.4521L21.0438 20.5229C22.5224 18.808 23.3351 16.6185 23.3333 14.3542C23.3333 12.4794 22.7774 10.6467 21.7358 9.08783C20.6942 7.52899 19.2138 6.31402 17.4817 5.59656C15.7496 4.87911 13.8437 4.69139 12.0049 5.05714C10.1661 5.4229 8.47707 6.3257 7.15139 7.65139C5.8257 8.97707 4.9229 10.6661 4.55714 12.5049C4.19139 14.3437 4.37911 16.2496 5.09656 17.9817C5.81402 19.7138 7.02899 21.1942 8.58783 22.2358C10.1467 23.2774 11.9794 23.8333 13.8542 23.8333C16.2021 23.8333 18.3604 22.9729 20.0229 21.5438L20.4167 21.9521V23.1042L27.7083 30.3813L29.8813 28.2083L22.6042 20.9167ZM13.8542 20.9167C10.2229 20.9167 7.29167 17.9854 7.29167 14.3542C7.29167 10.7229 10.2229 7.79167 13.8542 7.79167C17.4854 7.79167 20.4167 10.7229 20.4167 14.3542C20.4167 17.9854 17.4854 20.9167 13.8542 20.9167Z" fill="white"/>
</svg>
