<svg width="50" height="51" viewBox="0 0 50 51" fill="none" xmlns="http://www.w3.org/2000/svg">
<path d="M17.5002 7.62207H32.5002C38.2145 7.62207 42.8574 12.2649 42.8574 17.9792V32.9792C42.8574 35.7261 41.7662 38.3605 39.8238 40.3028C37.8815 42.2452 35.2471 43.3364 32.5002 43.3364H17.5002C11.7859 43.3364 7.14307 38.6935 7.14307 32.9792V17.9792C7.14307 15.2323 8.23426 12.5979 10.1766 10.6556C12.1189 8.71327 14.7533 7.62207 17.5002 7.62207ZM17.1431 11.1935C15.4381 11.1935 13.803 11.8708 12.5974 13.0764C11.3918 14.282 10.7145 15.9171 10.7145 17.6221V33.3364C10.7145 36.8899 13.5895 39.7649 17.1431 39.7649H32.8574C34.5623 39.7649 36.1975 39.0876 37.403 37.882C38.6086 36.6765 39.2859 35.0413 39.2859 33.3364V17.6221C39.2859 14.0685 36.4109 11.1935 32.8574 11.1935H17.1431ZM34.3752 13.8721C34.9672 13.8721 35.535 14.1072 35.9536 14.5259C36.3722 14.9445 36.6074 15.5122 36.6074 16.1042C36.6074 16.6962 36.3722 17.264 35.9536 17.6826C35.535 18.1012 34.9672 18.3364 34.3752 18.3364C33.7832 18.3364 33.2155 18.1012 32.7968 17.6826C32.3782 17.264 32.1431 16.6962 32.1431 16.1042C32.1431 15.5122 32.3782 14.9445 32.7968 14.5259C33.2155 14.1072 33.7832 13.8721 34.3752 13.8721ZM25.0002 16.5506C27.3682 16.5506 29.6392 17.4913 31.3137 19.1658C32.9881 20.8402 33.9288 23.1112 33.9288 25.4792C33.9288 27.8472 32.9881 30.1182 31.3137 31.7927C29.6392 33.4671 27.3682 34.4078 25.0002 34.4078C22.6322 34.4078 20.3612 33.4671 18.6868 31.7927C17.0123 30.1182 16.0716 27.8472 16.0716 25.4792C16.0716 23.1112 17.0123 20.8402 18.6868 19.1658C20.3612 17.4913 22.6322 16.5506 25.0002 16.5506ZM25.0002 20.1221C23.5794 20.1221 22.2168 20.6865 21.2121 21.6911C20.2075 22.6958 19.6431 24.0584 19.6431 25.4792C19.6431 26.9 20.2075 28.2626 21.2121 29.2673C22.2168 30.2719 23.5794 30.8364 25.0002 30.8364C26.421 30.8364 27.7836 30.2719 28.7883 29.2673C29.7929 28.2626 30.3574 26.9 30.3574 25.4792C30.3574 24.0584 29.7929 22.6958 28.7883 21.6911C27.7836 20.6865 26.421 20.1221 25.0002 20.1221Z" fill="white"/>
</svg>
