<svg width="50" height="51" viewBox="0 0 50 51" fill="none" xmlns="http://www.w3.org/2000/svg">
<path d="M32.963 14.6885C31.7799 13.3257 31.1279 11.576 31.1281 9.76465H25.7791V31.4154C25.7387 32.5874 25.2486 33.6976 24.4121 34.512C23.5756 35.3264 22.4583 35.7812 21.2957 35.7805C18.8376 35.7805 16.795 33.7551 16.795 31.2408C16.795 28.2377 19.6685 25.9853 22.6286 26.9107V21.3932C16.6565 20.59 11.4287 25.2694 11.4287 31.2408C11.4287 37.0551 16.2064 41.1932 21.2784 41.1932C26.7139 41.1932 31.1281 36.7408 31.1281 31.2408V20.2583C33.2971 21.8295 35.9012 22.6724 38.5716 22.6678V17.2726C38.5716 17.2726 35.3172 17.4297 32.963 14.6885Z" fill="white"/>
</svg>
