<svg width="35" height="35" viewBox="0 0 35 35" fill="none" xmlns="http://www.w3.org/2000/svg">
<path d="M26.5944 5.48333C25.2432 3.96575 24.4985 2.01717 24.4987 0H18.3897V24.1111C18.3435 25.4162 17.7837 26.6526 16.8284 27.5596C15.8731 28.4665 14.5969 28.973 13.2691 28.9722C10.4617 28.9722 8.12883 26.7167 8.12883 23.9167C8.12883 20.5722 11.4107 18.0639 14.7915 19.0944V12.95C7.97066 12.0556 2 17.2667 2 23.9167C2 30.3917 7.45663 35 13.2494 35C19.4573 35 24.4987 30.0417 24.4987 23.9167V11.6861C26.976 13.4358 29.9501 14.3746 33 14.3694V8.36111C33 8.36111 29.2832 8.53611 26.5944 5.48333Z" fill="white"/>
</svg>
