<svg width="36" height="36" viewBox="0 0 36 36" fill="none" xmlns="http://www.w3.org/2000/svg">
<path d="M10.4132 0.289551H25.1132C30.7132 0.289551 35.2632 4.83955 35.2632 10.4396V25.1396C35.2632 27.8315 34.1938 30.4132 32.2903 32.3167C30.3868 34.2202 27.8051 35.2896 25.1132 35.2896H10.4132C4.81318 35.2896 0.263184 30.7396 0.263184 25.1396V10.4396C0.263184 7.7476 1.33256 5.16591 3.23605 3.26242C5.13954 1.35892 7.72124 0.289551 10.4132 0.289551ZM10.0632 3.78955C8.39232 3.78955 6.78989 4.4533 5.60841 5.63478C4.42693 6.81626 3.76318 8.41869 3.76318 10.0896V25.4896C3.76318 28.9721 6.58068 31.7896 10.0632 31.7896H25.4632C27.134 31.7896 28.7365 31.1258 29.918 29.9443C31.0994 28.7628 31.7632 27.1604 31.7632 25.4896V10.0896C31.7632 6.60705 28.9457 3.78955 25.4632 3.78955H10.0632ZM26.9507 6.41455C27.5308 6.41455 28.0872 6.64502 28.4975 7.05525C28.9077 7.46549 29.1382 8.02189 29.1382 8.60205C29.1382 9.18221 28.9077 9.73861 28.4975 10.1488C28.0872 10.5591 27.5308 10.7896 26.9507 10.7896C26.3705 10.7896 25.8141 10.5591 25.4039 10.1488C24.9937 9.73861 24.7632 9.18221 24.7632 8.60205C24.7632 8.02189 24.9937 7.46549 25.4039 7.05525C25.8141 6.64502 26.3705 6.41455 26.9507 6.41455ZM17.7632 9.03955C20.0838 9.03955 22.3094 9.96142 23.9504 11.6024C25.5913 13.2433 26.5132 15.4689 26.5132 17.7896C26.5132 20.1102 25.5913 22.3358 23.9504 23.9767C22.3094 25.6177 20.0838 26.5396 17.7632 26.5396C15.4425 26.5396 13.2169 25.6177 11.576 23.9767C9.93506 22.3358 9.01318 20.1102 9.01318 17.7896C9.01318 15.4689 9.93506 13.2433 11.576 11.6024C13.2169 9.96142 15.4425 9.03955 17.7632 9.03955ZM17.7632 12.5396C16.3708 12.5396 15.0354 13.0927 14.0509 14.0772C13.0663 15.0618 12.5132 16.3972 12.5132 17.7896C12.5132 19.1819 13.0663 20.5173 14.0509 21.5019C15.0354 22.4864 16.3708 23.0396 17.7632 23.0396C19.1556 23.0396 20.4909 22.4864 21.4755 21.5019C22.4601 20.5173 23.0132 19.1819 23.0132 17.7896C23.0132 16.3972 22.4601 15.0618 21.4755 14.0772C20.4909 13.0927 19.1556 12.5396 17.7632 12.5396Z" fill="white"/>
</svg>
