<svg width="41" height="40" viewBox="0 0 41 40" fill="none" xmlns="http://www.w3.org/2000/svg">
<path d="M26.3198 12.5H26.3332M31.3198 12.5H31.3332M37.1665 12.1383C37.1665 16.5416 33.4348 20.1116 28.8332 20.1116C28.2909 20.1116 27.7537 20.0616 27.2215 19.9616C26.8382 19.89 26.6465 19.855 26.5132 19.875C26.3798 19.895 26.1898 19.995 25.8132 20.1966C24.7347 20.7714 23.4936 20.9647 22.2915 20.745C22.751 20.1772 23.0625 19.5043 23.1982 18.7866C23.2815 18.345 23.0748 17.9166 22.7648 17.6033C21.3185 16.1518 20.5043 14.1874 20.4998 12.1383C20.4998 7.73663 24.2315 4.16663 28.8332 4.16663C33.4348 4.16663 37.1665 7.73663 37.1665 12.1383ZM13.0032 35.8333H8.36316C7.82483 35.8333 7.28316 35.7566 6.78816 35.545C5.17816 34.8533 4.35983 33.9383 3.97983 33.3666C3.8767 33.2083 3.82603 33.0215 3.835 32.8327C3.84397 32.644 3.91214 32.4628 4.02983 32.315C5.89649 29.835 10.2298 28.3383 13.0115 28.3383C15.7915 28.3383 20.1182 29.835 21.9848 32.315C22.2198 32.6266 22.2515 33.0416 22.0348 33.3666C21.6532 33.9383 20.8348 34.8533 19.2248 35.545C18.7246 35.7462 18.1889 35.8443 17.6498 35.8333H13.0032ZM17.6432 19.6483C17.6423 20.2559 17.5217 20.8573 17.2884 21.4183C17.0551 21.9793 16.7136 22.4889 16.2833 22.9179C15.8531 23.3469 15.3426 23.687 14.7809 23.9187C14.2192 24.1504 13.6174 24.2692 13.0098 24.2683C11.7833 24.2692 10.6067 23.783 9.73848 22.9167C8.87028 22.0504 8.38159 20.8748 8.37983 19.6483C8.38048 19.0407 8.5008 18.4392 8.73392 17.8781C8.96704 17.317 9.30839 16.8074 9.73848 16.3782C10.1686 15.949 10.679 15.6088 11.2406 15.3769C11.8021 15.145 12.4039 15.026 13.0115 15.0266C13.6191 15.026 14.2208 15.145 14.7824 15.3769C15.344 15.6088 15.8544 15.949 16.2845 16.3782C16.7146 16.8074 17.0559 17.317 17.2891 17.8781C17.5222 18.4392 17.6425 19.0407 17.6432 19.6483Z" stroke="white" stroke-width="2" stroke-linecap="round" stroke-linejoin="round"/>
</svg>
