<svg width="41" height="40" viewBox="0 0 41 40" fill="none" xmlns="http://www.w3.org/2000/svg">
<path d="M20.5 2.5C14.1922 2.5 9.25 5.52031 9.25 9.375V30.625C9.25 34.4797 14.1922 37.5 20.5 37.5C26.8078 37.5 31.75 34.4797 31.75 30.625V9.375C31.75 5.52031 26.8078 2.5 20.5 2.5ZM20.5 5C24.6391 5 29.25 6.79688 29.25 9.375C29.25 11.9531 24.6391 13.75 20.5 13.75C16.3609 13.75 11.75 11.9531 11.75 9.375C11.75 6.79688 16.3609 5 20.5 5ZM20.5 35C15.8391 35 11.75 32.9562 11.75 30.625V13.75C13.7969 15.2891 16.9281 16.25 20.5 16.25C24.0719 16.25 27.2031 15.2812 29.25 13.75V30.625C29.25 32.9562 25.1609 35 20.5 35Z" fill="white"/>
</svg>
