<svg width="41" height="40" viewBox="0 0 41 40" fill="none" xmlns="http://www.w3.org/2000/svg">
<path d="M34.25 10H28C28 8.01088 27.2098 6.10322 25.8033 4.6967C24.3968 3.29018 22.4891 2.5 20.5 2.5C18.5109 2.5 16.6032 3.29018 15.1967 4.6967C13.7902 6.10322 13 8.01088 13 10H6.75C6.08696 10 5.45107 10.2634 4.98223 10.7322C4.51339 11.2011 4.25 11.837 4.25 12.5V31.25C4.25 31.913 4.51339 32.5489 4.98223 33.0178C5.45107 33.4866 6.08696 33.75 6.75 33.75H34.25C34.913 33.75 35.5489 33.4866 36.0178 33.0178C36.4866 32.5489 36.75 31.913 36.75 31.25V12.5C36.75 11.837 36.4866 11.2011 36.0178 10.7322C35.5489 10.2634 34.913 10 34.25 10ZM20.5 5C21.8261 5 23.0979 5.52678 24.0355 6.46447C24.9732 7.40215 25.5 8.67392 25.5 10H15.5C15.5 8.67392 16.0268 7.40215 16.9645 6.46447C17.9021 5.52678 19.1739 5 20.5 5ZM34.25 31.25H6.75V12.5H13V15C13 15.3315 13.1317 15.6495 13.3661 15.8839C13.6005 16.1183 13.9185 16.25 14.25 16.25C14.5815 16.25 14.8995 16.1183 15.1339 15.8839C15.3683 15.6495 15.5 15.3315 15.5 15V12.5H25.5V15C25.5 15.3315 25.6317 15.6495 25.8661 15.8839C26.1005 16.1183 26.4185 16.25 26.75 16.25C27.0815 16.25 27.3995 16.1183 27.6339 15.8839C27.8683 15.6495 28 15.3315 28 15V12.5H34.25V31.25Z" fill="white"/>
</svg>
