<svg width="41" height="40" viewBox="0 0 41 40" fill="none" xmlns="http://www.w3.org/2000/svg">
<path d="M20.5 21.6666V21.6833M17.1667 26.6666V26.6833M23.8333 26.6666V26.6833M13 13.3333H28L27.5317 9.58663C27.4309 8.7803 27.0391 8.03855 26.4298 7.50083C25.8206 6.96311 25.0359 6.66645 24.2233 6.66663H16.7767C15.9638 6.66604 15.1787 6.96252 14.5691 7.50028C13.9595 8.03804 13.5675 8.78002 13.4667 9.58663L13 13.3333Z" stroke="white" stroke-width="2.5" stroke-linecap="round" stroke-linejoin="round"/>
<path d="M13.0001 13.3333L10.3135 29.4516C10.2338 29.9292 10.2592 30.4184 10.3878 30.8851C10.5163 31.3519 10.7451 31.7851 11.058 32.1545C11.371 32.524 11.7607 32.8208 12.2 33.0243C12.6393 33.2279 13.1176 33.3333 13.6018 33.3333H27.3985C27.8826 33.3333 28.361 33.2279 28.8003 33.0243C29.2396 32.8208 29.6293 32.524 29.9423 32.1545C30.2552 31.7851 30.4839 31.3519 30.6125 30.8851C30.7411 30.4184 30.7665 29.9292 30.6868 29.4516L28.0001 13.3333" stroke="white" stroke-width="2.5" stroke-linecap="round" stroke-linejoin="round"/>
</svg>
