<svg width="36" height="37" viewBox="0 0 36 37" fill="none" xmlns="http://www.w3.org/2000/svg">
<path d="M10.5002 0.62207H25.5002C31.2145 0.62207 35.8574 5.26493 35.8574 10.9792V25.9792C35.8574 28.7261 34.7662 31.3605 32.8238 33.3028C30.8815 35.2452 28.2471 36.3364 25.5002 36.3364H10.5002C4.78592 36.3364 0.143066 31.6935 0.143066 25.9792V10.9792C0.143066 8.23233 1.23426 5.59795 3.1766 3.65561C5.11894 1.71327 7.75332 0.62207 10.5002 0.62207ZM10.1431 4.1935C8.4381 4.1935 6.80297 4.87079 5.59738 6.07638C4.39179 7.28198 3.7145 8.91711 3.7145 10.6221V26.3364C3.7145 29.8899 6.5895 32.7649 10.1431 32.7649H25.8574C27.5623 32.7649 29.1975 32.0876 30.403 30.882C31.6086 29.6765 32.2859 28.0413 32.2859 26.3364V10.6221C32.2859 7.0685 29.4109 4.1935 25.8574 4.1935H10.1431ZM27.3752 6.87207C27.9672 6.87207 28.535 7.10724 28.9536 7.52585C29.3722 7.94446 29.6074 8.51221 29.6074 9.10421C29.6074 9.69621 29.3722 10.264 28.9536 10.6826C28.535 11.1012 27.9672 11.3364 27.3752 11.3364C26.7832 11.3364 26.2155 11.1012 25.7968 10.6826C25.3782 10.264 25.1431 9.69621 25.1431 9.10421C25.1431 8.51221 25.3782 7.94446 25.7968 7.52585C26.2155 7.10724 26.7832 6.87207 27.3752 6.87207ZM18.0002 9.55064C20.3682 9.55064 22.6392 10.4913 24.3137 12.1658C25.9881 13.8402 26.9288 16.1112 26.9288 18.4792C26.9288 20.8472 25.9881 23.1182 24.3137 24.7927C22.6392 26.4671 20.3682 27.4078 18.0002 27.4078C15.6322 27.4078 13.3612 26.4671 11.6868 24.7927C10.0123 23.1182 9.07164 20.8472 9.07164 18.4792C9.07164 16.1112 10.0123 13.8402 11.6868 12.1658C13.3612 10.4913 15.6322 9.55064 18.0002 9.55064ZM18.0002 13.1221C16.5794 13.1221 15.2168 13.6865 14.2121 14.6911C13.2075 15.6958 12.6431 17.0584 12.6431 18.4792C12.6431 19.9 13.2075 21.2626 14.2121 22.2673C15.2168 23.2719 16.5794 23.8364 18.0002 23.8364C19.421 23.8364 20.7836 23.2719 21.7883 22.2673C22.7929 21.2626 23.3574 19.9 23.3574 18.4792C23.3574 17.0584 22.7929 15.6958 21.7883 14.6911C20.7836 13.6865 19.421 13.1221 18.0002 13.1221Z" fill="white"/>
</svg>
