<svg width="28" height="33" viewBox="0 0 28 33" fill="none" xmlns="http://www.w3.org/2000/svg">
<path d="M21.963 5.68846C20.7799 4.32573 20.1279 2.57598 20.1281 0.764648H14.7791V22.4154C14.7387 23.5874 14.2486 24.6976 13.4121 25.512C12.5756 26.3264 11.4583 26.7812 10.2957 26.7805C7.8376 26.7805 5.79497 24.7551 5.79497 22.2408C5.79497 19.2377 8.66851 16.9853 11.6286 17.9107V12.3932C5.65648 11.59 0.428711 16.2694 0.428711 22.2408C0.428711 28.0551 5.20641 32.1932 10.2784 32.1932C15.7139 32.1932 20.1281 27.7408 20.1281 22.2408V11.2583C22.2971 12.8295 24.9012 13.6724 27.5716 13.6678V8.27259C27.5716 8.27259 24.3172 8.42973 21.963 5.68846Z" fill="white"/>
</svg>
