<svg width="32" height="23" viewBox="0 0 32 23" fill="none" xmlns="http://www.w3.org/2000/svg">
<path d="M12.8571 16.0708L21.0128 11.4789L12.8571 6.8871V16.0708ZM31.0228 4.08608C31.2271 4.80546 31.3685 5.76975 31.4628 6.99424C31.5728 8.21873 31.6199 9.27485 31.6199 10.1932L31.7142 11.4789C31.7142 14.831 31.4628 17.2953 31.0228 18.8718C30.6299 20.2493 29.7185 21.1371 28.3042 21.5197C27.5656 21.7187 26.2142 21.8565 24.1399 21.9483C22.0971 22.0555 20.2271 22.1014 18.4985 22.1014L15.9999 22.1932C9.41564 22.1932 5.31422 21.9483 3.69564 21.5197C2.28136 21.1371 1.36993 20.2493 0.977073 18.8718C0.772787 18.1524 0.631359 17.1881 0.537073 15.9636C0.427073 14.7391 0.37993 13.683 0.37993 12.7646L0.285645 11.4789C0.285645 8.12689 0.537073 5.66261 0.977073 4.08608C1.36993 2.70853 2.28136 1.82077 3.69564 1.43812C4.43422 1.23914 5.78564 1.10138 7.85993 1.00955C9.90279 0.902403 11.7728 0.856485 13.5014 0.856485L15.9999 0.764648C22.5842 0.764648 26.6856 1.00955 28.3042 1.43812C29.7185 1.82077 30.6299 2.70853 31.0228 4.08608Z" fill="white"/>
</svg>
